<?xml version="1.0" encoding="UTF-8"?>
<svg id="Layer_1" data-name="Layer 1" xmlns="http://www.w3.org/2000/svg" viewBox="0 0 128 128">
  <defs>
    <style>
      .cls-1 {
        fill: #ff7676;
      }
    </style>
  </defs>
  <path class="cls-1" d="M94.35,37.79c-9.26,0-17.41,4.83-22.07,12.1-.89,1.38-2.55,2.04-4.14,1.66-1.33-.31-2.71-.48-4.13-.48s-2.81.17-4.13.48c-1.6.38-3.26-.28-4.14-1.66-4.66-7.27-12.81-12.1-22.07-12.1-14.48,0-26.29,11.87-26.21,26.36.08,14.39,11.81,26.07,26.21,26.07,7.24,0,13.8-2.95,18.55-7.71,3.12-3.13,5.46-7.05,6.69-11.43.38-1.33.65-2.71.8-4.12s1.11-2.68,2.47-3.16c.58-.2,1.2-.32,1.84-.32s1.26.11,1.84.32c1.36.48,2.3,1.73,2.47,3.16s.43,2.79.8,4.12c1.23,4.38,3.57,8.3,6.69,11.43,4.75,4.76,11.31,7.71,18.55,7.71,14.41,0,26.13-11.68,26.21-26.07.08-14.48-11.73-26.36-26.21-26.36ZM33.65,77.8c-7.62,0-13.8-6.18-13.8-13.79s6.18-13.8,13.8-13.8c7.06,0,12.88,5.3,13.69,12.14.07.54.1,1.1.1,1.66,0,2.14-.49,4.16-1.35,5.96-2.22,4.63-6.96,7.83-12.44,7.83ZM94.35,77.8c-5.48,0-10.22-3.2-12.44-7.83-.87-1.8-1.35-3.83-1.35-5.96,0-.56.03-1.12.1-1.66.82-6.84,6.64-12.14,13.69-12.14,7.62,0,13.8,6.18,13.8,13.8s-6.18,13.79-13.8,13.79Z"/>
</svg>