<?xml version="1.0" encoding="UTF-8"?>
<svg id="Layer_1" data-name="Layer 1" xmlns="http://www.w3.org/2000/svg" viewBox="0 0 128 128">
  <defs>
    <style>
      .cls-1 {
        fill: #59eb5c;
      }
    </style>
  </defs>
  <path class="cls-1" d="M63.97,18.95c5.42,0,10.46,2.91,13.17,7.59,1.4,2.42,2.1,5.16,2.03,7.92l-.05,2.08c-.06,2.61,1.11,5.1,3.16,6.72l1.63,1.28c3.22,2.53,5.91,5.64,7.99,9.23,2.66,4.61,4.11,9.62,4.3,14.88l.1,2.71c.12,3.29,2.18,6.2,5.24,7.4l2.52.99c3.21,1.26,5.82,3.52,7.56,6.52,2.03,3.51,2.57,7.6,1.52,11.51-1.05,3.92-3.56,7.19-7.07,9.21-2.31,1.33-4.92,2.04-7.56,2.04-4.33,0-8.45-1.83-11.31-5.03l-1.81-2.02c-2.2-2.45-5.64-3.37-8.76-2.34l-2.58.85c-3.23,1.07-6.6,1.61-10.01,1.61s-6.84-.55-10.11-1.62l-2.57-.84c-3.12-1.03-6.55-.11-8.75,2.34l-1.81,2.01c-2.88,3.21-6.99,5.05-11.3,5.05-8.37,0-15.17-6.81-15.17-15.17,0-3.11.93-6.09,2.69-8.63,1.73-2.49,4.12-4.4,6.92-5.5l2.51-.99c3.05-1.2,5.11-4.1,5.23-7.38l.1-2.7c.37-9.5,4.84-18.29,12.27-24.11l1.63-1.28c2.05-1.61,3.23-4.09,3.17-6.7l-.05-2.07c-.13-5.56,2.78-10.74,7.59-13.52,2.31-1.33,4.92-2.04,7.56-2.04h0M63.97,6.54c-4.68,0-9.42,1.19-13.77,3.7-8.05,4.65-12.87,12.73-13.68,21.33-.19,2.05-1.13,3.98-2.65,5.37-7.86,7.17-12.74,16.81-14.11,27-.34,2.55-1.88,4.77-4.1,6.06-8.31,4.84-13.87,13.89-13.73,24.23.2,15.21,12.87,27.48,28.07,27.22,6.5-.11,12.44-2.47,17.1-6.33,1.99-1.65,4.63-2.25,7.15-1.68,3.2.72,6.49,1.09,9.79,1.09s6.5-.35,9.72-1.08c2.5-.56,5.13.02,7.11,1.65,4.98,4.13,11.26,6.36,17.65,6.36,4.68,0,9.42-1.19,13.77-3.7,13.2-7.62,17.72-24.49,10.1-37.69-2.51-4.35-6.03-7.76-10.09-10.1-2.23-1.29-3.7-3.56-4.05-6.11-.76-5.58-2.59-11.11-5.58-16.29-2.35-4.07-5.24-7.63-8.53-10.64-1.52-1.39-2.46-3.31-2.65-5.36-.35-3.84-1.53-7.68-3.58-11.24-5.11-8.85-14.39-13.8-23.92-13.8h0Z"/>
  <path class="cls-1" d="M67.78,76.4h-7.57c-1.83,0-2.97-1.98-2.06-3.56l3.78-6.55c.91-1.58,3.2-1.58,4.11,0l3.78,6.55c.91,1.58-.23,3.56-2.06,3.56ZM86.23,76.4l-15.06-26.09c-3.19-5.52-11.15-5.52-14.33,0l-15.06,26.09c-3.19,5.52.8,12.41,7.17,12.41h30.13c6.37,0,10.35-6.9,7.17-12.41Z"/>
</svg>