<?xml version="1.0" encoding="UTF-8"?>
<svg id="Layer_1" data-name="Layer 1" xmlns="http://www.w3.org/2000/svg" viewBox="0 0 128 128">
  <defs>
    <style>
      .cls-1 {
        fill: #ba64f2;
      }
    </style>
  </defs>
  <path class="cls-1" d="M64,1.92C29.71,1.92,1.92,29.71,1.92,64s27.79,62.08,62.08,62.08,62.08-27.79,62.08-62.08S98.29,1.92,64,1.92ZM57.1,107.38c0,3.12-2.95,5.41-5.96,4.61-8.34-2.22-15.99-6.61-22.26-12.88-1.45-1.45-2.79-2.96-4.03-4.55-2.88-3.67-5.19-7.68-6.92-11.94-2.36-5.84-3.6-12.14-3.6-18.63,0-4.34.55-8.59,1.62-12.67.8-3.04,4.27-4.48,6.99-2.91l17.16,9.91c2.01,1.16,3.21,3.32,3.2,5.64,0,.01,0,.02,0,.04,0,1.29.12,2.56.35,3.78.88,4.75,3.38,8.93,6.9,11.95,1,.86,2.09,1.62,3.25,2.28,2.03,1.15,3.3,3.3,3.3,5.64v19.74ZM46.79,46.25l-16.96-9.79c-2.73-1.57-3.22-5.31-.99-7.53l.04-.04c9.38-9.38,21.85-14.55,35.12-14.55s25.74,5.17,35.12,14.55l.04.04c2.18,2.18,1.7,5.83-.97,7.37l-17.12,9.89c-2.02,1.17-4.52,1.2-6.53,0-3.09-1.83-6.69-2.88-10.54-2.88s-7.52,1.07-10.63,2.94c-2.02,1.21-4.54,1.18-6.58,0ZM110.02,82.75c-1.73,4.25-4.06,8.26-6.95,11.92-1.22,1.55-2.54,3.03-3.95,4.44-6.27,6.27-13.91,10.66-22.26,12.88-3.01.8-5.96-1.49-5.96-4.61v-19.73c0-2.35,1.28-4.49,3.32-5.65,1.11-.63,2.15-1.36,3.12-2.18,3.55-2.99,6.07-7.16,6.98-11.9.25-1.27.37-2.58.37-3.92,0-.05,0-.11,0-.16-.02-2.34,1.2-4.52,3.23-5.69l17.09-9.87c2.72-1.57,6.18-.13,6.99,2.9,1.09,4.13,1.66,8.43,1.66,12.81,0,6.54-1.25,12.88-3.65,18.75Z"/>
</svg>