<?xml version="1.0" encoding="UTF-8"?>
<svg id="Layer_1" data-name="Layer 1" xmlns="http://www.w3.org/2000/svg" viewBox="0 0 128 128">
  <defs>
    <style>
      .cls-1 {
        fill: #59eb5c;
      }
    </style>
  </defs>
  <g>
    <rect class="cls-1" x="31.49" y="25.87" width="43.15" height="7.68" transform="translate(-5.46 46.23) rotate(-45)"/>
    <g>
      <rect class="cls-1" x="57.14" y="17.95" width="24.83" height="7.68" rx="3.84" ry="3.84" transform="translate(47.77 91.35) rotate(-90)"/>
      <rect class="cls-1" x="48.57" y="9.37" width="24.83" height="7.68" rx="3.84" ry="3.84" transform="translate(121.97 26.43) rotate(-180)"/>
    </g>
    <g>
      <rect class="cls-1" x="24" y="33.95" width="24.83" height="7.68" rx="3.84" ry="3.84" transform="translate(74.2 1.38) rotate(90)"/>
      <rect class="cls-1" x="32.57" y="42.52" width="24.83" height="7.68" rx="3.84" ry="3.84"/>
    </g>
    <line class="cls-1" x1="70.28" y1="22.31" x2="57.72" y2="10.15"/>
  </g>
  <g>
    <path class="cls-1" d="M29.35,114.16l8.33-21.37c.5-1.3.77-2.67.82-4.08.2-6.81-5.18-12.51-11.99-12.71-3.3-.1-6.44,1.1-8.84,3.36-2.4,2.27-3.77,5.33-3.87,8.63-.04,1.41.15,2.8.58,4.13l7.04,21.7.36,1.11c.46,1.58,1.88,2.67,3.52,2.72,1.65.05,3.12-.96,3.68-2.51l.38-.98Z"/>
    <circle class="cls-1" cx="26.2" cy="63.85" r="6.9"/>
  </g>
  <g>
    <path class="cls-1" d="M94.35,57.7h0c.13,0,.25,0,.38,0,3.34.1,6.45,1.5,8.75,3.94,2.3,2.44,3.52,5.63,3.42,8.96-.04,1.44-.32,2.83-.82,4.14l-10.39,26.64c-.81,2.08-3.78,1.99-4.47-.13l-8.82-27.2c-.43-1.33-.62-2.74-.58-4.17.1-3.35,1.49-6.46,3.93-8.76,2.34-2.21,5.39-3.42,8.6-3.42M94.35,50.25c-5.12,0-9.97,1.92-13.71,5.45-3.88,3.67-6.11,8.62-6.26,13.96-.07,2.28.25,4.53.94,6.68l11.39,35.11.58,1.8c.75,2.55,3.04,4.32,5.7,4.4.06,0,.12,0,.18,0,2.59,0,4.89-1.61,5.77-4.06l.62-1.59,13.48-34.57c.81-2.1,1.25-4.33,1.32-6.61.32-11.02-8.39-20.25-19.41-20.57-.2,0-.4,0-.6,0h0Z"/>
    <path class="cls-1" d="M94.46,26.89c2.05,0,3.71,1.66,3.71,3.71s-1.66,3.71-3.71,3.71-3.71-1.66-3.71-3.71,1.66-3.71,3.71-3.71M94.46,19.44c-6.16,0-11.16,5-11.16,11.16s5,11.16,11.16,11.16,11.16-5,11.16-11.16-5-11.16-11.16-11.16h0Z"/>
  </g>
</svg>