<?xml version="1.0" encoding="UTF-8"?>
<svg id="Layer_1" data-name="Layer 1" xmlns="http://www.w3.org/2000/svg" viewBox="0 0 128 128">
  <defs>
    <style>
      .cls-1 {
        fill: #ba64f2;
      }
    </style>
  </defs>
  <g>
    <path class="cls-1" d="M111.28,57.6v21.74c0,2.12-1.72,3.84-3.84,3.84h-17.9c-2.12,0-3.84-1.72-3.84-3.84v-21.74h25.58Z"/>
    <path class="cls-1" d="M98.49,44.82c-7.06,0-12.79,5.73-12.79,12.79h5.89c0-1.17.3-2.36.92-3.45,1.91-3.3,6.12-4.43,9.42-2.53,2.21,1.28,3.45,3.59,3.45,5.97h5.89c0-7.06-5.73-12.79-12.79-12.79Z"/>
    <rect class="cls-1" x="105.39" y="57.6" width="5.89" height="20.56"/>
    <rect class="cls-1" x="85.7" y="57.6" width="5.89" height="20.56"/>
  </g>
  <g>
    <path class="cls-1" d="M23.62,104.93h41.39c3.81,0,6.9-3.09,6.9-6.9V29.97c0-3.81-3.09-6.9-6.9-6.9H23.62c-3.81,0-6.9,3.09-6.9,6.9v68.06c0,3.81,3.09,6.9,6.9,6.9ZM64.45,34.36v59.28c0,2.12-1.72,3.84-3.84,3.84H28.01c-2.12,0-3.84-1.72-3.84-3.84v-59.28c0-2.12,1.72-3.84,3.84-3.84h32.6c2.12,0,3.84,1.72,3.84,3.84Z"/>
    <circle class="cls-1" cx="44.31" cy="87.45" r="6.9"/>
  </g>
</svg>