<?xml version="1.0" encoding="UTF-8"?>
<svg id="Layer_1" data-name="Layer 1" xmlns="http://www.w3.org/2000/svg" viewBox="0 0 128 128">
  <defs>
    <style>
      .cls-1 {
        fill: #ff7676;
      }
    </style>
  </defs>
  <path class="cls-1" d="M108.84,43.24l-7.02,74.5c-.32,3.55-3.31,6.28-6.87,6.28h-61.91c-3.56,0-6.55-2.73-6.87-6.28l-7.02-74.5c-.37-4.04,2.81-7.53,6.88-7.53h75.93c4.06,0,7.25,3.49,6.88,7.53Z"/>
  <path class="cls-1" d="M115.77,22.49c.04,1.76-.67,3.37-1.82,4.52-1.12,1.12-2.67,1.82-4.39,1.82H18.58c-3.41,0-6.29-2.69-6.35-6.09-.03-1.76.67-3.36,1.82-4.51,1.12-1.12,2.67-1.82,4.39-1.82h20.05c2.12,0,3.84-1.72,3.84-3.84v-1.68c0-3.81,3.09-6.9,6.9-6.9h27.94c3.81,0,6.9,3.09,6.9,6.9v1.68c0,2.12,1.72,3.84,3.84,3.84h21.51c3.4,0,6.28,2.68,6.35,6.08Z"/>
</svg>