<?xml version="1.0" encoding="UTF-8"?>
<svg id="Layer_1" data-name="Layer 1" xmlns="http://www.w3.org/2000/svg" viewBox="0 0 128 128">
  <defs>
    <style>
      .cls-1 {
        fill: #61d1fa;
      }
    </style>
  </defs>
  <path class="cls-1" d="M86.89,49.89c-2.2-3.56-5.21-6.58-8.78-8.78-4.1-2.54-8.94-4.01-14.11-4.01s-10.01,1.47-14.11,4.01c-3.56,2.2-6.58,5.21-8.78,8.78-2.54,4.1-4.01,8.94-4.01,14.11s1.47,10.01,4.01,14.11c2.2,3.56,5.21,6.58,8.78,8.78,4.1,2.54,8.94,4.01,14.11,4.01s10.01-1.47,14.11-4.01c3.56-2.2,6.58-5.21,8.78-8.78,2.54-4.1,4.01-8.94,4.01-14.11s-1.47-10.01-4.01-14.11ZM68.86,77.64c-1.52.55-3.16.84-4.86.84s-3.34-.3-4.86-.84c-4.08-1.46-7.32-4.7-8.78-8.78-.55-1.52-.84-3.16-.84-4.86s.3-3.34.84-4.86c1.46-4.08,4.7-7.32,8.78-8.78,1.52-.55,3.16-.84,4.86-.84s3.34.3,4.86.84c4.08,1.46,7.32,4.7,8.78,8.78.55,1.52.84,3.16.84,4.86s-.3,3.34-.84,4.86c-1.46,4.08-4.7,7.32-8.78,8.78Z"/>
  <path class="cls-1" d="M106.77,1.92c-10.65,0-19.31,8.66-19.31,19.31,0,3.06.72,5.96,1.99,8.54,1.88,3.8,4.98,6.9,8.78,8.78,2.58,1.28,5.48,1.99,8.54,1.99,10.65,0,19.31-8.67,19.31-19.31S117.42,1.92,106.77,1.92ZM106.77,28.13c-3.81,0-6.9-3.09-6.9-6.9s3.09-6.9,6.9-6.9,6.9,3.09,6.9,6.9-3.09,6.9-6.9,6.9Z"/>
  <path class="cls-1" d="M38.55,98.22c-1.88-3.8-4.98-6.9-8.78-8.78-2.58-1.28-5.48-1.99-8.54-1.99-10.65,0-19.31,8.67-19.31,19.31s8.66,19.31,19.31,19.31,19.31-8.66,19.31-19.31c0-3.06-.72-5.96-1.99-8.54ZM21.23,113.66c-3.81,0-6.9-3.09-6.9-6.9s3.09-6.9,6.9-6.9,6.9,3.09,6.9,6.9-3.09,6.9-6.9,6.9Z"/>
  <path class="cls-1" d="M59.14,77.64l-9.25,9.25-11.33,11.33-3.28,3.28-8.78-8.78,3.28-3.28,11.33-11.33,9.25-9.25c1.46,4.08,4.7,7.32,8.78,8.78Z"/>
  <path class="cls-1" d="M101.5,35.28l-3.28,3.28-11.33,11.33-9.25,9.25c-1.46-4.08-4.7-7.32-8.78-8.78l9.25-9.25,11.33-11.33,3.28-3.28,8.78,8.78Z"/>
  <path class="cls-1" d="M21.23,1.92C10.58,1.92,1.92,10.58,1.92,21.23s8.66,19.31,19.31,19.31c3.06,0,5.96-.72,8.54-1.99,3.8-1.88,6.9-4.98,8.78-8.78,1.28-2.58,1.99-5.48,1.99-8.54C40.55,10.58,31.88,1.92,21.23,1.92ZM21.23,28.13c-3.81,0-6.9-3.09-6.9-6.9s3.09-6.9,6.9-6.9,6.9,3.09,6.9,6.9-3.09,6.9-6.9,6.9Z"/>
  <path class="cls-1" d="M106.77,87.45c-3.06,0-5.96.72-8.54,1.99-3.8,1.88-6.9,4.98-8.78,8.78-1.28,2.58-1.99,5.48-1.99,8.54,0,10.65,8.67,19.31,19.31,19.31s19.31-8.66,19.31-19.31-8.66-19.31-19.31-19.31ZM106.77,113.66c-3.81,0-6.9-3.09-6.9-6.9s3.09-6.9,6.9-6.9,6.9,3.09,6.9,6.9-3.09,6.9-6.9,6.9Z"/>
  <path class="cls-1" d="M49.89,41.11l9.25,9.25c-4.08,1.46-7.32,4.7-8.78,8.78l-9.25-9.25-11.33-11.33-3.28-3.28,8.78-8.78,3.28,3.28,11.33,11.33Z"/>
  <path class="cls-1" d="M101.5,92.72l-8.78,8.78-3.28-3.28-11.33-11.33-9.25-9.25c4.08-1.46,7.32-4.7,8.78-8.78l9.25,9.25,11.33,11.33,3.28,3.28Z"/>
</svg>