<?xml version="1.0" encoding="UTF-8"?>
<svg id="Layer_1" data-name="Layer 1" xmlns="http://www.w3.org/2000/svg" viewBox="0 0 128 128">
  <defs>
    <style>
      .cls-1 {
        fill: #ff7676;
      }
    </style>
  </defs>
  <path class="cls-1" d="M99.9,39.17l-2.27,6.56-5.31,15.32c-.39,1.13-1.54,1.78-2.71,1.56l-15.86-3.05h0s-6.81-1.31-6.81-1.31l-.07-.02c-2.16-.42-2.65-3.3-.74-4.4l3.23-1.86-5.36-9.3-4.74,8.21c-.66,1.14-2.11,1.53-3.26.87l-9.88-5.7-9.87-5.7c-1.14-.66-1.53-2.12-.87-3.26l2.74-4.76,3.99-6.9,5.28-9.16c.43-.74,1.21-1.19,2.07-1.19h29.11c.85,0,1.64.46,2.07,1.19l5.28,9.16,7.37,12.76,3.18-1.84c1.91-1.11,4.17.76,3.44,2.84Z"/>
  <path class="cls-1" d="M51.97,90.94v13.79c0,3.81-3.08,6.91-6.9,6.91h-16.92c-2.46,0-4.74-1.32-5.97-3.45l-12.82-22.22c-.69-1.18-.69-2.65,0-3.84l4.86-8.42,7.36-12.76-3.18-1.84c-1.91-1.11-1.43-3.99.74-4.4l6.81-1.31,15.9-3.07c1.16-.22,2.31.45,2.7,1.56l5.33,15.26h0l2.28,6.55.02.07c.72,2.09-1.53,3.95-3.44,2.84l-3.23-1.86-5.37,9.3h4.97c3.81,0,6.9,3.09,6.9,6.9Z"/>
  <path class="cls-1" d="M118.64,86.07l-13.72,23.75c-.68,1.19-1.95,1.92-3.32,1.92h-24.46v3.68c0,2.21-2.74,3.23-4.18,1.56l-4.54-5.24-10.6-12.23c-.77-.9-.78-2.22,0-3.12l10.55-12.23h0l4.53-5.25.05-.05c1.45-1.67,4.18-.64,4.18,1.56v3.73h10.75l-4.02-6.95c-1.06-1.83-.43-4.18,1.41-5.24l17.25-9.96c1.83-1.06,4.18-.43,5.25,1.41l10.86,18.83c.69,1.18.69,2.65,0,3.84Z"/>
</svg>