<?xml version="1.0" encoding="UTF-8"?>
<svg id="Layer_1" data-name="Layer 1" xmlns="http://www.w3.org/2000/svg" viewBox="0 0 128 128">
  <defs>
    <style>
      .cls-1 {
        fill: #e69e50;
      }
    </style>
  </defs>
  <path class="cls-1" d="M88,48.34h0c19.04,0,34.49,15.46,34.49,34.49v22.14c0,11.42-9.27,20.69-20.69,20.69h0c-11.42,0-20.69-9.27-20.69-20.69v-49.74c0-3.81,3.09-6.9,6.9-6.9Z" transform="translate(-7.2 9.2) rotate(-5)"/>
  <path class="cls-1" d="M26.2,48.34h0c11.42,0,20.69,9.27,20.69,20.69v22.14c0,19.04-15.46,34.49-34.49,34.49h0c-3.81,0-6.9-3.09-6.9-6.9v-49.74c0-11.42,9.27-20.69,20.69-20.69Z" transform="translate(44.73 175.95) rotate(-175)"/>
  <path class="cls-1" d="M86.81,2.4c-7.21.07-14.17,2.94-19.32,7.99-5.42,5.31-8.4,12.42-8.4,20h9.93c0-9.98,8.09-18.06,18.06-18.06,3.56,0,6.88,1.03,9.68,2.81,1.98,1.26,4.55,1.02,6.2-.64l.04-.04c2.21-2.21,1.85-5.92-.78-7.62-4.55-2.94-9.86-4.49-15.42-4.44Z"/>
  <path class="cls-1" d="M25.77,6.84c-2.63,1.7-2.99,5.41-.78,7.62l.04.04c1.66,1.66,4.23,1.9,6.2.64,2.8-1.78,6.12-2.81,9.68-2.81,9.97,0,18.06,8.08,18.06,18.06h9.93c0-7.57-2.99-14.69-8.4-20-5.15-5.05-12.1-7.92-19.32-7.99-5.55-.05-10.87,1.5-15.42,4.44Z"/>
  <g>
    <circle class="cls-1" cx="64" cy="104.25" r="6.9"/>
    <path class="cls-1" d="M75.15,37.41c.1,2.21-.45,4.28-1.46,6.05-1.77,3.08-2.79,6.53-2.79,10.08v50.71h-13.8v-50.41c0-3.59-.87-7.16-2.71-10.24-.99-1.67-1.55-3.61-1.55-5.69,0-6.18,5.03-11.19,11.21-11.16s10.83,4.75,11.09,10.66Z"/>
  </g>
</svg>