<?xml version="1.0" encoding="UTF-8"?>
<svg id="Layer_1" data-name="Layer 1" xmlns="http://www.w3.org/2000/svg" viewBox="0 0 128 128">
  <defs>
    <style>
      .cls-1 {
        fill: #ba64f2;
      }
    </style>
  </defs>
  <path class="cls-1" d="M73.05,28.05v71.91c0,4.97-5.23,8.21-9.68,5.99l-29.89-14.94c-1.43-.71-2.33-2.17-2.33-3.77v-46.45c0-1.6.9-3.06,2.33-3.77l29.89-14.94c4.45-2.22,9.68,1.01,9.68,5.98Z"/>
  <path class="cls-1" d="M97.08,62.24c0-6.24-1.98-12.01-5.35-16.72-1.46-2.05-4.43-2.26-6.21-.48h0c-1.4,1.4-1.62,3.63-.47,5.24,2.42,3.37,3.84,7.51,3.84,11.96s-1.42,8.59-3.84,11.96c-1.16,1.61-.94,3.84.47,5.24h0c1.78,1.78,4.75,1.56,6.21-.48,3.37-4.71,5.35-10.48,5.35-16.72Z"/>
  <path class="cls-1" d="M97.37,91.31c1.72,1.72,4.54,1.56,6.08-.32,6.41-7.83,10.26-17.84,10.26-28.75s-3.85-20.92-10.26-28.75c-1.54-1.88-4.36-2.04-6.08-.32h0c-1.49,1.49-1.6,3.87-.27,5.49,5.45,6.63,8.41,14.88,8.41,23.57s-2.96,16.94-8.41,23.57c-1.34,1.63-1.22,4,.27,5.49h0Z"/>
  <rect class="cls-1" x="14.29" y="42.12" width="8.43" height="43.49" rx="4.22" ry="4.22"/>
</svg>