<?xml version="1.0" encoding="UTF-8"?>
<svg id="Layer_1" data-name="Layer 1" xmlns="http://www.w3.org/2000/svg" viewBox="0 0 128 128">
  <defs>
    <style>
      .cls-1 {
        fill: #e1e1e0;
      }
    </style>
  </defs>
  <path class="cls-1" d="M106.77,80.26v41.98c0,.09,0,.17,0,.26,0,.99-.4,1.88-1.05,2.53s-1.54,1.05-2.53,1.05H24.8c-1.98,0-3.58-1.6-3.58-3.58v-8.84h0v-33.41c0-2.12,1.72-3.84,3.84-3.84h4.73c2.12,0,3.84,1.72,3.84,3.84v29.57c0,2.12,1.72,3.84,3.84,3.84h14.09v-18.3c0-3.81,3.08-6.9,6.9-6.9h11.04c3.81,0,6.9,3.08,6.9,6.9v18.3h14.09c2.12,0,3.84-1.72,3.84-3.84v-29.57c0-2.12,1.72-3.84,3.84-3.84h4.73c2.12,0,3.84,1.72,3.84,3.84Z"/>
  <path class="cls-1" d="M122.41,54.81L68.63,6.11c-1.31-1.19-2.97-1.78-4.63-1.78s-3.32.59-4.63,1.78L5.57,54.82c-1.44,1.51-1.87,3.71-1.13,5.66v.02c.8,2.11,2.81,3.5,5.07,3.5h108.99c1.13,0,2.2-.35,3.09-.96.89-.61,1.59-1.49,1.99-2.54.74-1.96.3-4.17-1.15-5.68ZM64.9,19.49l32.83,29.73c.92.83.33,2.36-.91,2.36H31.15c-1.24,0-1.83-1.53-.91-2.36l32.84-29.73c.52-.47,1.3-.47,1.82,0Z"/>
</svg>