<?xml version="1.0" encoding="UTF-8"?>
<svg id="Layer_1" data-name="Layer 1" xmlns="http://www.w3.org/2000/svg" viewBox="0 0 128 128">
  <defs>
    <style>
      .cls-1, .cls-2 {
        fill: #ff7676;
      }

      .cls-2 {
        fill-rule: evenodd;
      }
    </style>
  </defs>
  <rect class="cls-1" x="8.25" y="69.15" width="51.16" height="51.16" rx="6.9" ry="6.9" transform="translate(67.65 189.45) rotate(180)"/>
  <path class="cls-1" d="M78.44,38.35h-4.74c-2.12,0-3.84,1.72-3.84,3.84v9.76c0,3.81,3.09,6.9,6.9,6.9h9.76c2.12,0,3.84-1.72,3.84-3.84v-4.74c0-2.12-1.72-3.84-3.84-3.84h-.4c-2.12,0-3.84-1.72-3.84-3.84v-.4c0-2.12-1.72-3.84-3.84-3.84ZM69.86,14.59v9.76c0,2.12,1.72,3.84,3.84,3.84h4.74c2.12,0,3.84-1.72,3.84-3.84v-.41c0-2.12,1.72-3.84,3.84-3.84h.4c2.12,0,3.84-1.72,3.84-3.84v-4.74c0-2.12-1.72-3.84-3.84-3.84h-9.76c-3.81,0-6.9,3.09-6.9,6.9ZM104.77,46.44h-.41c-2.12,0-3.84,1.72-3.84,3.84v4.74c0,2.12,1.72,3.84,3.84,3.84h9.76c3.81,0,6.9-3.09,6.9-6.9v-9.76c0-2.12-1.72-3.84-3.84-3.84h-4.74c-2.12,0-3.84,1.72-3.84,3.84v.4c0,2.12-1.72,3.84-3.84,3.84ZM100.52,11.54v4.74c0,2.12,1.72,3.84,3.84,3.84h.41c2.12,0,3.84,1.72,3.84,3.84v.41c0,2.12,1.72,3.84,3.84,3.84h4.74c2.12,0,3.84-1.72,3.84-3.84v-9.76c0-3.81-3.09-6.9-6.9-6.9h-9.76c-2.12,0-3.84,1.72-3.84,3.84Z"/>
  <path class="cls-2" d="M33.47,58.99H13.89c-5.31,0-8.63-5.75-5.97-10.35l9.79-16.96,9.79-16.96c2.66-4.6,9.29-4.6,11.95,0l9.79,16.96,9.79,16.96c2.66,4.6-.66,10.35-5.97,10.35h-19.58Z"/>
  <circle class="cls-1" cx="95.14" cy="94.72" r="25.58"/>
</svg>