<?xml version="1.0" encoding="UTF-8"?>
<svg id="Layer_1" data-name="Layer 1" xmlns="http://www.w3.org/2000/svg" viewBox="0 0 128 128">
  <defs>
    <style>
      .cls-1 {
        fill: #e1e1e0;
      }
    </style>
  </defs>
  <path class="cls-1" d="M103.27,24.73h0c-2.24,2.24-2.43,5.81-.44,8.28,7.03,8.77,10.84,19.58,10.84,30.98s-3.81,22.21-10.84,30.98c-1.98,2.47-1.8,6.04.44,8.28h0c2.6,2.6,6.91,2.4,9.21-.48,8.51-10.63,13.61-24.11,13.61-38.79s-5.09-28.16-13.61-38.79c-2.3-2.87-6.61-3.08-9.21-.48ZM24.73,24.73c-2.6-2.6-6.91-2.4-9.21.48C7.01,35.84,1.92,49.32,1.92,64s5.09,28.16,13.61,38.79c2.3,2.87,6.61,3.08,9.21.48h0c2.24-2.24,2.43-5.81.44-8.28-7.03-8.77-10.84-19.58-10.84-30.98s3.81-22.21,10.84-30.98c1.98-2.47,1.8-6.04-.44-8.28h0Z"/>
  <path class="cls-1" d="M86.31,41.69h0c-2.08,2.09-2.45,5.37-.8,7.81,2.8,4.14,4.44,9.13,4.44,14.5s-1.64,10.36-4.44,14.5c-1.65,2.44-1.29,5.73.8,7.81h0c2.74,2.74,7.33,2.35,9.5-.86,4.14-6.12,6.55-13.51,6.55-21.45s-2.42-15.33-6.55-21.45c-2.17-3.21-6.76-3.6-9.5-.86ZM41.69,41.69c-2.74-2.74-7.33-2.35-9.5.86-4.14,6.12-6.55,13.51-6.55,21.45s2.42,15.33,6.55,21.45c2.17,3.21,6.76,3.6,9.5.86h0c2.08-2.09,2.45-5.37.8-7.81-2.8-4.14-4.44-9.13-4.44-14.5s1.64-10.36,4.44-14.5c1.65-2.44,1.29-5.73-.8-7.81h0Z"/>
  <circle class="cls-1" cx="64" cy="64" r="13.8"/>
</svg>