<?xml version="1.0" encoding="UTF-8"?>
<svg id="Layer_1" data-name="Layer 1" xmlns="http://www.w3.org/2000/svg" viewBox="0 0 128 128">
  <defs>
    <style>
      .cls-1 {
        fill: #f8f770;
      }
    </style>
  </defs>
  <g>
    <g>
      <rect class="cls-1" x="42.18" y="104.35" width="81.86" height="7.68"/>
      <rect class="cls-1" x="42.18" y="88.99" width="81.86" height="7.68"/>
      <rect class="cls-1" x="42.18" y="73.63" width="81.86" height="7.68"/>
      <rect class="cls-1" x="42.18" y="58.27" width="81.86" height="7.68"/>
    </g>
    <path class="cls-1" d="M117.14,44.22H49.07c-3.81,0-6.9,3.09-6.9,6.9v68.06c0,3.81,3.09,6.9,6.9,6.9h68.06c3.81,0,6.9-3.09,6.9-6.9V51.12c0-3.81-3.09-6.9-6.9-6.9ZM116.59,114.79c0,2.12-1.72,3.84-3.84,3.84h-59.28c-2.12,0-3.84-1.72-3.84-3.84v-59.28c0-2.12,1.72-3.84,3.84-3.84h59.28c2.12,0,3.84,1.72,3.84,3.84v59.28Z"/>
    <rect class="cls-1" x="45.67" y="47.13" width="37.44" height="76.04"/>
  </g>
  <g>
    <g>
      <rect class="cls-1" x="3.96" y="62.05" width="81.86" height="7.68"/>
      <rect class="cls-1" x="3.96" y="46.69" width="81.86" height="7.68"/>
      <rect class="cls-1" x="3.96" y="31.33" width="81.86" height="7.68"/>
      <rect class="cls-1" x="3.96" y="15.97" width="81.86" height="7.68"/>
    </g>
    <path class="cls-1" d="M78.93,1.92H10.86c-3.81,0-6.9,3.09-6.9,6.9v68.06c0,3.81,3.09,6.9,6.9,6.9h68.06c3.81,0,6.9-3.09,6.9-6.9V8.82c0-3.81-3.09-6.9-6.9-6.9ZM78.37,72.49c0,2.12-1.72,3.84-3.84,3.84H15.25c-2.12,0-3.84-1.72-3.84-3.84V13.21c0-2.12,1.72-3.84,3.84-3.84h59.28c2.12,0,3.84,1.72,3.84,3.84v59.28Z"/>
    <rect class="cls-1" x="7.46" y="4.83" width="37.44" height="76.04"/>
  </g>
</svg>