<?xml version="1.0" encoding="UTF-8"?>
<svg id="Layer_1" data-name="Layer 1" xmlns="http://www.w3.org/2000/svg" viewBox="0 0 128 128">
  <defs>
    <style>
      .cls-1 {
        fill: #ff7676;
      }
    </style>
  </defs>
  <g>
    <path class="cls-1" d="M122.81,44.92h-39.73s0-39.73,0-39.73c10.61,0,20.59,4.13,28.09,11.64,7.5,7.5,11.64,17.48,11.64,28.09Z"/>
    <path class="cls-1" d="M83.08,44.92v39.73c-10.61,0-20.59-4.13-28.09-11.64-7.5-7.5-11.64-17.48-11.64-28.09h39.73Z"/>
    <path class="cls-1" d="M83.08,12.89c8.56,0,16.6,3.33,22.65,9.38,6.05,6.05,9.38,14.09,9.38,22.65,0,8.56-3.33,16.6-9.38,22.65-6.05,6.05-14.09,9.38-22.65,9.38s-16.6-3.33-22.65-9.38c-6.05-6.05-9.38-14.09-9.38-22.65,0-8.56,3.33-16.6,9.38-22.65,6.05-6.05,14.09-9.38,22.65-9.38M83.08,5.19c-21.94,0-39.73,17.79-39.73,39.73,0,21.94,17.79,39.73,39.73,39.73,21.94,0,39.73-17.79,39.73-39.73,0-21.94-17.79-39.73-39.73-39.73h0Z"/>
  </g>
  <g>
    <rect class="cls-1" x="34.65" y="100.15" width="41.39" height="12.42" rx="6.21" ry="6.21" transform="translate(-59 70.28) rotate(-45)"/>
    <rect class="cls-1" x=".95" y="66.45" width="41.39" height="12.42" rx="6.21" ry="6.21" transform="translate(-45.04 36.58) rotate(-45)"/>
    <rect class="cls-1" x="1.75" y="93.35" width="55.18" height="12.42" rx="6.21" ry="6.21" transform="translate(-61.8 49.91) rotate(-45)"/>
  </g>
</svg>