<?xml version="1.0" encoding="UTF-8"?>
<svg id="Layer_1" data-name="Layer 1" xmlns="http://www.w3.org/2000/svg" viewBox="0 0 128 128">
  <defs>
    <style>
      .cls-1 {
        fill: #e1e1e0;
      }

      .cls-2 {
        fill: #59eb5c;
      }
    </style>
  </defs>
  <path class="cls-1" d="M40.41,54.64c3.95,3.95,6.13,9.21,6.13,14.8,0,2.39-.4,4.73-1.18,6.96l-12.61,35.36h-.04s-.38,1.17-.38,1.17c-.95,2.92-3.64,4.88-6.72,4.87-3.07,0-5.77-1.96-6.72-4.87l-.3-.93h-.03s-12.7-35.6-12.7-35.6c-.79-2.23-1.19-4.57-1.19-6.96,0-5.59,2.18-10.85,6.13-14.8,3.95-3.95,9.21-6.13,14.8-6.13,5.59,0,10.85,2.18,14.8,6.13Z"/>
  <circle class="cls-1" cx="25.61" cy="29.51" r="13.8"/>
  <g>
    <rect class="cls-2" x="71.03" y="58.33" width="16.55" height="60.96" rx="8.28" ry="8.28" transform="translate(-9.5 168.11) rotate(-90)"/>
    <g>
      <path class="cls-2" d="M109.19,82.98c1.31-1.31,2.96-2.09,4.66-2.34h0s.85-.08.85-.08c2.23-.09,4.49.71,6.19,2.42,1.7,1.7,2.51,3.96,2.42,6.19l-.08.85h0c-.25,1.71-1.03,3.35-2.34,4.67-3.23,3.23-8.47,3.23-11.71,0-3.23-3.23-3.23-8.47,0-11.71Z"/>
      <path class="cls-2" d="M86.44,60.23c1.31-1.31,2.96-2.09,4.66-2.34h0s.85-.08.85-.08c2.23-.09,4.49.71,6.19,2.42,1.7,1.7,2.51,3.96,2.42,6.19l-.08.85h0c-.25,1.71-1.03,3.35-2.34,4.67-3.23,3.23-8.47,3.23-11.71,0s-3.23-8.47,0-11.71Z"/>
      <rect class="cls-2" x="87.59" y="69.18" width="32.17" height="16.55" transform="translate(122.21 205.54) rotate(-135)"/>
    </g>
    <g>
      <path class="cls-2" d="M98.15,105.73c-1.31-1.31-2.96-2.09-4.66-2.34h0s-.85-.08-.85-.08c-2.23-.09-4.49.71-6.19,2.42-1.7,1.7-2.51,3.96-2.42,6.19l.08.85h0c.25,1.71,1.03,3.35,2.34,4.67,3.23,3.23,8.47,3.23,11.71,0s3.23-8.47,0-11.71Z"/>
      <path class="cls-2" d="M120.9,82.98c-1.31-1.31-2.96-2.09-4.66-2.34h0s-.85-.08-.85-.08c-2.23-.09-4.49.71-6.19,2.42-1.7,1.7-2.51,3.96-2.42,6.19l.08.85h0c.25,1.71,1.03,3.35,2.34,4.67,3.23,3.23,8.47,3.23,11.71,0,3.23-3.23,3.23-8.47,0-11.71Z"/>
      <rect class="cls-2" x="87.58" y="91.93" width="32.17" height="16.55" transform="translate(-40.49 102.65) rotate(-45)"/>
    </g>
  </g>
</svg>