<?xml version="1.0" encoding="UTF-8"?>
<svg id="Layer_1" data-name="Layer 1" xmlns="http://www.w3.org/2000/svg" viewBox="0 0 128 128">
  <defs>
    <style>
      .cls-1 {
        fill: #492f64;
      }
    </style>
  </defs>
  <g>
    <path class="cls-1" d="M114.72,41.61c0,11.99-5.35,22.76-13.78,30.04-7.79,6.73-12.06,16.57-11.81,26.86,0,.22,0,.44,0,.67,0,14.83-12.07,26.9-26.91,26.9-.35,0-.71,0-1.06-.02-11.18-.43-20.67-7.78-24.27-17.86-1.41-3.94,1.45-8.1,5.62-8.26,2.71-.1,5.16,1.57,6.08,4.12,1.95,5.41,7.05,9.36,13.05,9.59.19,0,.39,0,.58,0,7.99,0,14.49-6.5,14.49-14.48,0-.13,0-.25,0-.38-.34-14.09,5.53-27.41,16.1-36.55,6.03-5.2,9.48-12.73,9.48-20.65,0-7.21-2.8-14.01-7.88-19.15-5.08-5.14-11.84-8.03-19.03-8.12-.12,0-.24,0-.35,0-13.11,0-24.19,9.42-26.73,21.84-.59,2.89-3.14,4.96-6.08,4.96h-.09c-3.9-.05-6.78-3.66-5.99-7.48C39.85,15.57,55.97,1.92,75.03,1.92h0c.17,0,.33,0,.5,0,21.65.28,39.17,17.98,39.17,39.69Z"/>
    <path class="cls-1" d="M69.46,22.02c-3.4.91-6.61,2.69-9.27,5.36-3.09,3.09-5,6.91-5.72,10.91-.82,4.48,3.31,8.29,7.71,7.11h.01c2.3-.62,4.07-2.49,4.49-4.84.28-1.61,1.05-3.16,2.29-4.4,1.06-1.06,2.35-1.78,3.71-2.14,2.76-.74,5.83-.02,7.99,2.14,1.06,1.06,1.78,2.35,2.14,3.71.74,2.76.02,5.83-2.14,7.99-.18.18-.36.34-.55.5-1.82,1.52-2.53,4-1.91,6.29h0c1.18,4.42,6.57,6.07,10.04,3.1.41-.35.81-.72,1.2-1.11,5.42-5.42,7.2-13.09,5.36-19.99-.91-3.4-2.69-6.61-5.36-9.27-5.42-5.42-13.09-7.2-19.99-5.36Z"/>
  </g>
  <rect class="cls-1" x="57.67" y="6.51" width="12.42" height="137.96" rx="6.21" ry="6.21" transform="translate(-34.67 67.28) rotate(-45)"/>
</svg>