<?xml version="1.0" encoding="UTF-8"?>
<svg id="Layer_1" data-name="Layer 1" xmlns="http://www.w3.org/2000/svg" viewBox="0 0 128 128">
  <defs>
    <style>
      .cls-1 {
        fill: #fff;
      }

      .cls-2 {
        fill: #231f20;
      }
    </style>
  </defs>
  <rect class="cls-2" x="1.92" y="1.92" width="124.16" height="124.16"/>
  <rect width="128" height="128"/>
  <g>
    <path class="cls-1" d="M77.52,31.53l11.29,11.29c1.29,1.29,2.02,3.05,2.02,4.88v32.61c0,1.83-.73,3.58-2.02,4.88l-11.29,11.29c-1.29,1.29-3.05,2.02-4.88,2.02h-17.28c-1.83,0-3.58-.73-4.88-2.02l-11.29-11.29c-1.29-1.29-2.02-3.05-2.02-4.88v-32.61c0-1.83.73-3.58,2.02-4.88l11.29-11.29c1.29-1.29,3.05-2.02,4.88-2.02h17.28c1.83,0,3.58.73,4.88,2.02Z"/>
    <path class="cls-1" d="M81.84,1.92h-35.67c-1.83,0-3.58.73-4.88,2.02l-23.55,23.55c-1.29,1.29-2.02,3.05-2.02,4.88v63.26c0,1.83.73,3.58,2.02,4.88l23.55,23.55c1.29,1.29,3.05,2.02,4.88,2.02h35.67c1.83,0,3.58-.73,4.88-2.02l23.55-23.55c1.29-1.29,2.02-3.05,2.02-4.88v-63.26c0-1.83-.73-3.58-2.02-4.88L86.71,3.94c-1.29-1.29-3.05-2.02-4.88-2.02ZM99.53,92.84l-17.42,17.42c-1.29,1.29-3.05,2.02-4.88,2.02h-26.47c-1.83,0-3.58-.73-4.88-2.02l-17.42-17.42c-1.29-1.29-2.02-3.05-2.02-4.88v-47.93c0-1.83.73-3.58,2.02-4.88l17.42-17.42c1.29-1.29,3.05-2.02,4.88-2.02h26.47c1.83,0,3.58.73,4.88,2.02l17.42,17.42c1.29,1.29,2.02,3.05,2.02,4.88v47.93c0,1.83-.73,3.58-2.02,4.88Z"/>
  </g>
</svg>