<?xml version="1.0" encoding="UTF-8"?>
<svg id="Layer_1" data-name="Layer 1" xmlns="http://www.w3.org/2000/svg" viewBox="0 0 128 128">
  <defs>
    <style>
      .cls-1 {
        fill: #59eb5c;
      }
    </style>
  </defs>
  <g>
    <path class="cls-1" d="M44.07,51.88c3.95,3.95,6.13,9.21,6.13,14.8,0,2.39-.4,4.73-1.18,6.96l-12.61,35.36h-.04s-.38,1.17-.38,1.17c-.95,2.92-3.64,4.88-6.72,4.87-3.07,0-5.77-1.96-6.72-4.87l-.3-.93h-.03s-12.7-35.6-12.7-35.6c-.79-2.23-1.19-4.57-1.19-6.96,0-5.59,2.18-10.85,6.13-14.8,3.95-3.95,9.21-6.13,14.8-6.13,5.59,0,10.85,2.18,14.8,6.13Z"/>
    <circle class="cls-1" cx="29.27" cy="26.75" r="13.8"/>
  </g>
  <path class="cls-1" d="M91.74,22.45c-15.42,0-27.92,12.5-27.92,27.92v48.28c0,3.81,3.09,6.9,6.9,6.9h42.05c3.81,0,6.9-3.09,6.9-6.9v-48.28c0-15.42-12.5-27.92-27.92-27.92ZM76.23,50.37c0-8.55,6.96-15.51,15.51-15.51s15.51,6.96,15.51,15.51h-31.02Z"/>
</svg>