<?xml version="1.0" encoding="UTF-8"?>
<svg id="Layer_1" data-name="Layer 1" xmlns="http://www.w3.org/2000/svg" viewBox="0 0 128 128">
  <defs>
    <style>
      .cls-1 {
        fill: #e1e1e0;
      }
    </style>
  </defs>
  <path class="cls-1" d="M89.74,103.06H29.02c-2.12,0-3.84-1.72-3.84-3.84v-60.72h60.72c2.12,0,3.84,1.72,3.84,3.84v60.72ZM90.29,31.05H24.62c-.46,0-.91.04-1.34.13-2.74.54-4.89,2.69-5.43,5.43-.08.43-.13.88-.13,1.34v65.67c0,3.81,3.09,6.9,6.9,6.9h65.67c.46,0,.91-.04,1.34-.13,2.74-.54,4.89-2.69,5.43-5.43.08-.43.13-.88.13-1.34V37.94c0-3.81-3.09-6.9-6.9-6.9h0Z"/>
  <path class="cls-1" d="M97.06,104.95c-.54,2.74-2.69,4.89-5.43,5.43L17.86,36.61c.54-2.74,2.69-4.89,5.43-5.43l73.77,73.77Z"/>
  <path class="cls-1" d="M122.24,1.92H22.61C11.18,1.92,1.92,11.18,1.92,22.61v82.78c0,11.43,9.26,20.69,20.69,20.69h82.78c11.43,0,20.69-9.26,20.69-20.69V5.76c0-2.12-1.72-3.84-3.84-3.84ZM118.63,105.39c0,7.3-5.94,13.24-13.24,13.24H22.61c-7.3,0-13.24-5.94-13.24-13.24V22.61c0-7.3,5.94-13.24,13.24-13.24h45.14v12.62c0,2.12,1.72,3.84,3.84,3.84h47.04v79.56Z"/>
</svg>