<?xml version="1.0" encoding="UTF-8"?>
<svg id="Layer_1" data-name="Layer 1" xmlns="http://www.w3.org/2000/svg" viewBox="0 0 128 128">
  <defs>
    <style>
      .cls-1 {
        fill: #61d1fa;
      }
    </style>
  </defs>
  <path class="cls-1" d="M64,125.06c-4.25,0-7.95-2.58-9.42-6.56-7.74-20.91-24.17-37.34-45.08-45.08-3.99-1.47-6.56-5.17-6.56-9.42s2.58-7.95,6.56-9.42c20.91-7.74,37.34-24.17,45.08-45.08,1.47-3.99,5.17-6.56,9.42-6.56s7.95,2.58,9.42,6.56c7.74,20.91,24.17,37.34,45.08,45.08,3.99,1.47,6.56,5.17,6.56,9.42s-2.58,7.95-6.56,9.42c-20.91,7.74-37.34,24.17-45.08,45.08-1.47,3.99-5.17,6.56-9.42,6.56ZM25.98,67.36c14.59,8.07,26.6,20.07,34.66,34.66,1.46,2.64,5.25,2.64,6.71,0,8.07-14.59,20.07-26.6,34.66-34.66,2.64-1.46,2.64-5.25,0-6.71-14.59-8.07-26.6-20.07-34.66-34.66-1.46-2.64-5.25-2.64-6.71,0-8.07,14.59-20.07,26.6-34.66,34.66-2.64,1.46-2.64,5.25,0,6.71ZM61.78,13.8s0,0,0,0c0,0,0,0,0,0h0Z"/>
</svg>