<?xml version="1.0" encoding="UTF-8"?>
<svg id="Layer_1" data-name="Layer 1" xmlns="http://www.w3.org/2000/svg" viewBox="0 0 128 128">
  <defs>
    <style>
      .cls-1 {
        fill: #e1e1e0;
      }
    </style>
  </defs>
  <path class="cls-1" d="M50.2,94.31H8.13c-3.43,0-6.21-2.78-6.21-6.21h0c0-3.43,2.78-6.21,6.21-6.21h34.87c2.23,0,4.28-1.19,5.39-3.13l24.02-42.03c1.11-1.93,3.16-3.13,5.39-3.13h42.08c3.43,0,6.21,2.78,6.21,6.21h0c0,3.43-2.78,6.21-6.21,6.21h-34.87c-2.23,0-4.28,1.19-5.39,3.13l-24.02,42.03c-1.11,1.93-3.16,3.13-5.39,3.13Z"/>
  <rect class="cls-1" x="108.3" y="20.67" width="12.42" height="27.59" rx="6.21" ry="6.21" transform="translate(9.17 91.06) rotate(-45)"/>
  <rect class="cls-1" x="100.71" y="38.97" width="27.59" height="12.42" rx="6.21" ry="6.21" transform="translate(1.59 94.2) rotate(-45)"/>
  <path class="cls-1" d="M50.2,33.65H8.13c-3.43,0-6.21,2.78-6.21,6.21h0c0,3.43,2.78,6.21,6.21,6.21h34.87c2.23,0,4.28,1.19,5.39,3.13l24.02,42.03c1.11,1.93,3.16,3.13,5.39,3.13h42.08c3.43,0,6.21-2.78,6.21-6.21h0c0-3.43-2.78-6.21-6.21-6.21h-34.87c-2.23,0-4.28-1.19-5.39-3.13l-24.02-42.03c-1.11-1.93-3.16-3.13-5.39-3.13Z"/>
  <rect class="cls-1" x="100.71" y="87.28" width="27.59" height="12.42" rx="6.21" ry="6.21" transform="translate(-32.57 108.35) rotate(-45)"/>
  <rect class="cls-1" x="108.3" y="68.98" width="12.42" height="27.59" rx="6.21" ry="6.21" transform="translate(-24.99 105.21) rotate(-45)"/>
</svg>