<?xml version="1.0" encoding="UTF-8"?>
<svg id="Layer_1" data-name="Layer 1" xmlns="http://www.w3.org/2000/svg" viewBox="0 0 128 128">
  <defs>
    <style>
      .cls-1 {
        fill: #59eb5c;
      }
    </style>
  </defs>
  <g>
    <path class="cls-1" d="M46.69,13.21c8.94,0,17.35,3.48,23.67,9.81,6.32,6.32,9.81,14.73,9.81,23.67s-3.48,17.35-9.81,23.67c-6.32,6.32-14.73,9.81-23.67,9.81s-17.35-3.48-23.67-9.81-9.81-14.73-9.81-23.67,3.48-17.35,9.81-23.67c6.32-6.32,14.73-9.81,23.67-9.81h0ZM46.69,5.76C24.08,5.76,5.76,24.08,5.76,46.69s18.33,40.93,40.93,40.93,40.93-18.33,40.93-40.93S69.3,5.76,46.69,5.76h0Z"/>
    <path class="cls-1" d="M29.74,35.01h0c-1.82-1.82-4.92-1.3-6,1.03-1.5,3.24-2.34,6.84-2.34,10.65,0,3.06.54,5.99,1.54,8.7.79,2.16,3.36,3.08,5.36,1.92h0c1.55-.9,2.27-2.78,1.65-4.47-.71-1.92-1.09-3.99-1.09-6.16,0-2.67.59-5.2,1.64-7.47.66-1.42.37-3.1-.74-4.21ZM35.01,29.74h0c1.11,1.11,2.8,1.4,4.23.74.42-.19.84-.37,1.28-.53,1.47-.54,2.45-1.93,2.45-3.5h0c0-2.61-2.6-4.4-5.04-3.49-.63.23-1.24.49-1.85.77-2.35,1.09-2.9,4.19-1.07,6.02Z"/>
  </g>
  <g>
    <path class="cls-1" d="M99.98,80.87h-16.92c-3.81,0-6.9,3.09-6.9,6.9v27.59c0,3.81,3.09,6.9,6.9,6.9h16.92c3.81,0,6.9-3.09,6.9-6.9v-27.59c0-3.81-3.09-6.9-6.9-6.9ZM99.43,110.96c0,2.12-1.72,3.84-3.84,3.84h-8.14c-2.12,0-3.84-1.72-3.84-3.84v-18.81c0-2.12,1.72-3.84,3.84-3.84h8.14c1.46,0,2.73.82,3.38,2.02.29.54.46,1.16.46,1.82v18.81Z"/>
    <path class="cls-1" d="M115.34,69.35h-16.92c-3.81,0-6.9,3.09-6.9,6.9v12.07h4.07c1.46,0,2.73.82,3.38,2.02v-9.7c0-2.12,1.72-3.84,3.84-3.84h8.14c1.46,0,2.73.82,3.38,2.02.29.54.46,1.16.46,1.82v18.81c0,2.12-1.72,3.84-3.84,3.84h-8.14c-1.46,0-2.73-.82-3.38-2.02v9.47h15.91c3.81,0,6.9-3.09,6.9-6.9v-27.59c0-3.81-3.09-6.9-6.9-6.9Z"/>
  </g>
</svg>