<?xml version="1.0" encoding="UTF-8"?>
<svg id="Layer_1" data-name="Layer 1" xmlns="http://www.w3.org/2000/svg" viewBox="0 0 128 128">
  <defs>
    <style>
      .cls-1 {
        fill: #f8f770;
      }
    </style>
  </defs>
  <path class="cls-1" d="M60.79,105l-24.7,12.99c-5.06,2.66-10.98-1.64-10.01-7.27l4.72-27.51c.38-2.24-.36-4.52-1.98-6.11l-19.98-19.48c-4.09-3.99-1.84-10.94,3.82-11.77l27.62-4.01c2.25-.33,4.19-1.74,5.19-3.77l12.35-25.02c2.53-5.13,9.84-5.13,12.37,0l12.35,25.02c1,2.04,2.95,3.45,5.19,3.77l27.62,4.01c5.66.82,7.92,7.78,3.82,11.77l-19.98,19.48c-1.63,1.58-2.37,3.87-1.98,6.11l4.72,27.51c.97,5.64-4.95,9.93-10.01,7.27l-24.7-12.99c-2.01-1.06-4.41-1.06-6.42,0Z"/>
</svg>