<?xml version="1.0" encoding="UTF-8"?>
<svg id="Layer_1" data-name="Layer 1" xmlns="http://www.w3.org/2000/svg" viewBox="0 0 128 128">
  <defs>
    <style>
      .cls-1 {
        fill: #e1e1e0;
      }

      .cls-2 {
        fill: #61d1fa;
      }
    </style>
  </defs>
  <g>
    <rect class="cls-1" x="51.22" y="55.4" width="25.57" height="51.13" rx="12.78" ry="12.78"/>
    <path class="cls-1" d="M89.21,93.75c2.63,0,4.64,2.35,4.21,4.94-2.35,14.12-14.63,24.89-29.42,24.89s-27.07-10.77-29.42-24.89c-.43-2.59,1.58-4.94,4.21-4.94h0c2.08,0,3.86,1.5,4.2,3.55,1.69,10.08,10.45,17.76,21.01,17.76s19.32-7.68,21.01-17.76c.34-2.05,2.12-3.55,4.2-3.55h0Z"/>
  </g>
  <g>
    <path class="cls-2" d="M40.12,48.38c-4.55,4.55-7.31,10.2-8.29,16.09-.42,2.56,1.58,4.88,4.18,4.88h0c2.05,0,3.83-1.46,4.16-3.48.7-4.22,2.67-8.27,5.92-11.52s7.3-5.22,11.52-5.92c2.02-.33,3.48-2.11,3.48-4.16h0c0-2.59-2.32-4.6-4.88-4.18-5.89.98-11.55,3.74-16.09,8.28Z"/>
    <path class="cls-2" d="M61.09,26.98c0-2.51-2.17-4.45-4.66-4.2-10.38,1.03-20.48,5.53-28.43,13.48-7.95,7.95-12.44,18.05-13.48,28.44-.25,2.49,1.69,4.66,4.2,4.66h0c2.17,0,3.99-1.65,4.2-3.81.86-8.81,4.71-16.98,11.05-23.32,6.34-6.34,14.51-10.19,23.32-11.05,2.16-.21,3.81-2.03,3.81-4.2h0Z"/>
    <path class="cls-2" d="M87.88,48.39c-4.55-4.55-10.2-7.31-16.09-8.29-2.56-.42-4.88,1.58-4.88,4.18h0c0,2.05,1.46,3.83,3.48,4.16,4.22.7,8.27,2.67,11.52,5.92s5.22,7.3,5.92,11.52c.33,2.02,2.11,3.48,4.16,3.48h0c2.59,0,4.6-2.32,4.18-4.88-.98-5.89-3.74-11.55-8.28-16.09Z"/>
    <path class="cls-2" d="M109.29,69.36c2.51,0,4.45-2.17,4.2-4.66-1.03-10.38-5.53-20.48-13.48-28.43-7.95-7.95-18.05-12.44-28.44-13.48-2.49-.25-4.66,1.69-4.66,4.2h0c0,2.17,1.65,3.99,3.81,4.2,8.81.86,16.98,4.71,23.32,11.05s10.19,14.51,11.05,23.32c.21,2.16,2.03,3.81,4.2,3.81h0Z"/>
  </g>
</svg>