<?xml version="1.0" encoding="UTF-8"?>
<svg id="Layer_1" data-name="Layer 1" xmlns="http://www.w3.org/2000/svg" viewBox="0 0 128 128">
  <defs>
    <style>
      .cls-1 {
        fill: #ff7676;
      }

      .cls-2 {
        fill: #e1e1e0;
      }

      .cls-3 {
        fill: #59eb5c;
      }

      .cls-4 {
        fill: #61d1fa;
      }
    </style>
  </defs>
  <path class="cls-3" d="M119.68,46.1c-3.33,3.07-6.87,5.84-10.62,8.3-4.12,2.7-8.49,5.04-13.07,6.98-10.13,4.28-20.89,6.46-31.99,6.46s-21.86-2.17-31.99-6.46c-4.58-1.94-8.95-4.27-13.07-6.98-3.75-2.46-7.29-5.23-10.62-8.3-1.44,4.46-2.35,9.16-2.66,14.02,3.93,3.08,8.11,5.86,12.5,8.3,13.58,7.54,29.21,11.83,45.85,11.83s32.27-4.29,45.85-11.83c4.39-2.44,8.57-5.21,12.5-8.3-.32-4.86-1.23-9.56-2.66-14.02Z"/>
  <path class="cls-1" d="M122.35,60.13c-.32-4.86-1.23-9.56-2.66-14.02-7.56-23.54-29.63-40.58-55.68-40.58S15.88,22.56,8.32,46.1c-1.44,4.46-2.35,9.16-2.66,14.02-.08,1.28-.13,2.57-.13,3.87,0,32.29,26.18,58.47,58.47,58.47s58.47-26.18,58.47-58.47c0-1.3-.04-2.59-.13-3.87ZM96.57,96.57c-8.7,8.7-20.27,13.49-32.57,13.49s-23.87-4.79-32.57-13.49c-7.65-7.65-12.28-17.51-13.28-28.14-.14-1.46-.21-2.94-.21-4.42,0-3.26.34-6.47,1-9.59,1.82-8.64,6.1-16.58,12.5-22.97,8.7-8.7,20.27-13.49,32.57-13.49s23.87,4.79,32.57,13.49c6.39,6.39,10.68,14.33,12.5,22.97.66,3.12,1,6.33,1,9.59,0,1.49-.07,2.96-.21,4.42-1.01,10.63-5.63,20.5-13.28,28.14Z"/>
  <rect class="cls-4" x="57.79" y="11.68" width="12.42" height="107.73"/>
  <path class="cls-2" d="M75.16,114.92c0,6.17-5,11.16-11.16,11.16-.74,0-1.47-.07-2.17-.21-4.42-.87-7.91-4.36-8.78-8.78-.14-.7-.21-1.43-.21-2.17,0-6.16,5-11.16,11.16-11.16.75,0,1.49.07,2.2.22,4.4.88,7.87,4.35,8.75,8.75.14.71.22,1.45.22,2.2Z"/>
  <path class="cls-2" d="M75.16,73.53c0,6.17-5,11.16-11.16,11.16-.74,0-1.47-.07-2.17-.21-4.42-.87-7.91-4.36-8.78-8.78-.14-.7-.21-1.43-.21-2.17,0-6.16,5-11.16,11.16-11.16.75,0,1.49.07,2.2.22,4.4.88,7.87,4.35,8.75,8.75.14.71.22,1.45.22,2.2Z"/>
  <path class="cls-2" d="M75.16,13.08c0,6.17-5,11.16-11.16,11.16-.74,0-1.47-.07-2.17-.21-4.42-.87-7.91-4.36-8.78-8.78-.14-.7-.21-1.43-.21-2.17,0-6.16,5-11.16,11.16-11.16.75,0,1.49.07,2.2.22,4.4.88,7.87,4.35,8.75,8.75.14.71.22,1.45.22,2.2Z"/>
  <path class="cls-2" d="M24.24,58.51c0,6.17-5,11.16-11.16,11.16-.74,0-1.47-.07-2.17-.21-4.42-.87-7.91-4.36-8.78-8.78-.14-.7-.21-1.43-.21-2.17,0-6.16,5-11.16,11.16-11.16.75,0,1.49.07,2.2.22,4.4.88,7.87,4.35,8.75,8.75.14.71.22,1.45.22,2.2Z"/>
  <path class="cls-2" d="M126.08,58.51c0,6.17-5,11.16-11.16,11.16-.74,0-1.47-.07-2.17-.21-4.42-.87-7.91-4.36-8.78-8.78-.14-.7-.21-1.43-.21-2.17,0-6.16,5-11.16,11.16-11.16.75,0,1.49.07,2.2.22,4.4.88,7.87,4.35,8.75,8.75.14.71.22,1.45.22,2.2Z"/>
</svg>