<?xml version="1.0" encoding="UTF-8"?>
<svg id="Layer_1" data-name="Layer 1" xmlns="http://www.w3.org/2000/svg" viewBox="0 0 128 128">
  <defs>
    <style>
      .cls-1 {
        fill: #61d1fa;
      }
    </style>
  </defs>
  <path class="cls-1" d="M64,42.94c1.32,0,2.64.12,3.92.36,2.86.54,5.54,1.65,7.95,3.29,2.18,1.49,4.05,3.36,5.54,5.54,1.65,2.42,2.76,5.09,3.3,7.95.24,1.28.36,2.59.36,3.92s-.12,2.64-.36,3.92c-.54,2.86-1.65,5.54-3.29,7.95-1.49,2.18-3.36,4.05-5.54,5.54-2.42,1.65-5.09,2.76-7.95,3.3-1.28.24-2.59.36-3.92.36s-2.64-.12-3.92-.36c-2.86-.54-5.54-1.65-7.95-3.29-2.18-1.49-4.05-3.36-5.54-5.54-1.65-2.42-2.76-5.09-3.3-7.95-.24-1.28-.36-2.59-.36-3.92s.12-2.64.36-3.92c.54-2.86,1.65-5.54,3.29-7.95,1.49-2.18,3.36-4.05,5.54-5.54,2.42-1.65,5.09-2.76,7.95-3.3,1.28-.24,2.59-.36,3.92-.36M64,30.52c-2.12,0-4.2.2-6.21.57-4.63.87-8.92,2.69-12.67,5.25-3.44,2.36-6.42,5.34-8.78,8.78-2.56,3.75-4.38,8.04-5.25,12.67-.38,2.01-.57,4.09-.57,6.21s.2,4.2.57,6.21c.87,4.63,2.69,8.92,5.25,12.67,2.36,3.44,5.34,6.42,8.78,8.78,3.75,2.56,8.04,4.38,12.67,5.25,2.01.38,4.09.57,6.21.57s4.2-.2,6.21-.57c4.63-.87,8.92-2.69,12.67-5.25,3.44-2.36,6.42-5.34,8.78-8.78,2.56-3.75,4.38-8.04,5.25-12.67.38-2.01.57-4.09.57-6.21s-.2-4.2-.57-6.21c-.87-4.63-2.69-8.92-5.25-12.67-2.36-3.44-5.34-6.42-8.78-8.78-3.75-2.56-8.04-4.38-12.67-5.25-2.01-.38-4.09-.57-6.21-.57h0Z"/>
  <path class="cls-1" d="M70.21,8.13v8.86c0,3.38-2.76,6.08-6.15,6.08-.02,0-.04,0-.06,0s-.04,0-.06,0c-3.38,0-6.15-2.7-6.15-6.08v-8.72c0-3.4,2.68-6.28,6.08-6.35,1.76-.04,3.37.67,4.52,1.82,1.12,1.12,1.82,2.68,1.82,4.39Z"/>
  <path class="cls-1" d="M64,104.93s.04,0,.06,0c3.38,0,6.15,2.7,6.15,6.08v8.72c0,3.48-2.85,6.41-6.33,6.35-3.37-.06-6.09-2.82-6.09-6.21v-8.86c0-3.38,2.76-6.08,6.15-6.08.02,0,.04,0,.06,0Z"/>
  <path class="cls-1" d="M35.15,26.37c2.39,2.39,2.35,6.26-.05,8.65-.01.01-.03.03-.04.04-.01.01-.03.03-.04.04-2.39,2.4-6.25,2.44-8.65.05l-6.27-6.27c-2.42-2.42-2.42-6.35,0-8.78,1.21-1.21,2.8-1.82,4.39-1.82s3.18.61,4.39,1.82l6.27,6.27Z"/>
  <path class="cls-1" d="M107.9,107.9c-1.21,1.21-2.8,1.82-4.39,1.82s-3.18-.61-4.39-1.82l-6.27-6.27c-2.39-2.39-2.35-6.26.05-8.65.01-.01.03-.03.04-.04.01-.01.03-.03.04-.04,2.39-2.4,6.25-2.44,8.65-.05l6.27,6.27c2.42,2.42,2.42,6.35,0,8.78Z"/>
  <path class="cls-1" d="M16.99,57.79c3.38,0,6.08,2.76,6.08,6.15,0,.02,0,.04,0,.06s0,.04,0,.06c0,3.38-2.7,6.15-6.08,6.15h-8.72c-3.4,0-6.28-2.68-6.35-6.08-.04-1.76.67-3.37,1.82-4.52,1.12-1.12,2.68-1.82,4.39-1.82h8.86Z"/>
  <path class="cls-1" d="M126.08,63.87c.04,1.76-.67,3.37-1.82,4.52-1.12,1.12-2.68,1.82-4.39,1.82h-8.86c-3.38,0-6.08-2.76-6.08-6.15,0-.02,0-.04,0-.06s0-.04,0-.06c0-3.38,2.7-6.15,6.08-6.15h8.72c3.4,0,6.28,2.68,6.35,6.08Z"/>
  <path class="cls-1" d="M35.06,92.94s.03.03.04.04c2.4,2.39,2.44,6.25.05,8.65l-6.27,6.27c-2.42,2.42-6.35,2.42-8.78,0-2.42-2.43-2.42-6.36,0-8.78l6.27-6.27c2.39-2.39,6.26-2.35,8.65.05.01.01.03.03.04.04Z"/>
  <path class="cls-1" d="M109.72,24.49c0,1.59-.61,3.18-1.82,4.39l-6.27,6.27c-2.39,2.39-6.26,2.35-8.65-.05-.01-.01-.03-.03-.04-.04-.01-.01-.03-.03-.04-.04-2.4-2.39-2.44-6.25-.05-8.65l6.27-6.27c2.42-2.42,6.35-2.42,8.78,0,1.21,1.21,1.82,2.8,1.82,4.39Z"/>
</svg>