<?xml version="1.0" encoding="UTF-8"?>
<svg id="Layer_1" data-name="Layer 1" xmlns="http://www.w3.org/2000/svg" viewBox="0 0 128 128">
  <defs>
    <style>
      .cls-1 {
        fill: #e1e1e0;
      }
    </style>
  </defs>
  <path class="cls-1" d="M42.94,115.43c-4.04,4.04-9.33,6.06-14.63,6.06s-10.59-2.02-14.63-6.06c-8.08-8.08-8.08-21.18,0-29.26,4.04-4.04,9.34-6.06,14.63-6.06,4.08,0,8.16,1.2,11.66,3.6l-2.32,2.32,5.43,5.43,2.32-2.32c5.51,8.06,4.69,19.15-2.46,26.3Z"/>
  <circle class="cls-1" cx="64" cy="27.21" r="20.69"/>
  <circle class="cls-1" cx="99.88" cy="100.79" r="20.69"/>
  <path class="cls-1" d="M42.94,86.16c-.93-.93-1.92-1.75-2.97-2.46l-2.32,2.32,5.43,5.43,2.32-2.32c-.71-1.05-1.53-2.04-2.46-2.97Z"/>
  <polygon class="cls-1" points="61.95 31.97 59.81 36.56 46.41 65.29 34.79 90.21 33.01 94.02 31.63 96.99 24.67 93.75 26.05 90.78 27.83 86.96 54.99 28.73 61.95 31.97"/>
  <polygon class="cls-1" points="66.05 31.97 68.19 36.56 81.59 65.29 93.21 90.21 94.99 94.02 96.37 96.99 103.33 93.75 101.95 90.78 100.17 86.96 73.01 28.73 66.05 31.97"/>
  <polygon class="cls-1" points="99.87 104.63 94.81 104.63 63.12 104.63 35.62 104.63 31.41 104.63 28.13 104.63 28.13 96.96 31.41 96.96 35.62 96.96 99.87 96.96 99.87 104.63"/>
</svg>