<?xml version="1.0" encoding="UTF-8"?>
<svg id="Layer_1" data-name="Layer 1" xmlns="http://www.w3.org/2000/svg" viewBox="0 0 128 128">
  <defs>
    <style>
      .cls-1 {
        fill: #e1e1e0;
      }
    </style>
  </defs>
  <path class="cls-1" d="M111.82,40.13h-18.81c-2.12,0-3.84-1.72-3.84-3.84v-18.81c0-2.12,1.72-3.84,3.84-3.84h18.81c2.12,0,3.84,1.72,3.84,3.84v18.81c0,2.12-1.72,3.84-3.84,3.84ZM81.73,13.09v27.59c0,3.81,3.09,6.9,6.9,6.9h27.59c3.81,0,6.9-3.09,6.9-6.9V13.09c0-3.81-3.09-6.9-6.9-6.9h-27.59c-3.81,0-6.9,3.09-6.9,6.9Z"/>
  <g>
    <path class="cls-1" d="M84.35,82.08h-39.73s0-39.73,0-39.73c10.61,0,20.59,4.13,28.09,11.64,7.5,7.5,11.64,17.48,11.64,28.09Z"/>
    <path class="cls-1" d="M44.62,82.08v39.73c-10.61,0-20.59-4.13-28.09-11.64-7.5-7.5-11.64-17.48-11.64-28.09h39.73Z"/>
    <path class="cls-1" d="M44.62,50.05c8.56,0,16.6,3.33,22.65,9.38,6.05,6.05,9.38,14.09,9.38,22.65s-3.33,16.6-9.38,22.65c-6.05,6.05-14.09,9.38-22.65,9.38-8.56,0-16.6-3.33-22.65-9.38-6.05-6.05-9.38-14.09-9.38-22.65s3.33-16.6,9.38-22.65c6.05-6.05,14.09-9.38,22.65-9.38M44.62,42.35c-21.94,0-39.73,17.79-39.73,39.73,0,21.94,17.79,39.73,39.73,39.73,21.94,0,39.73-17.79,39.73-39.73,0-21.94-17.79-39.73-39.73-39.73h0Z"/>
  </g>
</svg>