<?xml version="1.0" encoding="UTF-8"?>
<svg id="Layer_1" data-name="Layer 1" xmlns="http://www.w3.org/2000/svg" viewBox="0 0 128 128">
  <defs>
    <style>
      .cls-1 {
        fill: #f66d74;
      }
    </style>
  </defs>
  <g>
    <path class="cls-1" d="M44.07,51.88c3.95,3.95,6.13,9.21,6.13,14.8,0,2.39-.4,4.73-1.18,6.96l-12.61,35.36h-.04s-.38,1.17-.38,1.17c-.95,2.92-3.64,4.88-6.72,4.87-3.07,0-5.77-1.96-6.72-4.87l-.3-.93h-.03s-12.7-35.6-12.7-35.6c-.79-2.23-1.19-4.57-1.19-6.96,0-5.59,2.18-10.85,6.13-14.8,3.95-3.95,9.21-6.13,14.8-6.13,5.59,0,10.85,2.18,14.8,6.13Z"/>
    <circle class="cls-1" cx="29.27" cy="26.75" r="13.8"/>
  </g>
  <path class="cls-1" d="M119.66,36.96v75.4c0,3.81-3.09,6.9-6.9,6.9h-42.05c-3.81,0-6.9-3.09-6.9-6.9v-41.39c0-3.81,3.09-6.9,6.9-6.9h36.53v-27.19c0-8.51-6.76-15.61-15.26-15.74-7.13-.11-13.2,4.62-15.12,11.12-.76,2.58-3.08,4.39-5.77,4.39h-.45c-4,0-6.85-3.83-5.75-7.67,3.34-11.72,14.15-20.3,26.96-20.25,15.43.06,27.82,12.79,27.82,28.23Z"/>
</svg>