<?xml version="1.0" encoding="UTF-8"?>
<svg id="Layer_1" data-name="Layer 1" xmlns="http://www.w3.org/2000/svg" viewBox="0 0 128 128">
  <defs>
    <style>
      .cls-1 {
        fill: #5d323a;
        stroke-width: 0px;
      }
    </style>
  </defs>
  <path class="cls-1" d="m34.73,41.31c.72.72,1.12,1.7,1.12,2.71v39.4c0,1.02-.4,1.99-1.12,2.71l-8.74,8.74c-.72.72-1.7,1.12-2.71,1.12h-1.32c-1.02,0-1.99-.4-2.71-1.12l-8.74-8.74c-.72-.72-1.12-1.7-1.12-2.71v-39.4c0-1.02.4-1.99,1.12-2.71l8.74-8.74c.72-.72,1.7-1.12,2.71-1.12h1.32c1.02,0,1.99.4,2.71,1.12l8.74,8.74Zm-9.64-17.32h-4.96c-1.83,0-3.58.73-4.88,2.02l-11.32,11.32c-1.29,1.29-2.02,3.05-2.02,4.88v43.04c0,1.83.73,3.58,2.02,4.88l11.32,11.32c1.29,1.29,3.05,2.02,4.88,2.02h4.96c1.83,0,3.58-.73,4.88-2.02l11.32-11.32c1.29-1.29,2.02-3.05,2.02-4.88v-43.04c0-1.83-.73-3.58-2.02-4.88l-11.32-11.32c-1.29-1.29-3.05-2.02-4.88-2.02h0Z"/>
  <path class="cls-1" d="m97.64,90.97c.72.72,1.12,1.7,1.12,2.71v1.32c0,1.02-.4,1.99-1.12,2.71l-8.74,8.74c-.72.72-1.7,1.12-2.71,1.12h-1.32c-1.02,0-1.99-.4-2.71-1.12l-8.74-8.74c-.72-.72-1.12-1.7-1.12-2.71v-1.32c0-1.02.4-1.99,1.12-2.71l8.74-8.74c.72-.72,1.7-1.12,2.71-1.12h1.32c1.02,0,1.99.4,2.71,1.12l8.74,8.74Zm-9.64-17.32h-4.96c-1.83,0-3.58.73-4.88,2.02l-11.32,11.32c-1.29,1.29-2.02,3.05-2.02,4.88v4.96c0,1.83.73,3.58,2.02,4.88l11.32,11.32c1.29,1.29,3.05,2.02,4.88,2.02h4.96c1.83,0,3.58-.73,4.88-2.02l11.32-11.32c1.29-1.29,2.02-3.05,2.02-4.88v-4.96c0-1.83-.73-3.58-2.02-4.88l-11.32-11.32c-1.29-1.29-3.05-2.02-4.88-2.02h0Z"/>
  <path class="cls-1" d="m117.51,39.58c.72.72,1.12,1.7,1.12,2.71v1.32c0,1.02-.4,1.99-1.12,2.71l-8.74,8.74c-.72.72-1.7,1.12-2.71,1.12h-1.32c-1.02,0-1.99-.4-2.71-1.12l-8.74-8.74c-.72-.72-1.12-1.7-1.12-2.71v-1.32c0-1.02.4-1.99,1.12-2.71l8.74-8.74c.72-.72,1.7-1.12,2.71-1.12h1.32c1.02,0,1.99.4,2.71,1.12l8.74,8.74Zm-9.64-17.32h-4.96c-1.83,0-3.58.73-4.88,2.02l-11.32,11.32c-1.29,1.29-2.02,3.05-2.02,4.88v4.96c0,1.83.73,3.58,2.02,4.88l11.32,11.32c1.29,1.29,3.05,2.02,4.88,2.02h4.96c1.83,0,3.58-.73,4.88-2.02l11.32-11.32c1.29-1.29,2.02-3.05,2.02-4.88v-4.96c0-1.83-.73-3.58-2.02-4.88l-11.32-11.32c-1.29-1.29-3.05-2.02-4.88-2.02h0Z"/>
  <rect class="cls-1" x="70.9" y="39.12" width="13.8" height="7.68"/>
  <rect class="cls-1" x="43.31" y="52.36" width="13.8" height="7.68"/>
  <rect class="cls-1" x="56.55" y="90.51" width="8.28" height="7.68"/>
</svg>