<?xml version="1.0" encoding="UTF-8"?>
<svg id="Layer_1" data-name="Layer 1" xmlns="http://www.w3.org/2000/svg" viewBox="0 0 128 128">
  <defs>
    <style>
      .cls-1 {
        fill: #59eb5c;
      }

      .cls-2 {
        fill: #61d1fa;
      }
    </style>
  </defs>
  <g>
    <path class="cls-2" d="M46.69,13.21c8.94,0,17.35,3.48,23.67,9.81,6.32,6.32,9.81,14.73,9.81,23.67s-3.48,17.35-9.81,23.67c-6.32,6.32-14.73,9.81-23.67,9.81s-17.35-3.48-23.67-9.81-9.81-14.73-9.81-23.67,3.48-17.35,9.81-23.67c6.32-6.32,14.73-9.81,23.67-9.81h0ZM46.69,5.76C24.08,5.76,5.76,24.08,5.76,46.69s18.33,40.93,40.93,40.93,40.93-18.33,40.93-40.93S69.3,5.76,46.69,5.76h0Z"/>
    <path class="cls-2" d="M29.74,35.01h0c-1.82-1.82-4.92-1.3-6,1.03-1.5,3.24-2.34,6.84-2.34,10.65,0,3.06.54,5.99,1.54,8.7.79,2.16,3.36,3.08,5.36,1.92h0c1.55-.9,2.27-2.78,1.65-4.47-.71-1.92-1.09-3.99-1.09-6.16,0-2.67.59-5.2,1.64-7.47.66-1.42.37-3.1-.74-4.21ZM35.01,29.74h0c1.11,1.11,2.8,1.4,4.23.74.42-.19.84-.37,1.28-.53,1.47-.54,2.45-1.93,2.45-3.5h0c0-2.61-2.6-4.4-5.04-3.49-.63.23-1.24.49-1.85.77-2.35,1.09-2.9,4.19-1.07,6.02Z"/>
  </g>
  <g>
    <path class="cls-1" d="M113.02,80.86h-6.33c-2.12,0-3.84,1.72-3.84,3.84h0c0,2.12-1.72,3.84-3.84,3.84h-6.64c-2.12,0-3.84-1.72-3.84-3.84h0c0-2.12-1.72-3.84-3.84-3.84h0c-2.12,0-3.84,1.72-3.84,3.84v33.71c0,2.12,1.72,3.84,3.84,3.84h33.71c2.12,0,3.84-1.72,3.84-3.84v-28.53c0-1.04-.43-2.04-1.18-2.77l-5.38-5.18c-.72-.69-1.67-1.07-2.66-1.07ZM106.17,115.41h-13.8c-2.12,0-3.84-1.72-3.84-3.84v-11.52c0-2.12,1.72-3.84,3.84-3.84h13.8c2.12,0,3.84,1.72,3.84,3.84v11.52c0,2.12-1.72,3.84-3.84,3.84Z"/>
    <rect class="cls-1" x="92.11" y="101.97" width="14.32" height="7.68" rx="3.84" ry="3.84"/>
  </g>
  <path class="cls-2" d="M52.22,60.83l-5.09,2.67c-2.82,1.48-6.11-.91-5.57-4.05l.97-5.66-4.12-4.01c-2.28-2.22-1.02-6.09,2.13-6.55l5.69-.83,2.54-5.15c1.41-2.85,5.48-2.85,6.89,0l2.54,5.15,5.69.83c3.15.46,4.41,4.33,2.13,6.55l-4.12,4.01.97,5.66c.54,3.14-2.75,5.53-5.57,4.05l-5.09-2.67Z"/>
</svg>