<?xml version="1.0" encoding="UTF-8"?>
<svg id="Layer_1" data-name="Layer 1" xmlns="http://www.w3.org/2000/svg" viewBox="0 0 128 128">
  <defs>
    <style>
      .cls-1 {
        fill: #e1e1e0;
      }

      .cls-2 {
        fill: #ba64f2;
      }

      .cls-3 {
        fill: #f8f770;
      }
    </style>
  </defs>
  <path class="cls-1" d="M24.11,60.16h7.68c2.12,0,3.84,1.72,3.84,3.84s-1.72,3.84-3.84,3.84h-7.68c-2.12,0-3.84-1.72-3.84-3.84s1.72-3.84,3.84-3.84Z"/>
  <path class="cls-3" d="M65.64,78.8c-3.95,3.95-9.21,6.13-14.8,6.13-2.39,0-4.73-.4-6.96-1.18l-36.53-13.03c-2.92-.95-4.88-3.64-4.87-6.72,0-3.07,1.96-5.77,4.87-6.72l.93-.3v-.03s35.6-12.7,35.6-12.7c2.23-.79,4.57-1.19,6.96-1.19,5.59,0,10.85,2.18,14.8,6.13,3.95,3.95,6.13,9.21,6.13,14.8,0,5.59-2.18,10.85-6.13,14.8Z"/>
  <path class="cls-3" d="M76.57,94.92l-5.43-5.43c-1.5-1.5-1.5-3.93,0-5.43s3.93-1.5,5.43,0l5.43,5.43c1.5,1.5,1.5,3.93,0,5.43s-3.93,1.5-5.43,0Z"/>
  <path class="cls-2" d="M90.97,67.84h-7.68c-2.12,0-3.84-1.72-3.84-3.84s1.72-3.84,3.84-3.84h7.68c2.12,0,3.84,1.72,3.84,3.84s-1.72,3.84-3.84,3.84Z"/>
  <path class="cls-3" d="M82,38.51l-5.43,5.43c-1.5,1.5-3.93,1.5-5.43,0-1.5-1.5-1.5-3.93,0-5.43l5.43-5.43c1.5-1.5,3.93-1.5,5.43,0s1.5,3.93,0,5.43Z"/>
  <g>
    <g>
      <path class="cls-3" d="M90.97,67.84h-7.68c-2.12,0-3.84-1.72-3.84-3.84s1.72-3.84,3.84-3.84h7.68c2.12,0,3.84,1.72,3.84,3.84,0,2.12-1.72,3.84-3.84,3.84Z"/>
      <path class="cls-3" d="M98.65,67.84h-7.68c-2.12,0-3.84-1.72-3.84-3.84s1.72-3.84,3.84-3.84h7.68c2.12,0,3.84,1.72,3.84,3.84,0,2.12-1.72,3.84-3.84,3.84Z"/>
      <path class="cls-3" d="M106.33,67.84h-7.68c-2.12,0-3.84-1.72-3.84-3.84s1.72-3.84,3.84-3.84h7.68c2.12,0,3.84,1.72,3.84,3.84,0,2.12-1.72,3.84-3.84,3.84Z"/>
      <path class="cls-3" d="M114,67.84h-7.68c-2.12,0-3.84-1.72-3.84-3.84s1.72-3.84,3.84-3.84h7.68c2.12,0,3.84,1.72,3.84,3.84,0,2.12-1.72,3.84-3.84,3.84Z"/>
      <path class="cls-3" d="M121.68,67.84h-7.68c-2.12,0-3.84-1.72-3.84-3.84s1.72-3.84,3.84-3.84h7.68c2.12,0,3.84,1.72,3.84,3.84,0,2.12-1.72,3.84-3.84,3.84Z"/>
    </g>
    <g>
      <path class="cls-3" d="M113.54,61.29l-5.43-5.43c-1.5-1.5-1.5-3.93,0-5.43,1.5-1.5,3.93-1.5,5.43,0l5.43,5.43c1.5,1.5,1.5,3.93,0,5.43s-3.93,1.5-5.43,0Z"/>
      <path class="cls-3" d="M118.97,66.72l-5.43-5.43c-1.5-1.5-1.5-3.93,0-5.43s3.93-1.5,5.43,0l5.43,5.43c1.5,1.5,1.5,3.93,0,5.43s-3.93,1.5-5.43,0Z"/>
    </g>
    <g>
      <path class="cls-3" d="M118.97,72.14l-5.43,5.43c-1.5,1.5-3.93,1.5-5.43,0s-1.5-3.93,0-5.43l5.43-5.43c1.5-1.5,3.93-1.5,5.43,0,1.5,1.5,1.5,3.93,0,5.43Z"/>
      <path class="cls-3" d="M124.4,66.71l-5.43,5.43c-1.5,1.5-3.93,1.5-5.43,0s-1.5-3.93,0-5.43l5.43-5.43c1.5-1.5,3.93-1.5,5.43,0s1.5,3.93,0,5.43Z"/>
    </g>
  </g>
</svg>