<?xml version="1.0" encoding="UTF-8"?>
<svg id="Layer_1" data-name="Layer 1" xmlns="http://www.w3.org/2000/svg" viewBox="0 0 128 128">
  <defs>
    <style>
      .cls-1 {
        fill: #e1e1e0;
      }

      .cls-2 {
        fill: #59eb5c;
      }
    </style>
  </defs>
  <g>
    <path class="cls-1" d="M42.85,1.92c-7.74,0-14.98,2.15-21.15,5.88-2.34,1.42-4.53,3.06-6.54,4.91C7.02,20.19,1.92,30.92,1.92,42.85s5.1,22.66,13.24,30.14c2.01,1.85,4.2,3.49,6.54,4.91,6.17,3.73,13.41,5.88,21.15,5.88,22.6,0,40.93-18.33,40.93-40.93S65.46,1.92,42.85,1.92ZM66.53,66.53c-6.32,6.32-14.73,9.81-23.67,9.81-5.15,0-10.11-1.15-14.61-3.34-2.32-1.12-4.51-2.52-6.54-4.18-.87-.71-1.72-1.48-2.53-2.28-6.32-6.32-9.81-14.73-9.81-23.67s3.48-17.35,9.81-23.67c.81-.81,1.65-1.57,2.53-2.28,2.03-1.66,4.22-3.06,6.54-4.18,4.49-2.19,9.46-3.34,14.61-3.34,8.94,0,17.35,3.48,23.67,9.81,6.32,6.32,9.81,14.73,9.81,23.67s-3.48,17.35-9.81,23.67Z"/>
    <path class="cls-1" d="M34.09,19.11s-.1.04-.15.06c-.58.21-1.14.45-1.7.71-2.35,1.09-2.91,4.19-1.07,6.02h0c1.11,1.11,2.8,1.4,4.23.74.42-.19.84-.37,1.28-.53.36-.13.69-.32.99-.55.91-.69,1.47-1.77,1.47-2.95h0c0-2.6-2.6-4.4-5.04-3.49ZM25.9,31.17h0c-1.82-1.83-4.92-1.31-6,1.03-1.5,3.24-2.34,6.84-2.34,10.65,0,3.06.54,5.99,1.54,8.7.79,2.16,3.36,3.07,5.35,1.92,1.18-.68,1.87-1.92,1.87-3.22,0-.42-.07-.84-.22-1.25-.71-1.92-1.09-4-1.09-6.16,0-2.67.59-5.2,1.64-7.47.66-1.42.37-3.1-.74-4.21Z"/>
  </g>
  <g>
    <rect class="cls-2" x="86.75" y="65.12" width="16.55" height="60.96" rx="8.28" ry="8.28" transform="translate(190.06 191.2) rotate(-180)"/>
    <g>
      <path class="cls-2" d="M89.2,65.71c-1.31-1.31-2.09-2.96-2.34-4.66h0s-.08-.85-.08-.85c-.09-2.23.71-4.49,2.42-6.19s3.96-2.51,6.19-2.42l.85.08h0c1.71.25,3.35,1.03,4.66,2.34,3.23,3.23,3.23,8.47,0,11.71-3.23,3.23-8.47,3.23-11.71,0Z"/>
      <path class="cls-2" d="M66.45,88.46c-1.31-1.31-2.09-2.96-2.34-4.66h0s-.08-.85-.08-.85c-.09-2.23.71-4.49,2.42-6.19s3.96-2.51,6.19-2.42l.85.08h0c1.71.25,3.35,1.03,4.66,2.34,3.23,3.23,3.23,8.47,0,11.71-3.23,3.23-8.47,3.23-11.71,0Z"/>
      <rect class="cls-2" x="67.6" y="62.96" width="32.17" height="16.55" transform="translate(193.22 62.43) rotate(135)"/>
    </g>
    <g>
      <path class="cls-2" d="M111.95,76.75c-1.31,1.31-2.09,2.96-2.34,4.66h0s-.08.85-.08.85c-.09,2.23.71,4.49,2.42,6.19,1.7,1.7,3.96,2.51,6.19,2.42l.85-.08h0c1.71-.25,3.35-1.03,4.66-2.34,3.23-3.23,3.23-8.47,0-11.71-3.23-3.23-8.47-3.23-11.71,0Z"/>
      <path class="cls-2" d="M89.2,54.01c-1.31,1.31-2.09,2.96-2.34,4.66h0s-.08.85-.08.85c-.09,2.23.71,4.49,2.42,6.19,1.7,1.7,3.96,2.51,6.19,2.42l.85-.08h0c1.71-.25,3.35-1.03,4.66-2.34,3.23-3.23,3.23-8.47,0-11.71s-8.47-3.23-11.71,0Z"/>
      <rect class="cls-2" x="90.34" y="62.96" width="32.17" height="16.55" transform="translate(131.31 196.86) rotate(-135)"/>
    </g>
  </g>
</svg>