<?xml version="1.0" encoding="UTF-8"?>
<svg id="Layer_1" data-name="Layer 1" xmlns="http://www.w3.org/2000/svg" viewBox="0 0 128 128">
  <defs>
    <style>
      .cls-1 {
        fill: #e1e1e0;
      }
    </style>
  </defs>
  <path class="cls-1" d="M126.08,8.82v81.39c0,4.57-3.71,8.28-8.28,8.28h0c-4.57,0-8.28-3.71-8.28-8.28V22.31c0-2.12-1.72-3.84-3.84-3.84H22.31c-2.12,0-3.84,1.72-3.84,3.84v67.9c0,4.57-3.71,8.28-8.28,8.28h0c-4.57,0-8.28-3.71-8.28-8.28V8.82c0-3.81,3.09-6.9,6.9-6.9h110.36c3.81,0,6.9,3.09,6.9,6.9Z"/>
  <path class="cls-1" d="M92.6,100.91s-.1.1-.15.15l-22.45,22.45s.1-.1.14-.15c-.06.07-.13.14-.2.21-.01.02-.03.03-.05.05l-.05.05c-.1.1-.2.2-.31.29-.1.09-.2.18-.3.26-.01,0-.03.02-.04.03-.1.08-.2.16-.31.24-.11.08-.22.16-.34.24-.11.07-.23.15-.35.22,0,0-.01,0-.02.01-.11.06-.22.12-.33.18-.01,0-.03.02-.05.02-.07.04-.15.08-.22.11-.07.04-.15.07-.22.1-.1.04-.2.09-.3.13-.16.06-.31.12-.47.17-.06.02-.12.04-.19.06-.06.02-.13.04-.2.06-.04,0-.07.02-.11.03-.08.02-.16.04-.23.06-.1.02-.19.04-.29.06-.13.02-.26.05-.38.07l-.83.07c-2.23.1-4.5-.71-6.21-2.42-.03-.03-.07-.07-.1-.1-.01,0-.02-.02-.02-.02l-22.52-22.52s-.07-.06-.1-.1c-1.7-1.7-2.51-3.97-2.42-6.2l.07-.84h0c.25-1.71,1.03-3.35,2.34-4.67,3.23-3.23,8.47-3.23,11.71,0,.03.03.07.07.1.1l8.5,8.5v-57.25c0-4.57,3.71-8.28,8.28-8.28h0c4.57,0,8.28,3.71,8.28,8.28v57.3l8.56-8.56s.05-.06.08-.09c1.7-1.7,3.96-2.51,6.19-2.42l.85.08h0c1.71.25,3.35,1.03,4.66,2.34,3.23,3.23,3.23,8.47,0,11.71Z"/>
</svg>