<?xml version="1.0" encoding="UTF-8"?>
<svg id="Layer_1" data-name="Layer 1" xmlns="http://www.w3.org/2000/svg" viewBox="0 0 128 128">
  <defs>
    <style>
      .cls-1 {
        fill: #61d1fa;
      }
    </style>
  </defs>
  <path class="cls-1" d="M102.93,76.42c2.12,0,3.84,1.72,3.84,3.84v41.99c0,.09,0,.18,0,.26h0c0,1.97-1.6,3.58-3.58,3.58H24.8c-1.97,0-3.58-1.6-3.58-3.58v-8.84h0v-33.41c0-2.12,1.72-3.84,3.84-3.84h4.74c2.12,0,3.84,1.72,3.84,3.84v29.57c0,2.12,1.72,3.84,3.84,3.84h53.02c2.12,0,3.84-1.72,3.84-3.84v-29.57c0-2.12,1.72-3.84,3.84-3.84h4.74Z"/>
  <path class="cls-1" d="M122.41,54.81L68.63,6.11c-1.31-1.19-2.97-1.78-4.63-1.78s-3.32.59-4.63,1.78L5.57,54.82c-1.44,1.51-1.87,3.71-1.13,5.66v.02c.8,2.11,2.81,3.5,5.07,3.5h108.99c1.13,0,2.2-.35,3.09-.96.89-.61,1.59-1.49,1.99-2.54.74-1.96.3-4.17-1.15-5.68ZM64.9,19.49l32.83,29.73c.92.83.33,2.36-.91,2.36H31.15c-1.24,0-1.83-1.53-.91-2.36l32.84-29.73c.52-.47,1.3-.47,1.82,0Z"/>
  <g>
    <circle class="cls-1" cx="118.18" cy="39.59" r="7.9"/>
    <circle class="cls-1" cx="69.2" cy="34.7" r="12.79"/>
    <circle class="cls-1" cx="73.53" cy="30.52" r="7.9"/>
    <circle class="cls-1" cx="99.24" cy="22.61" r="20.69"/>
    <rect class="cls-1" x="68.88" y="21.91" width="49.29" height="25.58"/>
    <rect class="cls-1" x="73.53" y="22.61" width="42.69" height="14.76"/>
  </g>
  <path class="cls-1" d="M76.42,95.36v29.21h-24.83v-29.21c0-3.81,3.09-6.9,6.9-6.9h11.04c3.81,0,6.9,3.09,6.9,6.9Z"/>
</svg>