<?xml version="1.0" encoding="UTF-8"?>
<svg id="Layer_1" data-name="Layer 1" xmlns="http://www.w3.org/2000/svg" viewBox="0 0 128 128">
  <defs>
    <style>
      .cls-1 {
        fill: #59eb5c;
        stroke-width: 0px;
      }
    </style>
  </defs>
  <path class="cls-1" d="m40.64,52.36v7.68h2.67v-7.68h-2.67Z"/>
  <path class="cls-1" d="m40.64,52.36v7.68h2.67v25.2c0,1.82-.73,3.58-2.03,4.88l-11.31,11.31c-1.3,1.3-3.05,2.03-4.88,2.03h-4.96c-1.83,0-3.59-.73-4.88-2.03l-11.32-11.31c-1.29-1.3-2.02-3.06-2.02-4.88v-43.04c0-1.82.73-3.58,2.02-4.88l11.32-11.31c1.29-1.3,3.05-2.02,4.88-2.02h4.96c1.83,0,3.58.72,4.88,2.02l11.31,11.31c1.3,1.3,2.03,3.06,2.03,4.88v10.16h-2.67Z"/>
  <path class="cls-1" d="m97.64,90.97c.72.72,1.12,1.7,1.12,2.71v1.32c0,1.02-.4,1.99-1.12,2.71l-8.74,8.74c-.72.72-1.7,1.12-2.71,1.12h-1.32c-1.02,0-1.99-.4-2.71-1.12l-8.74-8.74c-.72-.72-1.12-1.7-1.12-2.71v-1.32c0-1.02.4-1.99,1.12-2.71l8.74-8.74c.72-.72,1.7-1.12,2.71-1.12h1.32c1.02,0,1.99.4,2.71,1.12l8.74,8.74Zm-9.64-17.32h-4.96c-1.83,0-3.58.73-4.88,2.02l-11.32,11.32c-1.29,1.29-2.02,3.05-2.02,4.88v4.96c0,1.83.73,3.58,2.02,4.88l11.32,11.32c1.29,1.29,3.05,2.02,4.88,2.02h4.96c1.83,0,3.58-.73,4.88-2.02l11.32-11.32c1.29-1.29,2.02-3.05,2.02-4.88v-4.96c0-1.83-.73-3.58-2.02-4.88l-11.32-11.32c-1.29-1.29-3.05-2.02-4.88-2.02h0Z"/>
  <path class="cls-1" d="m117.51,39.58c.72.72,1.12,1.7,1.12,2.71v1.32c0,1.02-.4,1.99-1.12,2.71l-8.74,8.74c-.72.72-1.7,1.12-2.71,1.12h-1.32c-1.02,0-1.99-.4-2.71-1.12l-8.74-8.74c-.72-.72-1.12-1.7-1.12-2.71v-1.32c0-1.02.4-1.99,1.12-2.71l8.74-8.74c.72-.72,1.7-1.12,2.71-1.12h1.32c1.02,0,1.99.4,2.71,1.12l8.74,8.74Zm-9.64-17.32h-4.96c-1.83,0-3.58.73-4.88,2.02l-11.32,11.32c-1.29,1.29-2.02,3.05-2.02,4.88v4.96c0,1.83.73,3.58,2.02,4.88l11.32,11.32c1.29,1.29,3.05,2.02,4.88,2.02h4.96c1.83,0,3.58-.73,4.88-2.02l11.32-11.32c1.29-1.29,2.02-3.05,2.02-4.88v-4.96c0-1.83-.73-3.58-2.02-4.88l-11.32-11.32c-1.29-1.29-3.05-2.02-4.88-2.02h0Z"/>
  <path class="cls-1" d="m86.14,39.12v7.68h-11.4v9.4c0,2.12-1.72,3.84-3.84,3.84h-10.39v30.47h6.61v7.68h-10.45c-2.12,0-3.84-1.73-3.84-3.84v-34.31h-12.18v-7.68h26.41v-9.4c0-2.12,1.73-3.84,3.84-3.84h15.24Z"/>
</svg>