<?xml version="1.0" encoding="UTF-8"?>
<svg id="Layer_1" data-name="Layer 1" xmlns="http://www.w3.org/2000/svg" viewBox="0 0 128 128">
  <defs>
    <style>
      .cls-1 {
        fill: #61d1fa;
      }
    </style>
  </defs>
  <path class="cls-1" d="M92.06,36.82v75.79c0,3.83-3.1,6.93-6.93,6.93h-42.26c-3.83,0-6.93-3.1-6.93-6.93v-41.6c0-3.83,3.1-6.93,6.93-6.93h36.72v-27.33c0-8.55-6.79-15.69-15.34-15.82-7.17-.11-13.27,4.65-15.2,11.18-.77,2.59-3.1,4.41-5.8,4.41h-.45c-4.02,0-6.89-3.85-5.78-7.71,3.36-11.78,14.23-20.4,27.1-20.35,15.51.06,27.96,12.86,27.96,28.37Z"/>
</svg>