<?xml version="1.0" encoding="UTF-8"?>
<svg id="Layer_1" data-name="Layer 1" xmlns="http://www.w3.org/2000/svg" viewBox="0 0 128 128">
  <defs>
    <style>
      .cls-1 {
        fill: #e1e1e0;
      }

      .cls-2 {
        fill: #ba64f2;
      }

      .cls-3 {
        fill: #f8f770;
      }
    </style>
  </defs>
  <path class="cls-1" d="M23.9,60.14h7.72c2.13,0,3.86,1.73,3.86,3.86,0,2.13-1.73,3.86-3.86,3.86h-7.72c-2.13,0-3.86-1.73-3.86-3.86,0-2.13,1.73-3.86,3.86-3.86Z"/>
  <path class="cls-3" d="M65.65,78.88c-3.97,3.97-9.26,6.16-14.88,6.16-2.4,0-4.76-.4-6.99-1.19l-36.72-13.1c-2.93-.95-4.9-3.66-4.9-6.75,0-3.09,1.97-5.8,4.9-6.75l.93-.3v-.03s35.78-12.76,35.78-12.76c2.24-.79,4.6-1.19,7-1.19,5.62,0,10.9,2.19,14.88,6.16,3.97,3.97,6.16,9.26,6.16,14.88,0,5.62-2.19,10.9-6.16,14.88Z"/>
  <path class="cls-3" d="M76.63,95.09l-5.46-5.46c-1.51-1.51-1.51-3.95,0-5.46,1.51-1.51,3.95-1.51,5.46,0l5.46,5.46c1.51,1.51,1.51,3.95,0,5.46-1.51,1.51-3.95,1.51-5.46,0Z"/>
  <path class="cls-2" d="M91.11,67.86h-7.72c-2.13,0-3.86-1.73-3.86-3.86,0-2.13,1.73-3.86,3.86-3.86h7.72c2.13,0,3.86,1.73,3.86,3.86,0,2.13-1.73,3.86-3.86,3.86Z"/>
  <path class="cls-3" d="M82.09,38.37l-5.46,5.46c-1.51,1.51-3.95,1.51-5.46,0-1.51-1.51-1.51-3.95,0-5.46l5.46-5.46c1.51-1.51,3.95-1.51,5.46,0s1.51,3.95,0,5.46Z"/>
  <g>
    <g>
      <path class="cls-3" d="M91.11,67.86h-7.72c-2.13,0-3.86-1.73-3.86-3.86,0-2.13,1.73-3.86,3.86-3.86h7.72c2.13,0,3.86,1.73,3.86,3.86,0,2.13-1.73,3.86-3.86,3.86Z"/>
      <path class="cls-3" d="M98.83,67.86h-7.72c-2.13,0-3.86-1.73-3.86-3.86,0-2.13,1.73-3.86,3.86-3.86h7.72c2.13,0,3.86,1.73,3.86,3.86,0,2.13-1.73,3.86-3.86,3.86Z"/>
      <path class="cls-3" d="M106.55,67.86h-7.72c-2.13,0-3.86-1.73-3.86-3.86,0-2.13,1.73-3.86,3.86-3.86h7.72c2.13,0,3.86,1.73,3.86,3.86s-1.73,3.86-3.86,3.86Z"/>
      <path class="cls-3" d="M114.27,67.86h-7.72c-2.13,0-3.86-1.73-3.86-3.86,0-2.13,1.73-3.86,3.86-3.86h7.72c2.13,0,3.86,1.73,3.86,3.86s-1.73,3.86-3.86,3.86Z"/>
      <path class="cls-3" d="M121.99,67.86h-7.72c-2.13,0-3.86-1.73-3.86-3.86,0-2.13,1.73-3.86,3.86-3.86h7.72c2.13,0,3.86,1.73,3.86,3.86,0,2.13-1.73,3.86-3.86,3.86Z"/>
    </g>
    <g>
      <path class="cls-3" d="M113.8,61.27l-5.46-5.46c-1.51-1.51-1.51-3.95,0-5.46,1.51-1.51,3.95-1.51,5.46,0l5.46,5.46c1.51,1.51,1.51,3.95,0,5.46s-3.95,1.51-5.46,0Z"/>
      <path class="cls-3" d="M119.26,66.73l-5.46-5.46c-1.51-1.51-1.51-3.95,0-5.46,1.51-1.51,3.95-1.51,5.46,0l5.46,5.46c1.51,1.51,1.51,3.95,0,5.46-1.51,1.51-3.95,1.51-5.46,0Z"/>
    </g>
    <g>
      <path class="cls-3" d="M119.26,72.19l-5.46,5.46c-1.51,1.51-3.95,1.51-5.46,0-1.51-1.51-1.51-3.95,0-5.46l5.46-5.46c1.51-1.51,3.95-1.51,5.46,0,1.51,1.51,1.51,3.95,0,5.46Z"/>
      <path class="cls-3" d="M124.72,66.73l-5.46,5.46c-1.51,1.51-3.95,1.51-5.46,0-1.51-1.51-1.51-3.95,0-5.46l5.46-5.46c1.51-1.51,3.95-1.51,5.46,0s1.51,3.95,0,5.46Z"/>
    </g>
  </g>
</svg>