<?xml version="1.0" encoding="UTF-8"?>
<svg id="Layer_1" data-name="Layer 1" xmlns="http://www.w3.org/2000/svg" viewBox="0 0 128 128">
  <defs>
    <style>
      .cls-1 {
        fill: #e1e1e0;
      }
    </style>
  </defs>
  <path class="cls-1" d="M122.24,1.92H22.61C11.18,1.92,1.92,11.18,1.92,22.61v82.78c0,11.43,9.26,20.69,20.69,20.69h82.78c11.43,0,20.69-9.26,20.69-20.69V5.76c0-2.12-1.72-3.84-3.84-3.84ZM118.63,105.39c0,7.3-5.94,13.24-13.24,13.24H22.61c-7.3,0-13.24-5.94-13.24-13.24V22.61c0-7.3,5.94-13.24,13.24-13.24h45.14v12.62c0,2.12,1.72,3.84,3.84,3.84h47.04v79.56Z"/>
  <g>
    <path class="cls-1" d="M97.07,70.66h-39.73V30.93c10.61,0,20.59,4.13,28.09,11.64,7.5,7.5,11.64,17.48,11.64,28.09Z"/>
    <path class="cls-1" d="M57.34,70.66v39.73c-10.61,0-20.59-4.13-28.09-11.64-7.5-7.5-11.64-17.48-11.64-28.09h39.73Z"/>
    <path class="cls-1" d="M57.34,38.63c8.56,0,16.6,3.33,22.65,9.38,6.05,6.05,9.38,14.09,9.38,22.65s-3.33,16.6-9.38,22.65c-6.05,6.05-14.09,9.38-22.65,9.38s-16.6-3.33-22.65-9.38c-6.05-6.05-9.38-14.09-9.38-22.65s3.33-16.6,9.38-22.65c6.05-6.05,14.09-9.38,22.65-9.38M57.34,30.93c-21.94,0-39.73,17.79-39.73,39.73s17.79,39.73,39.73,39.73,39.73-17.79,39.73-39.73-17.79-39.73-39.73-39.73h0Z"/>
  </g>
</svg>