<?xml version="1.0" encoding="UTF-8"?>
<svg id="Layer_1" data-name="Layer 1" xmlns="http://www.w3.org/2000/svg" viewBox="0 0 128 128">
  <defs>
    <style>
      .cls-1 {
        fill: #ba64f2;
      }

      .cls-2 {
        fill: #59eb5c;
      }
    </style>
  </defs>
  <path class="cls-2" d="M76.37,88.97c-.07,3.4-2.94,6.08-6.35,6.08H8.13c-3.43,0-6.21-2.78-6.21-6.21v-43.56c0-3.48,2.85-6.41,6.33-6.35,3.37.06,6.08,2.82,6.08,6.21v33.65c0,2.12,1.72,3.84,3.84,3.84h51.99c1.72,0,3.26.7,4.39,1.82,1.15,1.15,1.85,2.75,1.82,4.52Z"/>
  <rect class="cls-2" x="48.41" y="89.08" width="30.63" height="12.41" rx="6.21" ry="6.21" transform="translate(-48.71 72.97) rotate(-45)"/>
  <rect class="cls-2" x="57.52" y="67.09" width="12.41" height="30.63" rx="6.21" ry="6.21" transform="translate(-39.6 69.2) rotate(-45)"/>
  <path class="cls-1" d="M126.08,88.85h0c0,6.16-5,11.16-11.16,11.16h-27.94c-2.05,0-3.72-1.66-3.72-3.72h0c0-2.05,1.66-3.72,3.72-3.72h21.58c1.03,0,1.96-.42,2.63-1.09.73-.73,1.16-1.76,1.08-2.88-.13-1.97-1.85-3.47-3.83-3.47h-21.47c-2.05,0-3.72-1.66-3.72-3.72h0c0-2.05,1.66-3.72,3.72-3.72h27.94c6.16,0,11.16,5,11.16,11.16Z"/>
  <g>
    <rect class="cls-2" x="76.7" y="32.05" width="49.06" height="13.79" rx="6.9" ry="6.9"/>
    <rect class="cls-2" x="76.7" y="32.05" width="49.06" height="13.79" rx="6.9" ry="6.9" transform="translate(140.17 -62.28) rotate(90)"/>
  </g>
</svg>