<?xml version="1.0" encoding="UTF-8"?>
<svg id="Layer_1" data-name="Layer 1" xmlns="http://www.w3.org/2000/svg" viewBox="0 0 128 128">
  <defs>
    <style>
      .cls-1 {
        fill: #e1e1e0;
      }
    </style>
  </defs>
  <path class="cls-1" d="M62.55,17.2v27.59c0,3.81,3.09,6.9,6.9,6.9h41.39c3.81,0,6.9-3.09,6.9-6.9v-27.59c0-3.81-3.09-6.9-6.9-6.9h-41.39c-3.81,0-6.9,3.09-6.9,6.9ZM104.17,17.75l-11.31,11.31c-1.5,1.5-3.93,1.5-5.43,0l-11.31-11.31h28.06ZM110.28,44.24h-40.28v-21.74l15.26,15.26c2.69,2.69,7.06,2.69,9.75,0l.55-.55,14.71-14.71v21.74Z"/>
  <g>
    <path class="cls-1" d="M53.2,78.91c6.81.2,12.19,5.9,11.99,12.71-.04,1.41-.32,2.79-.82,4.08l-8.33,21.37h-.03s-.35.98-.35.98c-.55,1.55-2.03,2.56-3.68,2.51-1.65-.05-3.06-1.14-3.52-2.72l-.33-1.11h-.03s-7.04-21.7-7.04-21.7c-.43-1.33-.62-2.72-.58-4.13.1-3.3,1.47-6.36,3.87-8.63,2.4-2.26,5.54-3.46,8.84-3.36Z"/>
    <circle class="cls-1" cx="52.91" cy="66.76" r="6.9"/>
  </g>
  <g>
    <path class="cls-1" d="M22.91,78.91c6.81.2,12.19,5.9,11.99,12.71-.04,1.41-.32,2.79-.82,4.08l-8.33,21.37h-.03s-.35.98-.35.98c-.55,1.55-2.03,2.56-3.68,2.51-1.65-.05-3.06-1.14-3.52-2.72l-.33-1.11h-.03s-7.04-21.7-7.04-21.7c-.43-1.33-.62-2.72-.58-4.13.1-3.3,1.47-6.36,3.87-8.63,2.4-2.26,5.54-3.46,8.84-3.36Z"/>
    <circle class="cls-1" cx="22.61" cy="66.76" r="6.9"/>
  </g>
</svg>