<?xml version="1.0" encoding="UTF-8"?>
<svg id="Layer_1" data-name="Layer 1" xmlns="http://www.w3.org/2000/svg" viewBox="0 0 128 128">
  <defs>
    <style>
      .cls-1 {
        fill: #e1e1e0;
      }
    </style>
  </defs>
  <path class="cls-1" d="M51.21,34.19l-7.57,27.42c-1.01,3.67-4.81,5.83-8.48,4.81l-8.54-2.36c-3.67-1.01-5.83-4.81-4.81-8.48l.2-.72,12.68,3.5c.52.14,1.05.06,1.48-.18.47-.27.83-.73.95-1.31.21-1.01-.46-2.01-1.46-2.28l-13.36-3.69c-3.67-1.01-5.83-4.81-4.81-8.48l.19-.71,20.08,5.54c.52.14,1.05.06,1.48-.18.47-.27.84-.73.95-1.32.2-1.01-.47-2-1.47-2.27l-18.17-5.02c-5.1-1.41-8.1-6.69-6.69-11.79,1.41-5.1,6.69-8.1,11.79-6.69l20.76,5.73c3.67,1.01,5.83,4.81,4.81,8.48Z"/>
  <path class="cls-1" d="M57,34.32c-.08.17-.15.34-.22.51.07-.17.14-.34.22-.51Z"/>
  <path class="cls-1" d="M68.01,32.35c-.27-.26-.55-.49-.86-.71.3.21.59.44.86.71Z"/>
  <path class="cls-1" d="M69.59,34.68c-.07-.18-.15-.36-.24-.53.09.17.17.35.24.53Z"/>
  <path class="cls-1" d="M118.91,25.14l-27.28,15.75c-1.02.59-2.12.89-3.22.92h0c-.29.06-.59.11-.89.14l-10.91.95-2.13-7.94c-.24-1.24-.69-2.46-1.34-3.59-.39-.68-.85-1.32-1.37-1.89l14.17-1.24h0l26.06-15.05c3.3-1.9,7.52-.77,9.42,2.52,1.91,3.3.77,7.52-2.52,9.42Z"/>
  <path class="cls-1" d="M74.48,34.96l-.17-.63c-.49-1.85-1.43-3.5-2.68-4.84h.14c.51.56.97,1.2,1.37,1.88.65,1.13,1.1,2.34,1.34,3.59Z"/>
  <g>
    <path class="cls-1" d="M62.81,62.4s-.01-.04-.02-.06c-.01-.04-.02-.09-.04-.14.02.07.04.13.06.2Z"/>
    <path class="cls-1" d="M67.09,66.82c-.11-.04-.22-.08-.33-.13-.02,0-.04-.01-.06-.02-.02,0-.03-.01-.05-.02-.09-.03-.17-.07-.25-.11-.17-.08-.33-.17-.49-.26-.16-.09-.32-.19-.47-.3-.3-.21-.59-.44-.86-.71-.12-.12-.24-.24-.35-.37-.07-.08-.14-.15-.2-.23-.11-.13-.21-.27-.31-.41-.03-.04-.05-.07-.08-.11-.14-.2-.27-.42-.38-.64v.02c.04.1.09.2.15.29.09.17.19.33.3.48.05.08.11.16.16.23.11.15.23.3.35.44.06.07.12.14.19.21.13.13.26.26.4.39.56.5,1.2.9,1.89,1.2.13.06.27.11.4.16l.02-.08s-.02,0-.04-.01ZM62.08,67.42c0,.07-.01.13-.02.2,0,.01,0,.03,0,.04,0,.07-.02.14-.03.2,0,.05-.02.1-.03.16,0,.05-.02.11-.03.16-.01.06-.02.11-.04.17-.01.06-.02.11-.04.17-.01.05-.03.11-.04.16-.02.08-.05.15-.07.23.01.01.02.02.04.03.02-.08.05-.16.07-.24.15-.56.23-1.12.23-1.67,0,.13-.01.26-.03.39ZM57.19,33.72c.09-.16.19-.33.3-.48-.11.16-.21.32-.3.48ZM56.81,34.49c.07-.18.15-.36.24-.52-.09.17-.17.35-.24.52Z"/>
  </g>
  <g>
    <path class="cls-1" d="M67.13,66.83l-.02.08c-.13-.05-.27-.1-.4-.16-.69-.29-1.33-.7-1.89-1.2-.14-.13-.27-.25-.4-.39-.06-.07-.13-.14-.19-.21-.12-.14-.24-.29-.35-.44-.06-.07-.11-.15-.16-.23-.11-.16-.21-.32-.3-.48-.05-.1-.11-.19-.16-.29v-.02c.12.22.25.44.39.64.02.04.05.08.08.11.1.14.2.28.31.41.06.08.13.16.2.23.11.13.23.25.35.37.27.26.55.49.86.71.15.11.31.21.47.3.16.09.32.18.49.26.08.04.17.08.25.11.02,0,.03.01.05.02.02,0,.04.02.06.02.11.05.22.09.33.13.01,0,.02,0,.04.01Z"/>
    <path class="cls-1" d="M62.08,67.42c0,.07-.01.13-.02.2,0,.01,0,.03,0,.04,0,.07-.02.14-.03.2,0,.05-.02.1-.03.16,0,.05-.02.11-.03.16-.01.06-.02.11-.04.17-.01.06-.02.11-.04.17-.01.05-.03.11-.04.16-.02.08-.05.15-.07.23,0,.02-.01.04-.02.06.01.01.03.02.04.03,0-.02.01-.04.02-.06.02-.08.05-.16.07-.24.15-.56.23-1.12.23-1.67,0,.13-.01.26-.03.39ZM65.85,71.25s-.03-.01-.05-.02c0,0-.02,0-.03,0l.02.03s-.01.04-.03.06c.02,0,.04.01.06.02,0,0,.01,0,.02,0v-.02s0-.04.01-.06ZM63.41,63.82c.09.17.19.33.3.48-.11-.16-.21-.32-.3-.48Z"/>
  </g>
  <path class="cls-1" d="M48.71,64.5l-.17.63c-.02.1-.05.2-.07.29,0,.04-.02.08-.03.13-.02.08-.03.17-.05.25.06-.44.17-.88.32-1.3Z"/>
  <path class="cls-1" d="M54.71,73.8c.06,0,.11,0,.17,0-.06,0-.11,0-.17,0Z"/>
  <path class="cls-1" d="M54.32,73.76c.13.02.26.03.39.04-.13,0-.26-.02-.39-.04Z"/>
  <path class="cls-1" d="M54.88,73.8c.07,0,.13,0,.2,0-.07,0-.13,0-.2,0Z"/>
  <path class="cls-1" d="M62.1,67.03c0,.55-.08,1.11-.23,1.67-.02.08-.04.16-.07.24,0,.02-.01.04-.02.06-.01,0-.02-.02-.04-.03,0-.02.01-.04.02-.06.02-.08.05-.15.07-.23.01-.05.03-.11.04-.16.02-.06.03-.11.04-.17.01-.05.03-.11.04-.17,0-.05.02-.1.03-.16,0-.05.02-.1.03-.16.01-.07.02-.14.03-.2,0-.01,0-.03,0-.04,0-.06.02-.13.02-.2.01-.13.02-.26.03-.39Z"/>
  <path class="cls-1" d="M73.5,90.04h0s-10.68,29.34-10.68,29.34c-1.3,3.58-5.26,5.43-8.84,4.12-3.58-1.3-5.43-5.26-4.12-8.84l9.69-26.62-1.68-2.91,6.56-11.37c.55-.74,1.02-1.56,1.38-2.43,0,0,.01,0,.02,0l7.28,12.6c1.12,1.93,1.19,4.19.39,6.1Z"/>
  <path class="cls-1" d="M65.84,71.34s-.01,0-.02,0c-.36.87-.83,1.69-1.38,2.43l.73-1.26c.23-.39.42-.79.6-1.19.01-.02.02-.04.03-.06l.04.06v.02Z"/>
  <g>
    <path class="cls-1" d="M54.71,73.8c.06,0,.11,0,.17,0-.06,0-.11,0-.17,0Z"/>
    <path class="cls-1" d="M55.08,73.81c-.07,0-.13,0-.2,0,.07,0,.13,0,.2,0Z"/>
    <path class="cls-1" d="M54.32,73.76c.13.02.26.03.39.04-.13,0-.26-.02-.39-.04Z"/>
    <path class="cls-1" d="M42.4,94.23c-.18-.02-.36-.05-.53-.09.18.04.36.07.53.09Z"/>
    <path class="cls-1" d="M48.71,64.5l-.17.63c-.02.1-.05.2-.07.29,0,.04-.02.08-.03.13-.02.08-.03.17-.05.25.06-.44.17-.88.32-1.3Z"/>
    <polygon class="cls-1" points="48.86 63.97 48.72 64.48 48.85 63.97 48.86 63.97"/>
    <path class="cls-1" d="M41.86,94.14c.18.04.36.07.53.09-.18-.02-.36-.05-.53-.09ZM62.08,67.42c0,.07-.01.13-.02.2,0,.01,0,.03,0,.04,0,.07-.02.14-.03.2,0,.05-.02.1-.03.16,0,.05-.02.11-.03.16-.01.06-.02.11-.04.17-.01.06-.02.11-.04.17-.01.05-.03.11-.04.16-.02.08-.05.15-.07.23,0,.02-.01.04-.02.06.01.01.03.02.04.03,0-.02.01-.04.02-.06.02-.08.05-.16.07-.24.15-.56.23-1.12.23-1.67,0,.13-.01.26-.03.39ZM62.75,62.2s.02.09.04.14c0,.02,0,.04.02.06-.02-.06-.04-.13-.06-.2ZM66.7,66.67s-.03-.01-.05-.02c-.08-.04-.17-.07-.25-.11-.17-.08-.33-.17-.49-.26-.16-.09-.32-.19-.47-.3-.3-.21-.59-.45-.86-.71-.12-.12-.24-.24-.35-.37-.07-.08-.14-.15-.2-.23-.11-.13-.21-.27-.31-.41-.03-.04-.05-.07-.08-.11-.14-.2-.27-.42-.38-.64v.02c.04.1.09.2.15.29.09.17.19.33.3.48.05.08.11.16.16.23.11.15.23.3.35.44.06.07.12.14.19.21.13.13.26.26.4.39.56.5,1.2.9,1.89,1.2,0-.03,0-.06,0-.09ZM65.77,71.22l.02.03s0-.01,0-.02c0,0-.02,0-.03,0Z"/>
  </g>
  <polygon class="cls-1" points="48.86 63.97 48.72 64.48 48.85 63.97 48.86 63.97"/>
  <path class="cls-1" d="M57.05,33.97c-.09.17-.17.35-.24.52.07-.18.15-.36.24-.52Z"/>
  <path class="cls-1" d="M57.49,33.24c-.11.16-.21.32-.3.48.09-.17.19-.33.3-.48Z"/>
  <path class="cls-1" d="M62.1,67.03c0,.55-.08,1.11-.23,1.67-.02.08-.04.16-.07.24,0,.02-.01.04-.02.06-.01,0-.02-.02-.04-.03,0-.02.01-.04.02-.06.02-.08.05-.15.07-.23.01-.05.03-.11.04-.16.02-.06.03-.11.04-.17.01-.05.03-.11.04-.17,0-.05.02-.1.03-.16,0-.05.02-.1.03-.16.01-.07.02-.14.03-.2,0-.01,0-.03,0-.04,0-.06.02-.13.02-.2.01-.13.02-.26.03-.39Z"/>
  <path class="cls-1" d="M62.81,62.4s-.01-.04-.02-.06c-.01-.04-.02-.09-.04-.14.02.07.04.13.06.2Z"/>
  <path class="cls-1" d="M57,34.32c-.08.17-.15.34-.22.51.07-.17.14-.34.22-.51Z"/>
  <path class="cls-1" d="M68.01,32.35c-.27-.26-.55-.49-.86-.71.3.21.59.44.86.71Z"/>
  <path class="cls-1" d="M69.59,34.68c-.07-.18-.15-.36-.24-.53.09.17.17.35.24.53Z"/>
  <path class="cls-1" d="M65.8,71.23s-.02,0-.03,0l.02.03s-.01.04-.03.06c-.17.41-.37.8-.6,1.19l-.73,1.26c.55-.74,1.02-1.56,1.38-2.43,0,0,0-.01,0-.02,0-.02.02-.04.02-.06-.02,0-.03-.01-.05-.02ZM67.09,66.82c-.11-.04-.22-.08-.33-.13-.02,0-.04-.01-.06-.02-.02,0-.03-.01-.05-.02-.08-.04-.17-.07-.25-.11-.17-.08-.33-.17-.49-.26-.16-.09-.32-.19-.47-.3-.3-.21-.59-.45-.86-.71-.12-.12-.24-.24-.35-.37-.07-.08-.14-.15-.2-.23-.11-.13-.21-.27-.31-.41-.03-.04-.05-.07-.08-.11-.14-.2-.27-.42-.38-.64v.02c.04.1.09.2.15.29.09.17.19.33.3.48.05.08.11.16.16.23.11.15.23.3.35.44.06.07.12.14.19.21.13.13.26.26.4.39.56.5,1.2.9,1.89,1.2.13.06.27.11.4.16l.02-.08s-.02,0-.04-.01ZM73.14,31.37c-.39-.68-.85-1.32-1.37-1.89h-.14c1.25,1.35,2.19,3,2.68,4.85l.17.63c-.24-1.24-.69-2.46-1.34-3.59ZM48.4,65.8c.01-.08.03-.17.05-.25,0-.04.02-.08.03-.13.02-.1.05-.2.07-.29l.17-.63c-.15.42-.25.86-.32,1.3ZM48.85,63.97l-.14.52.14-.52h0ZM57.19,33.72c.09-.16.19-.33.3-.48-.11.16-.21.32-.3.48ZM56.81,34.49c.07-.18.15-.36.24-.52-.09.17-.17.35-.24.52Z"/>
  <circle class="cls-1" cx="69.06" cy="15.23" r="11.16"/>
  <path class="cls-1" d="M62.1,67.03c0,.55-.08,1.11-.23,1.67-.02.08-.04.16-.07.24,0,.02-.01.04-.02.06-.01,0-.02-.02-.04-.03,0-.02.01-.04.02-.06.02-.08.05-.15.07-.23.01-.05.03-.11.04-.16.02-.06.03-.11.04-.17.01-.05.03-.11.04-.17,0-.05.02-.1.03-.16,0-.05.02-.1.03-.16.01-.07.02-.14.03-.2,0-.01,0-.03,0-.04,0-.06.02-.13.02-.2.01-.13.02-.26.03-.39Z"/>
  <path class="cls-1" d="M62.81,62.4s-.01-.04-.02-.06c-.01-.04-.02-.09-.04-.14.02.07.04.13.06.2Z"/>
  <path class="cls-1" d="M106.5,50.48c-.31-1.15-.89-2.16-1.67-2.97-.06-.07-.13-.13-.2-.2-.23-.22-.47-.42-.73-.61-.24-.18-.49-.34-.75-.48-.11-.06-.22-.12-.34-.18-.14-.07-.29-.13-.43-.19-.05-.02-.1-.04-.15-.05-.13-.05-.26-.09-.39-.13-.04-.01-.08-.02-.12-.03-.14-.04-.29-.08-.43-.11-.03,0-.07-.01-.1-.02-.25-.05-.5-.09-.75-.11-.02,0-.03,0-.05,0-.47-.04-.96-.03-1.44.03-.3.04-.6.1-.9.18l-19.33,5.18-4.43,1.19h0l-1.19-4.44-.4-1.49h0s-.73-2.73-.73-2.73l-1.99-7.41v-.03s0-.01,0-.02c0-.01,0-.02,0-.04,0-.05-.02-.1-.03-.15-.08-.37-.19-.73-.33-1.08-.02-.07-.05-.13-.08-.2-.03-.07-.06-.14-.1-.22-.02-.04-.03-.07-.05-.11-.03-.07-.07-.14-.11-.21-.08-.15-.17-.3-.26-.44-.05-.08-.1-.15-.15-.23-.08-.12-.17-.24-.26-.36-.04-.05-.08-.1-.12-.15-.21-.25-.44-.48-.68-.7-.04-.04-.08-.07-.12-.11-.13-.11-.26-.21-.39-.31-.05-.04-.11-.08-.17-.12-.04-.03-.08-.06-.12-.08-.1-.07-.21-.13-.32-.19-.09-.05-.18-.11-.28-.15-.06-.03-.13-.06-.19-.1-.01,0-.03-.01-.04-.02-.07-.03-.14-.07-.22-.1-.06-.03-.13-.06-.2-.08-.02,0-.05-.02-.07-.03-.07-.02-.13-.05-.2-.07-.08-.03-.16-.05-.24-.08-.08-.02-.16-.05-.25-.07-.15-.04-.3-.07-.45-.1-.14-.03-.28-.05-.42-.07-.21-.03-.41-.05-.62-.05-.05,0-.11,0-.16,0-.01,0-.02,0-.03,0h-.11c-.09,0-.19,0-.29,0-.19,0-.37.02-.56.05-.09.01-.18.02-.28.04-.18.03-.37.07-.55.11-.18.04-.36.1-.53.16-.18.06-.35.13-.52.2-.08.04-.17.07-.25.11-.17.08-.33.17-.49.26-.4.23-.78.5-1.12.81-.07.06-.14.13-.2.19s-.13.13-.2.2c-.06.07-.13.14-.19.21-.12.14-.24.29-.35.44-.05.08-.11.15-.16.23-.11.16-.21.32-.3.48-.05.08-.09.17-.14.25-.09.17-.17.35-.24.52h0c-.03.07-.05.14-.08.21-.02.06-.05.13-.07.19,0,.01,0,.02,0,.04-.02.06-.04.13-.06.19-.02.07-.04.14-.06.21l-2.87,10.71-2.69,10.04-2.11,7.88h0s-.14.52-.14.52l.14-.52-4.26,7.37-5.96,10.34-6.08,1.63-21.8,5.84c-3.68.99-5.86,4.77-4.88,8.45.99,3.68,4.77,5.86,8.45,4.88l22.06-5.91,8.37-2.24c1.02-.27,1.92-.76,2.68-1.4,0,0,.01,0,.02-.01.12-.09.24-.18.35-.28.23-.2.45-.41.65-.64.08-.09.15-.17.22-.27.07-.09.14-.18.21-.28.08-.11.15-.22.22-.33.05-.09.11-.18.16-.27l5.94-10.3,1.27-2.2,4.1-7.11s0,0,0-.01c.13-.16.26-.33.37-.51.05-.08.11-.16.15-.24.04-.06.07-.12.11-.19.03-.06.07-.12.1-.18.04-.07.07-.14.1-.21.03-.07.07-.14.1-.22.09-.22.18-.44.25-.67-.01,0-.02-.02-.04-.03,0-.02.01-.04.02-.06.02-.08.05-.15.07-.23.01-.05.03-.11.04-.16.02-.06.03-.11.04-.17.01-.05.03-.11.04-.17,0-.05.02-.1.03-.16,0-.05.02-.1.03-.16.01-.07.02-.14.03-.2,0-.01,0-.03,0-.04,0-.06.02-.13.02-.2.01-.13.02-.26.03-.39,0,.55-.08,1.11-.23,1.67l.77-2.89.61-2.28v-.02c.12.22.25.44.39.64.02.04.05.08.08.11.1.14.2.28.31.41.06.08.13.16.2.23.11.13.23.25.35.37.27.26.55.49.86.71.15.11.31.21.47.3.16.09.32.18.49.26.08.04.17.08.25.11.02,0,.03.01.05.02.02,0,.04.02.06.02.11.05.22.09.33.13.01,0,.02,0,.04.01l-.02.08c.21.07.42.14.63.19.18.05.36.08.55.11.09.02.19.03.28.04.19.02.38.04.56.05.68.03,1.38-.04,2.08-.23l8.79-2.36,21.63-5.8c3.68-.99,5.86-4.77,4.88-8.45ZM41.86,94.14c.18.04.36.07.53.09-.18-.02-.36-.05-.53-.09ZM48.54,65.13c-.02.1-.05.2-.07.29,0,.04-.02.08-.03.13-.02.08-.03.17-.05.25.06-.44.17-.88.32-1.3l-.17.63ZM56.78,34.83c.07-.17.14-.34.22-.51-.08.17-.15.34-.22.51ZM62.79,62.34s-.02-.09-.04-.14c.02.07.04.13.06.2,0-.02-.01-.04-.02-.06ZM67.16,31.64c.3.21.59.44.86.71-.27-.26-.55-.49-.86-.71ZM69.35,34.15c.09.17.17.35.24.53-.07-.18-.15-.36-.24-.53Z"/>
  <path class="cls-1" d="M67.13,66.83l-.02.08c-.13-.05-.27-.1-.4-.16-.69-.29-1.33-.7-1.89-1.2-.14-.13-.27-.25-.4-.39-.06-.07-.13-.14-.19-.21-.12-.14-.24-.29-.35-.44-.06-.07-.11-.15-.16-.23-.11-.16-.21-.32-.3-.48-.05-.1-.11-.19-.16-.29v-.02c.12.22.25.44.39.64.02.04.05.08.08.11.1.14.2.28.31.41.06.08.13.16.2.23.11.13.23.25.35.37.27.26.55.49.86.71.15.11.31.21.47.3.16.09.32.18.49.26.08.04.17.08.25.11.02,0,.03.01.05.02.02,0,.04.02.06.02.11.05.22.09.33.13.01,0,.02,0,.04.01Z"/>
  <path class="cls-1" d="M42.4,94.23c-.18-.02-.36-.05-.53-.09.18.04.36.07.53.09Z"/>
  <path class="cls-1" d="M54.32,73.76c.13.02.26.03.39.04-.13,0-.26-.02-.39-.04Z"/>
  <path class="cls-1" d="M54.71,73.8c.06,0,.11,0,.17,0-.06,0-.11,0-.17,0Z"/>
  <path class="cls-1" d="M55.08,73.81c-.07,0-.13,0-.2,0,.07,0,.13,0,.2,0Z"/>
  <path class="cls-1" d="M42.4,94.23c-.18-.02-.36-.05-.53-.09.18.04.36.07.53.09Z"/>
  <path class="cls-1" d="M48.71,64.5l-.17.63c-.02.1-.05.2-.07.29,0,.04-.02.08-.03.13-.02.08-.03.17-.05.25.06-.44.17-.88.32-1.3Z"/>
  <polygon class="cls-1" points="48.86 63.97 48.72 64.48 48.85 63.97 48.86 63.97"/>
</svg>