<?xml version="1.0" encoding="UTF-8"?>
<svg id="Layer_1" data-name="Layer 1" xmlns="http://www.w3.org/2000/svg" viewBox="0 0 128 128">
  <defs>
    <style>
      .cls-1 {
        fill: #e1e1e0;
      }
    </style>
  </defs>
  <path class="cls-1" d="M114.78,43.89c-2.43-.65-4.99-.65-7.41,0-.71.19-1.39.43-2.05.72-2.34,1.03-4.35,2.66-5.83,4.7-1.02,1.4-1.79,2.99-2.25,4.71l-2.3,8.57-.02.09V21.04c0-7.92-6.48-14.6-14.4-14.56-3.31.02-6.35,1.16-8.77,3.07-2.49-4.25-7.1-7.12-12.37-7.12-2.47,0-4.8.63-6.82,1.73-.1.05-.2.11-.3.17-.09.05-.19.11-.28.16-.17.1-.33.21-.5.32-.12.08-.24.16-.35.24-.13.09-.25.18-.37.27-.03.03-.07.05-.1.08-.1.08-.21.16-.31.25-.02.02-.05.04-.07.06-.11.09-.22.19-.33.28-.25.22-.5.45-.74.69-.12.12-.23.24-.35.37-.23.25-.45.5-.66.76-.11.13-.21.27-.31.4-.15.2-.3.41-.44.62-.14.21-.28.42-.4.64-.08.15-.17.29-.25.44-.08.15-.16.3-.23.45,0,.01-.01.03-.02.04-.05.1-.1.21-.15.31-.02.03-.03.07-.05.1-.05.11-.1.23-.15.34-.2.46-.37.94-.52,1.42-.03.12-.07.23-.1.35-.03.12-.07.24-.1.37-.03.12-.06.25-.09.37s-.05.25-.08.37c-.02.12-.04.23-.06.35-.02.13-.04.27-.06.4-.01.09-.02.19-.03.28-2.07-1.16-4.46-1.83-7-1.83-7.4,0-13.51,5.64-14.25,12.85-2.07-1.16-4.44-1.82-6.97-1.82-7.9,0-14.32,6.43-14.32,14.32v53.46c0,18.49,14.99,33.48,33.48,33.48h35.12c1.29,0,2.57-.05,3.83-.15,7.97-.63,15.38-3.23,21.77-7.3,8.26-5.27,14.79-13.02,18.54-22.19h0c.12-.31.25-.62.37-.94.29-.77.57-1.54.82-2.33l.11-.41,1.18-4.4.8-2.98h0s4.71-17.59,4.71-17.59l1.56-5.84c2.04-7.63-2.5-15.5-10.13-17.54ZM111.51,83.35s0,.05-.01.08c0-.03,0-.05,0-.08h0s0-.06,0-.09c0,0,0,0,0,0,.03-.11.07-.22.1-.33l-.11.42ZM117.71,59.51l-1.06,3.97-1.02,3.8-.26.95-1.74,6.5-1.95,7.27h0s-.25.95-.25.95l-.11.42s0,.05-.01.08c0-.03,0-.05,0-.08l-.73,2.71c-.03.18-.07.36-.11.53-.26,1.16-.56,2.3-.91,3.4h0s0,.02,0,.02c-.05.17-.11.34-.16.51-.19.59-.41,1.19-.64,1.81-.08.22-.17.44-.28.71l-.02.06c-1.57,3.84-3.72,7.4-6.4,10.6-2.66,3.18-5.77,5.91-9.26,8.13-5.5,3.51-11.85,5.63-18.36,6.15-1.07.08-2.16.13-3.24.13h-34.32c-14.82,0-26.83-12.01-26.83-26.83v-52.5c0-3.85,3.15-7.1,7.01-7.03,3.73.07,6.74,3.12,6.74,6.87v26h.02v2.65h-.02v3.71c0,.31.04.62.11.9.4,1.63,1.88,2.83,3.63,2.83,1.03,0,1.97-.42,2.64-1.1.68-.68,1.1-1.61,1.1-2.64v-3.71h-.02V30.56c0-.19,0-.38.02-.57v-2.25c0-3.85,3.15-7.1,7.01-7.03,3.73.07,6.74,3.12,6.74,6.87v2.39c0,.06,0,.12.01.18,0,.02,0,.05,0,.08,0,.02,0,.04,0,.06,0,.09,0,.18,0,.26v7.49s-.01,9.31-.01,9.31v19.92s-.01,3.72-.01,3.72c0,2.06,1.67,3.72,3.72,3.72,1.03,0,1.96-.42,2.63-1.09.67-.68,1.09-1.61,1.09-2.63v-28.7s.02-8.25.02-8.25v-17.3c0-.07,0-.15.01-.22,0-.06,0-.12,0-.18,0-.05,0-.1,0-.14,0-.07.01-.15.02-.22.01-.12.03-.24.05-.36,0-.04.01-.08.02-.11,0,0,0-.02,0-.03.02-.1.04-.19.06-.29.01-.05.02-.1.04-.15.01-.05.02-.1.04-.15.02-.08.04-.16.07-.23,0-.03.02-.07.03-.1.02-.07.05-.14.08-.22,0-.02.01-.04.02-.06.02-.05.04-.11.06-.16.01-.03.03-.07.04-.1.02-.05.04-.09.06-.14.02-.05.04-.09.07-.14.06-.14.14-.27.21-.4.04-.07.07-.13.12-.2.04-.06.08-.13.12-.19.02-.03.04-.07.07-.1.03-.05.06-.1.1-.14.02-.03.05-.07.08-.11.02-.03.05-.07.08-.1.07-.1.15-.19.23-.28.05-.06.11-.13.18-.19.02-.03.04-.05.07-.07.02-.02.04-.04.06-.06,0,0,0,0,0,0h0s.03-.03.05-.05c.05-.05.1-.1.15-.15.03-.03.06-.06.09-.08.07-.06.14-.12.21-.18.04-.03.08-.07.13-.1.03-.03.07-.05.11-.08.02-.02.04-.03.06-.04.07-.05.14-.1.21-.15.09-.06.18-.12.28-.18.09-.06.19-.11.29-.17.1-.05.2-.1.3-.15.01,0,.03-.02.05-.02.08-.04.17-.08.25-.12.02,0,.04-.01.06-.02.09-.04.18-.08.27-.11.1-.04.19-.07.29-.1.02,0,.04-.01.07-.02.06-.02.13-.04.2-.06.07-.02.15-.04.22-.06,0,0,0,0,.01,0,.08-.02.16-.04.25-.05.06,0,.13-.02.2-.03.09-.02.18-.03.27-.04.06,0,.13-.02.19-.02.1,0,.21-.02.31-.02.12,0,.24,0,.36,0,.23,0,.46.01.69.03.22.02.45.06.66.1.08.01.16.03.23.05.14.03.28.07.41.11.06.02.12.04.18.06.06.01.11.03.17.06.09.03.18.07.27.1.1.04.19.08.28.12.1.04.2.1.29.14.09.05.19.1.28.15,0,0,0,0,0,0,.09.05.17.1.26.16,0,0,.02,0,.03.01.07.05.15.1.22.15.01,0,.03.02.05.03.08.06.16.12.24.19.08.06.17.13.25.2.08.07.16.14.24.22h0c.07.07.14.14.21.21.06.06.12.13.19.2.02.02.04.04.06.07.05.06.1.12.15.18.27.34.51.7.72,1.09.04.08.09.16.13.25.05.09.09.19.13.29,0,.02.02.04.02.06.04.09.07.18.11.27.04.1.07.2.1.31,0,0,0,.02.01.04.02.08.04.15.07.24.02.06.03.11.04.18,0,.03.01.06.02.09.01.05.03.11.04.17.02.09.03.18.04.27,0,.02,0,.03,0,.05,0,.07.02.14.03.21,0,.05.01.09.02.14,0,0,0,.02,0,.03h0c0,.1.02.2.02.29,0,.12,0,.24,0,.36v50.51l-.02,2.38v1.36c0,2.05,1.66,3.71,3.71,3.71,1.03,0,1.95-.41,2.62-1.09.67-.67,1.09-1.6,1.09-2.62v-33.25s.02-7.46.02-7.46v-9.35c0-3.75,2.94-6.91,6.69-7.02,3.88-.1,7.06,3.01,7.06,6.87v50.19c0,1.03.42,1.96,1.09,2.63.68.67,1.61,1.09,2.63,1.09h5.35c1.69,0,3.16-1.13,3.6-2.76l.26-.96,2-7.45,2.04-7.6c.04-.17.09-.33.15-.49.77-2.21,2.58-3.8,4.72-4.38.38-.1.78-.17,1.18-.21.77-.07,1.58,0,2.37.21,3.67.98,5.84,4.75,4.86,8.42Z"/>
</svg>