<?xml version="1.0" encoding="UTF-8"?>
<svg id="Layer_1" data-name="Layer 1" xmlns="http://www.w3.org/2000/svg" viewBox="0 0 128 128">
  <defs>
    <style>
      .cls-1 {
        fill: #ba64f2;
      }
    </style>
  </defs>
  <g>
    <rect class="cls-1" x="32.98" y="84.4" width="62.05" height="13.8" rx="6.9" ry="6.9"/>
    <g>
      <rect class="cls-1" x="65.54" y="99.6" width="39.4" height="13.8" rx="6.9" ry="6.9" transform="translate(4.43 216.4) rotate(-105)"/>
      <rect class="cls-1" x="22.66" y="99.08" width="40.5" height="13.8" rx="6.9" ry="6.9" transform="translate(-70.56 119.99) rotate(-75)"/>
    </g>
  </g>
  <g>
    <rect class="cls-1" x="55.75" y="2.23" width="16.55" height="60.96" rx="8.28" ry="8.28"/>
    <g>
      <path class="cls-1" d="M69.85,62.6c1.31,1.31,2.09,2.96,2.34,4.66h0s.08.85.08.85c.09,2.23-.71,4.49-2.42,6.19-1.7,1.7-3.96,2.51-6.19,2.42l-.85-.08h0c-1.71-.25-3.35-1.03-4.66-2.34-3.23-3.23-3.23-8.47,0-11.71,3.23-3.23,8.47-3.23,11.71,0Z"/>
      <path class="cls-1" d="M92.6,39.85c1.31,1.31,2.09,2.96,2.34,4.66h0s.08.85.08.85c.09,2.23-.71,4.49-2.42,6.19-1.7,1.7-3.96,2.51-6.19,2.42l-.85-.08h0c-1.71-.25-3.35-1.03-4.66-2.34-3.23-3.23-3.23-8.47,0-11.71s8.47-3.23,11.71,0Z"/>
      <rect class="cls-1" x="59.29" y="48.8" width="32.17" height="16.55" transform="translate(-18.28 70.02) rotate(-45)"/>
    </g>
    <g>
      <path class="cls-1" d="M47.11,51.56c1.31-1.31,2.09-2.96,2.34-4.66h0s.08-.85.08-.85c.09-2.23-.71-4.49-2.42-6.19-1.7-1.7-3.96-2.51-6.19-2.42l-.85.08h0c-1.71.25-3.35,1.03-4.66,2.34-3.23,3.23-3.23,8.47,0,11.71,3.23,3.23,8.47,3.23,11.71,0Z"/>
      <path class="cls-1" d="M69.85,74.3c1.31-1.31,2.09-2.96,2.34-4.66h0s.08-.85.08-.85c.09-2.23-.71-4.49-2.42-6.19-1.7-1.7-3.96-2.51-6.19-2.42l-.85.08h0c-1.71.25-3.35,1.03-4.66,2.34-3.23,3.23-3.23,8.47,0,11.71,3.23,3.23,8.47,3.23,11.71,0Z"/>
      <rect class="cls-1" x="36.54" y="48.8" width="32.17" height="16.55" transform="translate(55.77 -20.5) rotate(45)"/>
    </g>
  </g>
</svg>