<?xml version="1.0" encoding="UTF-8"?>
<svg id="Layer_1" data-name="Layer 1" xmlns="http://www.w3.org/2000/svg" viewBox="0 0 128 128">
  <defs>
    <style>
      .cls-1 {
        fill: #61d1fa;
      }
    </style>
  </defs>
  <g>
    <path class="cls-1" d="M67.21,68.76l8.33-21.37c.5-1.3.77-2.67.82-4.08.2-6.81-5.18-12.51-11.99-12.71-3.3-.1-6.44,1.1-8.84,3.36-2.4,2.27-3.77,5.33-3.87,8.63-.04,1.41.15,2.8.58,4.13l7.04,21.7.36,1.11c.46,1.58,1.88,2.67,3.52,2.72,1.65.05,3.12-.96,3.68-2.51l.38-.98Z"/>
    <circle class="cls-1" cx="64.06" cy="18.45" r="6.9"/>
  </g>
  <g>
    <g>
      <path class="cls-1" d="M33.4,113.59c-.89,2.5-3.28,4.14-5.95,4.06-2.66-.08-4.95-1.85-5.7-4.4l-.58-1.8-11.39-35.11c-.69-2.15-1.01-4.4-.94-6.68.16-5.34,2.38-10.3,6.26-13.96,3.89-3.66,8.97-5.6,14.3-5.44,11.02.32,19.73,9.55,19.41,20.57-.07,2.28-.51,4.51-1.32,6.61l-13.48,34.57-.62,1.59Z"/>
      <circle class="cls-1" cx="28.92" cy="30.6" r="11.16"/>
    </g>
    <g>
      <path class="cls-1" d="M103.74,113.59c-.89,2.5-3.28,4.14-5.95,4.06-2.66-.08-4.95-1.85-5.7-4.4l-.58-1.8-11.39-35.11c-.69-2.15-1.01-4.4-.94-6.68.16-5.34,2.38-10.3,6.26-13.96,3.89-3.66,8.97-5.6,14.3-5.44,11.02.32,19.73,9.55,19.41,20.57-.07,2.28-.51,4.51-1.32,6.61l-13.48,34.57-.62,1.59Z"/>
      <circle class="cls-1" cx="99.26" cy="30.6" r="11.16"/>
    </g>
  </g>
</svg>