<?xml version="1.0" encoding="UTF-8"?>
<svg id="Layer_1" data-name="Layer 1" xmlns="http://www.w3.org/2000/svg" viewBox="0 0 128 128">
  <defs>
    <style>
      .cls-1 {
        fill: #61d1fa;
      }
    </style>
  </defs>
  <path class="cls-1" d="M64,16.92c-19.36,0-37.45,5.48-52.79,14.97-2.84,1.76-3.76,5.47-2.09,8.37h0c1.74,3.02,5.64,4.03,8.61,2.19,3.82-2.36,7.83-4.43,12.01-6.2,10.84-4.59,22.37-6.91,34.26-6.91s23.42,2.33,34.26,6.91c4.18,1.77,8.18,3.84,12,6.2,2.97,1.83,6.87.83,8.61-2.19h0c1.67-2.9.76-6.61-2.09-8.37-15.34-9.49-33.42-14.97-52.79-14.97Z"/>
  <path class="cls-1" d="M64,56.93c-12.1,0-23.4,3.46-32.95,9.45-2.81,1.76-3.69,5.46-2.03,8.33h0c1.76,3.06,5.71,4.01,8.7,2.13,7.81-4.89,16.84-7.5,26.28-7.5s18.48,2.61,26.28,7.5c2.99,1.87,6.93.92,8.7-2.13h0c1.66-2.87.78-6.57-2.03-8.33-9.55-5.99-20.84-9.45-32.95-9.45Z"/>
  <path class="cls-1" d="M64,109.35c2.93,0,5.75.49,8.37,1.39,2.82.96,5.92-.19,7.41-2.77h0c1.94-3.36.37-7.7-3.3-8.96-3.91-1.35-8.11-2.08-12.48-2.08s-8.57.73-12.48,2.08c-3.67,1.26-5.24,5.6-3.3,8.96h0c1.49,2.58,4.59,3.73,7.41,2.77,2.63-.9,5.44-1.39,8.37-1.39Z"/>
</svg>