<?xml version="1.0" encoding="UTF-8"?>
<svg id="Layer_1" data-name="Layer 1" xmlns="http://www.w3.org/2000/svg" viewBox="0 0 128 128">
  <defs>
    <style>
      .cls-1 {
        fill: #f8f770;
      }
    </style>
  </defs>
  <path class="cls-1" d="M109.82,31.64H18.18c-2.12,0-3.84-1.72-3.84-3.84v-8.88c0-2.12,1.72-3.84,3.84-3.84h91.65c2.12,0,3.84,1.72,3.84,3.84v8.88c0,2.12-1.72,3.84-3.84,3.84ZM8.82,2.67c-3.81,0-6.9,3.09-6.9,6.9v27.59c0,3.81,3.09,6.9,6.9,6.9h110.36c3.81,0,6.9-3.09,6.9-6.9V9.57c0-3.81-3.09-6.9-6.9-6.9H8.82Z"/>
</svg>