<?xml version="1.0" encoding="UTF-8"?>
<svg id="Layer_1" data-name="Layer 1" xmlns="http://www.w3.org/2000/svg" viewBox="0 0 128 128">
  <defs>
    <style>
      .cls-1 {
        fill: #59eb5c;
      }
    </style>
  </defs>
  <path class="cls-1" d="M112.17,50.26v27.48c0,3.84,3.11,6.95,6.95,6.95h0c3.84,0,6.95-3.11,6.95-6.95v-27.48c0-3.84-3.11-6.95-6.95-6.95h0c-3.84,0-6.95,3.11-6.95,6.95ZM98.49,8.87h0c0,3.84,3.11,6.95,6.95,6.95h2.89c2.12,0,3.84,1.72,3.84,3.84v2.89c0,3.84,3.11,6.95,6.95,6.95h0c3.84,0,6.95-3.11,6.95-6.95v-13.74c0-3.81-3.09-6.9-6.9-6.9h-13.74c-3.84,0-6.95,3.11-6.95,6.95ZM1.92,8.82v13.74c0,3.84,3.11,6.95,6.95,6.95h0c3.84,0,6.95-3.11,6.95-6.95v-2.89c0-2.12,1.72-3.84,3.84-3.84h2.89c3.84,0,6.95-3.11,6.95-6.95h0c0-3.84-3.11-6.95-6.95-6.95h-13.74c-3.81,0-6.9,3.09-6.9,6.9ZM15.83,108.34v-2.89c0-3.84-3.11-6.95-6.95-6.95h0c-3.84,0-6.95,3.11-6.95,6.95v13.74c0,3.81,3.09,6.9,6.9,6.9h13.74c3.84,0,6.95-3.11,6.95-6.95h0c0-3.84-3.11-6.95-6.95-6.95h-2.89c-2.12,0-3.84-1.72-3.84-3.84ZM112.17,105.44v2.89c0,2.12-1.72,3.84-3.84,3.84h-2.89c-3.84,0-6.95,3.11-6.95,6.95h0c0,3.84,3.11,6.95,6.95,6.95h13.74c3.81,0,6.9-3.09,6.9-6.9v-13.74c0-3.84-3.11-6.95-6.95-6.95h0c-3.84,0-6.95,3.11-6.95,6.95ZM50.26,126.08h27.48c3.84,0,6.95-3.11,6.95-6.95h0c0-3.84-3.11-6.95-6.95-6.95h-27.48c-3.84,0-6.95,3.11-6.95,6.95h0c0,3.84,3.11,6.95,6.95,6.95ZM1.92,50.26v27.48c0,3.84,3.11,6.95,6.95,6.95h0c3.84,0,6.95-3.11,6.95-6.95v-27.48c0-3.84-3.11-6.95-6.95-6.95h0c-3.84,0-6.95,3.11-6.95,6.95ZM43.31,8.87h0c0,3.84,3.11,6.95,6.95,6.95h27.48c3.84,0,6.95-3.11,6.95-6.95h0c0-3.84-3.11-6.95-6.95-6.95h-27.48c-3.84,0-6.95,3.11-6.95,6.95Z"/>
  <g>
    <path class="cls-1" d="M75.16,37.85v52.3c0,6.16-5,11.16-11.16,11.16s-11.16-5-11.16-11.16v-52.3c0-6.16,5-11.16,11.16-11.16s11.16,5,11.16,11.16Z"/>
    <path class="cls-1" d="M37.85,52.78h52.3c6.16,0,11.16,5,11.16,11.16s-5,11.16-11.16,11.16h-52.3c-6.16,0-11.16-5-11.16-11.16s5-11.16,11.16-11.16Z"/>
  </g>
</svg>