<?xml version="1.0" encoding="UTF-8"?>
<svg id="Layer_1" data-name="Layer 1" xmlns="http://www.w3.org/2000/svg" viewBox="0 0 128 128">
  <defs>
    <style>
      .cls-1 {
        fill: #e1e1e0;
      }
    </style>
  </defs>
  <path class="cls-1" d="M100.91,35.4s.1.1.15.15l22.45,22.45s-.1-.1-.15-.14c.07.06.14.13.21.2.02.01.03.03.05.05l.05.05c.1.1.2.2.29.31.09.1.18.2.26.3,0,.01.02.03.03.04.08.1.16.2.24.31.08.11.16.22.24.34.07.11.15.23.22.35,0,0,0,.01.01.02.06.11.12.22.18.33,0,.01.02.03.02.05.04.07.08.15.11.22.04.07.07.15.1.22.04.1.09.2.13.3.06.16.12.31.17.47.02.06.04.12.06.19.02.06.04.13.06.2,0,.04.02.07.03.11.02.08.04.16.06.23.02.1.04.19.06.29.02.13.05.26.07.38l.07.83c.1,2.23-.71,4.5-2.42,6.21-.03.03-.07.07-.1.1,0,.01-.02.02-.02.02l-22.52,22.52s-.06.07-.1.1c-1.7,1.7-3.97,2.51-6.2,2.42l-.84-.07h0c-1.71-.25-3.35-1.03-4.66-2.34-3.23-3.23-3.23-8.47,0-11.71.03-.03.07-.07.1-.1l8.5-8.5H10.2c-4.57,0-8.28-3.71-8.28-8.28h0c0-4.57,3.71-8.28,8.28-8.28h87.65l-8.56-8.56s-.06-.05-.09-.08c-1.7-1.7-2.51-3.96-2.42-6.19l.08-.85h0c.25-1.71,1.03-3.35,2.34-4.67,3.23-3.23,8.47-3.23,11.71,0Z"/>
</svg>