<?xml version="1.0" encoding="UTF-8"?>
<svg id="Layer_1" data-name="Layer 1" xmlns="http://www.w3.org/2000/svg" viewBox="0 0 128 128">
  <defs>
    <style>
      .cls-1 {
        fill: #ba64f2;
      }
    </style>
  </defs>
  <path class="cls-1" d="M104.61,32.3v-13.83c0-3.81-3.09-6.9-6.9-6.9h-27.59c-3.81,0-6.9,3.09-6.9,6.9v13.79h-12.47c-2.12,0-3.84-1.72-3.84-3.84v-.72c0-3.81-3.09-6.9-6.9-6.9h-8.52c-3.81,0-6.9,3.09-6.9,6.9v1c0,1.91-1.41,3.52-3.31,3.8-10.95,1.6-19.36,11.03-19.36,22.43v37.44c0,12.52,10.15,22.67,22.67,22.67h78.83c12.52,0,22.67-10.15,22.67-22.67v-37.44c0-12.12-9.51-22.02-21.47-22.64ZM75.63,27.83c0-2.12,1.72-3.84,3.84-3.84h8.88c2.12,0,3.84,1.72,3.84,3.84v.6c0,2.12-1.72,3.84-3.84,3.84h-8.88c-2.12,0-3.84-1.72-3.84-3.84v-.6ZM113.66,92.38c0,5.65-4.6,10.25-10.25,10.25H24.59c-5.65,0-10.25-4.6-10.25-10.25v-37.44c0-5.65,4.6-10.25,10.25-10.25h78.83c.4,0,.8.02,1.19.07,5.09.59,9.06,4.93,9.06,10.18v37.44Z"/>
  <path class="cls-1" d="M83.91,65.38c4.56,0,8.28,3.71,8.28,8.28s-3.71,8.28-8.28,8.28-8.28-3.71-8.28-8.28,3.71-8.28,8.28-8.28M83.91,52.96c-11.43,0-20.69,9.26-20.69,20.69s9.26,20.69,20.69,20.69,20.69-9.26,20.69-20.69-9.26-20.69-20.69-20.69h0Z"/>
</svg>