<?xml version="1.0" encoding="UTF-8"?>
<svg id="Layer_1" data-name="Layer 1" xmlns="http://www.w3.org/2000/svg" viewBox="0 0 128 128">
  <defs>
    <style>
      .cls-1 {
        fill: #ff7676;
      }
    </style>
  </defs>
  <path class="cls-1" d="M109.64,21.91c-1.5-1.62-3.08-3.17-4.75-4.63-2.46-2.15-6.16-2.02-8.47.29h0c-2.52,2.52-2.42,6.67.26,9.02.83.73,1.65,1.49,2.44,2.28.59.59,1.17,1.2,1.73,1.82,8.28,9.15,12.82,20.87,12.82,33.3,0,9.9-2.88,19.36-8.24,27.42-1.82,2.74-3.93,5.32-6.31,7.7-.59.59-1.2,1.17-1.82,1.73-9.15,8.28-20.87,12.82-33.3,12.82s-24.15-4.53-33.3-12.82c-.62-.56-1.22-1.14-1.82-1.73-2.38-2.38-4.49-4.96-6.31-7.7-5.36-8.06-8.24-17.52-8.24-27.42,0-12.42,4.53-24.15,12.82-33.3.56-.62,1.13-1.22,1.73-1.82.79-.79,1.61-1.56,2.44-2.29,2.68-2.35,2.78-6.5.26-9.02h0c-2.31-2.31-6.01-2.44-8.47-.29-1.66,1.46-3.25,3-4.75,4.63C8.16,32.97,1.92,47.76,1.92,64c0,13.57,4.35,26.12,11.74,36.33,2.44,3.37,5.21,6.49,8.26,9.3,11.06,10.21,25.85,16.44,42.09,16.44s31.03-6.24,42.09-16.44c3.05-2.82,5.82-5.93,8.25-9.3,7.39-10.22,11.74-22.77,11.74-36.33,0-16.24-6.24-31.03-16.44-42.09Z"/>
  <path class="cls-1" d="M64,14.34c3.11,0,5.64,2.53,5.64,5.64v52.05c0,3.11-2.53,5.64-5.64,5.64s-5.64-2.53-5.64-5.64V19.98c0-3.11,2.53-5.64,5.64-5.64h0ZM64,1.92c-9.97,0-18.06,8.09-18.06,18.06v52.05c0,9.97,8.09,18.06,18.06,18.06s18.06-8.09,18.06-18.06V19.98c0-9.97-8.09-18.06-18.06-18.06h0Z"/>
</svg>