<?xml version="1.0" encoding="UTF-8"?>
<svg id="Layer_1" data-name="Layer 1" xmlns="http://www.w3.org/2000/svg" viewBox="0 0 128 128">
  <defs>
    <style>
      .cls-1 {
        fill: #e1e1e0;
      }
    </style>
  </defs>
  <g>
    <path class="cls-1" d="M64.3,52.7c6.81.2,12.19,5.9,11.99,12.71-.04,1.41-.32,2.79-.82,4.08l-8.33,21.37h-.03s-.35.98-.35.98c-.55,1.55-2.03,2.56-3.68,2.51-1.65-.05-3.06-1.14-3.52-2.72l-.33-1.11h-.03s-7.04-21.7-7.04-21.7c-.43-1.33-.62-2.72-.58-4.13.1-3.3,1.47-6.36,3.87-8.63,2.4-2.26,5.54-3.46,8.84-3.36Z"/>
    <circle class="cls-1" cx="64" cy="40.55" r="6.9"/>
  </g>
  <g>
    <path class="cls-1" d="M34.01,52.7c6.81.2,12.19,5.9,11.99,12.71-.04,1.41-.32,2.79-.82,4.08l-8.33,21.37h-.03s-.35.98-.35.98c-.55,1.55-2.03,2.56-3.68,2.51-1.65-.05-3.06-1.14-3.52-2.72l-.33-1.11h-.03s-7.04-21.7-7.04-21.7c-.43-1.33-.62-2.72-.58-4.13.1-3.3,1.47-6.36,3.87-8.63,2.4-2.26,5.54-3.46,8.84-3.36Z"/>
    <circle class="cls-1" cx="33.71" cy="40.55" r="6.9"/>
  </g>
  <g>
    <path class="cls-1" d="M94.71,52.7c6.81.2,12.19,5.9,11.99,12.71-.04,1.41-.32,2.79-.82,4.08l-8.33,21.37h-.03s-.35.98-.35.98c-.55,1.55-2.03,2.56-3.68,2.51-1.65-.05-3.06-1.14-3.52-2.72l-.33-1.11h-.03s-7.04-21.7-7.04-21.7c-.43-1.33-.62-2.72-.58-4.13.1-3.3,1.47-6.36,3.87-8.63,2.4-2.26,5.54-3.46,8.84-3.36Z"/>
    <circle class="cls-1" cx="94.41" cy="40.55" r="6.9"/>
  </g>
</svg>