<?xml version="1.0" encoding="UTF-8"?>
<svg id="Layer_1" data-name="Layer 1" xmlns="http://www.w3.org/2000/svg" viewBox="0 0 128 128">
  <defs>
    <style>
      .cls-1 {
        fill: #492f64;
      }
    </style>
  </defs>
  <path class="cls-1" d="M121.38,57.43c-.26-.74-.54-1.46-.83-2.19-6.06-15.05-20.52-23.97-35.86-23.97-4.74,0-9.57.85-14.26,2.64-2,.76-4.17,1.18-6.44,1.18s-4.44-.42-6.43-1.18c-4.69-1.79-9.51-2.64-14.26-2.64-15.34,0-29.81,8.92-35.86,23.97-.29.72-.57,1.45-.83,2.19-.12.33-.24.67-.35,1,1.36,4.01,3.12,7.83,5.24,11.42,10.6,17.94,30.14,29.97,52.49,29.97s41.89-12.03,52.49-29.97c2.12-3.59,3.88-7.41,5.24-11.42-.11-.34-.23-.67-.35-1ZM43.31,43.69c3.35,0,6.66.62,9.83,1.83,3.47,1.32,7.12,1.99,10.86,1.99s7.39-.67,10.86-1.99c3.18-1.21,6.48-1.83,9.83-1.83h0c6.95,0,13.37,2.62,18.13,7.09,2.54,2.39.87,6.65-2.62,6.65h-15.51c-4.74,0-9.57.85-14.26,2.64-2,.76-4.17,1.18-6.43,1.18s-4.44-.42-6.44-1.18c-4.69-1.79-9.51-2.64-14.26-2.64h-15.51c-3.49,0-5.16-4.26-2.62-6.65,4.76-4.47,11.18-7.09,18.13-7.09ZM88.4,80.83c-7.37,4.3-15.81,6.57-24.4,6.57s-17.03-2.27-24.4-6.57c-2.12-1.23-4.13-2.62-6.03-4.16-2.82-2.27-1.22-6.83,2.41-6.83h7.33c3.35,0,6.66.61,9.83,1.83,3.47,1.33,7.13,2,10.86,2s7.39-.67,10.86-2c3.17-1.21,6.48-1.83,9.83-1.83h7.32c3.62,0,5.23,4.56,2.41,6.83-1.9,1.53-3.91,2.92-6.03,4.16Z"/>
  <rect class="cls-1" x="-6.26" y="57.79" width="137.96" height="12.42" rx="6.21" ry="6.21" transform="translate(-26.89 63.09) rotate(-45)"/>
</svg>