<?xml version="1.0" encoding="UTF-8"?>
<svg id="Layer_1" data-name="Layer 1" xmlns="http://www.w3.org/2000/svg" viewBox="0 0 128 128">
  <defs>
    <style>
      .cls-1 {
        fill: #e1e1e0;
      }
    </style>
  </defs>
  <path class="cls-1" d="M77.8,11.97v-.57c0-3.81-3.09-6.9-6.9-6.9h-13.8c-3.81,0-6.9,3.09-6.9,6.9v.57c0,1.69-1.11,3.17-2.72,3.67-22.61,7.08-38.96,28.32-38.66,53.33.36,30.3,24.87,54.52,55.18,54.52,30.48,0,55.18-24.71,55.18-55.18,0-24.74-16.28-45.68-38.72-52.68-1.59-.5-2.67-1.99-2.67-3.66ZM94.24,98.55c-8.08,8.08-18.82,12.53-30.24,12.53s-22.16-4.45-30.24-12.53c-8.08-8.08-12.53-18.82-12.53-30.24s4.45-22.16,12.53-30.24c8.08-8.08,18.82-12.53,30.24-12.53s22.16,4.45,30.24,12.53c8.08,8.08,12.53,18.82,12.53,30.24s-4.45,22.16-12.53,30.24Z"/>
  <path class="cls-1" d="M88.03,92.34h0c-2.42,2.42-6.35,2.42-8.78,0l-16.7-16.7c-.72-.72-1.7-1.12-2.71-1.12h-7.98c-3.43,0-6.21-2.78-6.21-6.21h0c0-3.43,2.78-6.21,6.21-6.21h12.14c1.59,0,3.18.61,4.39,1.82l19.64,19.65c2.42,2.42,2.42,6.35,0,8.78Z"/>
</svg>