<?xml version="1.0" encoding="UTF-8"?>
<svg id="Layer_1" data-name="Layer 1" xmlns="http://www.w3.org/2000/svg" viewBox="0 0 128 128">
  <defs>
    <style>
      .cls-1 {
        fill: #59eb5c;
      }
    </style>
  </defs>
  <path class="cls-1" d="M124,13.69l-9.55,9.55c-2.69,2.69-7.06,2.69-9.75,0s-2.69-7.06,0-9.75l9.55-9.55c2.69-2.69,7.06-2.69,9.75,0,2.69,2.69,2.69,7.06,0,9.75Z"/>
  <path class="cls-1" d="M23.24,114.45l-9.55,9.55c-2.69,2.69-7.06,2.69-9.75,0-2.69-2.69-2.69-7.06,0-9.75l9.55-9.55c2.69-2.69,7.06-2.69,9.75,0,2.69,2.69,2.69,7.06,0,9.75Z"/>
  <path class="cls-1" d="M13.75,3.94l9.55,9.55c2.69,2.69,2.69,7.06,0,9.75-2.69,2.69-7.06,2.69-9.75,0L4,13.69c-2.69-2.69-2.69-7.06,0-9.75s7.06-2.69,9.75,0Z"/>
  <path class="cls-1" d="M114.51,104.7l9.55,9.55c2.69,2.69,2.69,7.06,0,9.75-2.69,2.69-7.06,2.69-9.75,0l-9.55-9.55c-2.69-2.69-2.69-7.06,0-9.75s7.06-2.69,9.75,0Z"/>
  <g>
    <g>
      <path class="cls-1" d="M64.33,52.67c6.81.2,12.19,5.9,11.99,12.71-.04,1.41-.32,2.78-.82,4.08l-8.33,21.36h-.03s-.35.98-.35.98c-.55,1.55-2.03,2.55-3.67,2.51-1.64-.05-3.06-1.14-3.52-2.72l-.33-1.11h-.03s-7.03-21.69-7.03-21.69c-.43-1.33-.62-2.72-.58-4.13.1-3.3,1.47-6.36,3.87-8.62,2.4-2.26,5.54-3.46,8.84-3.36Z"/>
      <circle class="cls-1" cx="64.03" cy="40.53" r="6.89"/>
    </g>
    <path class="cls-1" d="M63.97,27.98c9.61,0,18.65,3.74,25.45,10.54,6.8,6.8,10.54,15.84,10.54,25.45s-3.74,18.65-10.54,25.45c-6.8,6.8-15.84,10.54-25.45,10.54s-18.65-3.74-25.45-10.54c-6.8-6.8-10.54-15.84-10.54-25.45s3.74-18.65,10.54-25.45c6.8-6.8,15.84-10.54,25.45-10.54M63.97,14.33c-27.42,0-49.64,22.22-49.64,49.64s22.22,49.64,49.64,49.64,49.64-22.22,49.64-49.64S91.39,14.33,63.97,14.33h0Z"/>
  </g>
</svg>