<?xml version="1.0" encoding="UTF-8"?>
<svg id="Layer_1" data-name="Layer 1" xmlns="http://www.w3.org/2000/svg" viewBox="0 0 128 128">
  <defs>
    <style>
      .cls-1 {
        fill: #e1e1e0;
      }

      .cls-2 {
        fill: #ba64f2;
      }
    </style>
  </defs>
  <g>
    <rect class="cls-1" x="51.23" y="55.4" width="25.57" height="51.13" rx="12.78" ry="12.78"/>
    <path class="cls-1" d="M89.22,93.75c2.63,0,4.64,2.35,4.21,4.94-2.35,14.12-14.63,24.89-29.42,24.89s-27.07-10.77-29.42-24.89c-.43-2.59,1.58-4.94,4.21-4.94h0c2.08,0,3.86,1.5,4.2,3.55,1.69,10.08,10.45,17.76,21.01,17.76s19.32-7.68,21.01-17.76c.34-2.05,2.12-3.55,4.2-3.55h0Z"/>
  </g>
  <path class="cls-2" d="M64.01,38.53c-6.43,0-12.38,2.05-17.24,5.52-2.11,1.51-2.33,4.57-.5,6.4h0c1.45,1.45,3.74,1.67,5.4.48,3.48-2.49,7.74-3.96,12.33-3.96s8.85,1.47,12.33,3.96c1.66,1.19,3.96.97,5.4-.48h0c1.83-1.83,1.61-4.89-.5-6.4-4.86-3.47-10.81-5.52-17.24-5.52Z"/>
</svg>