<?xml version="1.0" encoding="UTF-8"?>
<svg id="Layer_1" data-name="Layer 1" xmlns="http://www.w3.org/2000/svg" viewBox="0 0 128 128">
  <defs>
    <style>
      .cls-1 {
        fill: #e1e1e0;
      }
    </style>
  </defs>
  <path class="cls-1" d="M108.22,50.18l2.97,2.97c2.16,2.16,5.86,1.45,7.01-1.38,0-.02.02-.04.02-.06,1.61-3.97,2.42-8.16,2.43-12.45,0-4.29-.82-8.49-2.43-12.45,0-.02-.02-.04-.02-.06-1.16-2.83-4.85-3.54-7.02-1.38l-2.96,2.96c-1.15,1.15-1.55,2.85-1.04,4.39,1.41,4.23,1.41,8.83,0,13.07-.51,1.54-.11,3.24,1.04,4.39ZM76.62,59.93l-2.96,2.96c-2.16,2.16-1.46,5.86,1.38,7.02.02,0,.04.02.06.02,3.97,1.61,8.16,2.42,12.45,2.42,4.29,0,8.48-.82,12.45-2.42.02,0,.04-.02.06-.02,2.83-1.15,3.55-4.85,1.38-7.01l-2.97-2.97c-1.15-1.15-2.85-1.55-4.39-1.04-4.23,1.41-8.83,1.4-13.06,0-1.54-.51-3.24-.11-4.39,1.04ZM66.86,28.33l-2.96-2.96c-2.16-2.16-5.86-1.46-7.02,1.38,0,.02-.02.04-.02.06-1.61,3.97-2.42,8.16-2.42,12.45,0,4.29.82,8.49,2.42,12.45,0,.02.02.04.02.06,1.16,2.83,4.85,3.54,7.01,1.38l2.96-2.96c1.15-1.15,1.55-2.85,1.04-4.39-1.41-4.23-1.41-8.83,0-13.06.51-1.54.11-3.24-1.04-4.39ZM87.54,6.14c-4.29,0-8.48.82-12.45,2.43-.02,0-.04.02-.06.02-2.83,1.16-3.54,4.85-1.38,7.01l2.96,2.96c1.15,1.15,2.85,1.55,4.39,1.04,4.23-1.4,8.83-1.4,13.06,0,1.54.51,3.24.11,4.39-1.04l2.96-2.96c2.16-2.16,1.46-5.86-1.38-7.01-.02,0-.04-.02-.06-.02-3.97-1.61-8.16-2.43-12.45-2.43Z"/>
  <rect class="cls-1" x="6.92" y="97.59" width="29.95" height="13.8" rx="3.84" ry="3.84" transform="translate(-67.47 46.09) rotate(-45)"/>
  <rect class="cls-1" x="33.53" y="70.98" width="29.95" height="13.8" rx="3.84" ry="3.84" transform="translate(-40.86 57.11) rotate(-45)"/>
</svg>