<?xml version="1.0" encoding="UTF-8"?>
<svg id="Layer_1" data-name="Layer 1" xmlns="http://www.w3.org/2000/svg" viewBox="0 0 128 128">
  <defs>
    <style>
      .cls-1 {
        fill: #ba64f2;
      }
    </style>
  </defs>
  <path class="cls-1" d="M45.08,76c-.12-.11-.23-.23-.34-.34-.14-.14-.27-.28-.4-.42-.03-.04-.06-.07-.1-.11-.06-.07-.12-.14-.18-.21-.06-.07-.12-.14-.17-.21h0s-3.44,12.86-3.44,12.86l-.34,1.27c-.99,3.68,1.2,7.46,4.88,8.45,2.65.71,5.34-.22,7.02-2.17h0s0-.01,0-.01h0c.64-.77,1.13-1.68,1.41-2.7l1.7-6.34-10.05-10.05ZM46.77,93.52c-2.05,0-3.71-1.66-3.71-3.71s1.66-3.71,3.71-3.71,3.71,1.66,3.71,3.71-1.66,3.71-3.71,3.71Z"/>
  <path class="cls-1" d="M57.92,62.83l-.11-.11c-.08-.08-.17-.16-.26-.24-.09-.08-.17-.15-.26-.23,0,0-.01,0-.02-.01-.08-.06-.16-.12-.24-.18,0,0-.01-.01-.02-.02h0s-.06-.05-.1-.07c-.05-.04-.1-.07-.15-.1-.03-.02-.05-.04-.08-.06-.05-.03-.1-.06-.15-.09-.01,0-.03-.02-.04-.02-.05-.03-.1-.06-.15-.09,0,0,0,0,0,0,0,0,0,0-.01,0-.04-.02-.08-.05-.12-.07-.04-.02-.08-.04-.12-.06-.09-.04-.17-.09-.26-.13-.09-.04-.18-.08-.27-.11-.09-.03-.17-.07-.26-.1,0,0,0,0-.01,0-.09-.03-.17-.06-.26-.09,0,0-.01,0-.02,0-.09-.03-.18-.05-.28-.08-.07-.02-.14-.04-.22-.05,0,0-.01,0-.02,0-.13-.03-.27-.06-.4-.08-.02,0-.05,0-.07-.01-.06,0-.12-.02-.18-.03,0,0-.01,0-.02,0-.22-.03-.43-.04-.65-.05-.04,0-.07,0-.11,0-.06,0-.12,0-.18,0-.07,0-.14,0-.21,0-.08,0-.15,0-.23.01h-.07c-.07.01-.13.02-.2.03h-.08c-.08.02-.17.03-.25.05-.09.01-.18.03-.28.05-.05.01-.1.02-.16.03,0,0,0,0,0,0,0,0,0,0-.01,0-.02,0-.05.01-.07.02-.02,0-.04,0-.07.02,0,0,0,0-.01,0-.07.02-.14.04-.21.06-.18.05-.35.11-.53.18-.53.2-1.03.47-1.49.8,0,0-.02.01-.03.02,0,0-.01,0-.02,0,0,0,0,0,0,0,0,0,0,0,0,0,0,0,0,0,0,0t0,0s0,0,0,0c0,0,0,0-.01.01t0,0h0s0,0,0,0c0,0,0,0,0,0,0,0-.02.01-.03.02-.02.01-.04.03-.06.04-.07.06-.15.11-.22.17l-.21.18-.07.06s-.09.08-.14.13l-.03.03s-.08.08-.12.12c-.1.1-.19.2-.28.31-.11.12-.21.25-.31.38-.06.07-.11.15-.16.23-.05.07-.1.14-.14.22,0,0-.02.02-.02.03-.04.06-.07.12-.11.18-.03.05-.06.1-.09.16-.01.02-.02.04-.03.06,0,0,0,0,0,.01-.01.02-.03.05-.04.07-.01.02-.02.05-.04.07,0,0,0,0,0,0h0c-.03.06-.06.11-.08.17,0,.02-.01.03-.02.05-.02.05-.04.1-.06.15,0,0,0,0,0,0h0s-.02.05-.03.07c-.02.04-.03.09-.05.13,0,0,0,0,0,0-.02.06-.05.13-.07.2-.02.07-.04.14-.07.2-.03.09-.06.19-.08.29l-.05.18s0,.03,0,.04c-.03.15-.06.3-.09.45-.01.07-.02.15-.03.23-.03.22-.05.45-.05.67,0,.12,0,.25,0,.37,0,.05,0,.09,0,.14,0,.07,0,.13.01.2,0,.04,0,.08,0,.11v.16s.02.09.03.13c0,.08.02.16.04.24.01.09.03.17.05.26,0,.02,0,.03.01.05.03.17.08.34.13.5.02.09.05.18.08.26.03.08.06.17.09.25,0,0,0,.01,0,.02.04.11.08.21.13.32.05.1.1.21.15.31.1.2.22.4.34.6.05.08.1.15.15.22.03.06.08.11.12.17.06.08.12.17.19.25h0c.15.18.31.36.47.53l8.45,8.45.71-2.66,2.38-8.88c.65-2.41-.07-4.87-1.67-6.55ZM54.1,71.09c-2.05,0-3.71-1.66-3.71-3.71s1.66-3.71,3.71-3.71,3.71,1.66,3.71,3.71-1.66,3.71-3.71,3.71Z"/>
  <path class="cls-1" d="M50.72,84.9c-3.12-2.19-7.42-1.43-9.61,1.69l-.67.96-17.39,24.84c-2.18,3.12-1.43,7.42,1.7,9.61,3.12,2.19,7.42,1.43,9.6-1.69l17.65-25.2h0s0-.01,0-.01h0s.4-.58.4-.58c.84-1.2,1.25-2.58,1.25-3.95,0-2.18-1.03-4.32-2.94-5.66ZM28.7,120.06c-2.05,0-3.71-1.66-3.71-3.71s1.66-3.71,3.71-3.71,3.71,1.66,3.71,3.71-1.66,3.71-3.71,3.71ZM46.77,86.1c2.05,0,3.71,1.66,3.71,3.71s-1.66,3.71-3.71,3.71-3.71-1.66-3.71-3.71,1.66-3.71,3.71-3.71Z"/>
  <g>
    <path class="cls-1" d="M75.92,81.32c-.32-.63-.74-1.23-1.28-1.76l-16.84-16.84c-.08-.08-.17-.16-.26-.24-.09-.08-.17-.15-.26-.23,0,0-.01,0-.02-.01-.08-.06-.16-.12-.24-.18,0,0-.01-.01-.02-.02-.03-.02-.06-.05-.1-.07-.05-.04-.1-.07-.15-.1-.03-.02-.05-.04-.08-.06-.05-.03-.1-.06-.15-.09-.01,0-.03-.02-.04-.02-.05-.03-.1-.06-.15-.09,0,0,0,0,0,0,0,0,0,0-.01,0-.04-.02-.08-.05-.12-.07-.02-.01-.04-.02-.06-.03-.02,0-.04-.02-.06-.03-.09-.04-.17-.09-.26-.13-.09-.04-.18-.08-.27-.11-.09-.03-.17-.07-.26-.1,0,0,0,0-.01,0-.09-.03-.17-.06-.26-.09,0,0-.01,0-.02,0-.09-.03-.18-.05-.28-.08-.07-.02-.14-.04-.22-.05,0,0-.01,0-.02,0-.08-.02-.15-.04-.23-.05-.06,0-.11-.02-.17-.03-.02,0-.05,0-.07-.01-.06,0-.12-.02-.18-.03,0,0-.01,0-.02,0-.22-.03-.43-.05-.65-.05-.04,0-.07,0-.11,0-.04,0-.07,0-.11,0-.02,0-.05,0-.07,0-.07,0-.14,0-.21,0-.08,0-.15,0-.23.01h-.07c-.07.01-.13.02-.2.03h-.08s-.11.02-.11.02c-.03,0-.05,0-.08.01-.02,0-.04,0-.06.01-.06,0-.12.02-.19.03l-.09.02c-.05.01-.1.02-.16.03,0,0,0,0,0,0,0,0,0,0-.01,0-.02,0-.05.01-.07.02-.02,0-.04,0-.07.02,0,0,0,0-.01,0-.04,0-.07.02-.11.03-.03,0-.06.02-.1.03h0c-.11.03-.22.07-.33.1-.06.02-.13.05-.19.07-.12.04-.25.1-.37.15-.12.05-.24.11-.36.18-.2.11-.39.22-.59.35-.04.02-.08.05-.12.08-.02.01-.04.03-.05.04,0,0-.02.01-.03.02,0,0-.01,0-.02,0,0,0,0,0,0,0,0,0,0,0,0,0,0,0,0,0,0,0t0,0s0,0,0,0c0,0,0,0-.01.01t0,0h0s0,0,0,0c0,0,0,0,0,0,0,0-.02.01-.03.02-.02.01-.04.03-.06.04-.07.06-.15.11-.22.17l-.21.18-.07.06s-.09.08-.14.13l-.03.03s-.03.03-.05.05c-.02.02-.05.05-.07.08-.1.1-.19.2-.28.31-.11.12-.21.25-.31.38-.06.07-.11.15-.16.23-.05.07-.1.14-.14.22,0,0-.02.02-.02.03-.04.06-.07.12-.11.18-.03.05-.06.1-.09.16-.01.02-.02.04-.03.06,0,0,0,0,0,.01-.01.02-.03.05-.04.07-.02.03-.03.06-.04.08h0c-.03.06-.06.11-.08.17,0,.02-.01.03-.02.05-.01.02-.02.05-.03.07,0,.03-.02.05-.03.08,0,0,0,0,0,0h0s-.02.05-.03.07c-.02.04-.03.09-.05.13,0,0,0,0,0,0-.02.06-.05.13-.07.2-.02.07-.04.14-.07.2-.01.02-.02.05-.03.08,0,0,0,.02,0,.03-.04.12-.07.24-.1.36,0,.01,0,.03,0,.04-.03.15-.06.3-.09.45-.01.07-.02.15-.03.23-.03.22-.05.45-.05.67,0,.12,0,.25,0,.37,0,.05,0,.09,0,.14,0,.07,0,.13.01.2,0,.04,0,.08,0,.11v.16s.02.09.03.13c0,.08.02.16.04.24.01.09.03.17.05.26,0,.02,0,.03.01.05.03.17.08.34.13.5.02.09.05.18.08.26.03.08.06.17.09.25,0,0,0,.01,0,.02.04.11.08.21.13.32.05.1.1.21.15.31.1.2.22.4.34.6.05.08.1.15.15.22.03.06.08.11.12.17.06.08.12.17.19.25h0c.15.18.31.36.47.53l16.84,16.84c.17.17.34.33.52.47.14.12.29.23.44.33.32.23.66.42,1.01.58.11.05.23.1.35.15.15.06.31.12.47.17.23.07.47.14.71.18.24.05.48.09.73.11.43.04.87.04,1.3,0,.24-.02.48-.06.73-.11.24-.05.48-.11.71-.18.16-.05.31-.11.47-.17.12-.05.23-.1.35-.15.35-.16.69-.36,1.01-.58.15-.1.3-.21.44-.33.18-.15.36-.31.52-.47,2.17-2.17,2.59-5.41,1.28-8ZM54.1,71.09c-2.05,0-3.71-1.66-3.71-3.71s1.66-3.71,3.71-3.71,3.71,1.66,3.71,3.71-1.66,3.71-3.71,3.71ZM70,88.75c-2.05,0-3.71-1.66-3.71-3.71s1.66-3.71,3.71-3.71,3.71,1.66,3.71,3.71-1.66,3.71-3.71,3.71Z"/>
    <path class="cls-1" d="M75.92,81.32c1.31,2.59.89,5.83-1.28,8-.17.17-.34.33-.52.47-.14.12-.29.23-.44.33-.32.23-.66.42-1.01.58-.11.05-.23.1-.35.15-.15.06-.31.12-.47.17-.23.07-.47.13-.71.18-.24.05-.48.08-.73.11-.22.02-.43.03-.65.03s-.43,0-.65-.03c-.24-.02-.48-.06-.73-.11-.24-.05-.48-.11-.71-.18-.16-.05-.31-.11-.47-.17-.12-.05-.23-.1-.35-.15-.35-.16-.69-.36-1.01-.58-.15-.1-.3-.21-.44-.33-.18-.15-.36-.31-.52-.47l-1.79-1.79v6.28c1.93,1.39,4.24,2.13,6.67,2.13,2.62,0,5.1-.87,7.12-2.47v-8.61c0-1.29-.36-2.5-.97-3.53ZM61.06,59.47c-2.17-2.17-5.06-3.37-8.13-3.37-1.49,0-2.94.28-4.28.82l-2.33,8.68s.01-.05.03-.08c.02-.07.04-.14.07-.2.02-.07.05-.13.07-.2,0,0,0,0,0,0,.02-.04.03-.09.05-.13,0-.02.02-.05.03-.07h0s0,0,0,0c0-.03.02-.05.03-.08,0-.02.02-.05.03-.07,0-.02.01-.03.02-.05.02-.06.05-.11.08-.17h0s0,0,0-.01c.01-.03.02-.05.04-.07,0-.02.02-.05.04-.07,0,0,0,0,0-.01,0-.02.02-.04.03-.06.03-.05.06-.1.09-.16.03-.06.07-.12.11-.18,0,0,0-.02.02-.03.04-.07.09-.15.14-.22.05-.08.1-.15.16-.23.09-.13.2-.26.31-.38.09-.1.18-.21.28-.31.02-.02.05-.05.07-.08.02-.02.03-.03.05-.05l.03-.03s.09-.09.14-.13c.02-.02.04-.04.07-.06l.21-.18c.07-.06.14-.12.22-.17.02-.01.04-.03.06-.04,0,0,.02-.01.03-.02,0,0,0,0,0,0t0,0s0,0,0,0c0,0,0,0,.01-.01,0,0,0,0,0,0t0,0s0,0,0,0c0,0,0,0,0,0,0,0,0,0,0,0,.03-.03.07-.05.1-.07.04-.03.08-.05.12-.08.19-.13.39-.24.59-.35.12-.06.24-.12.36-.18.08-.04.17-.07.25-.11.1-.04.21-.08.31-.12.11-.04.22-.07.33-.1.04,0,.07-.02.11-.03.04-.01.08-.02.11-.03,0,0,0,0,.01,0,.02,0,.04-.01.07-.02.02,0,.05-.01.07-.02,0,0,0,0,.01,0,0,0,0,0,0,0,.05,0,.1-.02.16-.03l.09-.02c.08-.02.16-.03.24-.04.03,0,.05,0,.08-.01h.11s.08-.02.08-.02c.07-.01.14-.02.2-.02h.07c.08-.01.15-.01.23-.02.07,0,.14,0,.21,0,.02,0,.05,0,.07,0,.03,0,.07,0,.11,0,.04,0,.07,0,.11,0,.22,0,.44.02.65.05,0,0,.02,0,.02,0,.06,0,.12.02.18.03.02,0,.05,0,.07.01.05,0,.11.02.17.03.25.05.5.11.75.19,0,0,.01,0,.02,0,.09.02.18.05.26.09,0,0,0,0,.01,0,.09.03.18.06.26.1.09.03.18.07.27.11.09.04.17.08.26.13.02,0,.04.02.06.03.02.01.04.02.06.03.04.02.08.04.12.07,0,0,0,0,.01,0,0,0,0,0,0,0,.05.03.1.06.15.09.01,0,.03.01.04.02.05.03.1.06.15.09.03.02.06.04.08.06.05.03.1.06.15.1.03.02.06.04.1.07,0,0,.02.01.02.02.08.06.16.12.24.18,0,0,.01.01.02.01.09.07.18.15.26.23.09.08.17.16.26.24l2.82,2.82,1.37-5.13-.94-.94Z"/>
  </g>
  <path class="cls-1" d="M67.8,37.36c0-.06,0-.13-.01-.2,0-.06-.01-.13-.02-.19,0-.05-.01-.1-.02-.15-.08-.56-.23-1.11-.44-1.63-.02-.05-.04-.1-.06-.15,0,0,0-.02-.01-.03-.01-.03-.02-.06-.04-.09-.02-.05-.05-.1-.07-.16-.06-.12-.12-.23-.18-.34,0,0,0,0,0,0,0,0,0,0,0-.01l-.34-.49c-1.34-1.92-3.48-2.94-5.66-2.94-.02,0-.04,0-.06,0-.05,0-.11,0-.16,0h-.03c-1.28.05-2.57.45-3.7,1.24-3.12,2.19-3.88,6.49-1.69,9.61l2.76,3.95,5.71,8.15,3.84-14.33c.04-.15.07-.3.1-.45.04-.22.08-.45.1-.67.01-.12.02-.25.02-.37,0-.1,0-.2,0-.3,0-.15,0-.3-.01-.44ZM56.87,37.72c0-2.05,1.66-3.71,3.71-3.71s3.71,1.66,3.71,3.71-1.66,3.71-3.71,3.71-3.71-1.66-3.71-3.71Z"/>
  <path class="cls-1" d="M107.17,58.99l-28.16-7.55-.2-.05-.11-.16-6.86-9.8-3.51,13.09-.54,2-.62,2.31,1.75,2.5c.92,1.32,2.22,2.22,3.65,2.64,0,0,0,0,0,0,.19.07.39.13.59.18l1.11.3,29.31,7.85c3.68.99,7.46-1.2,8.45-4.88.99-3.68-1.2-7.46-4.88-8.45ZM75.05,60.7c-2.05,0-3.71-1.66-3.71-3.71s1.66-3.71,3.71-3.71,3.71,1.66,3.71,3.71-1.66,3.71-3.71,3.71ZM105.04,69.32c-2.05,0-3.71-1.66-3.71-3.71s1.66-3.71,3.71-3.71,3.71,1.66,3.71,3.71-1.66,3.71-3.71,3.71Z"/>
  <g>
    <path class="cls-1" d="M75.92,81.32c-.32-.63-.74-1.23-1.28-1.76l-14.03-14.03,1.37-5.13,1.74-6.5,3.84-14.33c.04-.15.07-.3.1-.45.04-.22.08-.45.1-.67.01-.12.02-.25.02-.37,0-.1,0-.2,0-.3,0-.15,0-.3-.01-.44,0-.06,0-.13-.01-.2,0-.06-.01-.13-.02-.19,0-.05-.01-.1-.02-.15-.08-.56-.23-1.11-.44-1.63-.02-.05-.04-.1-.06-.15,0,0,0-.02-.01-.03-.01-.03-.02-.06-.04-.09-.02-.05-.05-.1-.07-.16-.06-.12-.12-.23-.18-.34,0,0,0,0,0,0,0,0,0,0,0-.01-.88-1.55-2.35-2.76-4.21-3.26-.3-.08-.6-.14-.9-.18-.49-.06-.98-.07-1.46-.03-.09,0-.17.01-.26.03-.05,0-.09.01-.14.02-.07,0-.13.02-.2.03-.06.01-.13.02-.2.04-.03,0-.06,0-.09.02-.16.03-.33.08-.49.12-.18.05-.35.11-.53.18-.02,0-.04.01-.06.02h0c-.24.09-.47.2-.7.32-.33.17-.64.37-.93.6-1.18.89-2.08,2.17-2.5,3.71l-3.11,11.59-2.5,9.31-2.33,8.68s0,.02,0,.03l-.05.18c-.02.07-.04.15-.06.22-.03.15-.06.3-.09.45-.01.07-.02.15-.03.23-.03.22-.05.45-.05.67,0,.12,0,.25,0,.37,0,.05,0,.09,0,.14,0,.07,0,.13.01.2,0,.04,0,.08,0,.11v.16s.02.09.03.13c0,.08.02.16.04.24.01.09.03.17.05.26,0,.02,0,.03.01.05.03.17.08.34.13.5.02.09.05.18.08.26.03.08.06.17.09.25,0,0,0,.01,0,.02.04.11.08.21.13.32.05.1.1.21.15.31.1.21.22.4.34.6.05.08.1.15.15.22.03.06.08.11.12.17.06.08.12.17.19.25h0c.15.18.31.36.47.53l15.05,15.05v28.83c0,3.81,3.09,6.9,6.9,6.9s6.9-3.09,6.9-6.9v-31.5c0-1.29-.36-2.5-.97-3.53ZM56.87,37.72c0-2.05,1.66-3.71,3.71-3.71s3.71,1.66,3.71,3.71-1.66,3.71-3.71,3.71-3.71-1.66-3.71-3.71ZM54.1,71.09c-2.05,0-3.71-1.66-3.71-3.71s1.66-3.71,3.71-3.71,3.71,1.66,3.71,3.71-1.66,3.71-3.71,3.71ZM70,81.32c2.05,0,3.71,1.66,3.71,3.71s-1.66,3.71-3.71,3.71-3.71-1.66-3.71-3.71,1.66-3.71,3.71-3.71ZM70,120.06c-2.05,0-3.71-1.66-3.71-3.71s1.66-3.71,3.71-3.71,3.71,1.66,3.71,3.71-1.66,3.71-3.71,3.71Z"/>
    <path class="cls-1" d="M50.23,33.57c-.16.41-.3.83-.42,1.26l-3.79,14.15,5.12-1.37,3.11-11.59c.41-1.54,1.32-2.82,2.5-3.71.3-.22.61-.42.93-.6.23-.12.46-.23.7-.32l-8.14,2.18ZM46.77,70.71c.1.2.22.4.34.6-.12-.19-.24-.39-.34-.6ZM46.22,65.99s0,.03,0,.04c.02-.07.04-.15.06-.22l.05-.18c-.04.12-.07.24-.1.36ZM46.19,69.05c.03.17.08.34.13.5-.05-.17-.09-.33-.13-.5ZM46.03,67.38c0-.22.02-.45.05-.67-.03.22-.05.45-.05.67ZM43.89,74.69s0-.01-.02-.02c0,0,.01.01.01.02.06.07.11.14.18.21-.06-.07-.12-.14-.17-.21Z"/>
  </g>
  <path class="cls-1" d="M69.67,5.14c-5.95-1.59-12.07,1.94-13.67,7.89-1.59,5.95,1.94,12.07,7.89,13.67,5.95,1.59,12.07-1.94,13.67-7.89,1.59-5.95-1.94-12.07-7.89-13.67ZM66.78,19.63c-2.05,0-3.71-1.66-3.71-3.71s1.66-3.71,3.71-3.71,3.71,1.66,3.71,3.71-1.66,3.71-3.71,3.71Z"/>
  <path class="cls-1" d="M67.51,36.08c-.82-3.08-3.61-5.12-6.66-5.12-.05,0-.11,0-.16,0h-.03c-.53.01-1.06.09-1.59.23l-.69.18h0l-8.14,2.18-14.17,3.8s-.01,0-.02,0c-3.67.99-5.85,4.77-4.86,8.44.99,3.68,4.77,5.86,8.45,4.88l3.67-.98,2.73-.73,5.12-1.37,6.88-1.84,4.61-1.23c3.08-.82,5.11-3.61,5.11-6.66,0-.59-.07-1.19-.24-1.79ZM37.73,48.98c-2.05,0-3.71-1.66-3.71-3.71s1.66-3.71,3.71-3.71,3.71,1.66,3.71,3.71-1.66,3.71-3.71,3.71ZM60.58,41.43c-2.05,0-3.71-1.66-3.71-3.71s1.66-3.71,3.71-3.71,3.71,1.66,3.71,3.71-1.66,3.71-3.71,3.71Z"/>
  <path class="cls-1" d="M39.45,37.41c-1.15-.31-2.31-.31-3.39-.04,0,0-.01,0-.02,0-2.37.58-4.36,2.4-5.04,4.92l-8.15,30.43c-.99,3.68,1.2,7.46,4.88,8.45,3.68.99,7.46-1.2,8.45-4.88l7.12-26.58,1.03-3.85c.16-.6.24-1.2.24-1.79,0-3.05-2.03-5.83-5.11-6.66ZM37.73,41.56c2.05,0,3.71,1.66,3.71,3.71s-1.66,3.71-3.71,3.71-3.71-1.66-3.71-3.71,1.66-3.71,3.71-3.71ZM29.87,77.65c-2.05,0-3.71-1.66-3.71-3.71s1.66-3.71,3.71-3.71,3.71,1.66,3.71,3.71-1.66,3.71-3.71,3.71Z"/>
  <path class="cls-1" d="M46.03,67.38c0-.22.02-.45.05-.67-.03.22-.05.45-.05.67Z"/>
  <path class="cls-1" d="M46.19,69.05c.03.17.08.34.13.5-.05-.17-.09-.33-.13-.5Z"/>
  <path class="cls-1" d="M46.22,65.99c.03-.12.06-.24.1-.36l-.05.18c-.02.07-.04.15-.06.22,0-.01,0-.03,0-.04Z"/>
  <path class="cls-1" d="M46.77,70.71c.1.21.22.4.34.6-.13-.19-.24-.39-.34-.6Z"/>
  <path class="cls-1" d="M54.1,74.39c.17-.03.34-.06.5-.11-.17.04-.34.08-.5.11Z"/>
  <path class="cls-1" d="M56.87,73.26c.3-.21.59-.45.86-.71-.27.26-.55.5-.86.71Z"/>
  <path class="cls-1" d="M59.31,70.22c-.07.18-.15.36-.24.53.09-.17.17-.35.24-.53Z"/>
</svg>