<?xml version="1.0" encoding="UTF-8"?>
<svg id="Layer_1" data-name="Layer 1" xmlns="http://www.w3.org/2000/svg" viewBox="0 0 128 128">
  <defs>
    <style>
      .cls-1 {
        fill: #e1e1e0;
      }
    </style>
  </defs>
  <g>
    <path class="cls-1" d="M84.35,82.08h-39.73s0-39.73,0-39.73c10.61,0,20.59,4.13,28.09,11.64,7.5,7.5,11.64,17.48,11.64,28.09Z"/>
    <path class="cls-1" d="M44.62,82.08v39.73c-10.61,0-20.59-4.13-28.09-11.64-7.5-7.5-11.64-17.48-11.64-28.09h39.73Z"/>
    <path class="cls-1" d="M44.62,50.05c8.56,0,16.6,3.33,22.65,9.38,6.05,6.05,9.38,14.09,9.38,22.65,0,8.56-3.33,16.6-9.38,22.65-6.05,6.05-14.09,9.38-22.65,9.38-8.56,0-16.6-3.33-22.65-9.38-6.05-6.05-9.38-14.09-9.38-22.65,0-8.56,3.33-16.6,9.38-22.65,6.05-6.05,14.09-9.38,22.65-9.38M44.62,42.35c-21.94,0-39.73,17.79-39.73,39.73,0,21.94,17.79,39.73,39.73,39.73s39.73-17.79,39.73-39.73c0-21.94-17.79-39.73-39.73-39.73h0Z"/>
  </g>
  <path class="cls-1" d="M102.42,13.64c7.3,0,13.24,5.94,13.24,13.24s-5.94,13.24-13.24,13.24-13.24-5.94-13.24-13.24,5.94-13.24,13.24-13.24M102.42,6.19c-11.43,0-20.69,9.26-20.69,20.69s9.26,20.69,20.69,20.69,20.69-9.26,20.69-20.69-9.26-20.69-20.69-20.69h0Z"/>
</svg>