<?xml version="1.0" encoding="UTF-8"?>
<svg id="Layer_1" data-name="Layer 1" xmlns="http://www.w3.org/2000/svg" viewBox="0 0 128 128">
  <defs>
    <style>
      .cls-1 {
        fill: #e1e1e0;
      }
    </style>
  </defs>
  <g>
    <path class="cls-1" d="M57.56,37.87c8.94,0,17.35,3.48,23.67,9.81,6.32,6.32,9.81,14.73,9.81,23.67s-3.48,17.35-9.81,23.67c-6.32,6.32-14.73,9.81-23.67,9.81s-17.35-3.48-23.67-9.81c-6.32-6.32-9.81-14.73-9.81-23.67s3.48-17.35,9.81-23.67c6.32-6.32,14.73-9.81,23.67-9.81h0ZM57.56,30.42c-22.61,0-40.93,18.33-40.93,40.93s18.33,40.93,40.93,40.93,40.93-18.33,40.93-40.93-18.33-40.93-40.93-40.93h0Z"/>
    <path class="cls-1" d="M40.61,59.67h0c-1.82-1.82-4.92-1.3-6,1.03-1.5,3.24-2.34,6.84-2.34,10.65,0,3.06.54,5.99,1.54,8.7.79,2.16,3.36,3.08,5.36,1.92h0c1.55-.9,2.27-2.78,1.65-4.47-.71-1.92-1.09-3.99-1.09-6.16,0-2.67.59-5.2,1.64-7.47.66-1.42.37-3.1-.74-4.21ZM45.88,54.4h0c1.11,1.11,2.8,1.4,4.23.74.42-.19.84-.37,1.28-.53,1.47-.54,2.45-1.93,2.45-3.5h0c0-2.61-2.6-4.4-5.04-3.49-.63.23-1.24.49-1.85.77-2.35,1.09-2.9,4.19-1.07,6.02Z"/>
  </g>
  <path class="cls-1" d="M122.24,1.92H22.61C11.18,1.92,1.92,11.18,1.92,22.61v82.77c0,11.43,9.26,20.69,20.69,20.69h82.77c11.43,0,20.69-9.26,20.69-20.69V5.76c0-2.12-1.72-3.84-3.84-3.84ZM118.63,105.39c0,7.3-5.94,13.24-13.24,13.24H22.61c-7.3,0-13.24-5.94-13.24-13.24V22.61c0-7.3,5.94-13.24,13.24-13.24h45.14v12.62c0,2.12,1.72,3.84,3.84,3.84h47.04v79.56Z"/>
</svg>