<?xml version="1.0" encoding="UTF-8"?>
<svg id="Layer_1" data-name="Layer 1" xmlns="http://www.w3.org/2000/svg" viewBox="0 0 128 128">
  <defs>
    <style>
      .cls-1 {
        fill: #f8f770;
      }
    </style>
  </defs>
  <g>
    <g>
      <path class="cls-1" d="M84.47,89.9l-5.43-5.43c-1.5-1.5-1.5-3.93,0-5.43s3.93-1.5,5.43,0l5.43,5.43c1.5,1.5,1.5,3.93,0,5.43-1.5,1.5-3.93,1.5-5.43,0Z"/>
      <path class="cls-1" d="M89.9,95.33l-5.43-5.43c-1.5-1.5-1.5-3.93,0-5.43,1.5-1.5,3.93-1.5,5.43,0l5.43,5.43c1.5,1.5,1.5,3.93,0,5.43-1.5,1.5-3.93,1.5-5.43,0Z"/>
      <path class="cls-1" d="M95.33,100.76l-5.43-5.43c-1.5-1.5-1.5-3.93,0-5.43,1.5-1.5,3.93-1.5,5.43,0l5.43,5.43c1.5,1.5,1.5,3.93,0,5.43-1.5,1.5-3.93,1.5-5.43,0Z"/>
      <path class="cls-1" d="M100.76,106.19l-5.43-5.43c-1.5-1.5-1.5-3.93,0-5.43,1.5-1.5,3.93-1.5,5.43,0l5.43,5.43c1.5,1.5,1.5,3.93,0,5.43-1.5,1.5-3.93,1.5-5.43,0Z"/>
      <path class="cls-1" d="M106.19,111.62l-5.43-5.43c-1.5-1.5-1.5-3.93,0-5.43s3.93-1.5,5.43,0l5.43,5.43c1.5,1.5,1.5,3.93,0,5.43-1.5,1.5-3.93,1.5-5.43,0Z"/>
    </g>
    <g>
      <path class="cls-1" d="M105.07,101.23v-7.68c0-2.12,1.72-3.84,3.84-3.84,2.12,0,3.84,1.72,3.84,3.84v7.68c0,2.12-1.72,3.84-3.84,3.84-2.12,0-3.84-1.72-3.84-3.84Z"/>
      <path class="cls-1" d="M105.07,108.91v-7.68c0-2.12,1.72-3.84,3.84-3.84s3.84,1.72,3.84,3.84v7.68c0,2.12-1.72,3.84-3.84,3.84-2.12,0-3.84-1.72-3.84-3.84Z"/>
    </g>
    <g>
      <path class="cls-1" d="M101.23,112.75h-7.68c-2.12,0-3.84-1.72-3.84-3.84s1.72-3.84,3.84-3.84h7.68c2.12,0,3.84,1.72,3.84,3.84,0,2.12-1.72,3.84-3.84,3.84Z"/>
      <path class="cls-1" d="M108.91,112.75h-7.68c-2.12,0-3.84-1.72-3.84-3.84s1.72-3.84,3.84-3.84h7.68c2.12,0,3.84,1.72,3.84,3.84,0,2.12-1.72,3.84-3.84,3.84Z"/>
    </g>
  </g>
  <circle class="cls-1" cx="58.98" cy="58.98" r="20.69"/>
  <path class="cls-1" d="M62.82,19.09v7.68c0,2.12-1.72,3.84-3.84,3.84s-3.84-1.72-3.84-3.84v-7.68c0-2.12,1.72-3.84,3.84-3.84s3.84,1.72,3.84,3.84Z"/>
  <path class="cls-1" d="M33.49,28.06l5.43,5.43c1.5,1.5,1.5,3.93,0,5.43s-3.93,1.5-5.43,0l-5.43-5.43c-1.5-1.5-1.5-3.93,0-5.43,1.5-1.5,3.93-1.5,5.43,0Z"/>
  <path class="cls-1" d="M19.09,55.14h7.68c2.12,0,3.84,1.72,3.84,3.84s-1.72,3.84-3.84,3.84h-7.68c-2.12,0-3.84-1.72-3.84-3.84s1.72-3.84,3.84-3.84Z"/>
  <path class="cls-1" d="M28.06,84.47l5.43-5.43c1.5-1.5,3.93-1.5,5.43,0,1.5,1.5,1.5,3.93,0,5.43l-5.43,5.43c-1.5,1.5-3.93,1.5-5.43,0-1.5-1.5-1.5-3.93,0-5.43Z"/>
  <path class="cls-1" d="M55.14,98.87v-7.68c0-2.12,1.72-3.84,3.84-3.84,2.12,0,3.84,1.72,3.84,3.84v7.68c0,2.12-1.72,3.84-3.84,3.84-2.12,0-3.84-1.72-3.84-3.84Z"/>
  <path class="cls-1" d="M98.87,62.82h-7.68c-2.12,0-3.84-1.72-3.84-3.84s1.72-3.84,3.84-3.84h7.68c2.12,0,3.84,1.72,3.84,3.84s-1.72,3.84-3.84,3.84Z"/>
  <path class="cls-1" d="M89.9,33.49l-5.43,5.43c-1.5,1.5-3.93,1.5-5.43,0-1.5-1.5-1.5-3.93,0-5.43l5.43-5.43c1.5-1.5,3.93-1.5,5.43,0,1.5,1.5,1.5,3.93,0,5.43Z"/>
</svg>