<?xml version="1.0" encoding="UTF-8"?>
<svg id="Layer_1" data-name="Layer 1" xmlns="http://www.w3.org/2000/svg" viewBox="0 0 128 128">
  <defs>
    <style>
      .cls-1 {
        fill: #e1e1e0;
      }
    </style>
  </defs>
  <path class="cls-1" d="M124.23,22.64c1.26-2.18,1.85-4.55,1.85-6.89,0-4.77-2.48-9.42-6.91-11.97-6.61-3.81-15.05-1.55-18.86,5.06l-48.25,83.57c-1.48,2.56-5.17,2.56-6.65,0l-17.72-30.68c-3.81-6.61-12.26-8.87-18.86-5.05-4.43,2.56-6.91,7.2-6.91,11.97,0,2.34.6,4.72,1.85,6.89l23.21,40.21c3.7,6.4,10.53,10.35,17.92,10.35h7.65c7.39,0,14.22-3.94,17.92-10.35L124.23,22.64Z"/>
</svg>