<?xml version="1.0" encoding="UTF-8"?>
<svg id="Layer_1" data-name="Layer 1" xmlns="http://www.w3.org/2000/svg" viewBox="0 0 128 128">
  <defs>
    <style>
      .cls-1 {
        fill: #e1e1e0;
      }

      .cls-2 {
        fill: #61d1fa;
      }
    </style>
  </defs>
  <rect class="cls-1" x="51.63" y="2.16" width="13.77" height="19.87" rx="6.89" ry="6.89"/>
  <g>
    <rect class="cls-2" x="51.63" y="2.16" width="13.77" height="19.87" rx="6.89" ry="6.89"/>
    <path class="cls-2" d="M124.06,27.68l-23.5-23.5c-1.29-1.29-3.04-2.02-4.87-2.02h-9.55c-3.8,0-6.89,3.08-6.89,6.89v13.77c0,3.8-3.08,6.89-6.89,6.89H30.89c-3.8,0-6.89-3.08-6.89-6.89v-13.77c0-3.8-3.08-6.89-6.89-6.89h-8.08c-3.8,0-6.89,3.08-6.89,6.89v110.15c0,3.8,3.08,6.89,6.89,6.89h110.15c3.8,0,6.89-3.08,6.89-6.89V32.55c0-1.83-.73-3.58-2.02-4.87ZM106.8,102.67c0,3.8-3.08,6.89-6.89,6.89H30.9c-3.8,0-6.89-3.08-6.89-6.89v-27.54s0-.06,0-.09v-13.68c0-3.8,3.08-6.89,6.89-6.89h69.01c3.8,0,6.89,3.08,6.89,6.89v41.31Z"/>
    <path class="cls-2" d="M99.14,81.42c0,.2-.01.4-.05.6-.29,1.83-1.87,3.23-3.79,3.23h-59.79c-1.91,0-3.5-1.4-3.78-3.23-.03-.2-.05-.39-.05-.6,0-1.06.43-2.02,1.12-2.71.69-.69,1.65-1.12,2.71-1.12h59.79c2.12,0,3.83,1.72,3.83,3.83Z"/>
    <path class="cls-2" d="M99.14,66.09c0,.2-.01.4-.05.6-.29,1.83-1.87,3.23-3.79,3.23h-59.79c-1.91,0-3.5-1.4-3.78-3.23-.03-.2-.05-.39-.05-.6,0-1.06.43-2.02,1.12-2.71.69-.69,1.65-1.12,2.71-1.12h59.79c2.12,0,3.83,1.72,3.83,3.83Z"/>
    <path class="cls-2" d="M99.14,96.75c0,2.12-1.72,3.83-3.83,3.83h-59.79c-2.12,0-3.83-1.72-3.83-3.83,0-1.06.43-2.02,1.12-2.71.69-.69,1.65-1.12,2.71-1.12h59.79c2.12,0,3.83,1.72,3.83,3.83Z"/>
  </g>
</svg>