<?xml version="1.0" encoding="UTF-8"?>
<svg id="Layer_1" data-name="Layer 1" xmlns="http://www.w3.org/2000/svg" viewBox="0 0 128 128">
  <defs>
    <style>
      .cls-1 {
        fill: #61d1fa;
      }
    </style>
  </defs>
  <path class="cls-1" d="M64,14.34c13.27,0,25.74,5.17,35.12,14.55,9.38,9.38,14.55,21.85,14.55,35.12s-5.17,25.74-14.55,35.12c-9.38,9.38-21.85,14.55-35.12,14.55s-25.74-5.17-35.12-14.55c-9.38-9.38-14.55-21.85-14.55-35.12s5.17-25.74,14.55-35.12c9.38-9.38,21.85-14.55,35.12-14.55M64,1.92C29.71,1.92,1.92,29.71,1.92,64s27.79,62.08,62.08,62.08,62.08-27.79,62.08-62.08S98.29,1.92,64,1.92h0Z"/>
  <path class="cls-1" d="M39.7,44.97c-2.97-2.97-7.96-2.17-9.87,1.56-2.15,4.19-3.55,8.83-4.02,13.74-.12,1.23-.18,2.47-.18,3.72s.06,2.5.18,3.72c.47,4.91,1.87,9.55,4.02,13.74,1.91,3.74,6.9,4.53,9.87,1.56l.06-.06c1.91-1.91,2.33-4.83,1.1-7.24-1.26-2.47-2.13-5.17-2.54-8.01-.18-1.22-.27-2.46-.27-3.72s.09-2.51.27-3.72c.41-2.85,1.28-5.54,2.54-8.01,1.23-2.41.81-5.32-1.1-7.24l-.06-.06ZM60.28,33.41h0c0-4.19-4.07-7.22-8.06-5.93-1.97.63-3.87,1.42-5.68,2.35-3.74,1.91-4.53,6.9-1.56,9.87l.06.06c1.91,1.91,4.83,2.33,7.24,1.1,1.18-.6,2.41-1.11,3.69-1.53,2.57-.84,4.33-3.21,4.33-5.92Z"/>
</svg>