<?xml version="1.0" encoding="UTF-8"?>
<svg id="Layer_1" data-name="Layer 1" xmlns="http://www.w3.org/2000/svg" viewBox="0 0 128 128">
  <defs>
    <style>
      .cls-1 {
        fill: #ff7676;
      }
    </style>
  </defs>
  <g>
    <path class="cls-1" d="M29.31,114.16l8.33-21.38c.5-1.3.77-2.67.82-4.08.2-6.81-5.19-12.52-12-12.72-3.3-.1-6.44,1.1-8.84,3.36-2.4,2.27-3.78,5.33-3.87,8.63-.04,1.41.15,2.8.58,4.13l7.04,21.71.36,1.11c.46,1.58,1.88,2.67,3.52,2.72,1.65.05,3.12-.96,3.68-2.51l.38-.98Z"/>
    <circle class="cls-1" cx="26.16" cy="63.83" r="6.9"/>
  </g>
  <g>
    <path class="cls-1" d="M94.33,57.68h0c.13,0,.25,0,.38,0,3.34.1,6.45,1.5,8.76,3.94,2.31,2.44,3.52,5.63,3.42,8.96-.04,1.44-.32,2.83-.82,4.14l-10.39,26.65c-.81,2.08-3.78,1.99-4.47-.13l-8.82-27.21c-.43-1.34-.62-2.74-.58-4.18.1-3.35,1.49-6.46,3.93-8.76,2.34-2.21,5.4-3.42,8.6-3.42M94.33,50.22c-5.12,0-9.97,1.93-13.71,5.45-3.88,3.67-6.11,8.63-6.27,13.97-.07,2.28.25,4.53.94,6.68l11.39,35.12.58,1.8c.75,2.55,3.04,4.32,5.7,4.4.06,0,.12,0,.18,0,2.59,0,4.9-1.61,5.77-4.06l.62-1.59,13.48-34.58c.81-2.1,1.25-4.33,1.32-6.61.32-11.02-8.39-20.25-19.41-20.57-.2,0-.4,0-.6,0h0Z"/>
    <path class="cls-1" d="M94.45,26.85c2.05,0,3.71,1.67,3.71,3.71s-1.67,3.71-3.71,3.71-3.71-1.67-3.71-3.71,1.67-3.71,3.71-3.71M94.45,19.4c-6.17,0-11.16,5-11.16,11.16s5,11.16,11.16,11.16,11.16-5,11.16-11.16-5-11.16-11.16-11.16h0Z"/>
  </g>
  <g>
    <path class="cls-1" d="M65.01,24.52v21.74c0,2.12-1.72,3.84-3.84,3.84h-17.9c-2.12,0-3.84-1.72-3.84-3.84v-21.74h25.58Z"/>
    <path class="cls-1" d="M52.22,11.73c-7.06,0-12.79,5.73-12.79,12.79h5.89c0-1.17.3-2.36.92-3.45,1.91-3.3,6.12-4.43,9.42-2.53,2.21,1.28,3.45,3.59,3.45,5.97h5.89c0-7.06-5.73-12.79-12.79-12.79Z"/>
    <rect class="cls-1" x="59.12" y="24.52" width="5.89" height="20.56"/>
    <rect class="cls-1" x="39.43" y="24.52" width="5.89" height="20.56"/>
  </g>
</svg>