<?xml version="1.0" encoding="UTF-8"?>
<svg id="Layer_1" data-name="Layer 1" xmlns="http://www.w3.org/2000/svg" viewBox="0 0 128 128">
  <defs>
    <style>
      .cls-1 {
        fill: #ba64f2;
      }
    </style>
  </defs>
  <path class="cls-1" d="M119.18,15.28H8.82c-3.81,0-6.9,3.09-6.9,6.9v56.04c0,3.81,3.09,6.9,6.9,6.9h44.44c2.12,0,3.84,1.72,3.84,3.84v6.12c0,2.12-1.72,3.84-3.84,3.84h-30.65c-1.9,0-3.63.77-4.88,2.02-1.28,1.28-2.06,3.06-2.02,5.03.08,3.77,3.26,6.75,7.04,6.75h82.66c3.77,0,6.95-2.97,7.04-6.75.04-1.96-.74-3.75-2.02-5.03-1.25-1.25-2.97-2.02-4.88-2.02h-30.82c-2.12,0-3.84-1.72-3.84-3.84v-6.12c0-2.12,1.72-3.84,3.84-3.84h44.44c3.81,0,6.9-3.09,6.9-6.9V22.18c0-3.81-3.09-6.9-6.9-6.9ZM109.82,72.71H18.18c-2.12,0-3.84-1.72-3.84-3.84V31.54c0-2.12,1.72-3.84,3.84-3.84h91.65c2.12,0,3.84,1.72,3.84,3.84v37.33c0,2.12-1.72,3.84-3.84,3.84Z"/>
</svg>