<?xml version="1.0" encoding="UTF-8"?>
<svg id="Layer_1" data-name="Layer 1" xmlns="http://www.w3.org/2000/svg" viewBox="0 0 128 128">
  <defs>
    <style>
      .cls-1 {
        fill: #e1e1e0;
      }
    </style>
  </defs>
  <path class="cls-1" d="M17.28,101.75c2.47-2.47,6.5-2.47,8.97,0s2.47,6.5,0,8.97-6.5,2.47-8.97,0c-2.47-2.47-2.47-6.5,0-8.97M12.01,96.48c-5.39,5.39-5.39,14.12,0,19.51,5.39,5.39,14.12,5.39,19.51,0,5.39-5.39,5.39-14.12,0-19.51-5.39-5.39-14.12-5.39-19.51,0h0Z"/>
  <g>
    <rect class="cls-1" x="50.92" y="38.28" width="16.55" height="60.96" rx="8.28" ry="8.28" transform="translate(52.43 159.25) rotate(-135)"/>
    <g>
      <path class="cls-1" d="M76.21,43.51c0-1.86.61-3.57,1.64-4.95h0s.54-.65.54-.65c1.51-1.64,3.68-2.67,6.09-2.67,2.41,0,4.58,1.03,6.09,2.67l.54.65h0c1.03,1.38,1.64,3.1,1.64,4.95,0,4.57-3.71,8.28-8.28,8.28s-8.28-3.71-8.28-8.28Z"/>
      <path class="cls-1" d="M44.04,43.51c0-1.86.61-3.57,1.64-4.95h0s.54-.65.54-.65c1.51-1.64,3.68-2.67,6.09-2.67s4.58,1.03,6.09,2.67l.54.65h0c1.03,1.38,1.64,3.1,1.64,4.95,0,4.57-3.71,8.28-8.28,8.28-4.57,0-8.28-3.71-8.28-8.28Z"/>
      <rect class="cls-1" x="52.32" y="35.24" width="32.17" height="16.55" transform="translate(136.8 87.03) rotate(180)"/>
    </g>
    <g>
      <path class="cls-1" d="M84.49,67.41c-1.86,0-3.57.61-4.95,1.64h0s-.65.55-.65.55c-1.64,1.51-2.67,3.68-2.67,6.09s1.03,4.58,2.67,6.09l.65.54h0c1.38,1.03,3.1,1.64,4.95,1.64,4.57,0,8.28-3.71,8.28-8.28s-3.71-8.28-8.28-8.28Z"/>
      <path class="cls-1" d="M84.49,35.24c-1.86,0-3.57.61-4.95,1.64h0s-.65.55-.65.55c-1.64,1.51-2.67,3.68-2.67,6.09s1.03,4.58,2.67,6.09l.65.54h0c1.38,1.03,3.1,1.64,4.95,1.64,4.57,0,8.28-3.71,8.28-8.28s-3.71-8.28-8.28-8.28Z"/>
      <rect class="cls-1" x="68.4" y="51.33" width="32.17" height="16.55" transform="translate(24.89 144.08) rotate(-90)"/>
    </g>
  </g>
  <circle class="cls-1" cx="106.23" cy="21.77" r="13.8"/>
</svg>