<?xml version="1.0" encoding="UTF-8"?>
<svg id="Layer_1" data-name="Layer 1" xmlns="http://www.w3.org/2000/svg" viewBox="0 0 128 128">
  <defs>
    <style>
      .cls-1 {
        fill: #e1e1e0;
      }
    </style>
  </defs>
  <circle class="cls-1" cx="101.9" cy="27.28" r="20.69"/>
  <path class="cls-1" d="M42.94,86.24c-.93-.93-1.92-1.75-2.97-2.46l-2.32,2.32,5.43,5.43,2.32-2.32c-.71-1.05-1.53-2.04-2.46-2.97Z"/>
  <path class="cls-1" d="M42.94,115.5c-4.04,4.04-9.33,6.06-14.63,6.06s-10.59-2.02-14.63-6.06c-8.08-8.08-8.08-21.18,0-29.26,4.04-4.04,9.34-6.06,14.63-6.06,4.08,0,8.16,1.2,11.66,3.6l-2.32,2.32,5.43,5.43,2.32-2.32c5.51,8.06,4.69,19.15-2.46,26.3Z"/>
  <circle class="cls-1" cx="84.55" cy="44.63" r="3.84"/>
  <circle class="cls-1" cx="65.1" cy="64.07" r="3.84"/>
  <polygon class="cls-1" points="93.81 40.8 90.23 44.38 67.82 66.79 48.38 86.23 45.4 89.2 43.08 91.53 37.65 86.1 39.97 83.78 42.94 80.8 88.38 35.37 93.81 40.8"/>
  <circle class="cls-1" cx="45.66" cy="83.52" r="3.84"/>
  <circle class="cls-1" cx="45.66" cy="83.52" r="3.84"/>
</svg>