<?xml version="1.0" encoding="UTF-8"?>
<svg id="Layer_1" data-name="Layer 1" xmlns="http://www.w3.org/2000/svg" viewBox="0 0 128 128">
  <defs>
    <style>
      .cls-1 {
        font-family: Poppins-SemiBold, Poppins;
        font-size: 81.95px;
        font-weight: 600;
      }

      .cls-1, .cls-2 {
        fill: #ba64f2;
      }
    </style>
  </defs>
  <path class="cls-2" d="M102.5,113.66H25.5c-6.16,0-11.16-5-11.16-11.16V25.5c0-6.16,5-11.16,11.16-11.16h77.01c6.16,0,11.16,5,11.16,11.16v77.01c0,6.16-5,11.16-11.16,11.16ZM22.61,1.92C11.18,1.92,1.92,11.18,1.92,22.61v82.77c0,11.43,9.26,20.69,20.69,20.69h82.77c11.43,0,20.69-9.26,20.69-20.69V22.61c0-11.43-9.26-20.69-20.69-20.69H22.61Z"/>
  <text class="cls-1" transform="translate(32.53 93.6)"><tspan x="0" y="0">C</tspan></text>
</svg>