<?xml version="1.0" encoding="UTF-8"?>
<svg id="Layer_1" data-name="Layer 1" xmlns="http://www.w3.org/2000/svg" viewBox="0 0 128 128">
  <defs>
    <style>
      .cls-1 {
        fill: #ff7676;
      }
    </style>
  </defs>
  <g>
    <g>
      <rect class="cls-1" x="8.51" y="104.35" width="81.86" height="7.68"/>
      <rect class="cls-1" x="8.51" y="88.99" width="81.86" height="7.68"/>
      <rect class="cls-1" x="8.51" y="73.63" width="81.86" height="7.68"/>
      <rect class="cls-1" x="8.51" y="58.27" width="81.86" height="7.68"/>
    </g>
    <path class="cls-1" d="M83.48,44.22H15.41c-3.81,0-6.9,3.09-6.9,6.9v68.06c0,3.81,3.09,6.9,6.9,6.9h68.06c3.81,0,6.9-3.09,6.9-6.9V51.12c0-3.81-3.09-6.9-6.9-6.9ZM82.92,114.79c0,2.12-1.72,3.84-3.84,3.84H19.8c-2.12,0-3.84-1.72-3.84-3.84v-59.28c0-2.12,1.72-3.84,3.84-3.84h59.28c2.12,0,3.84,1.72,3.84,3.84v59.28Z"/>
    <rect class="cls-1" x="12.01" y="47.13" width="37.44" height="76.04"/>
  </g>
  <g>
    <path class="cls-1" d="M119.49,14.71v21.74c0,2.12-1.72,3.84-3.84,3.84h-17.9c-2.12,0-3.84-1.72-3.84-3.84V14.71h25.58Z"/>
    <path class="cls-1" d="M106.7,1.92c-7.06,0-12.79,5.73-12.79,12.79h5.89c0-1.17.3-2.36.92-3.45,1.91-3.3,6.12-4.43,9.42-2.53,2.21,1.28,3.45,3.59,3.45,5.97h5.89c0-7.06-5.73-12.79-12.79-12.79Z"/>
    <rect class="cls-1" x="113.6" y="14.71" width="5.89" height="20.56"/>
    <rect class="cls-1" x="93.91" y="14.71" width="5.89" height="20.56"/>
  </g>
</svg>