<?xml version="1.0" encoding="UTF-8"?>
<svg id="Layer_1" data-name="Layer 1" xmlns="http://www.w3.org/2000/svg" viewBox="0 0 128 128">
  <defs>
    <style>
      .cls-1 {
        fill: #ba64f2;
      }
    </style>
  </defs>
  <path class="cls-1" d="M119.18,28.82h-4.44c-2.12,0-3.84-1.72-3.84-3.84v-15.47c0-3.81-3.09-6.9-6.9-6.9h-24.83c-3.81,0-6.9,3.09-6.9,6.9v15.47c0,2.12-1.72,3.84-3.84,3.84h-4.44c-3.81,0-6.9,3.09-6.9,6.9v76.66c0,3.81,3.09,6.9,6.9,6.9h1.38v2.28c0,2.12,1.72,3.84,3.84,3.84h6.12c2.12,0,3.84-1.72,3.84-3.84v-2.28h24.83v2.28c0,2.12,1.72,3.84,3.84,3.84h6.12c2.12,0,3.84-1.72,3.84-3.84v-2.28h1.38c3.81,0,6.9-3.09,6.9-6.9V35.72c0-3.81-3.09-6.9-6.9-6.9ZM84.69,18.87c0-2.12,1.72-3.84,3.84-3.84h6.12c2.12,0,3.84,1.72,3.84,3.84v6.12c0,2.12-1.72,3.84-3.84,3.84h-6.12c-2.12,0-3.84-1.72-3.84-3.84v-6.12ZM106.77,106.86h-30.35c-3.81,0-6.9-3.09-6.9-6.9v-51.82c0-3.81,3.09-6.9,6.9-6.9h30.35c3.81,0,6.9,3.09,6.9,6.9v51.82c0,3.81-3.09,6.9-6.9,6.9Z"/>
  <rect class="cls-1" x="17.28" y="41.63" width="32.14" height="12.42" rx="6.21" ry="6.21"/>
  <rect class="cls-1" x="9.6" y="67.84" width="39.82" height="12.42" rx="6.21" ry="6.21"/>
  <rect class="cls-1" x="1.92" y="94.05" width="47.5" height="12.42" rx="6.21" ry="6.21"/>
</svg>