<?xml version="1.0" encoding="UTF-8"?>
<svg id="Layer_1" data-name="Layer 1" xmlns="http://www.w3.org/2000/svg" xmlns:xlink="http://www.w3.org/1999/xlink" viewBox="0 0 128 128">
  <defs>
    <style>
      .cls-1 {
        fill: url(#linear-gradient-2);
      }

      .cls-2 {
        fill: url(#linear-gradient-4);
      }

      .cls-3 {
        fill: url(#linear-gradient-3);
      }

      .cls-4 {
        fill: url(#linear-gradient-5);
      }

      .cls-5 {
        fill: url(#linear-gradient-6);
      }

      .cls-6 {
        fill: url(#linear-gradient);
      }
    </style>
    <linearGradient id="linear-gradient" x1="135.18" y1="71.71" x2="63.18" y2=".83" gradientUnits="userSpaceOnUse">
      <stop offset=".38" stop-color="#ab40f2"/>
      <stop offset=".47" stop-color="#7b40f2"/>
      <stop offset=".58" stop-color="#4058f2"/>
      <stop offset=".73" stop-color="#409ff2"/>
      <stop offset=".8" stop-color="#409ff2"/>
    </linearGradient>
    <linearGradient id="linear-gradient-2" x1="-32.38" y1="42.77" x2="58.89" y2="116.37" gradientUnits="userSpaceOnUse">
      <stop offset=".37" stop-color="#31eb34"/>
      <stop offset=".47" stop-color="#31eb34"/>
      <stop offset=".65" stop-color="#a3eb36"/>
      <stop offset=".75" stop-color="#f8f739"/>
      <stop offset=".86" stop-color="#f8f74b"/>
    </linearGradient>
    <linearGradient id="linear-gradient-3" x1="26.23" y1="82.06" x2="60.51" y2="-26.55" gradientUnits="userSpaceOnUse">
      <stop offset=".17" stop-color="#36eb39"/>
      <stop offset=".21" stop-color="#61fa82"/>
      <stop offset=".25" stop-color="#61faca"/>
      <stop offset=".29" stop-color="#61fafa"/>
      <stop offset=".35" stop-color="#61d1fa"/>
    </linearGradient>
    <linearGradient id="linear-gradient-4" x1="15.96" y1="106.05" x2="109.04" y2="84.9" gradientUnits="userSpaceOnUse">
      <stop offset=".23" stop-color="#f8c74b"/>
      <stop offset=".45" stop-color="#f8c74b"/>
      <stop offset=".63" stop-color="#ff6450"/>
      <stop offset=".68" stop-color="#ff5650"/>
      <stop offset=".72" stop-color="#ff5050"/>
    </linearGradient>
    <linearGradient id="linear-gradient-5" x1="72.72" y1="117.92" x2="111.64" y2="32.72" gradientUnits="userSpaceOnUse">
      <stop offset=".43" stop-color="#ff5050"/>
      <stop offset=".47" stop-color="#ff5093"/>
      <stop offset=".54" stop-color="#ff50d0"/>
      <stop offset=".59" stop-color="#d650ff"/>
      <stop offset=".64" stop-color="#ab40f2"/>
    </linearGradient>
    <linearGradient id="linear-gradient-6" x1="46.78" y1="38.1" x2="64.33" y2="30.64" gradientUnits="userSpaceOnUse">
      <stop offset="0" stop-color="#61d1fa"/>
      <stop offset=".21" stop-color="#61d1fa"/>
      <stop offset=".38" stop-color="#61d1fa"/>
      <stop offset=".58" stop-color="#61d1fa"/>
      <stop offset="1" stop-color="#409ff2"/>
    </linearGradient>
  </defs>
  <path class="cls-6" d="M69.58,48.72l16.57-34.94c2.14-4.47,5.83-8.08,10.73-10.33,2.58-.98,5.18-1.48,7.72-1.52.11,0,.21,0,.32,0,5.6-.01,10.86,2.16,14.82,6.11,2,2.01,3.55,4.35,4.58,6.9.21.51.39,1.02.56,1.55,1.42,4.48,1.32,9.5-.56,14.43-2.24,4.88-5.86,8.58-10.32,10.72l-34.95,16.57c-1.78.91-3.8,1-5.59.35-.95-.34-1.83-.89-2.57-1.64,0,0,0,0,0,0-2.17-2.16-2.69-5.45-1.3-8.17Z"/>
  <path class="cls-1" d="M58.42,78.94l-16.57,34.94c-2.14,4.47-5.83,8.08-10.73,10.33-2.58.98-5.18,1.48-7.72,1.52-.11,0-.21,0-.32,0-5.6.01-10.86-2.16-14.82-6.11-2-2.01-3.55-4.35-4.58-6.9-.21-.51-.39-1.02-.56-1.55-1.42-4.48-1.32-9.5.56-14.43,2.24-4.88,5.86-8.58,10.32-10.72l34.95-16.57c1.78-.91,3.8-1,5.59-.35.95.34,1.83.89,2.57,1.64,0,0,0,0,0,0,2.17,2.16,2.69,5.45,1.3,8.17Z"/>
  <path class="cls-3" d="M54.68,60.96s0,.02,0,.02c-.49,1.56-1.91,2.62-3.54,2.65l-23.89,1.1c-1.39.06-2.78-.12-4.12-.53-3.15-.96-5.73-3.09-7.28-6-.03-.07-.07-.13-.1-.2-1.46-2.86-1.74-6.11-.8-9.18.55-1.81,1.49-3.42,2.74-4.77.93-1,2.02-1.85,3.26-2.51,1.81-.96,3.78-1.45,5.77-1.45,1.21,0,2.43.18,3.62.54,1.34.41,2.6,1.04,3.71,1.86l19.2,14.27c.8.56,1.33,1.39,1.53,2.31.13.61.11,1.26-.08,1.89Z"/>
  <path class="cls-2" d="M69.68,112.04c1.21.64,2.5,1.07,3.81,1.29,1.84.3,3.74.18,5.58-.38,1.2-.37,2.3-.9,3.28-1.56,1.62-1.09,2.93-2.54,3.85-4.2.3-.52.55-1.07.77-1.63.95-2.48,1.11-5.27.28-8-.41-1.35-1.04-2.6-1.86-3.71l-14.27-19.19c-.93-1.33-2.59-1.91-4.15-1.46-.02,0-.03,0-.05.01-.62.19-1.16.52-1.58.96-.67.67-1.07,1.59-1.09,2.58l-.62,13.51-.48,10.38c-.06,1.39.12,2.78.53,4.12.96,3.15,3.09,5.73,6,7.28Z"/>
  <path class="cls-4" d="M113.18,78.84c-.58,1.9-1.58,3.56-2.87,4.9-3.12,3.26-7.92,4.69-12.52,3.28-1.34-.41-2.6-1.04-3.71-1.86l-11.24-8.36-7.96-5.92c-.74-.52-1.25-1.26-1.47-2.09-.18-.65-.19-1.35,0-2.04,0-.02.01-.05.02-.07.48-1.57,1.9-2.64,3.54-2.67l5.61-.26,18.28-.84c1.39-.06,2.78.12,4.13.53,3.15.96,5.73,3.09,7.28,6,.03.06.07.13.1.19,1.46,2.86,1.74,6.12.8,9.19Z"/>
  <path class="cls-5" d="M42.72,33.81l14.27,19.19c.94,1.34,2.63,1.92,4.2,1.44.03,0,.06-.02.09-.03.67-.22,1.26-.62,1.69-1.14.55-.65.88-1.48.89-2.37l1.1-23.89c.06-1.39-.12-2.78-.53-4.12-.96-3.15-3.09-5.73-6-7.28-1.22-.65-2.51-1.08-3.83-1.29-1.83-.3-3.73-.17-5.56.39-3.19.97-5.69,3.13-7.18,5.84-1.55,2.82-2.01,6.23-1,9.54.41,1.35,1.04,2.6,1.86,3.72Z"/>
</svg>