<?xml version="1.0" encoding="UTF-8"?>
<svg id="Layer_1" data-name="Layer 1" xmlns="http://www.w3.org/2000/svg" viewBox="0 0 128 128">
  <defs>
    <style>
      .cls-1 {
        fill: #e1e1e0;
      }

      .cls-2 {
        fill: #59eb5c;
      }
    </style>
  </defs>
  <g>
    <path class="cls-1" d="M9.98,66.98v-26.51h16.78v33.41h-9.88c-3.81,0-6.9-3.09-6.9-6.9Z"/>
    <path class="cls-1" d="M111.13,73.88h-9.88v-33.41h16.78v26.51c0,3.81-3.09,6.9-6.9,6.9Z"/>
    <path class="cls-1" d="M26.75,81.56h74.5v37.62c0,3.81-3.09,6.9-6.9,6.9h-60.7c-3.81,0-6.9-3.09-6.9-6.9v-37.62Z"/>
  </g>
  <g>
    <rect class="cls-2" x="55.7" y="15.45" width="16.55" height="60.96" rx="8.28" ry="8.28" transform="translate(127.95 91.87) rotate(-180)"/>
    <g>
      <path class="cls-2" d="M58.15,16.05c-1.31-1.31-2.09-2.96-2.34-4.66h0s-.08-.85-.08-.85c-.09-2.23.71-4.49,2.42-6.19,1.7-1.7,3.96-2.51,6.19-2.42l.85.08h0c1.71.25,3.35,1.03,4.66,2.34,3.23,3.23,3.23,8.47,0,11.71s-8.47,3.23-11.71,0Z"/>
      <path class="cls-2" d="M35.4,38.8c-1.31-1.31-2.09-2.96-2.34-4.66h0s-.08-.85-.08-.85c-.09-2.23.71-4.49,2.42-6.19s3.96-2.51,6.19-2.42l.85.08h0c1.71.25,3.35,1.03,4.66,2.34,3.23,3.23,3.23,8.47,0,11.71-3.23,3.23-8.47,3.23-11.71,0Z"/>
      <rect class="cls-2" x="36.54" y="13.3" width="32.17" height="16.55" transform="translate(105.09 -.39) rotate(135)"/>
    </g>
    <g>
      <path class="cls-2" d="M80.89,27.09c-1.31,1.31-2.09,2.96-2.34,4.66h0s-.08.85-.08.85c-.09,2.23.71,4.49,2.42,6.19s3.96,2.51,6.19,2.42l.85-.08h0c1.71-.25,3.35-1.03,4.66-2.34,3.23-3.23,3.23-8.47,0-11.71-3.23-3.23-8.47-3.23-11.71,0Z"/>
      <path class="cls-2" d="M58.15,4.34c-1.31,1.31-2.09,2.96-2.34,4.66h0s-.08.85-.08.85c-.09,2.23.71,4.49,2.42,6.19s3.96,2.51,6.19,2.42l.85-.08h0c1.71-.25,3.35-1.03,4.66-2.34,3.23-3.23,3.23-8.47,0-11.71-3.23-3.23-8.47-3.23-11.71,0Z"/>
      <rect class="cls-2" x="59.29" y="13.3" width="32.17" height="16.55" transform="translate(113.42 90.12) rotate(-135)"/>
    </g>
  </g>
</svg>