<?xml version="1.0" encoding="UTF-8"?>
<svg id="Layer_1" data-name="Layer 1" xmlns="http://www.w3.org/2000/svg" viewBox="0 0 128 128">
  <defs>
    <style>
      .cls-1 {
        fill: #e1e1e0;
      }
    </style>
  </defs>
  <path class="cls-1" d="M53.65,82.86s0,0,0-.01c-.02-.03-.03-.05-.05-.08.02.03.03.06.05.08,0,0,0,0,0,.01Z"/>
  <path class="cls-1" d="M53.9,83.24s-.03-.04-.04-.06c0,.01.02.03.03.04,0,0,0,0,0,.02Z"/>
  <path class="cls-1" d="M54.11,83.52s0-.01-.02-.02c-.01-.02-.03-.04-.05-.06,0,0,.01.02.02.03.01.02.03.04.04.06Z"/>
  <path class="cls-1" d="M54.28,83.73s0,0-.01-.01c0,0,0,0,0-.01,0,0,0,.01.01.01,0,0,0,0,0,.01Z"/>
  <path class="cls-1" d="M54.29,83.75s0,0,0-.01h0s0,0,0,.01Z"/>
  <path class="cls-1" d="M56.06,85.24c-.07-.04-.15-.09-.22-.13h0c.07.04.15.09.22.13Z"/>
  <path class="cls-1" d="M56.94,85.68c-.06-.02-.12-.05-.18-.08-.08-.04-.16-.07-.24-.11-.07-.03-.14-.07-.22-.11-.01,0-.02-.01-.04-.02-.07-.04-.14-.08-.21-.12.12.07.23.13.35.19.08.04.15.08.23.11.1.04.2.09.29.13Z"/>
  <path class="cls-1" d="M57.24,85.8c-.08-.03-.16-.06-.24-.09-.02,0-.04-.01-.06-.02.1.04.2.08.3.12Z"/>
  <path class="cls-1" d="M57.72,85.95c-.07-.02-.14-.04-.21-.06,0,0-.02,0-.03,0,.08.02.16.05.24.07Z"/>
  <path class="cls-1" d="M58.01,86.02s-.01,0-.02,0c-.07-.02-.15-.04-.22-.06.08.02.16.04.24.06Z"/>
  <path class="cls-1" d="M60.14,86.18s-.03,0-.04,0c-.05,0-.1,0-.15,0,.06,0,.13,0,.19-.01Z"/>
  <path class="cls-1" d="M73.85,104.44c-.73,1.73-2.16,3.17-4.07,3.84-3.59,1.27-7.53-.62-8.8-4.21l-1.78-5.04-3.08-8.75h0c.53.16,1.09.29,1.65.38.14.02.29.04.43.06.01,0,.03,0,.04,0,.14.01.28.03.42.04.15,0,.3.02.45.02.15,0,.3,0,.45,0h0c.29,0,.59-.01.88-.03h0c.36-.03.71-.07,1.05-.13.64-.11,1.27-.28,1.88-.49l.36-.13s.01,0,.02,0l6.13-2.16,4.1,11.63c.59,1.68.49,3.44-.14,4.96Z"/>
  <rect class="cls-1" x="46.65" y="87.48" width="13.8" height="45.29" rx="6.9" ry="6.9" transform="translate(123.18 9.39) rotate(60.58)"/>
  <g>
    <path class="cls-1" d="M52.68,79.8c-.01-.16-.02-.33-.02-.49,0-.11,0-.23,0-.34-.01.28,0,.55,0,.83Z"/>
    <path class="cls-1" d="M53.65,82.86s0,0,0-.01c-.02-.03-.03-.05-.05-.08.02.03.03.06.05.08,0,0,0,0,0,.01Z"/>
    <path class="cls-1" d="M54.11,83.52s0-.01-.02-.02c0-.01-.02-.02-.02-.04.01.02.03.04.04.06Z"/>
    <path class="cls-1" d="M54.28,83.73s0,0-.01-.01c0,0,0,0,0-.01,0,0,0,.01.01.01,0,0,0,0,0,.01Z"/>
    <path class="cls-1" d="M54.29,83.75s0,0,0-.01h0s0,0,0,.01Z"/>
    <path class="cls-1" d="M56.06,85.24c-.07-.04-.15-.09-.22-.13h0c.07.04.15.09.22.13Z"/>
    <path class="cls-1" d="M56.94,85.68c-.06-.02-.12-.05-.18-.08-.08-.04-.16-.07-.24-.11-.07-.03-.14-.07-.22-.11-.01,0-.02-.01-.04-.02-.07-.04-.14-.08-.21-.12.12.07.23.13.35.19.08.04.15.08.23.11.1.04.2.09.29.13Z"/>
    <path class="cls-1" d="M57.24,85.8c-.08-.03-.16-.06-.24-.09-.02,0-.04-.01-.06-.02.1.04.2.08.3.12Z"/>
    <path class="cls-1" d="M57.72,85.95c-.07-.02-.14-.04-.21-.06,0,0-.02,0-.03,0,.08.02.16.05.24.07Z"/>
    <path class="cls-1" d="M58.01,86.02s-.01,0-.02,0c-.07-.02-.15-.04-.22-.06.08.02.16.04.24.06Z"/>
    <path class="cls-1" d="M53.06,81.6c-.03-.09-.06-.19-.09-.29.01.05.03.1.04.15.03.1.07.2.11.31.01.03.02.06.04.09-.03-.09-.07-.17-.1-.26ZM53.65,82.84s-.03-.05-.05-.08c.01.03.03.06.05.08,0,0,0,0,0,.01,0,0,0,0,0-.01ZM53.89,83.22s-.02-.03-.03-.04c.01.02.03.04.04.06,0,0,0-.01,0-.02ZM54.07,83.47s-.01-.02-.02-.03c.02.02.03.04.05.06,0-.01-.02-.02-.02-.04ZM54.27,83.72s0,0-.01-.01c0,0,0,0,0,.01,0,0,0,0,.01.01,0,0,0,0,0-.01ZM54.28,83.73s0,0,0,0h0s0,0,0,0ZM55.84,85.11h0c.07.05.15.09.22.14-.07-.04-.15-.09-.22-.14ZM56.94,85.68s.04.02.06.02c.08.03.16.06.24.09-.1-.04-.2-.08-.3-.12ZM56.65,85.55c-.08-.03-.16-.07-.23-.11-.12-.06-.24-.12-.35-.19.07.04.14.08.21.12.01,0,.02.01.04.02.07.04.14.08.22.11.08.04.16.07.24.11.06.03.12.05.18.08-.1-.04-.2-.09-.29-.13ZM57.48,85.88s.02,0,.03,0c.07.02.14.04.21.06-.08-.02-.16-.05-.24-.07ZM57.77,85.96c.07.02.15.04.22.06,0,0,.01,0,.02,0-.08-.02-.16-.04-.24-.06ZM59.57,90.8c.29,0,.59,0,.88-.03-.29.02-.59.03-.88.03ZM59.95,86.19s.1,0,.15,0c.01,0,.03,0,.04,0-.06,0-.13,0-.19.01Z"/>
  </g>
  <path class="cls-1" d="M104.41,9.14c-2.89-2.48-7.25-2.14-9.73.75l-5.72,6.68-13.99,16.32-.79.92c-1.11,1.3-1.66,2.9-1.66,4.48,0,1.95.82,3.88,2.41,5.24,2.44,2.09,5.92,2.18,8.44.41.47-.32.9-.71,1.29-1.16l14.77-17.24,5.72-6.68c2.48-2.89,2.14-7.25-.75-9.73ZM100.2,18.1c-.1,0-.2.01-.3.01-1.92,0-3.54-1.5-3.69-3.43-.16-2.04,1.37-3.83,3.41-3.99.1,0,.2-.01.3-.01,1.92,0,3.54,1.5,3.69,3.43.16,2.04-1.38,3.83-3.41,3.99Z"/>
  <path class="cls-1" d="M83.39,43.96c-.47.39-1,.73-1.58.99l-12.92,5.87-.24-3.15c-.22-2.9-1.53-5.59-3.67-7.56-.69-.64-1.46-1.18-2.27-1.63l12.27-5.57,1.12-.51c3.47-1.57,7.56-.04,9.13,3.43,1.31,2.89.47,6.2-1.85,8.14Z"/>
  <g>
    <path class="cls-1" d="M52.68,79.8c-.01-.16-.02-.33-.02-.49,0-.11,0-.23,0-.34-.01.28,0,.55,0,.83Z"/>
    <path class="cls-1" d="M53.06,81.6s-.03-.09-.05-.13c-.01-.05-.03-.1-.04-.15.03.1.06.19.09.29Z"/>
    <path class="cls-1" d="M53.16,81.86s-.03-.06-.04-.09c-.02-.06-.04-.11-.06-.17.03.09.06.18.1.26Z"/>
    <path class="cls-1" d="M53.65,82.84h0s-.03-.05-.05-.08c.02.03.03.06.05.08Z"/>
    <path class="cls-1" d="M53.9,83.24s-.03-.04-.04-.06c0,.01.02.03.03.04,0,0,0,0,0,.02Z"/>
    <path class="cls-1" d="M54.11,83.52s0-.01-.02-.02c-.01-.02-.03-.04-.05-.06,0,0,.01.02.02.03.01.02.03.04.04.06Z"/>
    <path class="cls-1" d="M54.27,83.72h0s0,0,0-.01c0,0,0,.01.01.01Z"/>
    <path class="cls-1" d="M56.06,85.24c-.07-.04-.15-.09-.22-.13h0c.07.04.15.09.22.13Z"/>
    <path class="cls-1" d="M56.94,85.68c-.06-.02-.12-.05-.18-.08-.08-.04-.16-.07-.24-.11-.07-.03-.14-.07-.22-.11-.01,0-.02-.01-.04-.02-.07-.04-.14-.08-.21-.12.12.07.23.13.35.19.08.04.15.08.23.11.1.04.2.09.29.13Z"/>
    <path class="cls-1" d="M57.24,85.8c-.08-.03-.16-.06-.24-.09-.02,0-.04-.01-.06-.02.1.04.2.08.3.12Z"/>
    <path class="cls-1" d="M57.72,85.95c-.07-.02-.14-.04-.21-.06,0,0-.02,0-.03,0,.08.02.16.05.24.07Z"/>
    <path class="cls-1" d="M58.01,86.02s-.01,0-.02,0c-.07-.02-.15-.04-.22-.06.08.02.16.04.24.06Z"/>
    <path class="cls-1" d="M60.14,86.18s-.03,0-.04,0c-.05,0-.1,0-.15,0,.06,0,.13,0,.19-.01Z"/>
    <path class="cls-1" d="M54.16,42.36c-.48.24-.91.53-1.31.86h0s-.18.13-.18.13c.12-.11.25-.21.38-.31.07-.05.13-.1.2-.14.07-.05.14-.09.21-.14.23-.14.46-.28.71-.39Z"/>
    <path class="cls-1" d="M53.65,82.84h0s0,0,0,.01c0,0,0,0,0-.01ZM53.89,83.22s-.02-.03-.03-.04c.01.02.03.04.04.06,0,0,0-.01,0-.02ZM54.07,83.47s-.01-.02-.02-.03c.02.02.03.04.05.06,0,0,.01.01.02.02-.01-.02-.03-.04-.04-.06ZM54.27,83.72s0,0-.01-.01c0,0,0,0,0,.01,0,0,0,0,.01.01,0,0,0,0,0-.01ZM54.28,83.73s0,0,0,0h0s0,0,0,0ZM56.12,90.26h0c.27.09.54.16.81.23-.27-.07-.55-.14-.81-.23ZM63.39,90.14c-.62.22-1.25.38-1.88.49.77-.13,1.53-.34,2.25-.62l-.36.13Z"/>
  </g>
  <circle class="cls-1" cx="55.44" cy="25.96" r="11.16"/>
  <path class="cls-1" d="M53.06,81.6s-.03-.09-.05-.13c-.01-.05-.03-.1-.04-.15.03.1.06.19.09.29Z"/>
  <path class="cls-1" d="M53.16,81.86s-.03-.06-.04-.09c-.02-.06-.04-.11-.06-.17.03.09.06.18.1.26Z"/>
  <path class="cls-1" d="M53.65,82.84h0s-.03-.05-.05-.08c.02.03.03.06.05.08Z"/>
  <path class="cls-1" d="M53.9,83.24s-.03-.04-.04-.06c0,.01.02.03.03.04,0,0,0,0,0,.02Z"/>
  <path class="cls-1" d="M54.11,83.52s0-.01-.02-.02c-.01-.02-.03-.04-.05-.06,0,0,.01.02.02.03.01.02.03.04.04.06Z"/>
  <path class="cls-1" d="M54.27,83.72h0s0,0,0-.01c0,0,0,.01.01.01Z"/>
  <polygon class="cls-1" points="54.28 83.73 54.28 83.74 54.28 83.73 54.28 83.73"/>
  <path class="cls-1" d="M56.06,85.24c-.07-.04-.15-.09-.22-.13h0c.07.04.15.09.22.13Z"/>
  <path class="cls-1" d="M56.94,85.68c-.06-.02-.12-.05-.18-.08-.08-.04-.16-.07-.24-.11-.07-.03-.14-.07-.22-.11-.01,0-.02-.01-.04-.02-.07-.04-.14-.08-.21-.12.12.07.23.13.35.19.08.04.15.08.23.11.1.04.2.09.29.13Z"/>
  <path class="cls-1" d="M57.24,85.8c-.08-.03-.16-.06-.24-.09-.02,0-.04-.01-.06-.02.1.04.2.08.3.12Z"/>
  <path class="cls-1" d="M57.72,85.95c-.07-.02-.14-.04-.21-.06,0,0-.02,0-.03,0,.08.02.16.05.24.07Z"/>
  <path class="cls-1" d="M58.01,86.02s-.01,0-.02,0c-.07-.02-.15-.04-.22-.06.08.02.16.04.24.06Z"/>
  <path class="cls-1" d="M60.14,86.18s-.03,0-.04,0c-.05,0-.1,0-.15,0,.06,0,.13,0,.19-.01Z"/>
  <path class="cls-1" d="M111.04,13.54c-.45-5.85-5.34-10.3-11.12-10.3-.29,0-.58.01-.87.03-6.14.47-10.74,5.84-10.27,11.99.03.45.09.89.18,1.32.99,5.04,5.34,8.77,10.47,8.98.15,0,.31,0,.46,0,.29,0,.58-.01.87-.03,6.15-.47,10.74-5.84,10.27-11.99ZM96.21,14.68c-.16-2.04,1.37-3.83,3.41-3.99.1,0,.2-.01.3-.01,1.92,0,3.54,1.5,3.69,3.43.16,2.04-1.38,3.83-3.41,3.99-.1,0-.2.01-.3.01-1.92,0-3.54-1.5-3.69-3.43Z"/>
  <path class="cls-1" d="M85.28,109.69c-3.8.3-7.11-2.55-7.41-6.34l-1.38-17.83-.37-4.74-5.59,1.97-2.16.76-6.32,2.22h-.03s-.17.07-.17.07c-.01,0-.02,0-.04.01-.07.02-.13.04-.2.07h0c-.13.04-.27.08-.4.11-.07.02-.14.03-.22.05-.09.02-.19.04-.29.05-.19.03-.38.06-.57.07-.06,0-.13,0-.19.01-.04,0-.08,0-.12,0-.18,0-.37,0-.55,0-.05,0-.09,0-.14,0-.06,0-.11,0-.17-.01h0c-.06,0-.12,0-.18-.02-.01,0-.02,0-.04,0-.08,0-.16-.02-.24-.03-.09-.01-.17-.03-.26-.04-.03,0-.07-.01-.1-.02-.05,0-.09-.02-.14-.03-.08-.02-.16-.04-.24-.06-.01,0-.02,0-.04,0,0,0-.01,0-.02,0-.08-.02-.16-.05-.24-.07-.08-.02-.16-.05-.24-.08-.1-.04-.2-.08-.3-.12-.1-.04-.2-.09-.29-.13-.08-.03-.16-.07-.23-.11-.12-.06-.24-.12-.35-.19-.07-.04-.15-.09-.22-.14h0c-.07-.05-.15-.09-.22-.15-.07-.05-.14-.1-.21-.15-.01,0-.02-.02-.03-.03-.04-.03-.08-.06-.12-.1-.02-.01-.04-.03-.06-.05-.04-.03-.08-.06-.12-.1-.02-.02-.04-.04-.06-.06,0,0-.02-.02-.03-.03-.11-.09-.21-.19-.31-.29-.01-.01-.03-.03-.04-.04-.03-.03-.06-.06-.09-.09-.03-.03-.06-.06-.09-.09-.03-.03-.06-.06-.09-.1,0,0,0,0,0,0,0,0-.02-.02-.02-.03-.01-.01-.03-.03-.04-.04,0,0,0,0,0,0h0s0,0,0,0h0s0,0,0-.01c0,0,0,0-.01-.01s0-.01-.01-.02c-.04-.05-.09-.11-.13-.16-.01-.02-.03-.04-.04-.06,0,0-.01-.02-.02-.03h0s-.07-.1-.1-.15c0,0,0,0,0,0,0-.01-.01-.02-.02-.03,0,0,0-.01-.01-.02,0,0,0-.01,0-.02-.01-.01-.02-.03-.03-.04h0s-.03-.05-.05-.08c-.02-.02-.03-.04-.04-.07,0,0,0,0-.01-.02,0,0,0,0-.01-.02-.03-.05-.06-.1-.09-.15,0,0,0,0,0-.01-.02-.03-.03-.05-.05-.08-.12-.21-.23-.42-.33-.64-.03-.07-.06-.14-.09-.22,0-.01,0-.03-.01-.04-.03-.09-.07-.17-.1-.26-.03-.09-.06-.19-.09-.29-.03-.09-.05-.19-.08-.29-.02-.08-.04-.16-.06-.24-.02-.09-.04-.19-.06-.28-.02-.11-.04-.22-.05-.33-.01-.11-.02-.22-.03-.34,0-.01,0-.02,0-.04-.02-.28-.02-.56,0-.83,0,.11,0,.23,0,.34,0,.16,0,.33.02.49l-.71-9.13-.74-9.62-4.38,3-3.96,2.71-12.85,26.84c-1.65,3.43-5.76,4.89-9.2,3.24-3.44-1.65-4.89-5.77-3.24-9.2l13.6-28.41c.11-.23.23-.45.37-.67.04-.07.09-.14.13-.21.48-.75,1.11-1.42,1.89-1.95l12.11-8.29,6.95-4.77.18-.13h0c.39-.34.83-.62,1.31-.86.06-.03.12-.06.18-.08.02-.01.04-.02.07-.03.03-.02.06-.03.1-.04.67-.29,1.39-.47,2.16-.53.18-.01.36-.02.54-.02,1.34,0,2.6.39,3.67,1.06.27.17.52.36.76.56.48.4.91.88,1.27,1.4.12.18.23.36.33.54.05.09.1.19.15.28.09.19.18.39.26.59.11.3.21.62.28.94.07.32.12.65.15.99l.37,4.82.94,12.23.37,4.74,4.49-1.58,9.5-3.35c1.04-.37,2.11-.47,3.13-.34,3.33.26,6.07,2.91,6.33,6.34l.69,8.9,1.74,22.51c.29,3.8-2.55,7.11-6.35,7.41Z"/>
  <path class="cls-1" d="M52.68,79.8c-.01-.16-.02-.33-.02-.49,0-.11,0-.23,0-.34-.01.28,0,.55,0,.83Z"/>
  <path class="cls-1" d="M53.65,82.86s0,0,0-.01c-.02-.03-.03-.05-.05-.08.02.03.03.06.05.08,0,0,0,0,0,.01Z"/>
  <path class="cls-1" d="M54.11,83.52s0-.01-.02-.02c0-.01-.02-.02-.02-.04.01.02.03.04.04.06Z"/>
  <path class="cls-1" d="M54.28,83.73s0,0-.01-.01c0,0,0,0,0-.01,0,0,0,.01.01.01,0,0,0,0,0,.01Z"/>
  <path class="cls-1" d="M54.29,83.75s0,0,0-.01h0s0,0,0,.01Z"/>
  <path class="cls-1" d="M56.06,85.24c-.07-.04-.15-.09-.22-.13h0c.07.04.15.09.22.13Z"/>
  <path class="cls-1" d="M56.94,85.68c-.06-.02-.12-.05-.18-.08-.08-.04-.16-.07-.24-.11-.07-.03-.14-.07-.22-.11-.01,0-.02-.01-.04-.02-.07-.04-.14-.08-.21-.12.12.07.23.13.35.19.08.04.15.08.23.11.1.04.2.09.29.13Z"/>
  <path class="cls-1" d="M57.24,85.8c-.08-.03-.16-.06-.24-.09-.02,0-.04-.01-.06-.02.1.04.2.08.3.12Z"/>
  <path class="cls-1" d="M57.72,85.95c-.07-.02-.14-.04-.21-.06,0,0-.02,0-.03,0,.08.02.16.05.24.07Z"/>
  <path class="cls-1" d="M58.01,86.02s-.01,0-.02,0c-.07-.02-.15-.04-.22-.06.08.02.16.04.24.06Z"/>
</svg>