<?xml version="1.0" encoding="UTF-8"?>
<svg id="Layer_1" data-name="Layer 1" xmlns="http://www.w3.org/2000/svg" viewBox="0 0 128 128">
  <defs>
    <style>
      .cls-1 {
        fill: #e1e1e0;
      }
    </style>
  </defs>
  <path class="cls-1" d="M103.73,64h-39.73V24.27c10.61,0,20.59,4.13,28.09,11.64,7.5,7.5,11.64,17.48,11.64,28.09Z"/>
  <path class="cls-1" d="M64,64v39.73c-10.61,0-20.59-4.13-28.09-11.64-7.5-7.5-11.64-17.48-11.64-28.09h39.73Z"/>
  <path class="cls-1" d="M64,31.97c8.56,0,16.6,3.33,22.65,9.38,6.05,6.05,9.38,14.09,9.38,22.65s-3.33,16.6-9.38,22.65c-6.05,6.05-14.09,9.38-22.65,9.38s-16.6-3.33-22.65-9.38c-6.05-6.05-9.38-14.09-9.38-22.65s3.33-16.6,9.38-22.65c6.05-6.05,14.09-9.38,22.65-9.38M64,24.27c-21.94,0-39.73,17.79-39.73,39.73s17.79,39.73,39.73,39.73,39.73-17.79,39.73-39.73-17.79-39.73-39.73-39.73h0Z"/>
</svg>