<?xml version="1.0" encoding="UTF-8"?>
<svg id="Layer_1" data-name="Layer 1" xmlns="http://www.w3.org/2000/svg" viewBox="0 0 128 128">
  <defs>
    <style>
      .cls-1 {
        fill: #61d1fa;
      }
    </style>
  </defs>
  <path class="cls-1" d="M64,1.92C29.71,1.92,1.92,29.71,1.92,64s27.79,62.08,62.08,62.08,62.08-27.79,62.08-62.08S98.29,1.92,64,1.92ZM111.72,69.83l-28.92,10.7c-1.05.39-1.88,1.22-2.27,2.27l-10.7,28.92c-2,5.41-9.65,5.41-11.65,0l-10.7-28.92c-.39-1.05-1.22-1.88-2.27-2.27l-28.92-10.7c-5.41-2-5.41-9.65,0-11.65l28.92-10.7c1.05-.39,1.88-1.22,2.27-2.27l10.7-28.92c2-5.41,9.65-5.41,11.65,0l10.7,28.92c.39,1.05,1.22,1.88,2.27,2.27l28.92,10.7c5.41,2,5.41,9.65,0,11.65Z"/>
</svg>