<?xml version="1.0" encoding="UTF-8"?>
<svg id="Layer_1" data-name="Layer 1" xmlns="http://www.w3.org/2000/svg" viewBox="0 0 128 128">
  <defs>
    <style>
      .cls-1 {
        fill: #ff7676;
      }
    </style>
  </defs>
  <path class="cls-1" d="M50.68,53.98h-10.95c-.53-2.1-.81-4.28-.81-6.5s.28-4.4.81-6.5h10.95c-.27,2.13-.41,4.3-.41,6.5s.14,4.38.41,6.5Z"/>
  <path class="cls-1" d="M51.62,59.18c1.1,4.69,2.85,9.13,5.15,13.22-3.77-1.28-7.23-3.42-10.14-6.32-2.05-2.05-3.72-4.38-4.97-6.9h9.96Z"/>
  <path class="cls-1" d="M51.62,35.78h-9.96c1.25-2.52,2.93-4.85,4.97-6.9,2.9-2.9,6.36-5.04,10.14-6.32-2.3,4.09-4.05,8.53-5.15,13.22Z"/>
  <path class="cls-1" d="M56.98,59.18h16.52c-1.38,5.2-3.68,10.15-6.77,14.57,0,.01-.02.03-.03.04h-2.91s-.02-.03-.03-.04c-3.09-4.42-5.4-9.37-6.77-14.57Z"/>
  <path class="cls-1" d="M73.5,35.78h-16.52c1.38-5.2,3.68-10.15,6.77-14.57,0-.01.02-.03.03-.04h2.91s.02.02.03.04c3.1,4.42,5.4,9.37,6.77,14.57Z"/>
  <path class="cls-1" d="M55.93,40.98h18.62c.31,2.15.46,4.33.46,6.5s-.15,4.36-.46,6.5h-18.62c-.31-2.15-.46-4.33-.46-6.5s.15-4.36.46-6.5Z"/>
  <path class="cls-1" d="M78.85,59.18h9.96c-1.25,2.52-2.92,4.85-4.97,6.9-2.9,2.9-6.36,5.04-10.13,6.32,2.3-4.09,4.05-8.53,5.15-13.22Z"/>
  <path class="cls-1" d="M78.85,35.78c-1.1-4.69-2.85-9.13-5.15-13.22,3.77,1.28,7.23,3.42,10.13,6.32,2.05,2.05,3.72,4.38,4.97,6.9h-9.96Z"/>
  <path class="cls-1" d="M90.74,40.98c.53,2.1.81,4.28.81,6.5s-.28,4.41-.81,6.5h-10.95c.27-2.13.41-4.3.41-6.5s-.14-4.37-.41-6.5h10.95Z"/>
  <path class="cls-1" d="M110.18,5.4H17.82c-3.81,0-6.9,3.09-6.9,6.9v103.39c0,5.51,6.14,8.8,10.72,5.74l44.98-29.98c1.13-.75,2.46-1.16,3.83-1.16h39.73c3.81,0,6.9-3.09,6.9-6.9V12.3c0-3.81-3.09-6.9-6.9-6.9ZM96.07,53.98c-.37,1.8-.9,3.53-1.57,5.2-.79,1.99-1.79,3.88-2.95,5.64-2.35,3.56-5.41,6.62-8.97,8.97-3.84,2.54-8.28,4.26-13.05,4.91h0s-4.29.29-4.29.29c-1.46,0-2.89-.1-4.29-.29h0c-4.77-.65-9.21-2.37-13.05-4.91-3.56-2.35-6.62-5.41-8.97-8.97-1.16-1.76-2.16-3.65-2.95-5.64-.67-1.67-1.2-3.4-1.57-5.2-.44-2.1-.67-4.27-.67-6.5s.23-4.41.67-6.5c.37-1.79.91-3.53,1.57-5.2.79-1.99,1.79-3.88,2.95-5.64,2.35-3.56,5.41-6.62,8.97-8.96,1.92-1.27,3.99-2.33,6.18-3.16,2.19-.83,4.49-1.42,6.87-1.75,1.4-.19,2.84-.29,4.29-.29s2.89.1,4.29.29c4.77.65,9.21,2.37,13.05,4.91,3.56,2.35,6.62,5.41,8.97,8.96,1.16,1.77,2.16,3.66,2.95,5.64.67,1.67,1.2,3.41,1.57,5.2.44,2.1.67,4.28.67,6.5s-.23,4.41-.67,6.5Z"/>
</svg>