<?xml version="1.0" encoding="UTF-8"?>
<svg id="Layer_1" data-name="Layer 1" xmlns="http://www.w3.org/2000/svg" viewBox="0 0 128 128">
  <defs>
    <style>
      .cls-1 {
        fill: #e1e1e0;
      }
    </style>
  </defs>
  <path class="cls-1" d="M73.4,46.2h-18.81c-2.12,0-3.84-1.72-3.84-3.84v-18.81c0-2.12,1.72-3.84,3.84-3.84h18.81c2.12,0,3.84,1.72,3.84,3.84v18.81c0,2.12-1.72,3.84-3.84,3.84ZM43.31,19.17v27.59c0,3.81,3.09,6.9,6.9,6.9h27.59c3.81,0,6.9-3.09,6.9-6.9v-27.59c0-3.81-3.09-6.9-6.9-6.9h-27.59c-3.81,0-6.9,3.09-6.9,6.9Z"/>
  <path class="cls-1" d="M126.08,81.25v27.59c0,3.81-3.09,6.9-6.9,6.9H8.82c-3.81,0-6.9-3.09-6.9-6.9v-27.59c0-3.27,2.28-6.01,5.33-6.72v3.66c0,2.12,1.72,3.84,3.84,3.84,1.06,0,2.02-.43,2.71-1.12.7-.69,1.12-1.65,1.12-2.71v-3.84h9.96v9.96c0,2.12,1.72,3.84,3.84,3.84,1.06,0,2.02-.43,2.72-1.12.7-.7,1.12-1.65,1.12-2.71v-9.96h9.96v3.84c0,2.12,1.72,3.84,3.84,3.84,1.06,0,2.02-.43,2.71-1.12.7-.69,1.12-1.65,1.12-2.71v-3.84h9.96v9.96c0,2.12,1.72,3.84,3.84,3.84,1.06,0,2.02-.43,2.71-1.12.7-.7,1.12-1.65,1.12-2.71v-9.96h9.96v3.84c0,2.12,1.72,3.84,3.84,3.84,1.06,0,2.02-.43,2.71-1.12.7-.69,1.12-1.65,1.12-2.71v-3.84h9.96v9.96c0,2.12,1.72,3.84,3.84,3.84,1.06,0,2.02-.43,2.71-1.12.7-.7,1.12-1.65,1.12-2.71v-9.96h9.96v3.84c0,2.12,1.72,3.84,3.84,3.84,1.06,0,2.02-.43,2.72-1.12.7-.69,1.12-1.65,1.12-2.71v-3.66c3.06.71,5.33,3.45,5.33,6.72Z"/>
</svg>