<?xml version="1.0" encoding="UTF-8"?>
<svg id="Layer_1" data-name="Layer 1" xmlns="http://www.w3.org/2000/svg" viewBox="0 0 128 128">
  <defs>
    <style>
      .cls-1 {
        fill: #e69e50;
      }
    </style>
  </defs>
  <g>
    <rect class="cls-1" x="73.79" y="64.52" width="16.55" height="60.96" rx="8.28" ry="8.28" transform="translate(-12.93 177.07) rotate(-90)"/>
    <g>
      <path class="cls-1" d="M111.95,89.17c1.31-1.31,2.96-2.09,4.66-2.34h0s.85-.08.85-.08c2.23-.09,4.49.71,6.19,2.42,1.7,1.7,2.51,3.96,2.42,6.19l-.08.85h0c-.25,1.71-1.03,3.35-2.34,4.67-3.23,3.23-8.47,3.23-11.71,0-3.23-3.23-3.23-8.47,0-11.71Z"/>
      <path class="cls-1" d="M89.2,66.42c1.31-1.31,2.96-2.09,4.66-2.34h0s.85-.08.85-.08c2.23-.09,4.49.71,6.19,2.42,1.7,1.7,2.51,3.96,2.42,6.19l-.08.85h0c-.25,1.71-1.03,3.35-2.34,4.67-3.23,3.23-8.47,3.23-11.71,0-3.23-3.23-3.23-8.47,0-11.71Z"/>
      <rect class="cls-1" x="90.34" y="75.38" width="32.17" height="16.55" transform="translate(122.54 218.06) rotate(-135)"/>
    </g>
    <g>
      <path class="cls-1" d="M100.91,111.92c-1.31-1.31-2.96-2.09-4.66-2.34h0s-.85-.08-.85-.08c-2.23-.09-4.49.71-6.19,2.42-1.7,1.7-2.51,3.96-2.42,6.19l.08.85h0c.25,1.71,1.03,3.35,2.34,4.67,3.23,3.23,8.47,3.23,11.71,0s3.23-8.47,0-11.71Z"/>
      <path class="cls-1" d="M123.66,89.17c-1.31-1.31-2.96-2.09-4.66-2.34h0s-.85-.08-.85-.08c-2.23-.09-4.49.71-6.19,2.42-1.7,1.7-2.51,3.96-2.42,6.19l.08.85h0c.25,1.71,1.03,3.35,2.34,4.67,3.23,3.23,8.47,3.23,11.71,0s3.23-8.47,0-11.71Z"/>
      <rect class="cls-1" x="90.34" y="98.12" width="32.17" height="16.55" transform="translate(-44.06 106.42) rotate(-45)"/>
    </g>
  </g>
  <g>
    <path class="cls-1" d="M81.38,41.97h-39.73V2.24c10.61,0,20.59,4.13,28.09,11.64,7.5,7.5,11.64,17.48,11.64,28.09Z"/>
    <path class="cls-1" d="M41.65,41.97v39.73c-10.61,0-20.59-4.13-28.09-11.64C6.05,62.55,1.92,52.58,1.92,41.97h39.73Z"/>
    <path class="cls-1" d="M41.65,9.93c8.56,0,16.6,3.33,22.65,9.38,6.05,6.05,9.38,14.09,9.38,22.65s-3.33,16.6-9.38,22.65c-6.05,6.05-14.09,9.38-22.65,9.38s-16.6-3.33-22.65-9.38c-6.05-6.05-9.38-14.09-9.38-22.65s3.33-16.6,9.38-22.65c6.05-6.05,14.09-9.38,22.65-9.38M41.65,2.24C19.71,2.24,1.92,20.02,1.92,41.97s17.79,39.73,39.73,39.73,39.73-17.79,39.73-39.73S63.59,2.24,41.65,2.24h0Z"/>
  </g>
</svg>