<?xml version="1.0" encoding="UTF-8"?>
<svg id="Layer_1" data-name="Layer 1" xmlns="http://www.w3.org/2000/svg" viewBox="0 0 128 128">
  <defs>
    <style>
      .cls-1 {
        fill: #61d1fa;
      }
    </style>
  </defs>
  <path class="cls-1" d="M106.77,82.62H21.23c-3.81,0-6.9-3.09-6.9-6.9v-23.45c0-3.81,3.09-6.9,6.9-6.9h85.53c3.81,0,6.9,3.09,6.9,6.9v23.45c0,3.81-3.09,6.9-6.9,6.9ZM1.92,44.12v39.76c0,6.16,5,11.16,11.16,11.16h101.84c6.16,0,11.16-5,11.16-11.16v-39.76c0-6.16-5-11.16-11.16-11.16H13.08c-6.16,0-11.16,5-11.16,11.16Z"/>
  <circle class="cls-1" cx="26.21" cy="64" r="6.9"/>
  <rect class="cls-1" x="37.63" y="57.79" width="68.98" height="12.42" rx="6.21" ry="6.21"/>
</svg>