<?xml version="1.0" encoding="UTF-8"?>
<svg id="Layer_1" data-name="Layer 1" xmlns="http://www.w3.org/2000/svg" viewBox="0 0 128 128">
  <defs>
    <style>
      .cls-1 {
        fill: #e1e1e0;
      }
    </style>
  </defs>
  <path class="cls-1" d="M54.71,21.75h0s.03-.03.05-.05c-.02.01-.03.03-.05.05ZM54.01,22.57s0,0,0,0c.02-.03.04-.06.07-.1-.03.03-.05.07-.08.11ZM53.15,24.15s.01-.04.02-.05c.01-.03.02-.07.04-.1-.02.05-.04.11-.06.16ZM53.05,24.42s.02-.07.04-.1c.01-.04.02-.08.04-.11-.03.07-.05.14-.08.22ZM52.81,25.37c0-.06.02-.11.03-.16,0-.04.02-.09.03-.14-.02.1-.04.2-.06.3Z"/>
  <g>
    <path class="cls-1" d="M75.95,21.71h0s-.03.03-.04.04c-.01.01-.03.03-.04.04.01-.02.03-.03.04-.05.01-.01.02-.02.04-.04Z"/>
    <path class="cls-1" d="M75.91,21.75s-.03.03-.04.05c.01-.01.03-.03.04-.04.01-.01.03-.03.04-.04h0s-.03.02-.04.03ZM75.91,21.75s-.03.03-.04.05c.01-.01.03-.03.04-.04.01-.01.03-.03.04-.04h0s-.03.02-.04.03ZM75.91,21.75s-.03.03-.04.05c.01-.01.03-.03.04-.04.01-.01.03-.03.04-.04h0s-.03.02-.04.03Z"/>
  </g>
  <g>
    <path class="cls-1" d="M114.01,62.7s0,.05-.01.08c0-.03,0-.05,0-.08h0Z"/>
    <path class="cls-1" d="M114.02,62.61s0,.06-.01.09c0-.03,0-.06,0-.09,0,0,0,0,0,0Z"/>
    <path class="cls-1" d="M122.26,67.74c-.07-3.61-1.48-6.89-3.76-9.37-.3-.33-.62-.65-.96-.95-1.41-1.28-3.07-2.28-4.89-2.92-.06-.02-.13-.04-.19-.07-1.43-.48-2.96-.74-4.55-.74h-9.85v-.96l-.02.09v-21.92c0-7.92-6.48-14.6-14.4-14.56-3.31.02-6.35,1.16-8.77,3.07-2.49-4.25-7.1-7.12-12.37-7.12-2.47,0-4.8.63-6.82,1.73-.1.05-.2.11-.3.17-.09.05-.19.11-.28.16-.17.1-.33.21-.5.32-.12.08-.24.16-.35.24-.13.09-.25.18-.37.27-.03.03-.07.05-.1.08-.1.08-.21.16-.31.25-.02.02-.05.04-.07.06-.11.09-.22.19-.33.28-.25.22-.5.45-.74.69-.12.12-.23.24-.35.36-.23.25-.45.5-.66.76-.11.13-.21.27-.31.4-.15.2-.3.41-.44.62-.14.21-.28.42-.4.64-.08.15-.17.29-.25.44-.08.15-.16.3-.23.45l-.02.04c-.05.1-.1.21-.15.31-.02.03-.03.07-.05.1-.05.11-.1.23-.15.34-.2.46-.37.94-.52,1.42-.03.12-.07.23-.1.35-.03.12-.07.24-.1.37-.03.12-.06.25-.09.37-.03.12-.05.25-.08.37-.02.12-.04.23-.06.35-.02.13-.04.27-.06.4-.01.09-.02.19-.03.28-2.07-1.16-4.46-1.83-7-1.83s-4.85.64-6.9,1.77c-4.02,2.21-6.86,6.3-7.35,11.08-1.03-.58-2.14-1.03-3.31-1.34s-2.4-.47-3.66-.47c-2.49,0-4.83.64-6.87,1.76-4.44,2.44-7.45,7.16-7.45,12.57v7.89c0,4.42.58,8.82,1.72,13.09l2.72,10.15h0s5.56,20.75,5.56,20.75c2.42,9.05,10.62,15.34,19.99,15.34h59.25c9.37,0,17.56-6.29,19.99-15.34l3.95-14.73.87-3.25,1.98-7.38h0c.33-2.28.5-4.6.5-6.97,0-.1,0-.2,0-.3ZM76.85,30.67c0-3.79,3.08-6.87,6.87-6.87s6.87,3.08,6.87,6.87v23.02h-9.93c-1.33,0-2.61.23-3.79.66,0,0-.01,0-.02,0v-23.69ZM55.63,26.61c0-.07,0-.15,0-.22,0-.06,0-.12,0-.18,0-.05,0-.1,0-.14,0-.07.01-.15.02-.22.01-.12.03-.24.05-.36,0-.04.01-.08.02-.12.02-.1.04-.2.06-.3.01-.05.02-.11.04-.16.01-.05.02-.1.04-.15.02-.08.04-.16.07-.23,0-.03.02-.07.03-.1.02-.07.05-.14.08-.22,0-.02.01-.04.02-.06.02-.05.04-.11.06-.16.01-.03.03-.07.04-.1.02-.05.04-.09.06-.14.02-.05.04-.09.07-.14.06-.14.14-.27.21-.4.04-.07.07-.13.12-.2.04-.06.08-.13.12-.19.02-.03.04-.07.07-.1.03-.05.06-.1.1-.14.02-.03.05-.07.08-.11.02-.03.05-.07.08-.1.07-.1.15-.19.23-.28.05-.06.11-.13.18-.19.02-.03.04-.05.07-.07.02-.02.04-.04.06-.06,0,0,0,0,0,0h0s.03-.03.05-.05c.05-.05.1-.1.15-.15.03-.03.06-.06.09-.08.07-.06.14-.12.21-.18.04-.03.08-.07.13-.1.03-.03.07-.05.11-.08.02-.02.04-.03.06-.04.07-.05.14-.1.21-.15.09-.06.18-.12.28-.18.09-.06.19-.11.29-.17.1-.05.2-.1.3-.15.01,0,.03-.02.05-.02.08-.04.17-.08.25-.12.02,0,.04-.01.06-.02.09-.04.18-.08.27-.11.1-.04.19-.07.29-.1.02,0,.04-.01.07-.02.06-.02.13-.04.2-.06.07-.02.15-.04.22-.06,0,0,0,0,.01,0,.08-.02.16-.04.25-.05.06,0,.13-.02.2-.03.09-.02.18-.03.27-.04.06,0,.13-.02.19-.02.1,0,.21-.02.31-.02.12,0,.24,0,.36,0,.23,0,.46.01.69.03.22.02.45.06.66.1.08.01.16.03.23.05.14.03.28.07.41.11.06.02.12.04.18.06.06.01.11.03.17.06.09.03.18.07.27.1.1.04.19.08.28.12.1.04.2.1.29.14.09.05.19.1.28.15,0,0,0,0,0,0,.09.05.17.1.26.16,0,0,.02,0,.03.01.07.05.15.1.22.15.01,0,.03.02.05.03.08.06.16.12.24.19.08.06.17.13.25.2.08.07.16.14.24.22h0c.07.07.14.14.21.21.06.06.12.13.19.2.02.02.04.04.06.07.05.06.1.12.15.18.27.34.51.7.72,1.09.04.08.09.16.13.25.05.09.09.19.13.29,0,.02.02.04.02.06.04.09.07.18.11.27.04.1.07.2.1.31,0,0,0,.02.01.04.02.08.04.15.07.24.02.06.03.11.04.18,0,.03.01.06.02.09.01.05.03.11.04.17.02.09.03.18.04.27,0,.02,0,.03,0,.05,0,.07.02.14.03.21,0,.05.01.09.02.14,0,0,0,.02,0,.03h0c0,.1.02.2.02.29,0,.12,0,.24,0,.36v34.51c0,.12,0,.24,0,.36,0,.07,0,.13-.01.2v.24s0-.1,0-.15c0,.05,0,.09-.01.14,0,.09-.02.17-.03.25-.01.1-.03.2-.05.29,0,.06-.02.11-.04.17,0,.06-.02.11-.04.17,0,.04-.02.07-.03.11-.02.08-.05.16-.07.25,0,0,0,.02,0,.03-.03.1-.07.2-.1.3-.03.09-.06.18-.1.26-.01.03-.03.07-.04.11-.03.07-.06.15-.1.22,0,.01-.01.03-.02.04-.04.08-.07.15-.11.23-.04.08-.08.16-.13.23-.03.06-.07.12-.1.18-.01.02-.03.04-.04.07,0,0,0,.01-.01.02-.03.06-.07.12-.11.17-.12.18-.25.35-.39.52-.05.06-.1.11-.15.17h0s0,0,0,0c0,0-.01.01-.02.02,0,0-.01.02-.02.03,0,0,0,0,0,0-.07.07-.14.15-.21.22-.23.23-.46.44-.72.63-.08.06-.16.12-.24.18,0,0,0,0-.01,0-.06.05-.12.08-.18.12-.03.02-.07.05-.11.07-.05.03-.1.06-.15.09-.04.03-.09.06-.13.08-.05.02-.09.05-.14.08-.06.03-.11.06-.17.09-.02.01-.05.02-.07.04-.07.03-.13.06-.2.09-.05.02-.11.05-.17.07-.08.03-.16.07-.25.09-.08.03-.16.05-.24.08-.02,0-.05.01-.07.02-.06.02-.13.04-.19.06-.06.02-.12.04-.19.05-.02,0-.04.01-.06.01-.08.02-.16.04-.24.05-.1.02-.2.04-.3.05,0,0-.01,0-.02,0-.05,0-.1.01-.15.02,0,0-.02,0-.03,0-.04,0-.08,0-.12.01-.03,0-.06,0-.09,0-.09,0-.18.02-.27.02h-.02c-.11,0-.22,0-.33,0h-.04c-.1,0-.21,0-.31,0-.11,0-.22,0-.33-.02-.07,0-.15-.01-.22-.02-.06,0-.13-.02-.19-.03-1.99-.31-3.69-1.47-4.72-3.09-.52-.8-.87-1.73-1.01-2.71-.02-.14-.04-.29-.05-.44,0-.04,0-.09,0-.14,0-.03,0-.07,0-.11,0-.08,0-.16,0-.24,0-.02,0-.04,0-.06V26.61ZM34.41,37.45c0-3.8,3.08-6.87,6.87-6.87s6.87,3.08,6.87,6.87v23.68c0,3.8-3.08,6.87-6.87,6.87s-6.87-3.08-6.87-6.87v-23.68ZM37.87,67.14h0s0,0-.01,0c0,0,0,0,.01,0ZM37.38,66.82s-.05-.03-.07-.04c-.02-.02-.05-.03-.07-.05,0,0-.01,0-.02-.01-.04-.03-.08-.06-.11-.09.04.03.08.06.11.08,0,0,.01,0,.02.01.04.03.09.07.14.1ZM36.87,66.44s0,0,0,0c-.03-.02-.06-.05-.08-.07.03.02.05.05.08.07,0,0,0,0,0,0ZM36.67,66.27s-.03-.03-.05-.04h-.01s0,0,.01,0c.02.02.03.03.05.04ZM13.18,61.12v-12.63c0-3.8,3.08-6.87,6.87-6.87s6.87,3.08,6.87,6.87v12.63c0,3.8-3.08,6.87-6.87,6.87s-6.87-3.08-6.87-6.87ZM114.82,68.04c0,.29,0,.58,0,.87,0,.27-.01.55-.02.82,0,.04,0,.09,0,.13,0,.27-.02.53-.04.79-.01.25-.03.5-.05.75,0,.07,0,.13-.01.2-.02.26-.05.52-.08.77-.03.26-.06.52-.09.79,0,.08-.02.15-.03.23,0,.03,0,.06-.01.09,0,.03,0,.05-.01.08,0-.03,0-.05,0-.08l-.29,1.07-2.35,8.78-.49,1.82-.24.9h0s-3.41,12.72-3.41,12.72c-1.5,5.59-6.56,9.48-12.35,9.48h-59.94c-5.79,0-10.85-3.89-12.35-9.48l-4.09-15.24-2.21-8.27h0l-.06-.23h0c1.09.27,2.22.41,3.39.41,4.2,0,7.98-1.82,10.61-4.71,2.62,2.9,6.41,4.72,10.62,4.72s7.98-1.81,10.6-4.7c1.11,1.23,2.44,2.27,3.92,3.06.1.05.2.1.3.15.11.05.21.11.32.16.12.05.23.11.35.16.27.12.54.23.81.33.15.05.3.1.44.15.16.05.32.1.48.15.48.14.97.25,1.47.34.11.02.23.04.35.06.23.03.46.06.69.09.12.01.23.02.35.03.13,0,.26.02.39.02.13,0,.26.01.39.02.12,0,.25,0,.37,0h.02c.11,0,.23,0,.35,0,.37,0,.73-.03,1.09-.07,2.33-.24,4.49-1.03,6.36-2.25,0,0,0,0,0,.01,1.03,2.68,2.84,4.97,5.15,6.6-3.23,2.79-5.58,6.58-6.55,10.89-.16.73-.09,1.46.16,2.09.53,1.35,1.86,2.34,3.44,2.34h.14c1.31,0,2.46-.7,3.1-1.77.2-.33.36-.71.45-1.1,1.2-5.25,5.63-9.25,11.09-9.84h7.91c1,0,1.9-.39,2.57-1.03.76-.72,1.21-1.77,1.15-2.91-.11-1.99-1.83-3.5-3.82-3.5h-11.39c-3.81,0-6.9-3.09-6.9-6.9v-3.06s0-.08,0-.11c0-.03,0-.06,0-.08,0-.04,0-.07,0-.11,0-.02,0-.04,0-.06,0-.02,0-.03,0-.05,0,0,0-.01,0-.02,0-.01,0-.02,0-.04,0-.03,0-.07.01-.1,0-.02,0-.04,0-.06,0-.06.02-.12.03-.18,0,0,0,0,0-.01.01-.05.03-.11.04-.16,0-.04.02-.08.03-.11,0-.02,0-.04.02-.05.01-.04.02-.08.04-.12.04-.11.09-.23.14-.34h0s0-.02.01-.03c.03-.06.05-.11.09-.17.01-.03.03-.06.05-.09.02-.05.05-.09.08-.13.05-.08.1-.16.16-.24.03-.04.06-.08.09-.11.01-.01.02-.03.04-.04.03-.04.07-.09.11-.12.07-.08.14-.15.21-.22.04-.04.09-.08.14-.12.06-.06.12-.1.19-.15.06-.04.12-.08.18-.13.04-.03.09-.06.13-.08.09-.06.19-.11.29-.16.03-.01.06-.03.09-.04.04-.02.09-.04.14-.06.05-.02.1-.04.15-.06.06-.02.12-.04.18-.06.06-.02.11-.04.17-.05h.01s.06-.02.1-.02c0,0,.02,0,.03,0,.04,0,.08-.02.12-.02.05,0,.1-.02.15-.02.05,0,.11-.02.16-.02.06,0,.12,0,.18,0,.07,0,.14,0,.21,0h27.26c2.66,0,4.98,1.51,6.12,3.72.22.43.4.88.53,1.36.16.58.24,1.19.25,1.82h0Z"/>
  </g>
  <path class="cls-1" d="M33.74,66.27s-.03-.03-.05-.04h-.01s0,0,.01,0c.02.02.03.03.05.04Z"/>
  <path class="cls-1" d="M33.93,66.44s0,0,0,0c-.03-.02-.06-.05-.08-.07.03.02.05.05.08.07,0,0,0,0,0,0Z"/>
  <path class="cls-1" d="M34.94,67.14h0s0,0-.01,0c0,0,0,0,.01,0Z"/>
</svg>