<?xml version="1.0" encoding="UTF-8"?>
<svg id="Layer_1" data-name="Layer 1" xmlns="http://www.w3.org/2000/svg" viewBox="0 0 128 128">
  <defs>
    <style>
      .cls-1 {
        fill: #e1e1e0;
      }
    </style>
  </defs>
  <path class="cls-1" d="M73.33,26.93v74.13c0,5.13-5.4,8.46-9.98,6.17l-30.81-15.4c-1.47-.74-2.4-2.24-2.4-3.89v-47.89c0-1.65.93-3.15,2.4-3.89l30.81-15.41c4.59-2.29,9.98,1.04,9.98,6.17Z"/>
  <path class="cls-1" d="M98.1,62.19c0-6.43-2.05-12.38-5.52-17.24-1.51-2.11-4.57-2.33-6.4-.5h0c-1.45,1.45-1.67,3.74-.48,5.4,2.49,3.48,3.96,7.74,3.96,12.33s-1.47,8.85-3.96,12.33c-1.19,1.66-.97,3.96.48,5.4h0c1.83,1.83,4.89,1.61,6.4-.5,3.47-4.86,5.52-10.81,5.52-17.24Z"/>
  <path class="cls-1" d="M98.41,92.15c1.77,1.77,4.68,1.61,6.27-.33,6.61-8.07,10.58-18.39,10.58-29.64s-3.97-21.57-10.58-29.64c-1.59-1.94-4.5-2.1-6.27-.33h0c-1.54,1.54-1.65,3.99-.27,5.66,5.62,6.84,8.68,15.34,8.68,24.3s-3.06,17.46-8.68,24.3c-1.38,1.68-1.26,4.13.27,5.66h0Z"/>
  <rect class="cls-1" x="12.75" y="41.45" width="8.69" height="44.84" rx="4.35" ry="4.35"/>
</svg>