<?xml version="1.0" encoding="UTF-8"?>
<svg id="Layer_1" data-name="Layer 1" xmlns="http://www.w3.org/2000/svg" viewBox="0 0 128 128">
  <defs>
    <style>
      .cls-1 {
        fill: #e1e1e0;
      }
    </style>
  </defs>
  <path class="cls-1" d="M55.65,36.44c.07-.17.14-.34.22-.51-.08.17-.15.34-.22.51Z"/>
  <path class="cls-1" d="M61.66,63.95s-.02-.09-.04-.14c.02.07.04.13.06.2,0-.02-.01-.04-.02-.06Z"/>
  <path class="cls-1" d="M66.89,33.96c-.27-.26-.55-.49-.86-.71.3.21.59.44.86.71Z"/>
  <path class="cls-1" d="M68.47,36.3c-.07-.18-.15-.36-.24-.53.09.17.17.35.24.53Z"/>
  <path class="cls-1" d="M55.65,36.44c.07-.17.14-.34.22-.51-.08.17-.15.34-.22.51Z"/>
  <path class="cls-1" d="M61.68,64.02s-.01-.04-.02-.06c-.01-.04-.02-.09-.04-.14.02.07.04.13.06.2Z"/>
  <path class="cls-1" d="M66.89,33.96c-.27-.26-.55-.49-.86-.71.3.21.59.44.86.71Z"/>
  <path class="cls-1" d="M68.23,35.77c.09.17.17.35.24.53-.07-.18-.15-.36-.24-.53Z"/>
  <path class="cls-1" d="M116.59,2.46H15.36c-6.06,0-9.17,7.25-5.01,11.64l39.89,42.11,2.29-8.55,2.87-10.71c.02-.07.04-.14.06-.21.02-.06.04-.13.06-.19,0-.01,0-.02,0-.04.02-.06.05-.13.07-.19.02-.07.05-.14.08-.2h0c.07-.18.15-.36.24-.53.04-.08.09-.17.14-.25.09-.16.19-.33.3-.48.05-.08.11-.15.16-.23.11-.15.23-.29.35-.43l.24-.26s.07-.07.1-.1c.08-.08.17-.16.25-.24.35-.31.72-.58,1.12-.81.16-.09.32-.18.49-.26.08-.04.17-.08.25-.11.17-.07.34-.14.52-.2.17-.06.35-.11.53-.16.18-.05.36-.08.55-.11.09-.02.19-.03.28-.04.19-.03.38-.04.57-.05.1,0,.19,0,.28,0h.11s.02,0,.03,0c.05,0,.11,0,.16,0,.2,0,.41.03.62.05.14.02.28.04.42.07.15.03.3.06.45.1.08.02.17.05.25.07.08.02.16.05.24.08.07.02.13.05.2.07.02,0,.05.02.07.03.06.02.13.05.2.08.07.03.15.06.22.1.01,0,.03.01.04.02.06.03.13.06.19.1.09.05.19.1.28.15.11.06.21.12.32.19.04.03.08.05.12.08.06.04.11.08.17.12.14.1.27.2.39.31.04.03.08.07.12.11.24.22.47.45.68.7.04.05.08.1.12.15.09.11.18.23.26.36.05.08.1.15.15.23.09.14.22.37.3.52.02.04.05.09.07.14.02.03.03.07.05.11.03.07.07.14.1.22.03.06.06.13.08.2.14.35.25.71.33,1.08,0,.05.02.1.03.15,0,.01,0,.03,0,.04,0,0,0,.01,0,.02v.03s1.99,7.41,1.99,7.41l.73,2.73h0s.4,1.5.4,1.5l1.19,4.44h0l4.43-1.19,19.33-5.18c.3-.08.6-.14.9-.18.48-.06.97-.07,1.44-.03.04,0,.08.02.17-.04.17-.12.39-.05.53.1.05.05.13.05.2.07.14.03.29.07.43.11.04,0,.08.02.12.03.13.04.26.08.39.13.05.02.1.03.15.05.15.06.29.12.43.19.11.05.23.11.34.18.26.14.51.3.75.48.26.18.5.39.73.61.07.06.13.13.2.2.77.81,1.36,1.82,1.67,2.97.99,3.68-1.2,7.46-4.88,8.45l-21.63,5.8-8.79,2.36c-.7.19-1.39.26-2.08.23-.19,0-.37-.02-.56-.05-.09-.01-.18-.02-.28-.04-.18-.03-.37-.07-.55-.11-.21-.05-.42-.12-.63-.19l.02-.08s-.02,0-.04-.01c-.11-.04-.22-.08-.33-.13-.02,0-.04-.01-.06-.02-.02,0-.03-.01-.05-.02-.08-.04-.17-.07-.25-.11-.17-.08-.33-.17-.49-.26-.16-.09-.32-.19-.47-.3-.3-.21-.59-.45-.86-.71-.12-.12-.24-.24-.35-.37-.07-.08-.14-.15-.2-.23-.11-.13-.21-.27-.31-.41-.03-.04-.05-.07-.08-.11-.14-.2-.27-.42-.38-.64v.02s-.62,2.28-.62,2.28v.05s50.31,48.02,50.31,48.02c4.39,4.19,11.66,1.08,11.66-4.99V9.35c0-3.81-3.09-6.9-6.9-6.9ZM65.04,27.63c-5.95-1.59-9.49-7.72-7.89-13.67,1.59-5.95,7.72-9.49,13.67-7.89,5.95,1.59,9.49,7.72,7.89,13.67-1.59,5.95-7.72,9.49-13.67,7.89ZM117.79,26.76l-27.28,15.75c-1.02.59-2.12.89-3.22.92h0c-.29.06-.59.11-.89.14l-10.91.95-2.13-7.94c-.24-1.24-.69-2.46-1.34-3.59-.39-.68-.85-1.32-1.37-1.89l14.17-1.24h0l26.06-15.05c3.3-1.9,7.52-.77,9.42,2.52,1.91,3.3.77,7.52-2.52,9.42Z"/>
  <path class="cls-1" d="M61.24,67.89c0,.07-.01.13-.02.19,0,.01,0,.03,0,.04,0,.07-.02.14-.03.21,0,.05-.02.1-.03.15,0,.05-.02.11-.03.16-.01.06-.02.12-.04.17-.01.05-.02.11-.04.17-.01.05-.03.11-.04.16-.02.07-.04.14-.07.22,0,0,0,0,0,.01h0s.02.02.03.03c.02-.08.05-.16.07-.24.15-.56.23-1.12.23-1.67,0,.13-.01.27-.03.4Z"/>
  <path class="cls-1" d="M47.88,64.96l-.17.63c-.02.1-.05.2-.07.29,0,.04-.02.08-.03.13-.02.08-.03.17-.05.25.06-.44.17-.88.32-1.3Z"/>
  <path class="cls-1" d="M53.87,74.26c.06,0,.11,0,.17,0-.06,0-.11,0-.17,0Z"/>
  <path class="cls-1" d="M53.48,74.22c.13.02.26.03.39.04-.13,0-.26-.02-.39-.04Z"/>
  <path class="cls-1" d="M54.04,74.27c.07,0,.13,0,.2,0-.07,0-.13,0-.2,0Z"/>
  <polygon class="cls-1" points="48.02 64.43 47.88 64.95 48.02 64.43 48.02 64.43"/>
  <path class="cls-1" d="M72.38,91.66h0s-10.68,29.34-10.68,29.34c-1.3,3.58-5.26,5.43-8.84,4.12-3.58-1.3-5.43-5.26-4.12-8.84l9.69-26.62-1.68-2.91,6.56-11.37c.55-.74,1.02-1.56,1.38-2.43,0,0,.01,0,.02,0l7.28,12.6c1.12,1.93,1.19,4.19.39,6.1Z"/>
  <path class="cls-1" d="M60.2,71.71,61.51,67.47l-11.26-11.26-.4,1.49-2.11,7.88h0s-.14.52-.14.52l.14-.52-.03.06-.03.05h0s-4.19,7.26-4.19,7.26l-5.96,10.34-6.08,1.63-21.8,5.84c-3.68.99-5.86,4.77-4.88,8.45.99,3.68,4.77,5.86,8.45,4.88l22.06-5.91,8.37-2.24c1.02-.27,1.92-.76,2.68-1.4,0,0,.01,0,.02-.01.12-.09.24-.18.35-.28.23-.2.45-.41.65-.64.08-.09.15-.17.22-.27.07-.09.14-.18.21-.28.08-.11.15-.22.22-.33.05-.09.11-.18.16-.27l5.94-10.3,1.27-2.2,4.1-7.11s0,0,0-.01M40.74,95.75c.18.04.36.07.53.09-.18-.02-.36-.05-.53-.09ZM47.42,66.75c-.02.1-.05.2-.07.29,0,.04-.02.08-.03.13-.02.08-.03.17-.05.25.06-.43.16-.86.31-1.27l-.16.6ZM47.58,66.13s0,0,0,0c0,0,0,0,0,0h0Z"/>
  <path class="cls-1" d="M41.56,94.69c-.18-.02-.36-.05-.53-.09.18.04.36.07.53.09Z"/>
  <path class="cls-1" d="M53.48,74.22c.13.02.26.03.39.04-.13,0-.26-.02-.39-.04Z"/>
  <path class="cls-1" d="M53.87,74.26c.06,0,.11,0,.17,0-.06,0-.11,0-.17,0Z"/>
  <path class="cls-1" d="M54.24,74.28c-.07,0-.13,0-.2,0,.07,0,.13,0,.2,0Z"/>
  <path class="cls-1" d="M41.56,94.69c-.18-.02-.36-.05-.53-.09.18.04.36.07.53.09Z"/>
  <path class="cls-1" d="M47.88,64.96l-.17.63c-.02.1-.05.2-.07.29,0,.04-.02.08-.03.13-.02.08-.03.17-.05.25.06-.44.17-.88.32-1.3Z"/>
  <polygon class="cls-1" points="48.02 64.43 47.88 64.95 48.02 64.43 48.02 64.43"/>
</svg>