<?xml version="1.0" encoding="UTF-8"?>
<svg id="Layer_1" data-name="Layer 1" xmlns="http://www.w3.org/2000/svg" viewBox="0 0 128 128">
  <defs>
    <style>
      .cls-1 {
        fill: #ba64f2;
      }
    </style>
  </defs>
  <path class="cls-1" d="M126.08,75.37v30.02c0,11.43-9.26,20.69-20.69,20.69H22.61c-11.43,0-20.69-9.26-20.69-20.69v-30.02c0-2.76,2.82-4.61,5.35-3.53,11.9,5.07,24.63,8.6,37.91,10.32,3.44.45,6.03,3.37,6.03,6.84v8.11c0,3.81,3.09,6.9,6.9,6.9h11.78c3.81,0,6.9-3.09,6.9-6.9v-8.11c0-3.47,2.58-6.39,6.03-6.84,13.29-1.72,26.01-5.25,37.91-10.32,2.54-1.08,5.35.77,5.35,3.53Z"/>
  <path class="cls-1" d="M105.39,26.75h-7.91v-4.14c0-11.43-9.26-20.69-20.69-20.69h-25.58c-11.43,0-20.69,9.26-20.69,20.69v4.14h-7.91c-11.43,0-20.69,9.26-20.69,20.69v5.76c0,1.44.8,2.76,2.09,3.42,2.77,1.41,5.59,2.73,8.44,3.93,16.32,6.9,33.66,10.4,51.55,10.4s35.23-3.5,51.55-10.4c2.86-1.21,5.67-2.52,8.44-3.93,1.29-.66,2.09-1.98,2.09-3.42v-5.76c0-11.43-9.26-20.69-20.69-20.69ZM42.93,22.61c0-4.57,3.71-8.28,8.28-8.28h25.58c4.57,0,8.28,3.71,8.28,8.28v.3c0,2.12-1.72,3.84-3.84,3.84h-34.45c-2.12,0-3.84-1.72-3.84-3.84v-.3Z"/>
</svg>