<?xml version="1.0" encoding="UTF-8"?>
<svg id="Layer_1" data-name="Layer 1" xmlns="http://www.w3.org/2000/svg" viewBox="0 0 128 128">
  <defs>
    <style>
      .cls-1 {
        fill: #ba64f2;
      }
    </style>
  </defs>
  <path class="cls-1" d="M109.82,30.89H18.18c-2.12,0-3.84-1.72-3.84-3.84v-8.88c0-2.12,1.72-3.84,3.84-3.84h91.65c2.12,0,3.84,1.72,3.84,3.84v8.88c0,2.12-1.72,3.84-3.84,3.84ZM8.82,1.92c-3.81,0-6.9,3.09-6.9,6.9v27.59c0,3.81,3.09,6.9,6.9,6.9h110.36c3.81,0,6.9-3.09,6.9-6.9V8.82c0-3.81-3.09-6.9-6.9-6.9H8.82Z"/>
  <g>
    <path class="cls-1" d="M101.31,111.47c0,6.17-5,11.16-11.16,11.16-3.03,0-5.78-1.21-7.8-3.17l-52.27-52.27c-2.02-2.02-3.27-4.81-3.27-7.89,0-6.16,5-11.16,11.16-11.16,2.98,0,5.7,1.17,7.7,3.08l.1.09.19.19.09.09,51.8,51.8.1.09.19.19.09.09c1.91,2,3.08,4.72,3.08,7.7Z"/>
    <path class="cls-1" d="M37.97,122.63c-6.17,0-11.16-5-11.16-11.16,0-3.03,1.21-5.78,3.17-7.8l52.27-52.27c2.02-2.02,4.81-3.27,7.89-3.27,6.16,0,11.16,5,11.16,11.16,0,2.98-1.17,5.7-3.08,7.7l-.09.1-.19.19-.09.09-51.8,51.8-.09.1-.19.19-.09.09c-2,1.91-4.72,3.08-7.7,3.08Z"/>
  </g>
</svg>