<?xml version="1.0" encoding="UTF-8"?>
<svg id="Layer_1" data-name="Layer 1" xmlns="http://www.w3.org/2000/svg" viewBox="0 0 128 128">
  <defs>
    <style>
      .cls-1 {
        fill: #59eb5c;
      }
    </style>
  </defs>
  <path class="cls-1" d="M61.71,29.05h-30.63c-11.43,0-20.69,9.26-20.69,20.69v55.64c0,11.43,9.26,20.69,20.69,20.69h30.63c11.43,0,20.69-9.26,20.69-20.69v-55.64c0-11.43-9.26-20.69-20.69-20.69ZM69.98,105.39c0,4.56-3.71,8.28-8.28,8.28h-30.63c-4.56,0-8.28-3.71-8.28-8.28v-55.64c0-4.56,3.71-8.28,8.28-8.28h30.63c4.56,0,8.28,3.71,8.28,8.28v55.64Z"/>
  <path class="cls-1" d="M97.71,1.92h-30.63c-11.43,0-20.69,9.26-20.69,20.69v18.86h12.42v-18.86c0-4.56,3.71-8.28,8.28-8.28h30.63c4.56,0,8.28,3.71,8.28,8.28v55.64c0,4.56-3.71,8.28-8.28,8.28h-27.73v12.42h27.73c11.43,0,20.69-9.26,20.69-20.69V22.61c0-11.43-9.26-20.69-20.69-20.69Z"/>
</svg>