<?xml version="1.0" encoding="UTF-8"?>
<svg id="Layer_1" data-name="Layer 1" xmlns="http://www.w3.org/2000/svg" viewBox="0 0 128 128">
  <defs>
    <style>
      .cls-1 {
        fill: #e1e1e0;
      }
    </style>
  </defs>
  <path class="cls-1" d="M106.6,66.71l-10.94,10.94c-1.37,1.37-3.72.4-3.72-1.54h0c0-2.12-1.72-3.84-3.84-3.84H18.97c-2.12,0-3.84-1.72-3.84-3.84v-8.87c0-2.12,1.72-3.84,3.84-3.84h69.13c2.12,0,3.84-1.72,3.84-3.84h0c0-1.94,2.35-2.91,3.72-1.54l10.94,10.94c1.5,1.5,1.5,3.93,0,5.43ZM75.69,43.31H6.55c-2.12,0-3.84,1.72-3.84,3.84v33.71c0,2.12,1.72,3.84,3.84,3.84h69.13c2.12,0,3.84,1.72,3.84,3.84v13.55c0,3.42,4.14,5.13,6.55,2.71l38.08-38.08c1.5-1.5,1.5-3.93,0-5.43l-38.08-38.08c-2.42-2.42-6.55-.71-6.55,2.71v13.55c0,2.12-1.72,3.84-3.84,3.84Z"/>
</svg>