<?xml version="1.0" encoding="UTF-8"?>
<svg id="Layer_1" data-name="Layer 1" xmlns="http://www.w3.org/2000/svg" viewBox="0 0 128 128">
  <defs>
    <style>
      .cls-1 {
        fill: #e1e1e0;
      }
    </style>
  </defs>
  <path class="cls-1" d="M44.49,75.23c2.21,0,4.29.86,5.85,2.42,1.56,1.56,2.42,3.64,2.42,5.85s-.86,4.29-2.42,5.85l-19.51,19.51c-1.56,1.56-3.64,2.42-5.85,2.42s-4.29-.86-5.85-2.42c-1.56-1.56-2.42-3.64-2.42-5.85s.86-4.29,2.42-5.85l19.51-19.51c1.56-1.56,3.64-2.42,5.85-2.42M44.49,62.82c-5.3,0-10.59,2.02-14.63,6.06l-19.51,19.51c-8.08,8.08-8.08,21.19,0,29.27h0c4.04,4.04,9.34,6.06,14.63,6.06s10.59-2.02,14.63-6.06l19.51-19.51c8.08-8.08,8.08-21.19,0-29.27h0c-4.04-4.04-9.34-6.06-14.63-6.06h0Z"/>
  <path class="cls-1" d="M103.02,16.7c2.21,0,4.29.86,5.85,2.42,1.56,1.56,2.42,3.64,2.42,5.85s-.86,4.29-2.42,5.85l-19.51,19.51c-1.56,1.56-3.64,2.42-5.85,2.42s-4.29-.86-5.85-2.42c-1.56-1.56-2.42-3.64-2.42-5.85s.86-4.29,2.42-5.85l19.51-19.51c1.56-1.56,3.64-2.42,5.85-2.42M103.02,4.29c-5.3,0-10.59,2.02-14.63,6.06l-19.51,19.51c-8.08,8.08-8.08,21.19,0,29.27h0c4.04,4.04,9.34,6.06,14.63,6.06s10.59-2.02,14.63-6.06l19.51-19.51c8.08-8.08,8.08-21.19,0-29.27h0c-4.04-4.04-9.34-6.06-14.63-6.06h0Z"/>
  <rect class="cls-1" x="29.51" y="57.1" width="68.98" height="13.8" rx="6.9" ry="6.9" transform="translate(-26.51 64) rotate(-45)"/>
</svg>