<?xml version="1.0" encoding="UTF-8"?>
<svg id="Layer_1" data-name="Layer 1" xmlns="http://www.w3.org/2000/svg" viewBox="0 0 128 128">
  <defs>
    <style>
      .cls-1 {
        fill: #61d1fa;
      }
    </style>
  </defs>
  <g>
    <rect class="cls-1" x="32.98" y="84.4" width="62.05" height="13.8" rx="6.9" ry="6.9"/>
    <g>
      <rect class="cls-1" x="65.54" y="99.6" width="39.4" height="13.8" rx="6.9" ry="6.9" transform="translate(4.43 216.4) rotate(-105)"/>
      <rect class="cls-1" x="22.66" y="99.08" width="40.5" height="13.8" rx="6.9" ry="6.9" transform="translate(-70.56 119.99) rotate(-75)"/>
    </g>
  </g>
  <g>
    <rect class="cls-1" x="55.7" y="15.76" width="16.55" height="60.96" rx="8.28" ry="8.28" transform="translate(127.95 92.49) rotate(180)"/>
    <g>
      <path class="cls-1" d="M58.15,16.36c-1.31-1.31-2.09-2.96-2.34-4.66h0s-.08-.85-.08-.85c-.09-2.23.71-4.49,2.42-6.19,1.7-1.7,3.96-2.51,6.19-2.42l.85.08h0c1.71.25,3.35,1.03,4.66,2.34,3.23,3.23,3.23,8.47,0,11.71s-8.47,3.23-11.71,0Z"/>
      <path class="cls-1" d="M35.4,39.11c-1.31-1.31-2.09-2.96-2.34-4.66h0s-.08-.85-.08-.85c-.09-2.23.71-4.49,2.42-6.19s3.96-2.51,6.19-2.42l.85.08h0c1.71.25,3.35,1.03,4.66,2.34,3.23,3.23,3.23,8.47,0,11.71-3.23,3.23-8.47,3.23-11.71,0Z"/>
      <rect class="cls-1" x="36.54" y="13.61" width="32.17" height="16.55" transform="translate(105.31 .14) rotate(135)"/>
    </g>
    <g>
      <path class="cls-1" d="M80.89,27.4c-1.31,1.31-2.09,2.96-2.34,4.66h0s-.08.85-.08.85c-.09,2.23.71,4.49,2.42,6.19s3.96,2.51,6.19,2.42l.85-.08h0c1.71-.25,3.35-1.03,4.66-2.34,3.23-3.23,3.23-8.47,0-11.71-3.23-3.23-8.47-3.23-11.71,0Z"/>
      <path class="cls-1" d="M58.15,4.66c-1.31,1.31-2.09,2.96-2.34,4.66h0s-.08.85-.08.85c-.09,2.23.71,4.49,2.42,6.19,1.7,1.7,3.96,2.51,6.19,2.42l.85-.08h0c1.71-.25,3.35-1.03,4.66-2.34,3.23-3.23,3.23-8.47,0-11.71-3.23-3.23-8.47-3.23-11.71,0Z"/>
      <rect class="cls-1" x="59.29" y="13.61" width="32.17" height="16.55" transform="translate(113.2 90.65) rotate(-135)"/>
    </g>
  </g>
</svg>