<?xml version="1.0" encoding="UTF-8"?>
<svg id="Layer_1" data-name="Layer 1" xmlns="http://www.w3.org/2000/svg" viewBox="0 0 128 128">
  <defs>
    <style>
      .cls-1 {
        fill: #59eb5c;
      }
    </style>
  </defs>
  <path class="cls-1" d="M64,57.1c3.81,0,6.9,3.09,6.9,6.9s-3.09,6.9-6.9,6.9-6.9-3.09-6.9-6.9,3.09-6.9,6.9-6.9M64,44.69c-10.65,0-19.31,8.66-19.31,19.31s8.66,19.31,19.31,19.31,19.31-8.66,19.31-19.31-8.66-19.31-19.31-19.31h0Z"/>
  <path class="cls-1" d="M102.63,57.1c3.81,0,6.9,3.09,6.9,6.9s-3.09,6.9-6.9,6.9-6.9-3.09-6.9-6.9,3.09-6.9,6.9-6.9M102.63,44.69c-10.65,0-19.31,8.66-19.31,19.31s8.66,19.31,19.31,19.31,19.31-8.66,19.31-19.31-8.66-19.31-19.31-19.31h0Z"/>
  <path class="cls-1" d="M25.37,57.1c3.81,0,6.9,3.09,6.9,6.9s-3.09,6.9-6.9,6.9-6.9-3.09-6.9-6.9,3.09-6.9,6.9-6.9M25.37,44.69c-10.65,0-19.31,8.66-19.31,19.31s8.66,19.31,19.31,19.31,19.31-8.66,19.31-19.31-8.66-19.31-19.31-19.31h0Z"/>
</svg>