<?xml version="1.0" encoding="UTF-8"?>
<svg id="Layer_1" data-name="Layer 1" xmlns="http://www.w3.org/2000/svg" viewBox="0 0 128 128">
  <defs>
    <style>
      .cls-1 {
        fill: #f8f770;
      }
    </style>
  </defs>
  <path class="cls-1" d="M86.07,30.89v-5.52c0-11.43-9.26-20.69-20.69-20.69h0c-11.43,0-20.69,9.26-20.69,20.69v5.52c-5.71,0-10.89,2.32-14.63,6.06-3.74,3.74-6.06,8.92-6.06,14.63v49.72c0,11.43,9.26,20.69,20.69,20.69h41.39c11.43,0,20.69-9.26,20.69-20.69v-49.72c0-11.43-9.26-20.69-20.69-20.69ZM57.1,23.99c0-3.81,3.09-6.9,6.9-6.9h2.76c3.81,0,6.9,3.09,6.9,6.9v3.06c0,2.12-1.72,3.84-3.84,3.84h-8.88c-2.12,0-3.84-1.72-3.84-3.84v-3.06ZM94.35,102.68c0,3.81-3.09,6.9-6.9,6.9h-4.17c0-6.86-5.56-12.42-12.42-12.42h-10.98c-3.43,0-6.53,1.39-8.78,3.64-2.25,2.25-3.64,5.35-3.64,8.78h-4.17c-3.81,0-6.9-3.09-6.9-6.9v-12.39c0-3.81,3.09-6.9,6.9-6.9h44.14c3.81,0,6.9,3.09,6.9,6.9v12.39ZM94.35,64.08c0,3.81-3.09,6.9-6.9,6.9h-44.14c-3.81,0-6.9-3.09-6.9-6.9v-13.88c0-3.81,3.09-6.9,6.9-6.9h44.14c3.81,0,6.9,3.09,6.9,6.9v13.88Z"/>
</svg>