<?xml version="1.0" encoding="UTF-8"?>
<svg id="Layer_1" data-name="Layer 1" xmlns="http://www.w3.org/2000/svg" viewBox="0 0 128 128">
  <defs>
    <style>
      .cls-1 {
        fill: #e1e1e0;
      }
    </style>
  </defs>
  <path class="cls-1" d="M72.02,81.31v7.68h-8.02c-2.12,0-3.84-1.72-3.84-3.84v-22.76h-3.06v-7.68h6.9c2.12,0,3.84,1.72,3.84,3.84v22.76h4.18Z"/>
  <path class="cls-1" d="M122.24,1.92H22.61C11.18,1.92,1.92,11.18,1.92,22.61v82.78c0,11.43,9.26,20.69,20.69,20.69h82.78c11.43,0,20.69-9.26,20.69-20.69V5.76c0-2.12-1.72-3.84-3.84-3.84ZM118.63,105.39c0,7.3-5.94,13.24-13.24,13.24H22.61c-7.3,0-13.24-5.94-13.24-13.24V22.61c0-7.3,5.94-13.24,13.24-13.24h45.14v12.62c0,2.12,1.72,3.84,3.84,3.84h47.04v79.56Z"/>
  <path class="cls-1" d="M48.53,43.7c.72.72,1.12,1.7,1.12,2.71v39.4c0,1.02-.4,1.99-1.12,2.71l-8.74,8.74c-.72.72-1.7,1.12-2.71,1.12h-1.32c-1.02,0-1.99-.4-2.71-1.12l-8.74-8.74c-.72-.72-1.12-1.7-1.12-2.71v-39.4c0-1.02.4-1.99,1.12-2.71l8.74-8.74c.72-.72,1.7-1.12,2.71-1.12h1.32c1.02,0,1.99.4,2.71,1.12l8.74,8.74ZM38.89,26.38h-4.96c-1.83,0-3.58.73-4.88,2.02l-11.32,11.32c-1.29,1.29-2.02,3.05-2.02,4.88v43.04c0,1.83.73,3.58,2.02,4.88l11.32,11.32c1.29,1.29,3.05,2.02,4.88,2.02h4.96c1.83,0,3.58-.73,4.88-2.02l11.32-11.32c1.29-1.29,2.02-3.05,2.02-4.88v-43.04c0-1.83-.73-3.58-2.02-4.88l-11.32-11.32c-1.29-1.29-3.05-2.02-4.88-2.02h0Z"/>
  <path class="cls-1" d="M103.71,81.77c.72.72,1.12,1.7,1.12,2.71v1.32c0,1.02-.4,1.99-1.12,2.71l-8.74,8.74c-.72.72-1.7,1.12-2.71,1.12h-1.32c-1.02,0-1.99-.4-2.71-1.12l-8.74-8.74c-.72-.72-1.12-1.7-1.12-2.71v-1.32c0-1.02.4-1.99,1.12-2.71l8.74-8.74c.72-.72,1.7-1.12,2.71-1.12h1.32c1.02,0,1.99.4,2.71,1.12l8.74,8.74ZM94.07,64.46h-4.96c-1.83,0-3.58.73-4.88,2.02l-11.32,11.32c-1.29,1.29-2.02,3.05-2.02,4.88v4.96c0,1.83.73,3.58,2.02,4.88l11.32,11.32c1.29,1.29,3.05,2.02,4.88,2.02h4.96c1.83,0,3.58-.73,4.88-2.02l11.32-11.32c1.29-1.29,2.02-3.05,2.02-4.88v-4.96c0-1.83-.73-3.58-2.02-4.88l-11.32-11.32c-1.29-1.29-3.05-2.02-4.88-2.02h0Z"/>
</svg>