<?xml version="1.0" encoding="UTF-8"?>
<svg id="Layer_1" data-name="Layer 1" xmlns="http://www.w3.org/2000/svg" viewBox="0 0 128 128">
  <defs>
    <style>
      .cls-1 {
        fill: #f66d74;
      }
    </style>
  </defs>
  <path class="cls-1" d="M55.36,89.36l-10.69-5.34c-1.3-.65-2.12-1.98-2.12-3.43v-33.17c0-1.45.82-2.78,2.12-3.43l10.69-5.34c2.55-1.28,5.56.58,5.56,3.43v43.85c0,2.85-3,4.71-5.56,3.43ZM66.43,20.03c-1.02,0-2.07.23-3.08.74l-30.81,15.41c-1.47.74-2.4,2.24-2.4,3.89v47.89c0,1.65.93,3.15,2.4,3.89l30.81,15.4c1.01.51,2.06.74,3.08.74,3.62,0,6.9-2.91,6.9-6.91V26.93c0-4-3.28-6.91-6.9-6.91h0Z"/>
  <rect class="cls-1" x="12.75" y="41.45" width="8.69" height="44.84" rx="4.35" ry="4.35"/>
</svg>