<?xml version="1.0" encoding="UTF-8"?>
<svg id="Layer_1" data-name="Layer 1" xmlns="http://www.w3.org/2000/svg" viewBox="0 0 128 128">
  <defs>
    <style>
      .cls-1 {
        fill: #e1e1e0;
      }
    </style>
  </defs>
  <g>
    <circle class="cls-1" cx="38.23" cy="116.62" r="3.84"/>
    <circle class="cls-1" cx="12.69" cy="91.08" r="3.84"/>
    <path class="cls-1" d="M32.3,97.02c2,2,3.11,4.67,3.11,7.5,0,5.85-4.76,10.61-10.61,10.61-2.83,0-5.5-1.1-7.5-3.11-2-2-3.11-4.67-3.11-7.5,0-5.85,4.76-10.61,10.61-10.61,2.83,0,5.5,1.1,7.5,3.11h0ZM37.57,91.75c-3.27-3.27-7.78-5.29-12.77-5.29-9.97,0-18.06,8.08-18.06,18.06,0,4.99,2.02,9.5,5.29,12.77,3.27,3.27,7.78,5.29,12.77,5.29,9.97,0,18.06-8.08,18.06-18.06,0-4.99-2.02-9.5-5.29-12.77h0Z"/>
  </g>
  <path class="cls-1" d="M72.35,67.06s-.03.05-.04.07c0,0-.01.02-.02.02,0,0,0-.02.01-.02.02-.02.03-.05.05-.07Z"/>
  <path class="cls-1" d="M73.12,65.34c-.02.07-.04.14-.06.21,0,0,0,.02,0,.02.03-.08.05-.15.07-.23Z"/>
  <path class="cls-1" d="M115.56,47.64l-28.6,5.04-8.95,8.95v-19.69c1.01-1.23,2.45-2.13,4.14-2.42l31.02-5.47c3.75-.66,7.33,1.85,7.99,5.6.66,3.75-1.85,7.33-5.59,7.99Z"/>
  <path class="cls-1" d="M72.3,67.13s0,.02-.01.02c0,0,0-.02.02-.02.01-.02.03-.05.04-.07-.01.02-.03.05-.05.07Z"/>
  <path class="cls-1" d="M49.71,63.93l-12.74,12.74-1.2-13.73-15.27-26.46c-1.91-3.3-.77-7.52,2.52-9.42,3.3-1.9,7.52-.77,9.42,2.52l15.75,27.28c.38.65.64,1.34.78,2.04,0,0,0,0,0,0,.25.61.4,1.26.46,1.95l.27,3.07Z"/>
  <path class="cls-1" d="M73.05,65.57s0-.01,0-.02c.02-.07.04-.14.06-.21-.02.08-.05.15-.07.23Z"/>
  <path class="cls-1" d="M72.35,67.06s-.03.05-.04.07h0s.03-.05.05-.07Z"/>
  <path class="cls-1" d="M73.12,65.34c-.02.07-.04.14-.06.21,0,0,0,.02,0,.02.03-.08.05-.15.07-.23Z"/>
  <path class="cls-1" d="M98.35,95.5l-30.43,8.15c-.17.05-.35.09-.52.12,0,0,0,0,0,0-1.77.55-3.76.39-5.5-.61l-12.76-7.37-7.87-4.54c-.87-.5-1.59-1.16-2.14-1.93t0,0c-.04-.05-.08-.11-.12-.17-.07-.1-.14-.21-.2-.31-.01-.02-.03-.05-.04-.07-.02-.04-.05-.09-.07-.13-.02-.04-.05-.09-.07-.13-.02-.04-.04-.07-.06-.11-.02-.04-.05-.09-.07-.13-.02-.05-.05-.11-.07-.16-.03-.06-.05-.12-.08-.18-.02-.04-.04-.09-.05-.14,0-.01-.01-.03-.02-.05-.03-.07-.05-.15-.08-.22-.04-.11-.08-.23-.11-.35-.07-.24-.12-.48-.16-.72-.01-.09-.03-.18-.04-.27,0-.08-.02-.16-.03-.24-.03-.25-.04-.5-.04-.75,0-1.77.68-3.53,2.02-4.88l10.41-10.41,9.38-9.38v-19.85c-.06-.36-.08-.72-.08-1.08,0-1.17.3-2.36.93-3.44l4.62-8,11.13-19.28c1.9-3.3,6.12-4.43,9.43-2.53,3.3,1.9,4.43,6.12,2.52,9.42l-11.09,19.22-3.65,6.32v22.07c0,.09,0,.17,0,.26,0,.03,0,.06,0,.1,0,.1-.01.2-.02.31,0,.11-.02.22-.04.33-.01.11-.03.22-.05.33-.04.22-.09.43-.16.65-.02.08-.05.15-.07.23-.01.04-.03.09-.04.13,0,0,0,0,0,.01-.03.09-.06.17-.1.26-.03.09-.07.17-.11.26-.06.13-.13.27-.19.39-.03.05-.06.1-.09.15-.03.05-.05.1-.08.15-.02.04-.05.08-.08.12,0,0,0,0,0,0-.01.02-.03.05-.05.07,0,0,0,.02-.01.02-.01.02-.03.04-.04.06,0,0-.01.02-.02.03-.05.07-.1.15-.15.22-.04.06-.09.12-.13.18t0,0s-.06.08-.1.12c-.14.17-.29.34-.45.49l-6.5,6.5-9.01,9.01,4.12,2.38,6.33,3.66,28.44-7.62c3.68-.99,7.46,1.2,8.45,4.88.99,3.68-1.2,7.46-4.88,8.45Z"/>
  <path class="cls-1" d="M119.45,96.26c-3.81,0-6.9,3.09-6.9,6.9,0-3.81-3.09-6.9-6.9-6.9,3.81,0,6.9-3.09,6.9-6.9,0,3.81,3.09,6.9,6.9,6.9Z"/>
  <path class="cls-1" d="M24.42,60.6c-3.81,0-6.9,3.09-6.9,6.9,0-3.81-3.09-6.9-6.9-6.9,3.81,0,6.9-3.09,6.9-6.9,0,3.81,3.09,6.9,6.9,6.9Z"/>
  <path class="cls-1" d="M63.08,15.5c-3.81,0-6.9,3.09-6.9,6.9,0-3.81-3.09-6.9-6.9-6.9,3.81,0,6.9-3.09,6.9-6.9,0,3.81,3.09,6.9,6.9,6.9Z"/>
</svg>