<?xml version="1.0" encoding="UTF-8"?>
<svg id="Layer_1" data-name="Layer 1" xmlns="http://www.w3.org/2000/svg" viewBox="0 0 128 128">
  <defs>
    <style>
      .cls-1 {
        fill: #f8f770;
      }
    </style>
  </defs>
  <path class="cls-1" d="M105.39,45.08c4.56,0,8.28,3.71,8.28,8.28v41.39c0,4.57-3.71,8.28-8.28,8.28H18.18c-2.12,0-3.84-1.72-3.84-3.84v-50.26c0-2.12,1.72-3.84,3.84-3.84h87.21M105.39,32.66H8.82c-3.81,0-6.9,3.09-6.9,6.9v68.98c0,3.81,3.09,6.9,6.9,6.9h96.57c11.43,0,20.69-9.26,20.69-20.69v-41.39c0-11.43-9.26-20.69-20.69-20.69h0Z"/>
  <path class="cls-1" d="M8.13,12.57h36.56c6.85,0,12.42,5.56,12.42,12.42H8.13c-3.43,0-6.21-2.78-6.21-6.21h0c0-3.43,2.78-6.21,6.21-6.21Z"/>
</svg>