<?xml version="1.0" encoding="UTF-8"?>
<svg id="Layer_1" data-name="Layer 1" xmlns="http://www.w3.org/2000/svg" viewBox="0 0 128 128">
  <defs>
    <style>
      .cls-1 {
        fill: #f8f770;
      }
    </style>
  </defs>
  <path class="cls-1" d="M108.27,88.66c-6.16,0-11.16,5-11.16,11.16,0-6.16-5-11.16-11.16-11.16,6.16,0,11.16-5,11.16-11.16,0,6.16,5,11.16,11.16,11.16Z"/>
  <path class="cls-1" d="M92.97,36.53c-9.97,0-18.06,8.09-18.06,18.06,0-9.97-8.09-18.06-18.06-18.06,9.97,0,18.06-8.09,18.06-18.06,0,9.97,8.09,18.06,18.06,18.06Z"/>
  <path class="cls-1" d="M74.16,78.05c-16.13,0-29.22,13.08-29.22,29.22,0-16.13-13.08-29.22-29.22-29.22,16.13,0,29.22-13.08,29.22-29.22,0,16.14,13.08,29.22,29.22,29.22Z"/>
</svg>