<?xml version="1.0" encoding="UTF-8"?>
<svg id="Layer_1" data-name="Layer 1" xmlns="http://www.w3.org/2000/svg" viewBox="0 0 128 128">
  <defs>
    <style>
      .cls-1 {
        fill: #59eb5c;
      }
    </style>
  </defs>
  <path class="cls-1" d="M1.92,28.58v70.83c0,6.16,5,11.16,11.16,11.16h101.84c6.16,0,11.16-5,11.16-11.16V28.58c0-6.16-5-11.16-11.16-11.16H13.08c-6.16,0-11.16,5-11.16,11.16ZM91.78,29.84c3.42,0,5.13,4.14,2.71,6.55l-25.62,25.62c-2.69,2.69-7.06,2.69-9.76,0l-25.61-25.62c-2.42-2.42-.71-6.55,2.71-6.55h55.56ZM14.38,44.09c0-3.42,4.14-5.13,6.55-2.71l28.44,28.44c8.08,8.08,21.18,8.08,29.26,0l28.47-28.47c2.42-2.42,6.55-.71,6.55,2.71v50.26c0,2.12-1.72,3.84-3.84,3.84H18.19c-2.12,0-3.84-1.72-3.84-3.84l.03-50.23Z"/>
</svg>