<?xml version="1.0" encoding="UTF-8"?>
<svg id="Layer_1" data-name="Layer 1" xmlns="http://www.w3.org/2000/svg" viewBox="0 0 128 128">
  <defs>
    <style>
      .cls-1 {
        fill-rule: evenodd;
      }

      .cls-1, .cls-2 {
        fill: #492f64;
      }
    </style>
  </defs>
  <g>
    <path class="cls-1" d="M119.68,58.76c-4.11-9.22-10.44-17.23-18.32-23.34-1.66-1.29-3.38-2.5-5.17-3.61-1.82-1.14-3.71-2.18-5.66-3.12-8.02-3.89-17.02-6.07-26.54-6.07-24.83,0-46.19,14.85-55.68,36.15-1.49,3.34-1.49,7.14,0,10.48,4.11,9.22,10.44,17.23,18.32,23.34,1.66,1.29,3.38,2.5,5.17,3.61,1.83,1.14,3.71,2.18,5.66,3.12,8.02,3.89,17.02,6.07,26.54,6.07,24.82,0,46.19-14.85,55.68-36.15,1.49-3.34,1.49-7.14,0-10.48ZM106.88,67.19c-1.12,2.1-2.39,4.13-3.82,6.06-2.95,4-6.49,7.51-10.51,10.44-8.33,6.07-18.2,9.28-28.55,9.28-5.92,0-11.69-1.05-17.1-3.09-2.06-.78-4.07-1.7-6.02-2.76l8.49-8.49c-1.48-1.48-2.74-3.19-3.72-5.06-1.5-2.86-2.34-6.12-2.34-9.57,0-11.43,9.26-20.69,20.69-20.69,3.45,0,6.71.85,9.57,2.34,1.87.98,3.58,2.23,5.06,3.72l8.49-8.49c1.86,1.01,3.65,2.14,5.38,3.4.02.01.03.02.05.04,4.02,2.93,7.55,6.44,10.51,10.44,1.43,1.93,2.7,3.95,3.82,6.06,1.06,1.99,1.06,4.38,0,6.37Z"/>
    <path class="cls-1" d="M84.69,64c0,11.43-9.26,20.69-20.69,20.69-5.71,0-10.89-2.32-14.63-6.06l20.48-20.48,8.78-8.78c3.74,3.74,6.06,8.92,6.06,14.63Z"/>
    <path class="cls-1" d="M69.85,58.15l-11.7,11.7c-1.5-1.5-2.43-3.57-2.43-5.85,0-.18,0-.35.02-.52l7.74-7.74c.17-.01.35-.02.52-.02,2.28,0,4.35.93,5.85,2.43Z"/>
  </g>
  <line class="cls-2" x1="78.63" y1="49.37" x2="69.85" y2="58.15"/>
  <line class="cls-2" x1="58.15" y1="69.85" x2="49.37" y2="78.63"/>
  <rect class="cls-2" x="-4.98" y="57.79" width="137.96" height="12.42" rx="6.21" ry="6.21" transform="translate(-26.51 64) rotate(-45)"/>
</svg>