<?xml version="1.0" encoding="UTF-8"?>
<svg id="Layer_1" data-name="Layer 1" xmlns="http://www.w3.org/2000/svg" viewBox="0 0 128 128">
  <defs>
    <style>
      .cls-1 {
        fill: #ba64f2;
      }
    </style>
  </defs>
  <path class="cls-1" d="M64,21.23c11.42,0,22.16,4.45,30.24,12.53,8.08,8.08,12.53,18.82,12.53,30.24s-4.45,22.16-12.53,30.24c-8.08,8.08-18.82,12.53-30.24,12.53s-22.16-4.45-30.24-12.53c-8.08-8.08-12.53-18.82-12.53-30.24s4.45-22.16,12.53-30.24c8.08-8.08,18.82-12.53,30.24-12.53M64,8.82c-30.48,0-55.18,24.71-55.18,55.18s24.71,55.18,55.18,55.18,55.18-24.71,55.18-55.18S94.48,8.82,64,8.82h0Z"/>
</svg>