<?xml version="1.0" encoding="UTF-8"?>
<svg id="Layer_1" data-name="Layer 1" xmlns="http://www.w3.org/2000/svg" viewBox="0 0 128 128">
  <defs>
    <style>
      .cls-1 {
        fill: #ba64f2;
      }
    </style>
  </defs>
  <rect class="cls-1" x="33.3" y="12.27" width="34.49" height="13.8" rx="6.9" ry="6.9" transform="translate(69.71 -31.38) rotate(90)"/>
  <rect class="cls-1" x="19.51" y="19.16" width="20.69" height="13.8" rx="6.9" ry="6.9" transform="translate(55.92 -3.79) rotate(90)"/>
  <rect class="cls-1" x="61.53" y="19.16" width="20.69" height="13.8" rx="6.9" ry="6.9" transform="translate(97.94 -45.82) rotate(90)"/>
  <path class="cls-1" d="M104.25,55.72c-4.79-7.46-13.15-12.42-22.66-12.42-1.57,0-3.1.13-4.6.39-7.57,1.31-14.06,5.79-18.06,12.02h6.4c2.12,0,3.84,1.72,3.84,3.84v3.2c2.54-4.21,7.15-7.03,12.42-7.03,7.99,0,14.48,6.5,14.48,14.48s-6.5,14.49-14.48,14.49c-5.26,0-9.88-2.82-12.42-7.03v16.41c3.72,1.94,7.94,3.04,12.42,3.04,14.83,0,26.9-12.07,26.9-26.9,0-5.33-1.56-10.3-4.24-14.48Z"/>
  <path class="cls-1" d="M69.17,62.76v14.9c2.54,4.21,7.15,7.03,12.42,7.03v-28.97c-5.26,0-9.88,2.82-12.42,7.03ZM81.56,49.62c-.23-2.74-2.07-5.03-4.57-5.91-.72-.26-1.49-.39-2.3-.39H26.41c-3.81,0-6.9,3.09-6.9,6.9v55.18c0,11.43,9.26,20.69,20.69,20.69h20.69c7.66,0,14.36-4.17,17.93-10.36,1.76-3.04,2.76-6.57,2.76-10.34v-55.18c0-.2,0-.39-.03-.59ZM69.17,59.56v45.82c0,1.48-.37,2.87-1.1,4.12-1.48,2.56-4.23,4.15-7.18,4.15h-20.69c-4.57,0-8.28-3.7-8.28-8.28v-45.82c0-2.12,1.72-3.84,3.84-3.84h29.57c2.12,0,3.84,1.72,3.84,3.84Z"/>
  <path class="cls-1" d="M104.25,55.72h-50.25v-12.42h27.59c9.51,0,17.87,4.95,22.66,12.42Z"/>
</svg>