<?xml version="1.0" encoding="UTF-8"?>
<svg id="Layer_1" data-name="Layer 1" xmlns="http://www.w3.org/2000/svg" viewBox="0 0 128 128">
  <defs>
    <style>
      .cls-1 {
        fill: #e1e1e0;
      }
    </style>
  </defs>
  <rect class="cls-1" x="26.86" y="79.26" width="29.95" height="13.8" rx="3.84" ry="3.84" transform="translate(-48.67 54.82) rotate(-45)"/>
  <rect class="cls-1" x="53.47" y="52.65" width="29.95" height="13.8" rx="3.84" ry="3.84" transform="translate(-22.06 65.84) rotate(-45)"/>
  <rect class="cls-1" x="14.04" y="86.37" width="13.79" height="41.39" rx="6.9" ry="6.9" transform="translate(-69.57 46.16) rotate(-45)"/>
  <path class="cls-1" d="M112.42,38.23h-18.81c-2.12,0-3.84-1.72-3.84-3.84V15.58c0-2.12,1.72-3.84,3.84-3.84h18.81c2.12,0,3.84,1.72,3.84,3.84v18.81c0,2.12-1.72,3.84-3.84,3.84ZM82.32,11.19v27.59c0,3.81,3.09,6.9,6.9,6.9h27.59c3.81,0,6.9-3.09,6.9-6.9V11.19c0-3.81-3.09-6.9-6.9-6.9h-27.59c-3.81,0-6.9,3.09-6.9,6.9Z"/>
</svg>