<?xml version="1.0" encoding="UTF-8"?>
<svg id="Layer_1" data-name="Layer 1" xmlns="http://www.w3.org/2000/svg" viewBox="0 0 128 128">
  <defs>
    <style>
      .cls-1 {
        fill: #f8f770;
      }
    </style>
  </defs>
  <path class="cls-1" d="M63.43,1.92c-22.83,0-41.33,18.5-41.33,41.33v62c0,11.41,9.25,20.66,20.66,20.66h41.33c11.41,0,20.66-9.25,20.66-20.66v-62C104.76,20.42,86.25,1.92,63.43,1.92ZM92.36,105.25c0,4.56-3.7,8.27-8.27,8.27h-41.33c-4.56,0-8.27-3.7-8.27-8.27v-41.33c0-2.8,1.4-5.28,3.54-6.78,1.34-.93,2.97-1.49,4.73-1.49h41.33c1.76,0,3.39.55,4.73,1.49,2.14,1.5,3.54,3.98,3.54,6.78v41.33ZM38.62,43.25c-2.36,0-4.14-2.11-3.79-4.44.93-6.04,3.73-11.61,8.14-16.02,5.47-5.46,12.73-8.47,20.46-8.47s14.99,3.01,20.46,8.47c4.4,4.4,7.21,9.98,8.14,16.02.36,2.33-1.43,4.44-3.79,4.44h-49.62Z"/>
  <path class="cls-1" d="M52.77,74.46c0-6.3,5.23-11.38,11.58-11.14,5.73.22,10.42,4.85,10.7,10.58.17,3.5-1.28,6.67-3.66,8.82-.81.73-1.27,1.76-1.27,2.85v16.43c0,2.12-1.72,3.83-3.83,3.83h-4.73c-2.12,0-3.83-1.72-3.83-3.83v-16.43c0-1.09-.47-2.12-1.28-2.85-2.25-2.04-3.67-4.99-3.67-8.26Z"/>
</svg>