<?xml version="1.0" encoding="UTF-8"?>
<svg id="Layer_1" data-name="Layer 1" xmlns="http://www.w3.org/2000/svg" viewBox="0 0 128 128">
  <defs>
    <style>
      .cls-1 {
        fill: #59eb5c;
      }

      .cls-2 {
        fill: #61d1fa;
      }
    </style>
  </defs>
  <g>
    <path class="cls-2" d="M85.22,45.49h-39.73V5.76c10.61,0,20.59,4.13,28.09,11.64,7.5,7.5,11.64,17.48,11.64,28.09Z"/>
    <path class="cls-2" d="M45.49,45.49v39.73c-10.61,0-20.59-4.13-28.09-11.64-7.5-7.5-11.64-17.48-11.64-28.09h39.73Z"/>
    <path class="cls-2" d="M45.49,13.46c8.56,0,16.6,3.33,22.65,9.38,6.05,6.05,9.38,14.09,9.38,22.65s-3.33,16.6-9.38,22.65c-6.05,6.05-14.09,9.38-22.65,9.38s-16.6-3.33-22.65-9.38c-6.05-6.05-9.38-14.09-9.38-22.65s3.33-16.6,9.38-22.65c6.05-6.05,14.09-9.38,22.65-9.38M45.49,5.76C23.55,5.76,5.76,23.55,5.76,45.49s17.79,39.73,39.73,39.73,39.73-17.79,39.73-39.73S67.43,5.76,45.49,5.76h0Z"/>
  </g>
  <g>
    <path class="cls-1" d="M99.98,80.85h-16.92c-3.81,0-6.9,3.09-6.9,6.9v27.59c0,3.81,3.09,6.9,6.9,6.9h16.92c3.81,0,6.9-3.09,6.9-6.9v-27.59c0-3.81-3.09-6.9-6.9-6.9ZM99.43,110.95c0,2.12-1.72,3.84-3.84,3.84h-8.14c-2.12,0-3.84-1.72-3.84-3.84v-18.81c0-2.12,1.72-3.84,3.84-3.84h8.14c1.46,0,2.73.82,3.38,2.02.29.54.46,1.16.46,1.82v18.81Z"/>
    <path class="cls-1" d="M115.34,69.33h-16.92c-3.81,0-6.9,3.09-6.9,6.9v12.07h4.07c1.46,0,2.73.82,3.38,2.02v-9.7c0-2.12,1.72-3.84,3.84-3.84h8.14c1.46,0,2.73.82,3.38,2.02.29.54.46,1.16.46,1.82v18.81c0,2.12-1.72,3.84-3.84,3.84h-8.14c-1.46,0-2.73-.82-3.38-2.02v9.47h15.91c3.81,0,6.9-3.09,6.9-6.9v-27.59c0-3.81-3.09-6.9-6.9-6.9Z"/>
  </g>
</svg>