<?xml version="1.0" encoding="UTF-8"?>
<svg id="Layer_1" data-name="Layer 1" xmlns="http://www.w3.org/2000/svg" viewBox="0 0 128 128">
  <defs>
    <style>
      .cls-1 {
        fill: #59eb5c;
      }
    </style>
  </defs>
  <path class="cls-1" d="M67.7,101.27c-1.35,1.35-3.1,2.02-4.88,2.02s-3.52-.67-4.87-2.02l-31.19-31.19h0c-2.69-2.7-2.69-7.06,0-9.76,1.35-1.35,3.11-2.02,4.88-2.02,1.2,0,2.4.31,3.46.93.49.28.96.64,1.39,1.06l31.24,31.24c.42.43.78.89,1.06,1.39,1.54,2.64,1.17,6.08-1.09,8.34Z"/>
  <path class="cls-1" d="M22.23,123.51h-.01c-2.69,2.71-7.06,2.71-9.75.01l-7.97-7.97c-1.35-1.35-2.02-3.11-2.02-4.88,0-1.77.67-3.53,2.02-4.88h.01c1.92-1.92,4.67-2.47,7.07-1.66.97.33,1.89.88,2.67,1.66l7.97,7.97c.78.78,1.33,1.69,1.66,2.67.24.71.36,1.46.36,2.21,0,1.76-.67,3.52-2.01,4.87Z"/>
  <path class="cls-1" d="M50.76,118.2c-2.69,2.69-7.06,2.69-9.75,0l-31.19-31.19c-1.34-1.34-2.02-3.11-2.02-4.87,0-1.77.67-3.53,2.02-4.88,2.69-2.69,7.06-2.69,9.75,0l31.19,31.19c1.34,1.34,2.02,3.11,2.02,4.88,0,1.76-.67,3.53-2.02,4.88Z"/>
  <path class="cls-1" d="M125.52,43.29c0,.2,0,.41,0,.61,0,.41-.01.82-.03,1.23-.01.41-.04.81-.07,1.22-.03.41-.06.82-.1,1.22-.02.2-.04.41-.07.61-.04.33-.08.65-.13.97,0,0,0,0,0,0-.04.32-.09.65-.15.97,0,0,0,0,0,0-.08.48-.17.97-.27,1.45-.1.48-.2.96-.32,1.44-.09.38-.19.75-.29,1.13-.16.58-.32,1.15-.5,1.72-.1.32-.2.63-.31.94-.16.47-.33.94-.51,1.4-.12.31-.24.62-.37.92-.19.46-.39.92-.6,1.37-.57,1.25-1.21,2.48-1.92,3.67-.21.36-.43.73-.66,1.09-.74,1.17-1.55,2.32-2.43,3.43-.21.27-.43.54-.65.8-.77.93-1.59,1.83-2.46,2.7-7.38,7.44-16.9,11.45-26.59,12.03-1.06.06-2.11.09-3.17.07-.33,0-.66,0-.99,0-.87.02-1.73.1-2.59.24-1.46.22-2.93-.24-3.98-1.28l-3.97-3.97-23.68-23.68-3.97-3.97c-1.04-1.04-1.51-2.52-1.28-3.98.13-.85.21-1.71.24-2.59,0-.33,0-.65,0-.98-.02-1.06,0-2.12.07-3.18.58-9.64,4.55-19.11,11.91-26.48,15.87-15.87,41.52-15.98,57.53-.35.12.11.23.23.35.34,1.28,1.28,2.46,2.63,3.54,4.04.13.17.26.34.39.52.45.6.87,1.21,1.28,1.83.19.28.37.56.54.85.3.48.59.96.87,1.45.14.24.27.48.4.73.16.29.32.59.47.89.13.27.27.53.39.79.11.22.21.44.32.67.46,1.01.88,2.03,1.26,3.06,0,.02.02.04.02.06.11.3.22.6.32.9,0,0,0,0,0,.01.06.19.13.39.19.59.12.39.24.78.36,1.18.06.2.11.4.17.59.17.64.33,1.28.47,1.92.1.48.2.96.29,1.44,0,0,0,0,0,0,.06.32.11.64.16.96h0c.07.49.14.98.2,1.46.01.11.03.23.04.34,0,.05,0,.1.01.15,0,.07.01.13.02.2.01.11.02.22.03.33,0,.11.02.22.03.33,0,.04,0,.08.01.12h0c.02.18.03.36.04.53.02.32.04.63.06.95.03.65.05,1.31.05,1.96Z"/>
</svg>