<?xml version="1.0" encoding="UTF-8"?>
<svg id="Layer_1" data-name="Layer 1" xmlns="http://www.w3.org/2000/svg" viewBox="0 0 128 128">
  <defs>
    <style>
      .cls-1 {
        fill: #ff7676;
      }
    </style>
  </defs>
  <path class="cls-1" d="M122.34,104.25c2.31,2.31,3.74,5.51,3.74,9.04,0,7.06-5.73,12.79-12.79,12.79-3.53,0-6.73-1.43-9.04-3.74l-40.25-40.25-40.25,40.25c-2.31,2.31-5.51,3.74-9.04,3.74-7.06,0-12.79-5.73-12.79-12.79,0-3.53,1.43-6.73,3.74-9.04l40.25-40.25L5.66,23.75c-2.31-2.31-3.74-5.51-3.74-9.04C1.92,7.65,7.65,1.92,14.71,1.92c3.53,0,6.73,1.43,9.04,3.74l40.25,40.25L104.25,5.66c2.31-2.31,5.51-3.74,9.04-3.74,7.06,0,12.79,5.73,12.79,12.79,0,3.53-1.43,6.73-3.74,9.04l-40.25,40.25,40.25,40.25Z"/>
</svg>