<?xml version="1.0" encoding="UTF-8"?>
<svg id="Layer_1" data-name="Layer 1" xmlns="http://www.w3.org/2000/svg" viewBox="0 0 128 128">
  <defs>
    <style>
      .cls-1 {
        fill: #ba64f2;
      }

      .cls-2 {
        opacity: .41;
      }
    </style>
  </defs>
  <rect class="cls-1" x="-5.48" y="91.61" width="67.63" height="13.8" rx="6.9" ry="6.9" transform="translate(-61.35 48.89) rotate(-45)"/>
  <rect class="cls-1" x="32.07" y="97.48" width="41.39" height="13.8" rx="6.9" ry="6.9" transform="translate(-58.35 67.88) rotate(-45)"/>
  <rect class="cls-1" x="68.41" y="103.84" width="16.55" height="13.8" rx="6.9" ry="6.9" transform="translate(-55.84 86.66) rotate(-45)"/>
  <g>
    <path class="cls-1" d="M123.8,110.43l-10.84-21.35c-.11-.2-.22-.4-.34-.59-.25-.4-.54-.77-.86-1.1h0l-6.12-6.12-5.35-5.35-.08-.08L54.64,30.29l-19.59-19.59-5.41-5.41c-2.69-2.7-7.06-2.7-9.75,0l-8.33,8.33c-2.7,2.7-2.7,7.06,0,9.76l11.82,11.82,58.72,58.73,5.43,5.43,6.06,6.05c.35.35.74.67,1.16.93.18.13.39.24.59.35l21.34,10.84c.39.19.78.34,1.18.44.4.09.81.14,1.22.14.35,0,.71-.04,1.06-.11.15-.03.3-.07.46-.12.18-.06.38-.12.55-.2.11-.04.22-.09.32-.15.49-.24.95-.57,1.35-.98,1.62-1.62,2.02-4.09.97-6.13ZM97.64,89.25l-2.12,2.12c-1.49,1.5-3.93,1.5-5.43,0l-2.63-2.63-50.67-50.67c-1.48-1.49-1.49-3.89-.03-5.39,0,0,.02-.03.03-.04l2.12-2.11c1.5-1.5,3.93-1.5,5.43,0l50.59,50.59.08.08,2.64,2.64c1.5,1.49,1.5,3.93,0,5.42Z"/>
    <g class="cls-2">
      <path class="cls-1" d="M111.74,87.4l-6.12-6.12,6.06,6.05s.04.05.06.07Z"/>
      <path class="cls-1" d="M111.74,87.4l-6.12-6.12,6.06,6.05s.04.05.06.07Z"/>
    </g>
  </g>
  <polygon class="cls-1" points="44.01 18.31 44.01 18.31 44.01 18.31 44.01 18.31"/>
</svg>