<?xml version="1.0" encoding="UTF-8"?>
<svg id="Layer_1" data-name="Layer 1" xmlns="http://www.w3.org/2000/svg" viewBox="0 0 128 128">
  <defs>
    <style>
      .cls-1 {
        fill: #797b7e;
      }
    </style>
  </defs>
  <path class="cls-1" d="M109.93,12.73c1.43,0,2.77.56,3.78,1.56,2.08,2.08,2.08,5.47,0,7.55-1.01,1.01-2.35,1.56-3.78,1.56s-2.77-.56-3.78-1.56c-1.01-1.01-1.56-2.35-1.56-3.78s.56-2.77,1.56-3.78c1.01-1.01,2.35-1.56,3.78-1.56M109.93,5.28c-3.27,0-6.55,1.25-9.04,3.75-4.99,4.99-4.99,13.09,0,18.09,2.5,2.5,5.77,3.75,9.04,3.75s6.55-1.25,9.04-3.75c4.99-4.99,4.99-13.09,0-18.09-2.5-2.5-5.77-3.75-9.04-3.75h0Z"/>
  <path class="cls-1" d="M82.08,40.58c1.43,0,2.77.56,3.78,1.56,2.08,2.08,2.08,5.47,0,7.55l-18.09,18.09c-1.01,1.01-2.35,1.56-3.78,1.56s-2.77-.56-3.78-1.56c-1.01-1.01-1.56-2.35-1.56-3.78s.56-2.77,1.56-3.78l18.09-18.09c1.01-1.01,2.35-1.56,3.78-1.56M82.08,33.13c-3.27,0-6.55,1.25-9.04,3.75l-18.09,18.09c-4.99,4.99-4.99,13.09,0,18.09h0c2.5,2.5,5.77,3.75,9.04,3.75s6.55-1.25,9.04-3.75l18.09-18.09c4.99-4.99,4.99-13.09,0-18.09h0c-2.5-2.5-5.77-3.75-9.04-3.75h0Z"/>
  <path class="cls-1" d="M36.16,86.5c1.43,0,2.77.56,3.78,1.56,2.08,2.08,2.08,5.47,0,7.55l-18.09,18.09c-1.01,1.01-2.35,1.56-3.78,1.56s-2.77-.56-3.78-1.56c-2.08-2.08-2.08-5.47,0-7.55l18.09-18.09c1.01-1.01,2.35-1.56,3.78-1.56M36.16,79.05c-3.27,0-6.55,1.25-9.04,3.75l-18.09,18.09c-4.99,4.99-4.99,13.09,0,18.09,2.5,2.5,5.77,3.75,9.04,3.75s6.55-1.25,9.04-3.75l18.09-18.09c4.99-4.99,4.99-13.09,0-18.09h0c-2.5-2.5-5.77-3.75-9.04-3.75h0Z"/>
</svg>