<?xml version="1.0" encoding="UTF-8"?>
<svg id="Layer_1" data-name="Layer 1" xmlns="http://www.w3.org/2000/svg" viewBox="0 0 128 128">
  <defs>
    <style>
      .cls-1 {
        fill: #e1e1e0;
      }
    </style>
  </defs>
  <g>
    <path class="cls-1" d="M42.85,1.92c-7.74,0-14.98,2.15-21.15,5.88-2.34,1.42-4.53,3.06-6.54,4.91C7.02,20.19,1.92,30.92,1.92,42.85s5.1,22.66,13.24,30.14c2.01,1.85,4.2,3.49,6.54,4.91,6.17,3.73,13.41,5.88,21.15,5.88,22.6,0,40.93-18.33,40.93-40.93S65.46,1.92,42.85,1.92ZM66.53,66.53c-6.32,6.32-14.73,9.81-23.67,9.81-5.15,0-10.11-1.15-14.61-3.34-2.32-1.12-4.51-2.52-6.54-4.18-.87-.71-1.72-1.48-2.53-2.28-6.32-6.32-9.81-14.73-9.81-23.67s3.48-17.35,9.81-23.67c.81-.81,1.65-1.57,2.53-2.28,2.03-1.66,4.22-3.06,6.54-4.18,4.49-2.19,9.46-3.34,14.61-3.34,8.94,0,17.35,3.48,23.67,9.81,6.32,6.32,9.81,14.73,9.81,23.67s-3.48,17.35-9.81,23.67Z"/>
    <path class="cls-1" d="M34.09,19.11s-.1.04-.15.06c-.58.21-1.14.45-1.7.71-2.35,1.09-2.91,4.19-1.07,6.02h0c1.11,1.11,2.8,1.4,4.23.74.42-.19.84-.37,1.28-.53.36-.13.69-.32.99-.55.91-.69,1.47-1.77,1.47-2.95h0c0-2.6-2.6-4.4-5.04-3.49ZM25.9,31.17h0c-1.82-1.83-4.92-1.31-6,1.03-1.5,3.24-2.34,6.84-2.34,10.65,0,3.06.54,5.99,1.54,8.7.79,2.16,3.36,3.07,5.35,1.92,1.18-.68,1.87-1.92,1.87-3.22,0-.42-.07-.84-.22-1.25-.71-1.92-1.09-4-1.09-6.16,0-2.67.59-5.2,1.64-7.47.66-1.42.37-3.1-.74-4.21Z"/>
  </g>
  <g>
    <path class="cls-1" d="M90.78,77.47c.55,2.29,1.72,4.47,3.5,6.25s3.96,2.95,6.25,3.5l-31.03,31.03c-1.35,1.35-3.11,2.02-4.88,2.02-1.76,0-3.53-.67-4.88-2.02-2.69-2.69-2.69-7.06,0-9.76l31.03-31.03Z"/>
    <g>
      <path class="cls-1" d="M118.28,59.73c-.08-.08-.17-.17-.26-.24-8.1-7.83-21.01-7.75-29.01.24-6.37,6.37-7.72,15.86-4.04,23.55.99,2.07,2.33,4,4.04,5.71,1.71,1.71,3.65,3.06,5.71,4.04,7.69,3.68,17.18,2.33,23.55-4.04,8-8,8.07-20.91.24-29.01-.08-.09-.16-.17-.24-.26ZM113.02,83.73c-3.38,3.38-8.14,4.55-12.48,3.5-2.29-.55-4.47-1.72-6.25-3.5s-2.96-3.96-3.5-6.25c-1.04-4.34.13-9.1,3.5-12.48,3.38-3.38,8.14-4.55,12.48-3.5,2.29.55,4.47,1.72,6.25,3.5,1.79,1.79,2.95,3.96,3.5,6.25,1.04,4.34-.12,9.1-3.5,12.48Z"/>
      <path class="cls-1" d="M118.28,59.73c-.08-.08-.17-.17-.26-.24-8.1-7.83-21.01-7.75-29.01.24-6.37,6.37-7.72,15.86-4.04,23.55.99,2.07,2.33,4,4.04,5.71,1.71,1.71,3.65,3.06,5.71,4.04,7.69,3.68,17.18,2.33,23.55-4.04,8-8,8.07-20.91.24-29.01-.08-.09-.16-.17-.24-.26ZM113.02,83.73c-3.38,3.38-8.14,4.55-12.48,3.5-2.29-.55-4.47-1.72-6.25-3.5s-2.96-3.96-3.5-6.25c-1.04-4.34.13-9.1,3.5-12.48,3.38-3.38,8.14-4.55,12.48-3.5,2.29.55,4.47,1.72,6.25,3.5,1.79,1.79,2.95,3.96,3.5,6.25,1.04,4.34-.12,9.1-3.5,12.48Z"/>
    </g>
  </g>
</svg>