<?xml version="1.0" encoding="UTF-8"?>
<svg id="Layer_1" data-name="Layer 1" xmlns="http://www.w3.org/2000/svg" viewBox="0 0 128 128">
  <defs>
    <style>
      .cls-1 {
        fill: #e1e1e0;
      }
    </style>
  </defs>
  <g>
    <rect class="cls-1" x="30.21" y="25.98" width="29.95" height="13.8" rx="3.84" ry="3.84"/>
    <rect class="cls-1" x="67.84" y="25.98" width="29.95" height="13.8" rx="3.84" ry="3.84"/>
    <rect class="cls-1" x="105.47" y="12.18" width="13.8" height="41.39" rx="6.9" ry="6.9"/>
    <rect class="cls-1" x="8.73" y="12.18" width="13.79" height="41.39" rx="6.9" ry="6.9"/>
  </g>
  <path class="cls-1" d="M126.08,81.25v27.59c0,3.81-3.09,6.9-6.9,6.9H8.82c-3.81,0-6.9-3.09-6.9-6.9v-27.59c0-3.27,2.28-6.01,5.33-6.72v3.66c0,2.12,1.72,3.84,3.84,3.84,1.06,0,2.02-.43,2.71-1.12.7-.69,1.12-1.65,1.12-2.71v-3.84h9.96v9.96c0,2.12,1.72,3.84,3.84,3.84,1.06,0,2.02-.43,2.72-1.12.7-.7,1.12-1.65,1.12-2.71v-9.96h9.96v3.84c0,2.12,1.72,3.84,3.84,3.84,1.06,0,2.02-.43,2.71-1.12.7-.69,1.12-1.65,1.12-2.71v-3.84h9.96v9.96c0,2.12,1.72,3.84,3.84,3.84,1.06,0,2.02-.43,2.71-1.12.7-.7,1.12-1.65,1.12-2.71v-9.96h9.96v3.84c0,2.12,1.72,3.84,3.84,3.84,1.06,0,2.02-.43,2.71-1.12.7-.69,1.12-1.65,1.12-2.71v-3.84h9.96v9.96c0,2.12,1.72,3.84,3.84,3.84,1.06,0,2.02-.43,2.71-1.12.7-.7,1.12-1.65,1.12-2.71v-9.96h9.96v3.84c0,2.12,1.72,3.84,3.84,3.84,1.06,0,2.02-.43,2.72-1.12.7-.69,1.12-1.65,1.12-2.71v-3.66c3.06.71,5.33,3.45,5.33,6.72Z"/>
</svg>