<?xml version="1.0" encoding="UTF-8"?>
<svg id="Layer_1" data-name="Layer 1" xmlns="http://www.w3.org/2000/svg" viewBox="0 0 128 128">
  <defs>
    <style>
      .cls-1 {
        fill: #11151d;
      }
    </style>
  </defs>
  <path class="cls-1" d="M59.61,43.9l31.25,18.04c1.58.91,1.58,3.2,0,4.11l-31.25,18.04-24.25,14c-1.79,1.03-3.95-.56-3.5-2.57l6.44-28.81.27-1.2c.22-.99.22-2.02,0-3.01l-.27-1.2-6.44-28.81c-.45-2.02,1.71-3.61,3.5-2.57l24.25,14ZM25.18,68.51l-9.36,41.84c-1.31,5.86,4.98,10.48,10.18,7.48l39.82-22.99,43.08-24.87c4.6-2.66,4.6-9.29,0-11.95l-43.08-24.87L26,10.16c-5.2-3-11.49,1.62-10.18,7.48l9.36,41.84c.66,2.97.66,6.06,0,9.03Z"/>
</svg>