<?xml version="1.0" encoding="UTF-8"?>
<svg id="Layer_1" data-name="Layer 1" xmlns="http://www.w3.org/2000/svg" viewBox="0 0 128 128">
  <defs>
    <style>
      .cls-1 {
        fill: #f8f770;
      }
    </style>
  </defs>
  <path class="cls-1" d="M126.08,33.54c0,17.46-14.15,31.62-31.62,31.62-1.65,0-3.27-.13-4.86-.37-2.17-.34-4.38.35-5.94,1.91l-16.98,16.98c-1.56,1.56-2.24,3.76-1.91,5.94.24,1.58.37,3.21.37,4.86,0,17.46-14.16,31.62-31.62,31.62-2.96,0-5.83-.41-8.54-1.17-2.83-.79-3.75-4.34-1.68-6.41l13.81-13.81c3.82-3.82,3.82-10,0-13.82-1.91-1.91-4.41-2.86-6.91-2.86s-5,.96-6.91,2.86l-13.81,13.81c-2.07,2.07-5.62,1.15-6.41-1.68-.76-2.72-1.17-5.58-1.17-8.54,0-17.46,14.15-31.62,31.62-31.62,1.65,0,3.27.13,4.86.37,2.17.34,4.38-.35,5.94-1.91l16.98-16.98c1.56-1.56,2.24-3.76,1.91-5.94-.24-1.58-.37-3.21-.37-4.86,0-17.46,14.15-31.62,31.62-31.62,2.96,0,5.83.41,8.54,1.17,2.83.79,3.75,4.34,1.68,6.41l-13.81,13.81c-3.82,3.82-3.82,10,0,13.82,1.91,1.91,4.41,2.86,6.91,2.86s5-.96,6.91-2.86l13.81-13.81c2.07-2.07,5.62-1.15,6.41,1.68.76,2.72,1.17,5.58,1.17,8.54Z"/>
</svg>