<?xml version="1.0" encoding="UTF-8"?>
<svg id="Layer_1" data-name="Layer 1" xmlns="http://www.w3.org/2000/svg" viewBox="0 0 128 128">
  <defs>
    <style>
      .cls-1 {
        fill: #ba64f2;
      }
    </style>
  </defs>
  <circle class="cls-1" cx="88.71" cy="57.92" r="11.16"/>
  <path class="cls-1" d="M1.92,27.44v73.12c0,3.81,3.09,6.9,6.9,6.9h110.36c3.81,0,6.9-3.09,6.9-6.9V27.44c0-3.81-3.09-6.9-6.9-6.9H8.82c-3.81,0-6.9,3.09-6.9,6.9ZM109.82,95.04H18.18c-2.12,0-3.84-1.72-3.84-3.84v-54.4c0-2.12,1.72-3.84,3.84-3.84h91.65c2.12,0,3.84,1.72,3.84,3.84v54.4c0,2.12-1.72,3.84-3.84,3.84Z"/>
  <path class="cls-1" d="M48.82,95.26h-27.59l13.8-23.89,7.82-13.55c2.66-4.6,9.29-4.6,11.95,0l7.82,13.55,13.8,23.89h-27.59Z"/>
</svg>