<?xml version="1.0" encoding="UTF-8"?>
<svg id="Layer_1" data-name="Layer 1" xmlns="http://www.w3.org/2000/svg" viewBox="0 0 128 128">
  <defs>
    <style>
      .cls-1 {
        fill: #ba64f2;
      }
    </style>
  </defs>
  <circle class="cls-1" cx="64" cy="64" r="6.9"/>
  <path class="cls-1" d="M109.82,86.5H18.18c-2.12,0-3.84-1.72-3.84-3.84v-37.33c0-2.12,1.72-3.84,3.84-3.84h91.65c2.12,0,3.84,1.72,3.84,3.84v37.33c0,2.12-1.72,3.84-3.84,3.84ZM1.92,35.98v56.04c0,3.81,3.09,6.9,6.9,6.9h110.36c3.81,0,6.9-3.09,6.9-6.9v-56.04c0-3.81-3.09-6.9-6.9-6.9H8.82c-3.81,0-6.9,3.09-6.9,6.9Z"/>
</svg>