<?xml version="1.0" encoding="UTF-8"?>
<svg id="Layer_1" data-name="Layer 1" xmlns="http://www.w3.org/2000/svg" viewBox="0 0 128 128">
  <defs>
    <style>
      .cls-1 {
        fill: #59eb5c;
      }
    </style>
  </defs>
  <g>
    <path class="cls-1" d="M85.22,45.49h-39.73V5.76c10.61,0,20.59,4.13,28.09,11.64,7.5,7.5,11.64,17.48,11.64,28.09Z"/>
    <path class="cls-1" d="M45.49,45.49v39.73c-10.61,0-20.59-4.13-28.09-11.64-7.5-7.5-11.64-17.48-11.64-28.09h39.73Z"/>
    <path class="cls-1" d="M45.49,13.46c8.56,0,16.6,3.33,22.65,9.38,6.05,6.05,9.38,14.09,9.38,22.65s-3.33,16.6-9.38,22.65c-6.05,6.05-14.09,9.38-22.65,9.38s-16.6-3.33-22.65-9.38-9.38-14.09-9.38-22.65,3.33-16.6,9.38-22.65c6.05-6.05,14.09-9.38,22.65-9.38M45.49,5.76C23.55,5.76,5.76,23.55,5.76,45.49s17.79,39.73,39.73,39.73,39.73-17.79,39.73-39.73S67.43,5.76,45.49,5.76h0Z"/>
  </g>
  <g>
    <rect class="cls-1" x="73.17" y="90.81" width="49.07" height="13.8" rx="6.9" ry="6.9"/>
    <rect class="cls-1" x="73.17" y="90.81" width="49.07" height="13.8" rx="6.9" ry="6.9" transform="translate(195.41 0) rotate(90)"/>
  </g>
</svg>