<?xml version="1.0" encoding="UTF-8"?>
<svg id="Layer_1" data-name="Layer 1" xmlns="http://www.w3.org/2000/svg" viewBox="0 0 128 128">
  <defs>
    <style>
      .cls-1 {
        fill: #e1e1e0;
      }
    </style>
  </defs>
  <path class="cls-1" d="M116.11,36.42c-5.31-5.32-12.38-8.24-19.9-8.24H31.79c-7.52,0-14.59,2.93-19.9,8.24-5.32,5.31-8.24,12.38-8.24,19.9v15.36c0,7.52,2.93,14.58,8.24,19.9,5.31,5.32,12.38,8.24,19.9,8.24h23.1c.47,0,.84-.38.84-.85,0,0,0,0,0,0,0-2.69,1.28-5.08,3.27-6.59,1.39-1.06,3.13-1.69,5.01-1.69s3.62.63,5.01,1.69c1.99,1.51,3.27,3.9,3.27,6.59,0,0,0,0,0,0,0,.47.37.85.84.85h23.1c7.52,0,14.59-2.93,19.9-8.24,5.32-5.31,8.24-12.38,8.24-19.9v-15.36c0-7.52-2.93-14.58-8.24-19.9ZM116.9,71.68c0,11.43-9.26,20.69-20.69,20.69h-17.93c-2.5-5.39-7.96-9.14-14.28-9.14s-11.78,3.75-14.28,9.14h-17.93c-11.43,0-20.69-9.26-20.69-20.69v-15.36c0-11.43,9.26-20.69,20.69-20.69h64.42c11.43,0,20.69,9.26,20.69,20.69v15.36Z"/>
  <path class="cls-1" d="M39.47,50.76c7.3,0,13.24,5.94,13.24,13.24s-5.94,13.24-13.24,13.24-13.24-5.94-13.24-13.24,5.94-13.24,13.24-13.24M39.47,43.31c-11.43,0-20.69,9.26-20.69,20.69s9.26,20.69,20.69,20.69,20.69-9.26,20.69-20.69-9.26-20.69-20.69-20.69h0Z"/>
  <path class="cls-1" d="M88.53,50.76c7.3,0,13.24,5.94,13.24,13.24s-5.94,13.24-13.24,13.24-13.24-5.94-13.24-13.24,5.94-13.24,13.24-13.24M88.53,43.31c-11.43,0-20.69,9.26-20.69,20.69s9.26,20.69,20.69,20.69,20.69-9.26,20.69-20.69-9.26-20.69-20.69-20.69h0Z"/>
</svg>