<?xml version="1.0" encoding="UTF-8"?>
<svg id="Layer_1" data-name="Layer 1" xmlns="http://www.w3.org/2000/svg" viewBox="0 0 128 128">
  <defs>
    <style>
      .cls-1 {
        fill: #ba64f2;
      }
    </style>
  </defs>
  <path class="cls-1" d="M112.17,50.26v27.48c0,3.84,3.11,6.95,6.95,6.95h0c3.84,0,6.95-3.11,6.95-6.95v-27.48c0-3.84-3.11-6.95-6.95-6.95h0c-3.84,0-6.95,3.11-6.95,6.95ZM98.49,8.87h0c0,3.84,3.11,6.95,6.95,6.95h2.89c2.12,0,3.84,1.72,3.84,3.84v2.89c0,3.84,3.11,6.95,6.95,6.95h0c3.84,0,6.95-3.11,6.95-6.95v-13.74c0-3.81-3.09-6.9-6.9-6.9h-13.74c-3.84,0-6.95,3.11-6.95,6.95ZM1.92,8.82v13.74c0,3.84,3.11,6.95,6.95,6.95h0c3.84,0,6.95-3.11,6.95-6.95v-2.89c0-2.12,1.72-3.84,3.84-3.84h2.89c3.84,0,6.95-3.11,6.95-6.95h0c0-3.84-3.11-6.95-6.95-6.95h-13.74c-3.81,0-6.9,3.09-6.9,6.9ZM15.83,108.34v-2.89c0-3.84-3.11-6.95-6.95-6.95h0c-3.84,0-6.95,3.11-6.95,6.95v13.74c0,3.81,3.09,6.9,6.9,6.9h13.74c3.84,0,6.95-3.11,6.95-6.95h0c0-3.84-3.11-6.95-6.95-6.95h-2.89c-2.12,0-3.84-1.72-3.84-3.84ZM112.17,105.44v2.89c0,2.12-1.72,3.84-3.84,3.84h-2.89c-3.84,0-6.95,3.11-6.95,6.95h0c0,3.84,3.11,6.95,6.95,6.95h13.74c3.81,0,6.9-3.09,6.9-6.9v-13.74c0-3.84-3.11-6.95-6.95-6.95h0c-3.84,0-6.95,3.11-6.95,6.95ZM50.26,126.08h27.48c3.84,0,6.95-3.11,6.95-6.95h0c0-3.84-3.11-6.95-6.95-6.95h-27.48c-3.84,0-6.95,3.11-6.95,6.95h0c0,3.84,3.11,6.95,6.95,6.95ZM1.92,50.26v27.48c0,3.84,3.11,6.95,6.95,6.95h0c3.84,0,6.95-3.11,6.95-6.95v-27.48c0-3.84-3.11-6.95-6.95-6.95h0c-3.84,0-6.95,3.11-6.95,6.95ZM43.31,8.87h0c0,3.84,3.11,6.95,6.95,6.95h27.48c3.84,0,6.95-3.11,6.95-6.95h0c0-3.84-3.11-6.95-6.95-6.95h-27.48c-3.84,0-6.95,3.11-6.95,6.95Z"/>
  <g>
    <circle class="cls-1" cx="83.51" cy="83.51" r="20.69"/>
    <circle class="cls-1" cx="44.49" cy="44.49" r="20.69"/>
  </g>
</svg>