<?xml version="1.0" encoding="UTF-8"?>
<svg id="Layer_1" data-name="Layer 1" xmlns="http://www.w3.org/2000/svg" viewBox="0 0 128 128">
  <defs>
    <style>
      .cls-1 {
        fill: #e1e1e0;
      }
    </style>
  </defs>
  <rect class="cls-1" x="17.79" y="94.65" width="79.33" height="7.68" rx="3.84" ry="3.84"/>
  <rect class="cls-1" x="17.79" y="67.06" width="79.33" height="7.68" rx="3.84" ry="3.84"/>
  <rect class="cls-1" x="17.79" y="39.47" width="79.33" height="7.68" rx="3.84" ry="3.84"/>
  <path class="cls-1" d="M122.24,1.92H22.61C11.18,1.92,1.92,11.18,1.92,22.61v82.78c0,11.43,9.26,20.69,20.69,20.69h82.78c11.43,0,20.69-9.26,20.69-20.69V5.76c0-2.12-1.72-3.84-3.84-3.84ZM118.63,105.39c0,7.3-5.94,13.24-13.24,13.24H22.61c-7.3,0-13.24-5.94-13.24-13.24V22.61c0-7.3,5.94-13.24,13.24-13.24h45.14v12.62c0,2.12,1.72,3.84,3.84,3.84h47.04v79.56Z"/>
</svg>