<?xml version="1.0" encoding="UTF-8"?>
<svg id="Layer_1" data-name="Layer 1" xmlns="http://www.w3.org/2000/svg" viewBox="0 0 128 128">
  <defs>
    <style>
      .cls-1 {
        fill: #ba64f2;
      }
    </style>
  </defs>
  <path class="cls-1" d="M122.24,1.92H22.61C11.18,1.92,1.92,11.18,1.92,22.61v82.77c0,11.43,9.26,20.69,20.69,20.69h82.77c11.43,0,20.69-9.26,20.69-20.69V5.76c0-2.12-1.72-3.84-3.84-3.84ZM109.82,14.34c2.12,0,3.84,1.72,3.84,3.84v8.88c0,2.12-1.72,3.84-3.84,3.84h-36.47c-2.12,0-3.84-1.72-3.84-3.84v-8.88c0-2.12,1.72-3.84,3.84-3.84h36.47ZM113.66,100.27c0,7.39-6,13.39-13.39,13.39H27.73c-7.39,0-13.39-6-13.39-13.39V27.73c0-7.39,6-13.39,13.39-13.39h29.37v20.69c0,4.57,3.7,8.28,8.28,8.28h48.29v56.96Z"/>
</svg>