<?xml version="1.0" encoding="UTF-8"?>
<svg id="Layer_1" data-name="Layer 1" xmlns="http://www.w3.org/2000/svg" viewBox="0 0 128 128">
  <defs>
    <style>
      .cls-1 {
        fill: #ff7676;
      }
    </style>
  </defs>
  <path class="cls-1" d="M64,1.92C29.71,1.92,1.92,29.71,1.92,64s27.79,62.08,62.08,62.08,62.08-27.79,62.08-62.08S98.29,1.92,64,1.92ZM97.5,79.42c2.05,2.05,3.4,4.78,3.69,7.83.03.29.04.57.05.86v.02c0,.11,0,.22,0,.33,0,.04,0,.08,0,.12,0,.37-.02.73-.05,1.09,0,.02,0,.04,0,.07h0c-.53,5.37-4.39,9.76-9.48,11.09-.01,0-.03,0-.05.01-1.02.27-2.1.4-3.2.4-3.53,0-6.73-1.43-9.04-3.75l-10.78-10.78-.06-.06-4.58-4.57-15.42,15.42c-2.31,2.31-5.51,3.74-9.04,3.74-7.06,0-12.79-5.73-12.79-12.79,0-3.53,1.43-6.73,3.75-9.04l4.4-4.4,8.25-8.25,2.76-2.76-15.44-15.44c-.79-.79-1.48-1.69-2.04-2.67,0,0,0-.02-.01-.02-1.06-1.86-1.67-4.02-1.67-6.32,0-6.82,5.34-12.4,12.07-12.77h.02c.23-.01.46-.02.7-.02s.47,0,.7.02c.09,0,.18,0,.27.02h.01c3.14.24,5.96,1.61,8.06,3.71l9.08,9.08,6.33,6.33,3.11-3.11,5.94-5.94.06-.06,6.28-6.28.05-.05c2.16-2.15,5.08-3.53,8.32-3.7.23-.01.46-.02.7-.02s.47,0,.7.02c6.34.34,11.45,5.3,12.03,11.57.04.39.06.79.06,1.2s-.02.8-.06,1.2c-.28,3.05-1.64,5.8-3.69,7.84l-15.42,15.42,15.42,15.42Z"/>
</svg>