<?xml version="1.0" encoding="UTF-8"?>
<svg id="Layer_1" data-name="Layer 1" xmlns="http://www.w3.org/2000/svg" viewBox="0 0 128 128">
  <defs>
    <style>
      .cls-1 {
        fill: #59eb5c;
      }
    </style>
  </defs>
  <path class="cls-1" d="M103.18,27.66h-15.42v-6.9c0-3.81-3.09-6.9-6.9-6.9h-5.94c-2.12,0-3.84-1.72-3.84-3.84h0c0-2.12-1.72-3.84-3.84-3.84h-6.12c-2.12,0-3.84,1.72-3.84,3.84h0c0,2.12-1.72,3.84-3.84,3.84h-5.94c-3.81,0-6.9,3.09-6.9,6.9v6.9h-15.42c-3.81,0-6.9,3.09-6.9,6.9v80.15c0,3.81,3.09,6.9,6.9,6.9h78c3.81,0,6.9-3.09,6.9-6.9V34.56c0-3.81-3.09-6.9-6.9-6.9ZM56.87,26.28h14.64c2.12,0,3.84,1.72,3.84,3.84v7.5c0,2.12-1.72,3.84-3.84,3.84h-14.64c-2.12,0-3.84-1.72-3.84-3.84v-7.5c0-2.12,1.72-3.84,3.84-3.84ZM97.67,105.35c0,2.12-1.72,3.84-3.84,3.84h-59.28c-2.12,0-3.84-1.72-3.84-3.84v-61.43c0-2.12,1.72-3.84,3.84-3.84h2.23c2.12,0,3.84,1.72,3.84,3.84v3.06c0,3.81,3.09,6.9,6.9,6.9h33.35c3.81,0,6.9-3.09,6.9-6.9v-3.06c0-2.12,1.72-3.84,3.84-3.84h2.23c2.12,0,3.84,1.72,3.84,3.84v61.43Z"/>
  <rect class="cls-1" x="38.38" y="69.26" width="51.6" height="12.42" rx="6.21" ry="6.21"/>
  <rect class="cls-1" x="38.38" y="89.36" width="51.6" height="12.42" rx="6.21" ry="6.21"/>
</svg>