<?xml version="1.0" encoding="UTF-8"?>
<svg id="Layer_1" data-name="Layer 1" xmlns="http://www.w3.org/2000/svg" viewBox="0 0 128 128">
  <defs>
    <style>
      .cls-1 {
        fill: #f8f770;
      }
    </style>
  </defs>
  <g>
    <g>
      <path class="cls-1" d="M33.08,89.49l5.43-5.43c1.5-1.5,3.93-1.5,5.43,0,1.5,1.5,1.5,3.93,0,5.43l-5.43,5.43c-1.5,1.5-3.93,1.5-5.43,0-1.5-1.5-1.5-3.93,0-5.43Z"/>
      <path class="cls-1" d="M27.65,94.92l5.43-5.43c1.5-1.5,3.93-1.5,5.43,0,1.5,1.5,1.5,3.93,0,5.43l-5.43,5.43c-1.5,1.5-3.93,1.5-5.43,0s-1.5-3.93,0-5.43Z"/>
      <path class="cls-1" d="M22.22,100.35l5.43-5.43c1.5-1.5,3.93-1.5,5.43,0,1.5,1.5,1.5,3.93,0,5.43l-5.43,5.43c-1.5,1.5-3.93,1.5-5.43,0s-1.5-3.93,0-5.43Z"/>
      <path class="cls-1" d="M16.79,105.78l5.43-5.43c1.5-1.5,3.93-1.5,5.43,0,1.5,1.5,1.5,3.93,0,5.43l-5.43,5.43c-1.5,1.5-3.93,1.5-5.43,0-1.5-1.5-1.5-3.93,0-5.43Z"/>
      <path class="cls-1" d="M11.36,111.21l5.43-5.43c1.5-1.5,3.93-1.5,5.43,0,1.5,1.5,1.5,3.93,0,5.43l-5.43,5.43c-1.5,1.5-3.93,1.5-5.43,0-1.5-1.5-1.5-3.93,0-5.43Z"/>
    </g>
    <g>
      <path class="cls-1" d="M21.75,110.09h7.68c2.12,0,3.84,1.72,3.84,3.84s-1.72,3.84-3.84,3.84h-7.68c-2.12,0-3.84-1.72-3.84-3.84s1.72-3.84,3.84-3.84Z"/>
      <path class="cls-1" d="M14.07,110.09h7.68c2.12,0,3.84,1.72,3.84,3.84s-1.72,3.84-3.84,3.84h-7.68c-2.12,0-3.84-1.72-3.84-3.84,0-2.12,1.72-3.84,3.84-3.84Z"/>
    </g>
    <g>
      <path class="cls-1" d="M10.23,106.25v-7.68c0-2.12,1.72-3.84,3.84-3.84,2.12,0,3.84,1.72,3.84,3.84v7.68c0,2.12-1.72,3.84-3.84,3.84-2.12,0-3.84-1.72-3.84-3.84Z"/>
      <path class="cls-1" d="M10.23,113.93v-7.68c0-2.12,1.72-3.84,3.84-3.84,2.12,0,3.84,1.72,3.84,3.84v7.68c0,2.12-1.72,3.84-3.84,3.84-2.12,0-3.84-1.72-3.84-3.84Z"/>
    </g>
  </g>
  <g>
    <g>
      <path class="cls-1" d="M38.51,33.08l5.43,5.43c1.5,1.5,1.5,3.93,0,5.43s-3.93,1.5-5.43,0l-5.43-5.43c-1.5-1.5-1.5-3.93,0-5.43s3.93-1.5,5.43,0Z"/>
      <path class="cls-1" d="M33.08,27.65l5.43,5.43c1.5,1.5,1.5,3.93,0,5.43s-3.93,1.5-5.43,0l-5.43-5.43c-1.5-1.5-1.5-3.93,0-5.43,1.5-1.5,3.93-1.5,5.43,0Z"/>
      <path class="cls-1" d="M27.65,22.22l5.43,5.43c1.5,1.5,1.5,3.93,0,5.43-1.5,1.5-3.93,1.5-5.43,0l-5.43-5.43c-1.5-1.5-1.5-3.93,0-5.43s3.93-1.5,5.43,0Z"/>
      <path class="cls-1" d="M22.22,16.79l5.43,5.43c1.5,1.5,1.5,3.93,0,5.43-1.5,1.5-3.93,1.5-5.43,0l-5.43-5.43c-1.5-1.5-1.5-3.93,0-5.43s3.93-1.5,5.43,0Z"/>
      <path class="cls-1" d="M16.79,11.36l5.43,5.43c1.5,1.5,1.5,3.93,0,5.43-1.5,1.5-3.93,1.5-5.43,0l-5.43-5.43c-1.5-1.5-1.5-3.93,0-5.43,1.5-1.5,3.93-1.5,5.43,0Z"/>
    </g>
    <g>
      <path class="cls-1" d="M17.91,21.75v7.68c0,2.12-1.72,3.84-3.84,3.84s-3.84-1.72-3.84-3.84v-7.68c0-2.12,1.72-3.84,3.84-3.84s3.84,1.72,3.84,3.84Z"/>
      <path class="cls-1" d="M17.91,14.07v7.68c0,2.12-1.72,3.84-3.84,3.84-2.12,0-3.84-1.72-3.84-3.84v-7.68c0-2.12,1.72-3.84,3.84-3.84s3.84,1.72,3.84,3.84Z"/>
    </g>
    <g>
      <path class="cls-1" d="M21.75,10.23h7.68c2.12,0,3.84,1.72,3.84,3.84,0,2.12-1.72,3.84-3.84,3.84h-7.68c-2.12,0-3.84-1.72-3.84-3.84s1.72-3.84,3.84-3.84Z"/>
      <path class="cls-1" d="M14.07,10.23h7.68c2.12,0,3.84,1.72,3.84,3.84s-1.72,3.84-3.84,3.84h-7.68c-2.12,0-3.84-1.72-3.84-3.84,0-2.12,1.72-3.84,3.84-3.84Z"/>
    </g>
  </g>
  <g>
    <g>
      <path class="cls-1" d="M94.92,38.51l-5.43,5.43c-1.5,1.5-3.93,1.5-5.43,0s-1.5-3.93,0-5.43l5.43-5.43c1.5-1.5,3.93-1.5,5.43,0s1.5,3.93,0,5.43Z"/>
      <path class="cls-1" d="M100.35,33.08l-5.43,5.43c-1.5,1.5-3.93,1.5-5.43,0-1.5-1.5-1.5-3.93,0-5.43l5.43-5.43c1.5-1.5,3.93-1.5,5.43,0s1.5,3.93,0,5.43Z"/>
      <path class="cls-1" d="M105.78,27.65l-5.43,5.43c-1.5,1.5-3.93,1.5-5.43,0-1.5-1.5-1.5-3.93,0-5.43l5.43-5.43c1.5-1.5,3.93-1.5,5.43,0,1.5,1.5,1.5,3.93,0,5.43Z"/>
      <path class="cls-1" d="M111.21,22.22l-5.43,5.43c-1.5,1.5-3.93,1.5-5.43,0-1.5-1.5-1.5-3.93,0-5.43l5.43-5.43c1.5-1.5,3.93-1.5,5.43,0,1.5,1.5,1.5,3.93,0,5.43Z"/>
      <path class="cls-1" d="M116.64,16.79l-5.43,5.43c-1.5,1.5-3.93,1.5-5.43,0s-1.5-3.93,0-5.43l5.43-5.43c1.5-1.5,3.93-1.5,5.43,0,1.5,1.5,1.5,3.93,0,5.43Z"/>
    </g>
    <g>
      <path class="cls-1" d="M106.25,17.91h-7.68c-2.12,0-3.84-1.72-3.84-3.84s1.72-3.84,3.84-3.84h7.68c2.12,0,3.84,1.72,3.84,3.84s-1.72,3.84-3.84,3.84Z"/>
      <path class="cls-1" d="M113.93,17.91h-7.68c-2.12,0-3.84-1.72-3.84-3.84s1.72-3.84,3.84-3.84h7.68c2.12,0,3.84,1.72,3.84,3.84,0,2.12-1.72,3.84-3.84,3.84Z"/>
    </g>
    <g>
      <path class="cls-1" d="M117.77,21.75v7.68c0,2.12-1.72,3.84-3.84,3.84-2.12,0-3.84-1.72-3.84-3.84v-7.68c0-2.12,1.72-3.84,3.84-3.84,2.12,0,3.84,1.72,3.84,3.84Z"/>
      <path class="cls-1" d="M117.77,14.07v7.68c0,2.12-1.72,3.84-3.84,3.84-2.12,0-3.84-1.72-3.84-3.84v-7.68c0-2.12,1.72-3.84,3.84-3.84,2.12,0,3.84,1.72,3.84,3.84Z"/>
    </g>
  </g>
  <g>
    <g>
      <path class="cls-1" d="M89.49,94.92l-5.43-5.43c-1.5-1.5-1.5-3.93,0-5.43,1.5-1.5,3.93-1.5,5.43,0l5.43,5.43c1.5,1.5,1.5,3.93,0,5.43-1.5,1.5-3.93,1.5-5.43,0Z"/>
      <path class="cls-1" d="M94.92,100.35l-5.43-5.43c-1.5-1.5-1.5-3.93,0-5.43,1.5-1.5,3.93-1.5,5.43,0l5.43,5.43c1.5,1.5,1.5,3.93,0,5.43s-3.93,1.5-5.43,0Z"/>
      <path class="cls-1" d="M100.35,105.78l-5.43-5.43c-1.5-1.5-1.5-3.93,0-5.43,1.5-1.5,3.93-1.5,5.43,0l5.43,5.43c1.5,1.5,1.5,3.93,0,5.43-1.5,1.5-3.93,1.5-5.43,0Z"/>
      <path class="cls-1" d="M105.78,111.21l-5.43-5.43c-1.5-1.5-1.5-3.93,0-5.43s3.93-1.5,5.43,0l5.43,5.43c1.5,1.5,1.5,3.93,0,5.43-1.5,1.5-3.93,1.5-5.43,0Z"/>
      <path class="cls-1" d="M111.21,116.64l-5.43-5.43c-1.5-1.5-1.5-3.93,0-5.43s3.93-1.5,5.43,0l5.43,5.43c1.5,1.5,1.5,3.93,0,5.43-1.5,1.5-3.93,1.5-5.43,0Z"/>
    </g>
    <g>
      <path class="cls-1" d="M110.09,106.25v-7.68c0-2.12,1.72-3.84,3.84-3.84,2.12,0,3.84,1.72,3.84,3.84v7.68c0,2.12-1.72,3.84-3.84,3.84-2.12,0-3.84-1.72-3.84-3.84Z"/>
      <path class="cls-1" d="M110.09,113.93v-7.68c0-2.12,1.72-3.84,3.84-3.84,2.12,0,3.84,1.72,3.84,3.84v7.68c0,2.12-1.72,3.84-3.84,3.84-2.12,0-3.84-1.72-3.84-3.84Z"/>
    </g>
    <g>
      <path class="cls-1" d="M106.25,117.77h-7.68c-2.12,0-3.84-1.72-3.84-3.84,0-2.12,1.72-3.84,3.84-3.84h7.68c2.12,0,3.84,1.72,3.84,3.84,0,2.12-1.72,3.84-3.84,3.84Z"/>
      <path class="cls-1" d="M113.93,117.77h-7.68c-2.12,0-3.84-1.72-3.84-3.84s1.72-3.84,3.84-3.84h7.68c2.12,0,3.84,1.72,3.84,3.84,0,2.12-1.72,3.84-3.84,3.84Z"/>
    </g>
  </g>
  <circle class="cls-1" cx="64" cy="64" r="20.69"/>
</svg>