<?xml version="1.0" encoding="UTF-8"?>
<svg id="Layer_1" data-name="Layer 1" xmlns="http://www.w3.org/2000/svg" viewBox="0 0 128 128">
  <defs>
    <style>
      .cls-1 {
        fill: #ba64f2;
      }
    </style>
  </defs>
  <path class="cls-1" d="M96.83,83.5l-.05-.05c-1.03-1.03-1.39-2.54-.93-3.92,3.91-11.66,1.22-25.05-8.07-34.34-2.64-2.64-5.61-4.74-8.77-6.32-1.3-.64-2.11-1.98-2.11-3.43v-.06c0-3.28-1.25-6.55-3.74-9.04-4.99-5-13.09-5-18.09,0-2.5,2.5-3.74,5.77-3.74,9.04v.06c0,1.45-.81,2.78-2.11,3.43-3.17,1.57-6.14,3.68-8.77,6.32-9.29,9.29-11.98,22.68-8.07,34.34.46,1.38.1,2.89-.93,3.92l-.05.05c-2.41,2.41-3.86,5.77-3.74,9.46.21,6.7,5.67,12.15,12.36,12.36,3.7.12,7.06-1.33,9.46-3.74l.05-.05c1.02-1.02,2.54-1.39,3.91-.93,3.46,1.16,7.07,1.74,10.68,1.74s7.22-.58,10.68-1.74c1.37-.46,2.88-.09,3.91.93l.05.05c2.41,2.41,5.77,3.86,9.46,3.74,6.7-.21,12.15-5.67,12.37-12.36.12-3.7-1.33-7.06-3.74-9.46ZM84.99,71.66c-.49,3.76-1.99,7.29-4.35,10.27-.51.64-1.05,1.25-1.63,1.83-.58.58-1.19,1.13-1.83,1.63-2.98,2.36-6.51,3.86-10.27,4.35-.92.12-1.85.18-2.79.18s-1.87-.06-2.79-.18c-3.76-.49-7.29-1.99-10.27-4.35-.64-.51-1.25-1.05-1.83-1.63-.58-.58-1.13-1.19-1.63-1.83-2.36-2.98-3.86-6.51-4.35-10.27-.12-.92-.18-1.85-.18-2.79,0-5.63,2.19-10.92,6.17-14.9.67-.67,1.37-1.28,2.11-1.85,3.01-2.31,6.57-3.75,10.35-4.18h0c.8-.09,1.62-.14,2.44-.14s1.63.05,2.44.14h0c3.78.43,7.33,1.87,10.34,4.18.74.56,1.44,1.18,2.11,1.85,3.98,3.98,6.17,9.27,6.17,14.9,0,.94-.06,1.87-.18,2.79Z"/>
  <path class="cls-1" d="M92.23,31.14c-.9-5.88-3.63-11.3-7.92-15.58-5.31-5.31-12.38-8.24-19.9-8.24s-14.59,2.93-19.9,8.24c-4.28,4.28-7.02,9.7-7.92,15.58-.35,2.27,1.39,4.32,3.68,4.32h0c1.85,0,3.4-1.35,3.69-3.17.65-4.19,2.59-8.23,5.82-11.46,4.04-4.04,9.34-6.06,14.63-6.06s10.59,2.02,14.63,6.06c3.23,3.23,5.17,7.27,5.82,11.46.28,1.82,1.84,3.17,3.69,3.17,2.09,0,3.72-1.71,3.72-3.74,0-.19-.01-.38-.04-.58Z"/>
  <path class="cls-1" d="M57.5,109.61c-1.29-1.29-3.34-1.47-4.82-.38-3.63,2.67-7.94,4.01-12.25,4.01-5.3,0-10.59-2.02-14.63-6.06-7.33-7.33-8.01-18.78-2.05-26.88,1.08-1.47.91-3.52-.38-4.82h0c-1.62-1.62-4.29-1.4-5.65.44-3.58,4.87-5.49,10.74-5.42,16.91.07,7.25,2.97,14.24,8.05,19.42,5.34,5.44,12.49,8.44,20.1,8.44,6.06,0,11.82-1.9,16.62-5.42,1.85-1.36,2.07-4.03.45-5.66h0Z"/>
  <path class="cls-1" d="M104.72,75.61h0c-1.29,1.29-1.47,3.33-.4,4.8,5.87,8.09,5.16,19.47-2.13,26.77-4.04,4.04-9.34,6.06-14.63,6.06-4.26,0-8.53-1.31-12.13-3.93-1.47-1.07-3.51-.89-4.8.39h0c-1.63,1.63-1.4,4.31.46,5.66,4.76,3.45,10.48,5.32,16.47,5.32,7.52,0,14.59-2.93,19.9-8.24,5.32-5.32,8.24-12.38,8.24-19.9,0-6-1.86-11.71-5.32-16.47-1.35-1.86-4.04-2.09-5.66-.46Z"/>
  <path class="cls-1" d="M64.11,78.24h-8.11c-2.96,0-4.8-3.2-3.32-5.76l4.06-7.03,4.06-7.03c1.48-2.56,5.17-2.56,6.65,0l4.06,7.03,4.06,7.03c1.48,2.56-.37,5.76-3.32,5.76h-8.11Z"/>
</svg>