<?xml version="1.0" encoding="UTF-8"?>
<svg id="Layer_1" data-name="Layer 1" xmlns="http://www.w3.org/2000/svg" viewBox="0 0 128 128">
  <defs>
    <style>
      .cls-1 {
        fill: #e1e1e0;
      }
    </style>
  </defs>
  <path class="cls-1" d="M124.76,64.24c-.13,18.11-14.83,32.95-32.93,33.24-6.59.11-12.74-1.69-17.96-4.87-2.81-1.72-3.79-5.33-2.21-8.22l.06-.1c1.7-3.1,5.64-4.1,8.66-2.26,3.18,1.93,6.91,3.05,10.9,3.05,11.99,0,21.67-10.07,21.04-22.19-.58-11.02-9.73-19.79-20.76-19.93-6.49-.09-12.33,2.78-16.25,7.35-3.17,3.69-5.09,8.48-5.09,13.72,0,7.24-2.3,13.95-6.21,19.43-1.48,2.07-3.18,3.96-5.08,5.65-5.91,5.23-13.68,8.41-22.19,8.41-18.57,0-33.61-15.12-33.48-33.72.13-18.11,14.83-32.95,32.93-33.24,6.59-.11,12.74,1.69,17.96,4.87,2.81,1.72,3.79,5.33,2.21,8.22l-.06.1c-1.7,3.1-5.64,4.1-8.66,2.26-3.18-1.93-6.91-3.05-10.9-3.05-11.99,0-21.67,10.07-21.04,22.19.58,11.01,9.73,19.79,20.75,19.93,6.49.09,12.33-2.78,16.26-7.35,3.17-3.69,5.09-8.48,5.09-13.72,0-7.24,2.3-13.95,6.21-19.43,1.48-2.07,3.18-3.96,5.08-5.65,5.91-5.23,13.68-8.41,22.19-8.41,18.57,0,33.61,15.12,33.48,33.72Z"/>
</svg>