<?xml version="1.0" encoding="UTF-8"?>
<svg id="Layer_1" data-name="Layer 1" xmlns="http://www.w3.org/2000/svg" viewBox="0 0 128 128">
  <defs>
    <style>
      .cls-1 {
        fill: #61d1fa;
      }
    </style>
  </defs>
  <path class="cls-1" d="M117.88,74.88l-5.07-1.18c-2.25-.52-4.18-1.79-5.54-3.51-1.36-1.72-2.16-3.88-2.16-6.19,0-4.63,3.19-8.65,7.7-9.7l5.07-1.18c3.96-.92,6.28-5.05,4.98-8.91-.91-2.71-2-5.33-3.26-7.86-1.81-3.63-6.36-4.9-9.81-2.76l-4.42,2.75c-3.93,2.45-9.03,1.86-12.3-1.41h0c-3.27-3.27-3.86-8.37-1.41-12.3l2.75-4.42c2.14-3.44.87-8-2.76-9.81-2.53-1.26-5.15-2.35-7.86-3.26-3.85-1.29-7.99,1.02-8.91,4.98l-1.18,5.07c-.52,2.25-1.79,4.18-3.51,5.54-1.72,1.36-3.88,2.16-6.19,2.16-4.63,0-8.65-3.19-9.7-7.7l-1.18-5.07c-.92-3.96-5.05-6.28-8.91-4.98-2.71.91-5.33,2-7.86,3.26-3.63,1.81-4.9,6.36-2.76,9.81l2.75,4.42c2.44,3.93,1.86,9.03-1.41,12.3h0c-3.27,3.27-8.37,3.86-12.3,1.42l-4.42-2.75c-3.44-2.14-8-.87-9.81,2.76-1.26,2.53-2.35,5.15-3.26,7.86-1.29,3.85,1.02,7.99,4.98,8.91l5.07,1.18c2.25.52,4.18,1.79,5.54,3.51,1.36,1.72,2.16,3.88,2.16,6.19,0,4.63-3.19,8.65-7.7,9.7l-5.07,1.18c-3.96.92-6.28,5.05-4.98,8.91.91,2.71,2,5.33,3.26,7.86,1.81,3.63,6.36,4.9,9.81,2.76l4.42-2.75c3.93-2.45,9.03-1.86,12.3,1.41h0c3.27,3.27,3.86,8.37,1.41,12.3l-2.75,4.42c-2.14,3.44-.87,8,2.76,9.81,2.53,1.26,5.15,2.35,7.86,3.26,3.85,1.29,7.99-1.02,8.91-4.98l1.18-5.07c.52-2.25,1.79-4.18,3.51-5.54,1.72-1.36,3.88-2.16,6.19-2.16,4.63,0,8.65,3.19,9.7,7.7l1.18,5.07c.92,3.96,5.05,6.28,8.91,4.98,2.71-.91,5.33-2,7.86-3.26,3.63-1.81,4.9-6.36,2.76-9.81l-2.75-4.42c-2.44-3.93-1.86-9.03,1.41-12.3h0c3.27-3.27,8.37-3.86,12.3-1.42l4.42,2.75c3.44,2.14,8,.87,9.81-2.76,1.26-2.53,2.35-5.15,3.26-7.86,1.29-3.85-1.02-7.99-4.98-8.91ZM64,97.48c-5.15,0-10.11-1.15-14.61-3.34-2.32-1.12-4.51-2.52-6.54-4.18-.87-.71-1.72-1.48-2.53-2.28-6.32-6.32-9.81-14.73-9.81-23.67s3.48-17.35,9.81-23.67c.81-.81,1.65-1.57,2.53-2.28,2.03-1.66,4.22-3.06,6.54-4.18,4.49-2.19,9.46-3.34,14.61-3.34,8.94,0,17.35,3.48,23.67,9.81,6.32,6.32,9.81,14.73,9.81,23.67s-3.48,17.35-9.81,23.67c-6.32,6.32-14.73,9.81-23.67,9.81Z"/>
  <path class="cls-1" d="M64,23.07c-7.74,0-14.98,2.15-21.15,5.88-2.34,1.42-4.53,3.06-6.54,4.91-8.14,7.48-13.24,18.21-13.24,30.14s5.1,22.66,13.24,30.14c2.01,1.85,4.2,3.49,6.54,4.91,6.17,3.73,13.41,5.88,21.15,5.88,22.6,0,40.93-18.33,40.93-40.93s-18.33-40.93-40.93-40.93ZM87.67,87.67c-6.32,6.32-14.73,9.81-23.67,9.81-5.15,0-10.11-1.15-14.61-3.34-2.32-1.12-4.51-2.52-6.54-4.18-.87-.71-1.72-1.48-2.53-2.28-6.32-6.32-9.81-14.73-9.81-23.67s3.48-17.35,9.81-23.67c.81-.81,1.65-1.57,2.53-2.28,2.03-1.66,4.22-3.06,6.54-4.18,4.49-2.19,9.46-3.34,14.61-3.34,8.94,0,17.35,3.48,23.67,9.81,6.32,6.32,9.81,14.73,9.81,23.67s-3.48,17.35-9.81,23.67Z"/>
  <path class="cls-1" d="M55.24,40.26s-.1.04-.15.06c-.58.21-1.14.45-1.7.71-2.35,1.09-2.91,4.19-1.07,6.02h0c1.11,1.11,2.8,1.4,4.23.74.42-.19.84-.37,1.28-.53.36-.13.69-.32.99-.55.91-.69,1.47-1.77,1.47-2.95h0c0-2.6-2.6-4.4-5.04-3.49ZM47.05,52.32h0c-1.82-1.83-4.92-1.31-6,1.03-1.5,3.24-2.34,6.84-2.34,10.65,0,3.06.54,5.99,1.54,8.7.79,2.16,3.36,3.07,5.35,1.92,1.18-.68,1.87-1.92,1.87-3.22,0-.42-.07-.84-.22-1.25-.71-1.92-1.09-4-1.09-6.16,0-2.67.59-5.2,1.64-7.47.66-1.42.37-3.1-.74-4.21Z"/>
</svg>