<?xml version="1.0" encoding="UTF-8"?>
<svg id="Layer_1" data-name="Layer 1" xmlns="http://www.w3.org/2000/svg" viewBox="0 0 128 128">
  <defs>
    <style>
      .cls-1 {
        fill: #61d1fa;
      }
    </style>
  </defs>
  <path class="cls-1" d="M18.9,22.7h0c.35,5.18,5.42,8.69,10.39,7.19l32.7-9.91c1.3-.4,2.7-.4,4,0l32.72,9.92c4.96,1.5,10.03-2,10.37-7.17v-.03c.25-3.74-2.11-7.16-5.7-8.24L66,3.11c-1.3-.4-2.7-.4-4,0L24.61,14.44c-3.59,1.09-5.96,4.51-5.71,8.26Z"/>
  <path class="cls-1" d="M20.65,48.94h0c.35,5.18,5.42,8.69,10.39,7.19l30.96-9.38c1.3-.39,2.69-.4,4,0l30.99,9.36c4.96,1.5,10.02-2.01,10.37-7.17h0c.25-3.74-2.11-7.16-5.7-8.24l-35.65-10.8c-1.3-.4-2.7-.4-4,0l-35.64,10.8c-3.59,1.09-5.96,4.51-5.71,8.26Z"/>
  <path class="cls-1" d="M66,56.65l33.9,10.27c3.59,1.09,5.95,4.5,5.7,8.24l-1.37,20.58c-.14,2.1-1.23,4.02-2.97,5.22l-33.35,23c-2.36,1.63-5.48,1.63-7.83,0l-33.35-23c-1.73-1.2-2.83-3.12-2.97-5.22l-1.37-20.57c-.25-3.75,2.12-7.17,5.71-8.26l33.89-10.27c1.3-.4,2.7-.4,4,0Z"/>
</svg>