<?xml version="1.0" encoding="UTF-8"?>
<svg id="Layer_1" data-name="Layer 1" xmlns="http://www.w3.org/2000/svg" viewBox="0 0 128 128">
  <defs>
    <style>
      .cls-1 {
        fill: #ba64f2;
      }

      .cls-2 {
        fill: #59eb5c;
      }
    </style>
  </defs>
  <g>
    <path class="cls-2" d="M33.83,39.04l-6.21,6.21h-9.45c-2.12,0-3.84,1.72-3.84,3.84v33.51c0,3.48-2.85,6.41-6.32,6.35-3.37-.06-6.09-2.82-6.09-6.21v-43.69c0-3.43,2.78-6.21,6.21-6.21h19.5l6.21,6.21Z"/>
    <path class="cls-2" d="M48.81,39.04c0,.1,0,.2,0,.3,0,.05,0,.1,0,.15,0,.06,0,.13-.01.19,0,.09-.02.18-.03.27,0,.07-.02.14-.03.2,0,.07-.02.15-.04.22-.01.07-.03.14-.05.21-.02.08-.04.17-.07.25-.01.06-.03.12-.06.18-.01.05-.03.09-.05.14-.03.09-.06.17-.1.26-.02.06-.04.11-.07.17-.02.05-.04.1-.07.14,0,.01-.01.03-.02.05-.04.08-.08.16-.12.23,0,0,0,.01-.01.02-.04.08-.08.15-.13.23-.01.02-.03.05-.04.07-.03.06-.07.12-.11.18-.01.02-.02.04-.04.06-.04.07-.09.14-.14.2-.17.24-.37.46-.58.68-.21.21-.44.41-.68.58-.06.05-.13.1-.2.14-.02.01-.04.03-.06.04-.06.04-.12.08-.18.11-.02.02-.05.03-.07.04-.07.05-.15.09-.23.13,0,0-.01,0-.02.01-.08.04-.15.08-.23.12-.01,0-.03.02-.05.02-.05.02-.09.05-.14.07-.05.03-.11.05-.17.07-.08.04-.17.07-.26.1-.05.02-.09.03-.14.05-.06.02-.12.04-.18.06-.08.03-.16.05-.25.07-.07.02-.14.03-.21.05-.07.02-.15.03-.22.04-.07.01-.14.03-.2.03-.09.01-.18.02-.27.03-.06,0-.13.01-.19.01-.05,0-.1,0-.15,0-.1,0-.2,0-.3,0h-14.98l6.21-6.21-6.21-6.21h14.98c.1,0,.2,0,.3,0,.05,0,.1,0,.15,0,.06,0,.13,0,.19.01.09,0,.18.02.27.03.07,0,.14.02.2.03.07,0,.15.02.22.04.07.01.14.03.21.05.08.02.17.04.25.07.06.01.12.03.18.06.05.01.09.03.14.05.09.03.18.06.26.1.06.02.11.04.17.07.05.02.1.04.14.07.02,0,.03.01.05.02.08.04.16.08.23.12,0,0,.01,0,.02.01.08.04.15.08.23.13.02.01.05.03.07.04.06.03.12.07.18.11.02.01.04.02.06.04.07.04.14.09.2.14.24.17.46.37.68.58l.58.68c.05.06.1.13.14.2l.04.06c.04.06.08.12.11.18l.04.07c.05.07.09.15.13.23v.02c.05.08.09.15.13.23l.02.05s.05.09.07.14c.03.05.05.11.07.17l.1.26s.03.09.05.14c.02.06.04.12.06.18l.07.25c.02.07.03.14.05.21l.04.22c.01.07.03.14.03.2l.03.27c0,.06.01.13.01.19,0,.05,0,.1,0,.15,0,.1,0,.2,0,.3Z"/>
    <path class="cls-2" d="M48.81,39.04c0,.1,0,.2,0,.3,0,.05,0,.1,0,.15,0,.06,0,.13-.01.19,0,.09-.02.18-.03.27,0,.07-.02.14-.03.2,0,.07-.02.15-.04.22-.01.07-.03.14-.05.21-.02.08-.04.17-.07.25-.01.06-.03.12-.06.18-.01.05-.03.09-.05.14-.03.09-.06.17-.1.26-.02.06-.04.11-.07.17-.02.05-.04.1-.07.14,0,.01-.01.03-.02.05-.04.08-.08.16-.12.23,0,0,0,.01-.01.02-.04.08-.08.15-.13.23-.01.02-.03.05-.04.07-.03.06-.07.12-.11.18-.01.02-.02.04-.04.06-.04.07-.09.14-.14.2-.17.24-.37.46-.58.68-.21.21-.44.41-.68.58-.06.05-.13.1-.2.14-.02.01-.04.03-.06.04-.06.04-.12.08-.18.11-.02.02-.05.03-.07.04-.07.05-.15.09-.23.13,0,0-.01,0-.02.01-.08.04-.15.08-.23.12-.01,0-.03.02-.05.02-.05.02-.09.05-.14.07-.05.03-.11.05-.17.07-.08.04-.17.07-.26.1-.05.02-.09.03-.14.05-.06.02-.12.04-.18.06-.08.03-.16.05-.25.07-.07.02-.14.03-.21.05-.07.02-.15.03-.22.04-.07.01-.14.03-.2.03-.09.01-.18.02-.27.03-.06,0-.13.01-.19.01-.05,0-.1,0-.15,0-.1,0-.2,0-.3,0-1.59,0-3.18-.61-4.39-1.82l-4.39-4.39-8.5-8.5c-2.42-2.42-2.42-6.35,0-8.78,1.21-1.21,2.8-1.82,4.39-1.82s3.18.61,4.39,1.82l12.88,12.88.58.68c.05.06.1.13.14.2l.04.06c.04.06.08.12.11.18l.04.07c.05.07.09.15.13.23v.02c.05.08.09.15.13.23l.02.05s.05.09.07.14c.03.05.05.11.07.17l.1.26s.03.09.05.14c.02.06.04.12.06.18l.07.25c.02.07.03.14.05.21l.04.22c.01.07.03.14.03.2l.03.27c0,.06.01.13.01.19,0,.05,0,.1,0,.15,0,.1,0,.2,0,.3Z"/>
    <path class="cls-2" d="M48.81,39.04c0,.1,0,.2,0,.3,0,.05,0,.1,0,.15,0,.06,0,.13-.01.19,0,.09-.02.18-.03.27,0,.07-.02.14-.03.2,0,.07-.02.15-.04.22-.01.07-.03.14-.05.21-.02.08-.04.17-.07.25-.01.06-.03.12-.06.18-.01.05-.03.09-.05.14-.03.09-.06.17-.1.26-.02.06-.04.11-.07.17-.02.05-.04.1-.07.14,0,.01-.01.03-.02.05-.04.08-.08.16-.12.23,0,0,0,.01-.01.02-.04.08-.08.15-.13.23-.01.02-.03.05-.04.07-.03.06-.07.12-.11.18-.01.02-.02.04-.04.06-.04.07-.09.14-.14.2-.17.24-.37.46-.58.68l-12.88,12.88c-2.43,2.43-6.36,2.43-8.78,0-2.42-2.42-2.42-6.35,0-8.78l12.88-12.88c1.21-1.21,2.8-1.82,4.39-1.82.1,0,.2,0,.3,0,.05,0,.1,0,.15,0,.06,0,.13,0,.19.01.09,0,.18.02.27.03.07,0,.14.02.2.03.07,0,.15.02.22.04.07.01.14.03.21.05.08.02.17.04.25.07.06.01.12.03.18.06.05.01.09.03.14.05.09.03.18.06.26.1.06.02.11.04.17.07.05.02.1.04.14.07.02,0,.03.01.05.02.08.04.16.08.23.12,0,0,.01,0,.02.01.08.04.15.08.23.13.02.01.05.03.07.04.06.03.12.07.18.11.02.01.04.02.06.04.07.04.14.09.2.14.24.17.46.37.68.58l.58.68c.05.06.1.13.14.2l.04.06c.04.06.08.12.11.18l.04.07c.05.07.09.15.13.23v.02c.05.08.09.15.13.23l.02.05s.05.09.07.14c.03.05.05.11.07.17l.1.26s.03.09.05.14c.02.06.04.12.06.18l.07.25c.02.07.03.14.05.21l.04.22c.01.07.03.14.03.2l.03.27c0,.06.01.13.01.19,0,.05,0,.1,0,.15,0,.1,0,.2,0,.3Z"/>
  </g>
  <path class="cls-1" d="M108.56,42.67c1.03,0,1.96-.42,2.63-1.09.73-.73,1.16-1.76,1.08-2.9-.14-1.97-1.84-3.46-3.81-3.46h-49.03c-2.06.01-3.72-1.66-3.72-3.71h0c0-2.06,1.67-3.72,3.72-3.72h55.49c6.16,0,11.16,5,11.16,11.16h0c0,6.16-5,11.16-11.16,11.16h-55.49c-2.06,0-3.72-1.67-3.72-3.72h0c0-2.06,1.67-3.72,3.72-3.72h49.13Z"/>
  <g>
    <rect class="cls-2" x="76.73" y="82.18" width="49.06" height="13.79" rx="6.9" ry="6.9"/>
    <rect class="cls-2" x="76.73" y="82.18" width="49.06" height="13.79" rx="6.9" ry="6.9" transform="translate(190.33 -12.18) rotate(90)"/>
  </g>
</svg>