<?xml version="1.0" encoding="UTF-8"?>
<svg id="Layer_1" data-name="Layer 1" xmlns="http://www.w3.org/2000/svg" viewBox="0 0 128 128">
  <defs>
    <style>
      .cls-1 {
        fill: #f66d74;
      }
    </style>
  </defs>
  <path class="cls-1" d="M64.01,63.84c2.39,0,4.34,1.95,4.34,4.34v25.57c0,2.39-1.95,4.34-4.34,4.34s-4.34-1.95-4.34-4.34v-25.57c0-2.39,1.95-4.34,4.34-4.34M64.01,55.4c-7.06,0-12.78,5.72-12.78,12.78v25.57c0,7.06,5.72,12.78,12.78,12.78s12.78-5.72,12.78-12.78v-25.57c0-7.06-5.72-12.78-12.78-12.78h0Z"/>
  <path class="cls-1" d="M89.22,93.75c2.63,0,4.64,2.35,4.21,4.94-2.35,14.12-14.63,24.89-29.42,24.89s-27.07-10.77-29.42-24.89c-.43-2.59,1.58-4.94,4.21-4.94h0c2.08,0,3.86,1.5,4.2,3.55,1.69,10.08,10.45,17.76,21.01,17.76s19.32-7.68,21.01-17.76c.34-2.05,2.12-3.55,4.2-3.55h0Z"/>
  <g>
    <rect class="cls-1" x="42.99" y="28.51" width="42.02" height="8.45" rx="4.22" ry="4.22" transform="translate(-4.4 54.84) rotate(-45)"/>
    <rect class="cls-1" x="59.78" y="11.72" width="8.45" height="42.02" rx="4.22" ry="4.22" transform="translate(-4.4 54.84) rotate(-45)"/>
  </g>
</svg>