<?xml version="1.0" encoding="UTF-8"?>
<svg id="Layer_1" data-name="Layer 1" xmlns="http://www.w3.org/2000/svg" viewBox="0 0 128 128">
  <defs>
    <style>
      .cls-1 {
        fill: #e69e50;
      }
    </style>
  </defs>
  <g>
    <rect class="cls-1" x="44.03" y="24.19" width="41.06" height="7.68" rx="3.84" ry="3.84" transform="translate(36.52 92.59) rotate(-90)"/>
    <g>
      <rect class="cls-1" x="58.2" y="7.98" width="24.83" height="7.68" rx="3.84" ry="3.84" transform="translate(112.19 70.12) rotate(-135)"/>
      <rect class="cls-1" x="46.07" y="7.98" width="24.83" height="7.68" rx="3.84" ry="3.84" transform="translate(108.21 -21.17) rotate(135)"/>
    </g>
    <line class="cls-1" x1="73.29" y1="11.68" x2="55.82" y2="11.97"/>
  </g>
  <path class="cls-1" d="M75.43,113.66h-22.86c-1.36,0-2.61-.72-3.3-1.88l-22.12-37.33c-1.52-2.56.33-5.8,3.3-5.8h67.11c2.97,0,4.82,3.24,3.3,5.8l-22.12,37.33c-.69,1.17-1.95,1.88-3.3,1.88ZM8.09,66.66l33.21,56.04c1.24,2.1,3.5,3.38,5.93,3.38h33.53c2.44,0,4.69-1.29,5.93-3.38l33.21-56.04c2.72-4.6-.59-10.42-5.93-10.42H14.03c-5.35,0-8.66,5.82-5.93,10.42Z"/>
</svg>