<?xml version="1.0" encoding="UTF-8"?>
<svg id="Layer_1" data-name="Layer 1" xmlns="http://www.w3.org/2000/svg" viewBox="0 0 128 128">
  <defs>
    <style>
      .cls-1 {
        fill: #e1e1e0;
      }

      .cls-2 {
        fill: #59eb5c;
      }
    </style>
  </defs>
  <g>
    <g>
      <path class="cls-2" d="M10.53,50.26c-.04.07-.08.15-.11.22,0-.02.02-.05.03-.07.02-.05.05-.1.08-.15Z"/>
      <path class="cls-2" d="M12.07,48.17l-.05.05h0s.03-.03.05-.05Z"/>
      <path class="cls-2" d="M12.33,47.93c-.07.06-.14.13-.21.2-.02.01-.03.03-.05.05.03-.03.07-.07.1-.1.05-.05.1-.1.15-.14Z"/>
      <path class="cls-2" d="M24.02,48.53s-.05-.05-.07-.08l.02.02.03.03s.02.02.02.03Z"/>
      <path class="cls-2" d="M24.65,49.32s0,0,0,0c-.03-.05-.06-.09-.09-.14.03.04.07.09.1.13Z"/>
    </g>
    <g>
      <path class="cls-2" d="M9.68,52.89l-.07.83c0-.28.03-.55.07-.83Z"/>
      <path class="cls-2" d="M22.08,46.94c.24.14.46.29.69.45-.22-.16-.45-.32-.69-.45Z"/>
      <path class="cls-2" d="M24.02,48.53s-.05-.05-.07-.08l.02.02.03.03s.02.02.02.03Z"/>
      <path class="cls-2" d="M24.65,49.32s0,0,0,0c-.03-.05-.06-.09-.09-.14.03.04.07.09.1.13Z"/>
      <path class="cls-2" d="M12.33,47.93c-.07.06-.14.13-.21.2l.05-.05s.1-.1.15-.14Z"/>
      <path class="cls-2" d="M22.08,46.94c.24.14.46.29.69.45-.22-.16-.45-.32-.69-.45Z"/>
      <path class="cls-2" d="M24.02,48.53s-.05-.05-.07-.08l.02.02.03.03s.02.02.02.03Z"/>
      <path class="cls-2" d="M24.65,49.32s0,0,0,0c-.03-.05-.06-.09-.09-.14.03.04.07.09.1.13Z"/>
    </g>
  </g>
  <path class="cls-1" d="M9.6,51.91v48.33c0,3.81,3.09,6.9,6.9,6.9h32.91c4.57,0,8.28-3.71,8.28-8.28h0c0-4.57-3.71-8.28-8.28-8.28h-19.41c-2.12,0-3.84-1.72-3.84-3.84v-22.72c0-2.12,1.72-3.84,3.84-3.84h60.13s-8.5,8.5-8.5,8.5c-.03.03-.07.06-.1.1-3.23,3.23-3.23,8.48,0,11.71,1.31,1.31,2.95,2.09,4.66,2.34h0l.84.07c2.23.09,4.49-.71,6.2-2.42.03-.03.07-.07.1-.1l22.52-22.52s.02-.01.02-.02c.03-.03.07-.06.1-.1,1.71-1.71,2.51-3.98,2.42-6.21l-.07-.83c-.02-.13-.04-.26-.07-.38-.02-.1-.04-.19-.06-.29-.01-.08-.03-.16-.06-.23,0-.04-.02-.08-.03-.11-.02-.07-.04-.13-.06-.2-.02-.06-.04-.13-.06-.19-.05-.16-.11-.32-.17-.47-.04-.1-.08-.2-.13-.3-.03-.07-.07-.15-.1-.22-.03-.07-.07-.15-.11-.22,0-.02-.01-.03-.02-.05-.06-.11-.12-.22-.18-.33,0,0,0-.01-.01-.02-.07-.12-.14-.23-.22-.35-.07-.11-.15-.23-.24-.34-.08-.1-.16-.21-.24-.31,0-.01-.02-.03-.03-.04-.08-.1-.17-.2-.26-.3-.09-.1-.19-.21-.29-.31l-.05-.05s-.03-.03-.05-.05c-.07-.07-.14-.13-.21-.2.05.05.1.09.15.14l-22.45-22.45c-.05-.05-.1-.1-.15-.15-3.23-3.23-8.48-3.23-11.71,0-1.31,1.31-2.09,2.96-2.34,4.66h0s-.08.85-.08.85c-.09,2.23.72,4.49,2.42,6.19.03.03.06.06.09.08l8.56,8.56H17.88c-4.57,0-8.28,3.71-8.28,8.28Z"/>
</svg>