<?xml version="1.0" encoding="UTF-8"?>
<svg id="Layer_1" data-name="Layer 1" xmlns="http://www.w3.org/2000/svg" viewBox="0 0 128 128">
  <defs>
    <style>
      .cls-1 {
        fill: #e1e1e0;
      }
    </style>
  </defs>
  <g>
    <path class="cls-1" d="M50.41,23.21c-1.11-.09-2.23-.14-3.37-.14-1.38,0-2.75.07-4.1.2-2.79.28-5.49.83-8.08,1.64.24,2.51.75,4.97,1.53,7.33,2.61-.87,5.33-1.42,8.12-1.63.83-.06,1.68-.09,2.53-.09,1.42,0,2.83.09,4.21.26,2.2.28,4.36.76,6.44,1.46.78-2.36,1.3-4.81,1.53-7.33-2.82-.88-5.77-1.46-8.81-1.71ZM87.51,57.8c-.39-2.59-1.03-5.09-1.88-7.5-3.42-9.64-10.36-17.62-19.26-22.4-2.26-1.21-4.65-2.22-7.13-2.99-2.82-.88-5.77-1.46-8.81-1.71-1.11-.09-2.23-.14-3.37-.14-1.38,0-2.75.07-4.1.2-2.79.28-5.49.83-8.08,1.64-2.49.77-4.87,1.78-7.13,2.99-8.91,4.78-15.84,12.76-19.27,22.4-.85,2.4-1.49,4.91-1.88,7.5-.31,2.02-.47,4.09-.47,6.2,0,22.6,18.33,40.93,40.93,40.93,22.6,0,40.93-18.33,40.93-40.93,0-2.11-.16-4.18-.47-6.2ZM70.72,87.67c-6.32,6.32-14.73,9.81-23.67,9.81-8.94,0-17.35-3.48-23.67-9.81-6.32-6.32-9.81-14.73-9.81-23.67,0-1.08.05-2.15.15-3.21.24-2.52.75-4.97,1.53-7.33,1.62-4.9,4.37-9.38,8.12-13.14,1.91-1.9,4-3.55,6.24-4.92,2.14-1.31,4.41-2.37,6.78-3.16,2.61-.87,5.33-1.42,8.12-1.63.83-.06,1.68-.09,2.53-.09,1.42,0,2.83.09,4.21.26,2.2.28,4.36.76,6.44,1.46,2.37.79,4.65,1.85,6.78,3.16,2.24,1.37,4.34,3.02,6.24,4.92,3.75,3.75,6.5,8.24,8.12,13.14.78,2.36,1.29,4.81,1.53,7.33.1,1.06.15,2.13.15,3.21,0,8.94-3.48,17.35-9.81,23.67Z"/>
    <path class="cls-1" d="M40.2,40.08c-.62-.1-1.27-.05-1.92.18-.63.23-1.24.49-1.85.77-1.47.68-2.23,2.14-2.16,3.58.04.87.4,1.75,1.09,2.44h0c.41.41.89.71,1.41.88.9.31,1.91.27,2.81-.15.42-.19.84-.37,1.28-.53,1.36-.5,2.31-1.74,2.44-3.16.01-.11.02-.22.02-.34h0c0-1.92-1.41-3.39-3.12-3.68ZM30.84,56.53c.26-.56.37-1.16.34-1.76-.04-.9-.41-1.78-1.08-2.45h0c-1.82-1.83-4.92-1.31-6,1.03-.26.57-.51,1.15-.73,1.74-.87,2.3-1.41,4.77-1.57,7.34-.03.52-.05,1.04-.05,1.57,0,3.06.54,5.99,1.54,8.7.79,2.16,3.36,3.07,5.35,1.92h0c1.55-.9,2.27-2.78,1.65-4.47-.71-1.92-1.09-4-1.09-6.16,0-.51.02-1.01.06-1.5.17-2.12.72-4.12,1.57-5.97Z"/>
  </g>
  <g>
    <path class="cls-1" d="M109.88,52.7c6.81.2,12.19,5.9,11.99,12.71-.04,1.41-.32,2.79-.82,4.08l-8.33,21.37h-.03s-.35.98-.35.98c-.55,1.55-2.03,2.56-3.68,2.51-1.65-.05-3.06-1.14-3.52-2.72l-.33-1.11h-.03s-7.04-21.7-7.04-21.7c-.43-1.33-.62-2.72-.58-4.13.1-3.3,1.47-6.36,3.87-8.63,2.4-2.26,5.54-3.46,8.84-3.36Z"/>
    <circle class="cls-1" cx="109.58" cy="40.55" r="6.9"/>
  </g>
</svg>