<?xml version="1.0" encoding="UTF-8"?>
<svg id="Layer_1" data-name="Layer 1" xmlns="http://www.w3.org/2000/svg" viewBox="0 0 128 128">
  <defs>
    <style>
      .cls-1 {
        fill: #59eb5c;
      }

      .cls-2 {
        fill: #61d1fa;
      }
    </style>
  </defs>
  <g>
    <path class="cls-1" d="M110.77,74.92h-6.33c-2.12,0-3.84,1.72-3.84,3.84h0c0,2.12-1.72,3.84-3.84,3.84h-6.64c-2.12,0-3.84-1.72-3.84-3.84h0c0-2.12-1.72-3.84-3.84-3.84h0c-2.12,0-3.84,1.72-3.84,3.84v33.71c0,2.12,1.72,3.84,3.84,3.84h33.71c2.12,0,3.84-1.72,3.84-3.84v-28.53c0-1.04-.43-2.04-1.18-2.77l-5.38-5.18c-.72-.69-1.67-1.07-2.66-1.07ZM103.92,109.48h-13.8c-2.12,0-3.84-1.72-3.84-3.84v-11.52c0-2.12,1.72-3.84,3.84-3.84h13.8c2.12,0,3.84,1.72,3.84,3.84v11.52c0,2.12-1.72,3.84-3.84,3.84Z"/>
    <rect class="cls-1" x="89.87" y="96.04" width="14.32" height="7.68" rx="3.84" ry="3.84"/>
  </g>
  <g>
    <path class="cls-2" d="M8.01,18.59v41.39c0,3.81,3.09,6.9,6.9,6.9h68.06c3.81,0,6.9-3.09,6.9-6.9V18.59c0-3.81-3.09-6.9-6.9-6.9H14.9c-3.81,0-6.9,3.09-6.9,6.9ZM78.58,59.42H19.29c-2.12,0-3.84-1.72-3.84-3.84V22.98c0-2.12,1.72-3.84,3.84-3.84h59.28c2.12,0,3.84,1.72,3.84,3.84v32.6c0,2.12-1.72,3.84-3.84,3.84Z"/>
    <g>
      <path class="cls-2" d="M48.93,55.32c-.04,1.41-.32,2.79-.82,4.08v.02s-2.91,7.45-2.91,7.45h-17.75l-2.41-7.45-.23-.7c-.43-1.33-.62-2.72-.58-4.13.1-3.3,1.47-6.36,3.87-8.63,2.4-2.26,5.54-3.46,8.84-3.36,6.81.2,12.19,5.9,11.99,12.71Z"/>
      <circle class="cls-2" cx="36.64" cy="30.46" r="6.9"/>
    </g>
  </g>
</svg>