<?xml version="1.0" encoding="UTF-8"?>
<svg id="Layer_1" data-name="Layer 1" xmlns="http://www.w3.org/2000/svg" viewBox="0 0 128 128">
  <defs>
    <style>
      .cls-1 {
        fill: #f8f770;
      }
    </style>
  </defs>
  <g>
    <rect class="cls-1" x="23.07" y="83.2" width="7.45" height="7.68"/>
    <rect class="cls-1" x="64" y="83.2" width="40.93" height="7.68"/>
    <rect class="cls-1" x="23.07" y="67.84" width="7.45" height="7.68"/>
    <rect class="cls-1" x="64" y="67.84" width="40.93" height="7.68"/>
    <rect class="cls-1" x="23.07" y="52.48" width="7.45" height="7.68"/>
    <rect class="cls-1" x="64" y="52.48" width="40.93" height="7.68"/>
    <rect class="cls-1" x="23.07" y="37.12" width="7.45" height="7.68"/>
    <rect class="cls-1" x="64" y="37.12" width="40.93" height="7.68"/>
  </g>
  <path class="cls-1" d="M98.03,23.07H29.97c-3.81,0-6.9,3.09-6.9,6.9v68.06c0,3.81,3.09,6.9,6.9,6.9h68.06c3.81,0,6.9-3.09,6.9-6.9V29.97c0-3.81-3.09-6.9-6.9-6.9ZM97.48,93.64c0,2.12-1.72,3.84-3.84,3.84h-59.28c-2.12,0-3.84-1.72-3.84-3.84v-59.28c0-2.12,1.72-3.84,3.84-3.84h59.28c2.12,0,3.84,1.72,3.84,3.84v59.28Z"/>
</svg>