<?xml version="1.0" encoding="UTF-8"?>
<svg id="Layer_1" data-name="Layer 1" xmlns="http://www.w3.org/2000/svg" viewBox="0 0 128 128">
  <defs>
    <style>
      .cls-1 {
        fill: #f8f770;
      }
    </style>
  </defs>
  <path class="cls-1" d="M105.39,88.82H22.61c-4.57,0-8.28-3.71-8.28-8.28v-41.37c0-4.57,3.71-8.28,8.28-8.28h82.77c4.57,0,8.28,3.71,8.28,8.28v41.37c0,4.57-3.71,8.28-8.28,8.28ZM22.61,18.47C11.18,18.47,1.92,27.74,1.92,39.17v41.37c0,11.43,9.26,20.69,20.69,20.69h82.77c11.43,0,20.69-9.26,20.69-20.69v-41.37c0-11.43-9.26-20.69-20.69-20.69H22.61Z"/>
  <rect class="cls-1" x="37.09" y="38.57" width="12.42" height="42.57" rx="3.84" ry="3.84"/>
  <rect class="cls-1" x="22.02" y="53.65" width="42.57" height="12.42" rx="3.84" ry="3.84"/>
  <circle class="cls-1" cx="99.78" cy="59.85" r="6.21"/>
  <circle class="cls-1" cx="79.68" cy="44.78" r="6.21"/>
  <circle class="cls-1" cx="79.68" cy="74.93" r="6.21"/>
</svg>