<?xml version="1.0" encoding="UTF-8"?>
<svg id="Layer_1" data-name="Layer 1" xmlns="http://www.w3.org/2000/svg" viewBox="0 0 128 128">
  <defs>
    <style>
      .cls-1 {
        fill: #59eb5c;
      }
    </style>
  </defs>
  <path class="cls-1" d="M117.78,74.78l-5.07-1.18c-2.25-.52-4.18-1.79-5.54-3.51-1.36-1.72-2.16-3.88-2.16-6.19,0-4.63,3.19-8.65,7.7-9.7l5.07-1.18c3.96-.92,6.28-5.05,4.98-8.91-.91-2.71-2-5.33-3.26-7.86-1.81-3.63-6.36-4.9-9.81-2.76l-4.42,2.75c-3.93,2.45-9.03,1.86-12.3-1.41h0c-3.27-3.27-3.86-8.37-1.41-12.3l2.75-4.42c2.14-3.44.87-8-2.76-9.81-2.53-1.26-5.15-2.35-7.86-3.26-3.85-1.29-7.99,1.02-8.91,4.98l-1.18,5.07c-.52,2.25-1.79,4.18-3.51,5.54-1.72,1.36-3.88,2.16-6.19,2.16-4.63,0-8.65-3.19-9.7-7.7l-1.18-5.07c-.92-3.96-5.05-6.28-8.91-4.98-2.71.91-5.33,2-7.86,3.26-3.63,1.81-4.9,6.36-2.76,9.81l2.75,4.42c2.44,3.93,1.86,9.03-1.41,12.3h0c-3.27,3.27-8.37,3.86-12.3,1.42l-4.42-2.75c-3.44-2.14-8-.87-9.81,2.76-1.26,2.53-2.35,5.15-3.26,7.86-1.29,3.85,1.02,7.99,4.98,8.91l5.07,1.18c2.25.52,4.18,1.79,5.54,3.51,1.36,1.72,2.16,3.88,2.16,6.19,0,4.63-3.19,8.65-7.7,9.7l-5.07,1.18c-3.96.92-6.28,5.05-4.98,8.91.91,2.71,2,5.33,3.26,7.86,1.81,3.63,6.36,4.9,9.81,2.76l4.42-2.75c3.93-2.45,9.03-1.86,12.3,1.41h0c3.27,3.27,3.86,8.37,1.41,12.3l-2.75,4.42c-2.14,3.44-.87,8,2.76,9.81,2.53,1.26,5.15,2.35,7.86,3.26,3.85,1.29,7.99-1.02,8.91-4.98l1.18-5.07c.52-2.25,1.79-4.18,3.51-5.54,1.72-1.36,3.88-2.16,6.19-2.16,4.63,0,8.65,3.19,9.7,7.7l1.18,5.07c.92,3.96,5.05,6.28,8.91,4.98,2.71-.91,5.33-2,7.86-3.26,3.63-1.81,4.9-6.36,2.76-9.81l-2.75-4.42c-2.44-3.93-1.86-9.03,1.41-12.3h0c3.27-3.27,8.37-3.86,12.3-1.42l4.42,2.75c3.44,2.14,8,.87,9.81-2.76,1.26-2.53,2.35-5.15,3.26-7.86,1.29-3.85-1.02-7.99-4.98-8.91ZM63.9,97.38c-8.94,0-17.35-3.48-23.67-9.81-6.32-6.32-9.81-14.73-9.81-23.67,0-1.08.05-2.15.15-3.21.24-2.52.75-4.97,1.53-7.33,1.62-4.9,4.37-9.38,8.12-13.14,1.91-1.9,4-3.55,6.24-4.92,2.14-1.31,4.41-2.37,6.78-3.16,2.61-.87,5.33-1.42,8.12-1.63.83-.06,1.68-.09,2.53-.09,1.42,0,2.83.09,4.21.26,2.2.28,4.36.76,6.44,1.46,2.37.79,4.65,1.85,6.78,3.16,2.24,1.37,4.34,3.02,6.24,4.92,3.75,3.75,6.5,8.24,8.12,13.14.78,2.36,1.29,4.81,1.53,7.33.1,1.06.15,2.13.15,3.21,0,8.94-3.48,17.35-9.81,23.67-6.32,6.32-14.73,9.81-23.67,9.81Z"/>
  <g>
    <rect class="cls-1" x="39.37" y="57" width="49.07" height="13.8" rx="6.9" ry="6.9"/>
    <rect class="cls-1" x="39.37" y="57" width="49.07" height="13.8" rx="6.9" ry="6.9" transform="translate(127.8 0) rotate(90)"/>
  </g>
</svg>