<?xml version="1.0" encoding="UTF-8"?>
<svg id="Layer_1" data-name="Layer 1" xmlns="http://www.w3.org/2000/svg" viewBox="0 0 128 128">
  <defs>
    <style>
      .cls-1 {
        fill: #ba64f2;
      }
    </style>
  </defs>
  <path class="cls-1" d="M86.87,104.8l38.08-38.08c1.5-1.5,1.5-3.93,0-5.43l-38.08-38.08c-2.42-2.42-6.55-.71-6.55,2.71v76.16c0,3.42,4.14,5.13,6.55,2.71Z"/>
  <path class="cls-1" d="M71.52,66.71l-38.08,38.08c-2.42,2.42-6.55.71-6.55-2.71v-13.55c0-2.12-1.72-3.84-3.84-3.84H5.76c-2.12,0-3.84-1.72-3.84-3.84v-33.71c0-2.12,1.72-3.84,3.84-3.84h17.28c2.12,0,3.84-1.72,3.84-3.84v-13.55c0-3.42,4.13-5.13,6.55-2.71l38.08,38.08c1.5,1.5,1.5,3.93,0,5.43Z"/>
</svg>