<?xml version="1.0" encoding="UTF-8"?>
<svg id="Layer_1" data-name="Layer 1" xmlns="http://www.w3.org/2000/svg" viewBox="0 0 128 128">
  <defs>
    <style>
      .cls-1 {
        fill: #e1e1e0;
      }
    </style>
  </defs>
  <path class="cls-1" d="M27.69,71.87v35.34c0,6.61-5.36,11.98-11.98,11.98h0c-6.61,0-11.98-5.36-11.98-11.98v-35.34c0-2.12,1.72-3.84,3.84-3.84h.45c2.12,0,3.84-1.72,3.84-3.84V12.84c0-2.12,1.72-3.84,3.84-3.84h0c2.12,0,3.84,1.72,3.84,3.84v51.34c0,2.12,1.72,3.84,3.84,3.84h.45c2.12,0,3.84,1.72,3.84,3.84Z"/>
  <path class="cls-1" d="M124.26,33.74h0c0,1.9-1.54,3.45-3.45,3.45h0c-1.9,0-3.45-1.54-3.45-3.45v-.39c0-2.12-1.72-3.84-3.84-3.84h-13.01c-2.12,0-3.84,1.72-3.84,3.84v.42c0,1.46-1.18,2.63-2.63,2.63h0c-1.46,0-2.63,1.18-2.63,2.63v73.24c0,3.81-3.09,6.9-6.9,6.9h-3.26c-3.81,0-6.9-3.09-6.9-6.9V39.04c0-1.46-1.18-2.63-2.63-2.63h0c-1.46,0-2.63-1.18-2.63-2.63v-.42c0-2.12-1.72-3.84-3.84-3.84h-6.12c-2.12,0-3.84,1.72-3.84,3.84h0c0,1.69-1.37,3.06-3.06,3.06h-3.84c-3.81,0-6.9-3.09-6.9-6.9v-13.79c0-3.81,3.09-6.9,6.9-6.9h3.84c1.69,0,3.06,1.37,3.06,3.06h0c0,2.12,1.72,3.84,3.84,3.84h6.12c2.12,0,3.84-1.72,3.84-3.84v-.42c0-1.46,1.18-2.63,2.63-2.63h22.32c1.46,0,2.63,1.18,2.63,2.63v.42c0,2.12,1.72,3.84,3.84,3.84h5.73c9.96,0,18.03,8.07,18.03,18.03Z"/>
</svg>