<?xml version="1.0" encoding="UTF-8"?>
<svg id="Layer_1" data-name="Layer 1" xmlns="http://www.w3.org/2000/svg" viewBox="0 0 128 128">
  <defs>
    <style>
      .cls-1 {
        fill: #ba64f2;
      }
    </style>
  </defs>
  <path class="cls-1" d="M83.69,1.92h-39.37c-11.43,0-20.69,9.26-20.69,20.69v63.09c0,20.19,14.82,36.92,34.17,39.9,2.02.31,4.1.47,6.21.47s4.18-.16,6.21-.47c8.67-1.34,16.42-5.43,22.34-11.35,7.31-7.31,11.83-17.4,11.83-28.55V22.61c0-11.43-9.26-20.69-20.69-20.69ZM60.29,31.64c0-2.05,1.66-3.71,3.71-3.71s3.71,1.67,3.71,3.71v6.77c0,2.05-1.66,3.71-3.71,3.71s-3.71-1.67-3.71-3.71v-6.77ZM36.04,22.61c0-4.57,3.71-8.28,8.28-8.28h9.64c2.12,0,3.84,1.72,3.84,3.84v2.33c0,1.09-.47,2.12-1.28,2.86-2.26,2.04-3.67,5-3.67,8.28v6.77c0,3.28,1.42,6.24,3.67,8.28.81.73,1.28,1.77,1.28,2.86v3.02c0,2.12-1.72,3.84-3.84,3.84h-14.08c-2.12,0-3.84-1.72-3.84-3.84v-29.96ZM91.96,85.39c0,7.51-2.88,14.77-8.19,20.08-3.79,3.79-8.47,6.35-13.57,7.5-2.01.45-4.09.69-6.21.69s-4.19-.23-6.21-.69c-5.1-1.15-9.78-3.71-13.57-7.5-5.31-5.31-8.19-12.57-8.19-20.08v-12.73c0-2.12,1.72-3.84,3.84-3.84h48.25c2.12,0,3.84,1.72,3.84,3.84v12.73ZM88.12,56.41h-14.08c-2.12,0-3.84-1.72-3.84-3.84v-3.02c0-1.09.47-2.12,1.28-2.86,2.26-2.04,3.67-5,3.67-8.28v-6.77c0-3.28-1.42-6.24-3.67-8.28-.81-.73-1.28-1.77-1.28-2.86v-2.33c0-2.12,1.72-3.84,3.84-3.84h9.64c4.57,0,8.28,3.71,8.28,8.28v29.96c0,2.12-1.72,3.84-3.84,3.84Z"/>
</svg>