<?xml version="1.0" encoding="UTF-8"?>
<svg id="Layer_1" data-name="Layer 1" xmlns="http://www.w3.org/2000/svg" viewBox="0 0 128 128">
  <defs>
    <style>
      .cls-1 {
        fill: #e1e1e0;
      }
    </style>
  </defs>
  <circle class="cls-1" cx="101.9" cy="27.28" r="20.69"/>
  <path class="cls-1" d="M28.31,87.63c3.54,0,6.86,1.38,9.36,3.88,2.5,2.5,3.88,5.83,3.88,9.36,0,3.54-1.38,6.86-3.88,9.36-2.5,2.5-5.83,3.88-9.36,3.88s-6.86-1.38-9.36-3.88c-5.16-5.16-5.16-13.57,0-18.73,2.5-2.5,5.83-3.88,9.36-3.88M28.31,80.18c-5.3,0-10.59,2.02-14.63,6.06-8.08,8.08-8.08,21.18,0,29.26,4.04,4.04,9.34,6.06,14.63,6.06s10.59-2.02,14.63-6.06c8.08-8.08,8.08-21.18,0-29.26-4.04-4.04-9.34-6.06-14.63-6.06h0Z"/>
  <circle class="cls-1" cx="84.55" cy="44.63" r="3.84"/>
  <circle class="cls-1" cx="65.1" cy="64.07" r="3.84"/>
  <rect class="cls-1" x="29.86" y="59.61" width="71.74" height="7.68" transform="translate(-25.61 65.06) rotate(-45)"/>
  <circle class="cls-1" cx="45.66" cy="83.52" r="3.84"/>
  <circle class="cls-1" cx="45.66" cy="83.52" r="3.84"/>
</svg>