<?xml version="1.0" encoding="UTF-8"?>
<svg id="Layer_1" data-name="Layer 1" xmlns="http://www.w3.org/2000/svg" viewBox="0 0 128 128">
  <defs>
    <style>
      .cls-1 {
        fill: #e69e50;
      }
    </style>
  </defs>
  <path class="cls-1" d="M87.95,17.86c-6.4-6.4-14.9-9.92-23.95-9.92-9.05,0-17.55,3.52-23.95,9.92-6.39,6.39-9.92,14.9-9.92,23.94,0,3.87.65,7.66,1.92,11.27l20.54,57.59h.05s.49,1.51.49,1.51c1.53,4.72,5.9,7.89,10.86,7.89,4.97,0,9.33-3.17,10.86-7.89l.62-1.9h.06s20.41-57.21,20.41-57.21c1.27-3.6,1.91-7.39,1.91-11.26,0-9.04-3.52-17.55-9.92-23.94ZM64,62.62c-11.43,0-20.69-9.26-20.69-20.69s9.26-20.69,20.69-20.69,20.69,9.26,20.69,20.69-9.26,20.69-20.69,20.69Z"/>
</svg>