<?xml version="1.0" encoding="UTF-8"?>
<svg id="Layer_1" data-name="Layer 1" xmlns="http://www.w3.org/2000/svg" viewBox="0 0 128 128">
  <defs>
    <style>
      .cls-1 {
        fill: #e1e1e0;
      }
    </style>
  </defs>
  <path class="cls-1" d="M113.66,75.09v34.73c0,2.12-1.72,3.84-3.84,3.84H18.18c-2.12,0-3.84-1.72-3.84-3.84V18.18c0-2.12,1.72-3.84,3.84-3.84h34.73c3.43,0,6.21-2.78,6.21-6.21h0c0-3.43-2.78-6.21-6.21-6.21H8.82c-3.81,0-6.9,3.09-6.9,6.9v110.36c0,3.81,3.09,6.9,6.9,6.9h110.36c3.81,0,6.9-3.09,6.9-6.9v-44.09c0-3.43-2.78-6.21-6.21-6.21h0c-3.43,0-6.21,2.78-6.21,6.21Z"/>
  <path class="cls-1" d="M118.65,27.43l5.41-5.4c2.69-2.7,2.69-7.06,0-9.76l-8.33-8.33c-2.69-2.69-7.06-2.69-9.75,0l-5.41,5.4-6.41,6.42h0s-39.22,39.22-39.22,39.22l-5.43,5.43h0s-6.06,6.06-6.06,6.06c-.35.35-.66.74-.93,1.16-.12.19-.24.39-.35.6l-10.85,21.34c-.1.19-.18.38-.25.58-.04.1-.07.2-.1.3-.03.1-.06.2-.08.3h0c-.09.4-.14.81-.14,1.22,0,.36.04.71.11,1.06.03.15.07.3.12.45.05.19.12.38.2.56.04.11.09.22.15.32.24.48.57.94.97,1.35,1.62,1.62,4.1,2.01,6.14.97l21.35-10.85c.2-.11.4-.22.6-.35.39-.25.76-.54,1.09-.86h0s6.13-6.13,6.13-6.13l5.35-5.35.08-.08,17.44-17.45,28.19-28.19ZM108.14,12.31c1.5-1.5,3.93-1.5,5.43,0l2.12,2.12c1.49,1.49,1.5,3.91.02,5.41,0,0-.01.02-.02.02l-2.3,2.3-3.72,3.72c-1.49,1.49-3.9,1.49-5.39,0l-2.16-2.16c-1.49-1.49-1.49-3.9,0-5.39l6.02-6.02ZM67.67,67.89l-2.63,2.63c-1.5,1.5-3.93,1.5-5.43,0l-2.12-2.12c-1.49-1.49-1.5-3.89-.03-5.39.01-.01.02-.02.03-.04l2.64-2.64,17.53-17.52,13.63-13.63c1.48-1.48,3.85-1.5,5.36-.07.02.01.03.03.05.04l2.15,2.15s.03.03.04.05c.01,0,.02.02.02.02,1.43,1.5,1.41,3.88-.07,5.36l-31.08,31.08-.08.08Z"/>
</svg>