<?xml version="1.0" encoding="UTF-8"?>
<svg id="Layer_1" data-name="Layer 1" xmlns="http://www.w3.org/2000/svg" viewBox="0 0 128 128">
  <defs>
    <style>
      .cls-1 {
        fill: #ba64f2;
      }
    </style>
  </defs>
  <path class="cls-1" d="M61.99,1.92H22.61C11.18,1.92,1.92,11.18,1.92,22.61v63.09c0,20.19,14.82,36.92,34.17,39.9,2.02.31,4.1.47,6.21.47s4.18-.16,6.21-.47c8.67-1.34,16.42-5.43,22.34-11.35,7.31-7.31,11.83-17.4,11.83-28.55V22.61c0-11.43-9.26-20.69-20.69-20.69ZM38.59,31.64c0-2.05,1.66-3.71,3.71-3.71s3.71,1.67,3.71,3.71v6.77c0,2.05-1.66,3.71-3.71,3.71s-3.71-1.67-3.71-3.71v-6.77ZM14.34,22.61c0-4.57,3.71-8.28,8.28-8.28h9.64c2.12,0,3.84,1.72,3.84,3.84v2.33c0,1.09-.47,2.12-1.28,2.86-2.26,2.04-3.67,5-3.67,8.28v6.77c0,3.28,1.42,6.24,3.67,8.28.81.73,1.28,1.77,1.28,2.86v3.02c0,2.12-1.72,3.84-3.84,3.84h-14.08c-2.12,0-3.84-1.72-3.84-3.84v-29.96ZM70.26,85.39c0,7.51-2.88,14.77-8.19,20.08-3.79,3.79-8.47,6.35-13.57,7.5-2.01.45-4.09.69-6.21.69s-4.19-.23-6.21-.69c-5.1-1.15-9.78-3.71-13.57-7.5-5.31-5.31-8.19-12.57-8.19-20.08v-12.73c0-2.12,1.72-3.84,3.84-3.84h48.25c2.12,0,3.84,1.72,3.84,3.84v12.73ZM66.42,56.41h-14.08c-2.12,0-3.84-1.72-3.84-3.84v-3.02c0-1.09.47-2.12,1.28-2.86,2.26-2.04,3.67-5,3.67-8.28v-6.77c0-3.28-1.42-6.24-3.67-8.28-.81-.73-1.28-1.77-1.28-2.86v-2.33c0-2.12,1.72-3.84,3.84-3.84h9.64c4.57,0,8.28,3.71,8.28,8.28v29.96c0,2.12-1.72,3.84-3.84,3.84Z"/>
  <g>
    <g>
      <rect class="cls-1" x="92.65" y="44.14" width="5.46" height="20.09" rx="2.73" ry="2.73" transform="translate(201.14 25.05) rotate(135)"/>
      <g>
        <path class="cls-1" d="M87.06,48.58c-.61,0-1.18-.2-1.63-.54h0s-.22-.18-.22-.18c-.54-.5-.88-1.21-.88-2.01s.34-1.51.88-2.01l.22-.18h0c.46-.34,1.02-.54,1.63-.54,1.51,0,2.73,1.22,2.73,2.73s-1.22,2.73-2.73,2.73Z"/>
        <path class="cls-1" d="M87.06,59.18c-.61,0-1.18-.2-1.63-.54h0s-.22-.18-.22-.18c-.54-.5-.88-1.21-.88-2.01s.34-1.51.88-2.01l.22-.18h0c.46-.34,1.02-.54,1.63-.54,1.51,0,2.73,1.22,2.73,2.73s-1.22,2.73-2.73,2.73Z"/>
        <rect class="cls-1" x="81.76" y="48.42" width="10.6" height="5.45" transform="translate(138.21 -35.91) rotate(90)"/>
      </g>
      <g>
        <path class="cls-1" d="M94.93,45.85c0,.61.2,1.18.54,1.63h0s.18.22.18.22c.5.54,1.21.88,2.01.88s1.51-.34,2.01-.88l.18-.22h0c.34-.46.54-1.02.54-1.63,0-1.51-1.22-2.73-2.73-2.73-1.51,0-2.73,1.22-2.73,2.73Z"/>
        <path class="cls-1" d="M84.33,45.85c0,.61.2,1.18.54,1.63h0s.18.22.18.22c.5.54,1.21.88,2.01.88s1.51-.34,2.01-.88l.18-.22h0c.34-.46.54-1.02.54-1.63,0-1.51-1.22-2.73-2.73-2.73-1.51,0-2.73,1.22-2.73,2.73Z"/>
        <rect class="cls-1" x="87.06" y="43.12" width="10.6" height="5.45" transform="translate(184.72 91.7) rotate(180)"/>
      </g>
    </g>
    <g>
      <rect class="cls-1" x="112.3" y="63.77" width="5.46" height="20.09" rx="2.73" ry="2.73" transform="translate(-18.51 102.95) rotate(-45)"/>
      <g>
        <path class="cls-1" d="M123.35,79.42c.61,0,1.18.2,1.63.54h0s.22.18.22.18c.54.5.88,1.21.88,2.01s-.34,1.51-.88,2.01l-.22.18h0c-.46.34-1.02.54-1.63.54-1.51,0-2.73-1.22-2.73-2.73s1.22-2.73,2.73-2.73Z"/>
        <path class="cls-1" d="M123.35,68.82c.61,0,1.18.2,1.63.54h0s.22.18.22.18c.54.5.88,1.21.88,2.01s-.34,1.51-.88,2.01l-.22.18h0c-.46.34-1.02.54-1.63.54-1.51,0-2.73-1.22-2.73-2.73s1.22-2.73,2.73-2.73Z"/>
        <rect class="cls-1" x="118.05" y="74.12" width="10.6" height="5.45" transform="translate(46.5 200.19) rotate(-90)"/>
      </g>
      <g>
        <path class="cls-1" d="M115.47,82.15c0-.61-.2-1.18-.54-1.63h0s-.18-.22-.18-.22c-.5-.54-1.21-.88-2.01-.88s-1.51.34-2.01.88l-.18.22h0c-.34.46-.54,1.02-.54,1.63,0,1.51,1.22,2.73,2.73,2.73,1.51,0,2.73-1.22,2.73-2.73Z"/>
        <path class="cls-1" d="M126.07,82.15c0-.61-.2-1.18-.54-1.63h0s-.18-.22-.18-.22c-.5-.54-1.21-.88-2.01-.88s-1.51.34-2.01.88l-.18.22h0c-.34.46-.54,1.02-.54,1.63,0,1.51,1.22,2.73,2.73,2.73s2.73-1.22,2.73-2.73Z"/>
        <rect class="cls-1" x="112.74" y="79.42" width="10.6" height="5.45"/>
      </g>
    </g>
    <g>
      <rect class="cls-1" x="92.66" y="63.78" width="5.46" height="20.09" rx="2.73" ry="2.73" transform="translate(80.14 -45.83) rotate(45)"/>
      <g>
        <path class="cls-1" d="M89.78,82.14c0,.61-.2,1.18-.54,1.63h0s-.18.22-.18.22c-.5.54-1.21.88-2.01.88s-1.51-.34-2.01-.88l-.18-.22h0c-.34-.46-.54-1.02-.54-1.63,0-1.51,1.22-2.73,2.73-2.73s2.73,1.22,2.73,2.73Z"/>
        <path class="cls-1" d="M100.38,82.14c0,.61-.2,1.18-.54,1.63h0s-.18.22-.18.22c-.5.54-1.21.88-2.01.88s-1.51-.34-2.01-.88l-.18-.22h0c-.34-.46-.54-1.02-.54-1.63,0-1.51,1.22-2.73,2.73-2.73s2.73,1.22,2.73,2.73Z"/>
        <rect class="cls-1" x="87.05" y="79.42" width="10.6" height="5.45"/>
      </g>
      <g>
        <path class="cls-1" d="M87.05,74.27c.61,0,1.18-.2,1.63-.54h0s.22-.18.22-.18c.54-.5.88-1.21.88-2.01s-.34-1.51-.88-2.01l-.22-.18h0c-.46-.34-1.02-.54-1.63-.54-1.51,0-2.73,1.22-2.73,2.73s1.22,2.73,2.73,2.73Z"/>
        <path class="cls-1" d="M87.05,84.87c.61,0,1.18-.2,1.63-.54h0s.22-.18.22-.18c.54-.5.88-1.21.88-2.01s-.34-1.51-.88-2.01l-.22-.18h0c-.46-.34-1.02-.54-1.63-.54-1.51,0-2.73,1.22-2.73,2.73s1.22,2.73,2.73,2.73Z"/>
        <rect class="cls-1" x="81.75" y="74.12" width="10.6" height="5.45" transform="translate(163.9 -10.21) rotate(90)"/>
      </g>
    </g>
    <g>
      <rect class="cls-1" x="112.29" y="44.13" width="5.46" height="20.09" rx="2.73" ry="2.73" transform="translate(158.04 173.82) rotate(-135)"/>
      <g>
        <path class="cls-1" d="M120.62,45.86c0-.61.2-1.18.54-1.63h0s.18-.22.18-.22c.5-.54,1.21-.88,2.01-.88s1.51.34,2.01.88l.18.22h0c.34.46.54,1.02.54,1.63,0,1.51-1.22,2.73-2.73,2.73s-2.73-1.22-2.73-2.73Z"/>
        <path class="cls-1" d="M110.02,45.86c0-.61.2-1.18.54-1.63h0s.18-.22.18-.22c.5-.54,1.21-.88,2.01-.88s1.51.34,2.01.88l.18.22h0c.34.46.54,1.02.54,1.63,0,1.51-1.22,2.73-2.73,2.73s-2.73-1.22-2.73-2.73Z"/>
        <rect class="cls-1" x="112.75" y="43.13" width="10.6" height="5.45" transform="translate(236.1 91.71) rotate(180)"/>
      </g>
      <g>
        <path class="cls-1" d="M123.35,53.73c-.61,0-1.18.2-1.63.54h0s-.22.18-.22.18c-.54.5-.88,1.21-.88,2.01s.34,1.51.88,2.01l.22.18h0c.46.34,1.02.54,1.63.54,1.51,0,2.73-1.22,2.73-2.73s-1.22-2.73-2.73-2.73Z"/>
        <path class="cls-1" d="M123.35,43.13c-.61,0-1.18.2-1.63.54h0s-.22.18-.22.18c-.54.5-.88,1.21-.88,2.01s.34,1.51.88,2.01l.22.18h0c.46.34,1.02.54,1.63.54,1.51,0,2.73-1.22,2.73-2.73s-1.22-2.73-2.73-2.73Z"/>
        <rect class="cls-1" x="118.05" y="48.43" width="10.6" height="5.45" transform="translate(72.19 174.51) rotate(-90)"/>
      </g>
    </g>
  </g>
</svg>