<?xml version="1.0" encoding="UTF-8"?>
<svg id="Layer_1" data-name="Layer 1" xmlns="http://www.w3.org/2000/svg" viewBox="0 0 128 128">
  <defs>
    <style>
      .cls-1 {
        fill: #e1e1e0;
      }
    </style>
  </defs>
  <g>
    <path class="cls-1" d="M113.66,114.53c-.93.93-2.05,1.53-3.24,1.82-.21.05-.43.09-.65.13-.33.05-.66.07-.99.07-1.77,0-3.53-.67-4.87-2.02l-2.82-2.82c-1.05-1.05-2.63-1.32-4.01-.76-2.13.86-4.66.43-6.38-1.29l-42.04-42.04c-1.45-1.45-1.45-3.81,0-5.27h0c1.45-1.45,3.81-1.45,5.27,0l38.3,38.3c1.45,1.45,3.81,1.45,5.27,0l2.28-2.28c1.45-1.45,1.45-3.81,0-5.27l-38.3-38.3c-1.45-1.45-1.45-3.81,0-5.27h0c1.45-1.46,3.81-1.46,5.27,0l42.04,42.04c1.15,1.15,1.72,2.66,1.73,4.17,0,.75-.15,1.51-.43,2.22-.56,1.38-.29,2.95.76,4l2.82,2.82c2.69,2.69,2.69,7.06,0,9.75Z"/>
    <path class="cls-1" d="M113.66,104.77l-2.82-2.82c-1.05-1.05-1.32-2.62-.76-4,.29-.71.43-1.46.43-2.22,0-1.51-.58-3.02-1.73-4.17l-42.04-42.04c-1.45-1.45-3.81-1.45-5.27,0h0c-1.45,1.45-1.45,3.81,0,5.27l38.3,38.3c1.45,1.45,1.45,3.81,0,5.27l-2.28,2.28c-1.45,1.45-3.81,1.45-5.27,0l-38.3-38.3c-1.45-1.45-3.81-1.45-5.27,0h0c-1.46,1.45-1.46,3.81,0,5.27l42.04,42.04c1.72,1.72,4.26,2.16,6.38,1.29,1.38-.56,2.95-.29,4.01.76l2.82,2.82c1.35,1.35,3.11,2.02,4.87,2.02.33,0,.66-.02.99-.07.22-.03.44-.07.65-.13,1.18-.29,2.31-.9,3.24-1.82,2.69-2.69,2.69-7.06,0-9.75Z"/>
  </g>
  <path class="cls-1" d="M42.74,14.34l16.66,16.66c2.7,2.7,2.69,7.06,0,9.76l-19.51,19.51c-2.69,2.69-7.06,2.7-9.76,0l-16.66-16.66c-8.08-8.08-8.08-21.18,0-29.26,4.04-4.04,9.34-6.06,14.63-6.06s10.59,2.02,14.63,6.06Z"/>
</svg>