<?xml version="1.0" encoding="UTF-8"?>
<svg id="Layer_1" data-name="Layer 1" xmlns="http://www.w3.org/2000/svg" viewBox="0 0 128 128">
  <defs>
    <style>
      .cls-1 {
        fill: #ff7676;
      }
    </style>
  </defs>
  <path class="cls-1" d="M115.08,28.7c-4.27-6.16-9.62-11.51-15.78-15.78-10.02-6.94-22.18-11-35.3-11C29.71,1.92,1.92,29.71,1.92,64c0,13.11,4.06,25.27,11,35.3,4.27,6.16,9.62,11.51,15.78,15.78,10.02,6.94,22.18,11,35.3,11,34.29,0,62.08-27.79,62.08-62.08,0-13.11-4.06-25.27-11-35.3ZM24.27,64c0-10.61,4.13-20.59,11.64-28.09,7.5-7.5,17.48-11.64,28.09-11.64,6.78,0,13.3,1.69,19.09,4.86l-53.95,53.95c-3.18-5.78-4.86-12.3-4.86-19.09ZM92.09,92.09c-7.5,7.5-17.48,11.64-28.09,11.64-6.78,0-13.3-1.69-19.09-4.86l53.95-53.95c3.18,5.78,4.86,12.3,4.86,19.09,0,10.61-4.13,20.59-11.64,28.09Z"/>
</svg>