<?xml version="1.0" encoding="UTF-8"?>
<svg id="Layer_1" data-name="Layer 1" xmlns="http://www.w3.org/2000/svg" viewBox="0 0 128 128">
  <defs>
    <style>
      .cls-1 {
        fill: #e1e1e0;
        stroke-width: 0px;
      }
    </style>
  </defs>
  <path class="cls-1" d="m42.04,76l10.05,10.05-1.7,6.34c-.28,1.03-.77,1.94-1.43,2.7h0c-1.67,1.95-4.37,2.88-7.02,2.17-3.68-.99-5.86-4.77-4.88-8.45l.34-1.27,3.44-12.86h0c.06.07.11.14.17.21.06.07.12.14.18.21.03.04.06.07.1.11.13.14.26.29.4.42.11.11.22.23.34.34Z"/>
  <path class="cls-1" d="m56.55,69.38l-2.38,8.88-.71,2.66-1.95-1.95-6.38-6.38-.12-.12c-.17-.17-.33-.34-.47-.52h0c-.06-.08-.13-.16-.19-.25-.04-.06-.09-.11-.12-.17-.05-.07-.1-.15-.15-.22-.13-.19-.24-.39-.34-.6-.11-.21-.2-.41-.28-.63,0,0,0,0,0-.02-.03-.08-.06-.17-.09-.25-.03-.09-.06-.18-.08-.26-.05-.17-.09-.33-.13-.5,0-.02,0-.04-.01-.05-.02-.09-.03-.17-.05-.26-.01-.08-.03-.16-.04-.24,0-.04-.01-.09-.01-.13,0-.05,0-.1-.01-.16,0-.04,0-.07,0-.11,0-.07,0-.14-.01-.2,0-.05,0-.09,0-.14,0-.12,0-.25,0-.37,0-.22.02-.45.05-.67,0-.07.02-.15.03-.23.02-.15.05-.3.09-.45,0-.01,0-.03,0-.04l.05-.18c.02-.1.05-.19.08-.29.02-.07.04-.14.07-.2.02-.07.05-.13.07-.2,0,0,0,0,0,0,.02-.04.03-.09.05-.13.06-.15.13-.3.2-.45,0,0,0,0,0-.01.03-.05.05-.11.08-.16,0-.02.02-.04.03-.06.03-.05.06-.1.09-.16.03-.06.07-.12.11-.18,0,0,0-.02.02-.03.04-.07.09-.15.14-.22.05-.08.11-.16.16-.23.1-.13.2-.26.31-.38.09-.1.18-.21.28-.31.04-.04.08-.08.12-.12l.03-.03s.09-.09.14-.13l.07-.06.21-.18c.07-.06.15-.11.22-.17.06-.05.13-.1.2-.14.46-.32.97-.59,1.49-.8.17-.06.35-.12.53-.18.07-.02.14-.04.21-.06.11-.03.22-.05.33-.08.09-.02.18-.03.28-.05.08-.01.17-.03.25-.04h.08c.07-.02.14-.02.2-.03h.07c.08-.01.15-.01.23-.02.07,0,.14,0,.21,0,.1,0,.2,0,.29,0,.22,0,.43.02.65.05,0,0,.02,0,.02,0,.06,0,.12.02.18.03.02,0,.05,0,.07.01.13.02.26.05.4.08,0,0,.02,0,.02,0,.07.02.14.03.22.05.09.02.19.05.28.08,0,0,.01,0,.02,0,.09.03.18.06.26.09,0,0,0,0,.01,0,.09.03.17.07.26.1.09.03.18.07.27.11.09.04.17.08.26.13.04.02.08.04.12.06.04.02.08.04.12.07,0,0,0,0,.01,0,0,0,0,0,0,0,.05.03.1.06.15.09.01,0,.03.01.04.02.05.03.1.06.15.09.03.02.06.04.08.06.05.03.1.06.15.1.03.02.06.04.1.07h0s.02.01.02.02c.08.06.16.12.24.18,0,0,.01.01.02.01.09.07.18.15.26.23.09.08.17.16.26.24l.11.11c1.6,1.68,2.32,4.14,1.67,6.55Z"/>
  <rect class="cls-1" x="27.79" y="80.8" width="13.8" height="45.29" rx="6.9" ry="6.9" transform="translate(65.61 -1.19) rotate(35)"/>
  <g>
    <path class="cls-1" d="m71.61,89.32c-.17.17-.34.33-.52.47-.14.12-.29.23-.44.33-.32.23-.66.42-1.01.58-.11.05-.23.1-.35.15-.15.06-.31.12-.47.17-.23.07-.47.14-.71.18-.24.05-.48.09-.73.11-.43.04-.87.04-1.3,0-.24-.02-.48-.06-.73-.11-.24-.05-.48-.11-.71-.18-.16-.05-.31-.11-.47-.17-.12-.05-.23-.1-.35-.15-.35-.16-.69-.36-1.01-.58-.15-.1-.3-.21-.44-.33-.18-.15-.36-.31-.52-.47l-1.79-1.79-6.6-6.6-1.95-1.95-6.38-6.38-.12-.12c-.17-.17-.33-.34-.47-.52h0c-.06-.08-.13-.16-.19-.25-.04-.06-.09-.11-.12-.17-.05-.07-.1-.15-.15-.22-.13-.19-.24-.39-.34-.6-.05-.1-.1-.21-.15-.31-.05-.11-.09-.21-.13-.32,0,0,0,0,0-.02-.03-.08-.06-.17-.09-.25-.03-.09-.06-.18-.08-.26-.05-.17-.09-.33-.13-.5,0-.02,0-.04-.01-.05-.02-.09-.03-.17-.05-.26-.01-.08-.03-.16-.04-.24,0-.04-.01-.09-.01-.13,0-.05,0-.1-.01-.16,0-.04,0-.07,0-.11,0-.07,0-.14-.01-.2,0-.05,0-.09,0-.14,0-.12,0-.25,0-.37,0-.22.02-.45.05-.67,0-.07.02-.15.03-.23.02-.15.05-.3.09-.45,0-.01,0-.03,0-.04.03-.12.06-.24.1-.36,0,0,0-.02,0-.03,0-.02.01-.05.03-.08.02-.07.04-.14.07-.2.02-.07.05-.13.07-.2,0,0,0,0,0,0,.02-.04.03-.09.05-.13,0-.02.02-.05.03-.07h0s0,0,0,0c0-.03.02-.05.03-.08,0-.02.02-.05.03-.07,0-.02.01-.03.02-.05.02-.06.05-.11.08-.17h0s.03-.06.04-.09c0-.02.02-.05.04-.07,0,0,0,0,0-.01,0-.02.02-.04.03-.06.03-.05.06-.1.09-.16.03-.06.07-.12.11-.18,0,0,0-.02.02-.03.04-.07.09-.15.14-.22.05-.08.11-.16.16-.23.1-.13.2-.26.31-.38.09-.1.18-.21.28-.31.02-.02.05-.05.07-.08.02-.02.03-.03.05-.05l.03-.03s.09-.09.14-.13l.07-.06.21-.18c.07-.06.15-.11.22-.17l.06-.04s.02-.01.03-.02c0,0,.02-.01.03-.02,0,0,0,0,0,0t0,0s.04-.03.06-.04c.02-.01.03-.03.05-.04.04-.03.08-.05.12-.08.19-.13.39-.24.59-.35.12-.06.24-.12.36-.18.12-.05.25-.11.37-.15.06-.03.13-.05.19-.07.11-.04.22-.07.33-.1h0s.07-.02.1-.03c.04-.01.08-.02.11-.03,0,0,0,0,.01,0,.02,0,.04-.01.07-.02.02,0,.05-.01.07-.02,0,0,.01,0,.02,0,.05,0,.1-.02.16-.03l.09-.02c.06-.01.12-.02.19-.03.02,0,.04,0,.06-.01.03,0,.05,0,.08-.01h.11s.08-.02.08-.02c.07,0,.14-.01.2-.02h.07c.08-.01.15-.01.23-.02.07,0,.14,0,.21,0,.02,0,.05,0,.07,0,.03,0,.07,0,.11,0,.04,0,.07,0,.11,0,.22,0,.44.02.65.05,0,0,.02,0,.02,0,.06,0,.12.02.18.03.02,0,.05,0,.07.01.05,0,.11.02.17.03.08.01.15.03.23.05,0,0,.02,0,.02,0,.07.02.14.03.22.05.09.02.19.05.28.08,0,0,.01,0,.02,0,.09.03.18.06.26.09,0,0,0,0,.01,0,.09.03.17.07.26.1.09.03.18.07.27.11.09.04.17.08.26.13.02,0,.04.02.06.03.02.01.04.02.06.03.04.02.08.04.12.07,0,0,0,0,.01,0,0,0,0,0,0,0,.05.03.1.06.15.09.01,0,.03.01.04.02.05.03.1.06.15.09.03.02.06.04.08.06.05.03.1.06.15.1.03.02.06.04.1.07,0,0,.02,0,.02.02.08.06.16.12.24.18,0,0,.01.01.02.01.09.07.18.15.26.23.09.08.17.16.26.24l.11.11,2.7,2.7,3.75,3.75,10.28,10.28c.53.53.96,1.12,1.28,1.76,1.31,2.59.89,5.83-1.28,8Z"/>
    <path class="cls-1" d="m58.01,59.47c-2.17-2.17-5.06-3.37-8.13-3.37-1.49,0-2.94.28-4.28.82l-2.33,8.68s.01-.05.03-.08c.02-.07.04-.14.07-.2.02-.07.05-.13.07-.2,0,0,0,0,0,0,.02-.04.03-.09.05-.13,0-.02.02-.05.03-.07h0s0,0,0,0c0-.03.02-.05.03-.08,0-.02.02-.05.03-.07,0-.02.01-.03.02-.05.02-.06.05-.11.08-.17h0s0,0,0-.01c.01-.03.02-.05.04-.07,0-.02.02-.05.04-.07,0,0,0,0,0-.01,0-.02.02-.04.03-.06.03-.05.06-.1.09-.16.03-.06.07-.12.11-.18,0,0,0-.02.02-.03.04-.07.09-.15.14-.22.05-.08.1-.15.16-.23.09-.13.2-.26.31-.38.09-.1.18-.21.28-.31.02-.02.05-.05.07-.08.02-.02.03-.03.05-.05l.03-.03s.09-.09.14-.13c.02-.02.04-.04.07-.06l.21-.18c.07-.06.14-.12.22-.17l.06-.04s.02-.01.03-.02c0,0,.02-.01.03-.02,0,0,0,0,0,0t0,0s.08-.06.12-.09c.04-.03.08-.05.12-.08.19-.13.39-.24.59-.35.12-.06.24-.12.36-.18.08-.04.17-.07.25-.11.1-.04.21-.08.31-.12.11-.04.22-.07.33-.1.04,0,.07-.02.11-.03.04-.01.08-.02.11-.03,0,0,0,0,.01,0,.02,0,.04-.01.07-.02.02,0,.05-.01.07-.02,0,0,.01,0,.02,0,.05,0,.1-.02.16-.03l.09-.02c.08-.02.16-.03.24-.04.03,0,.05,0,.08-.01h.11s.08-.02.08-.02c.07-.01.14-.02.2-.02h.07c.08-.01.15-.01.23-.02.07,0,.14,0,.21,0,.02,0,.05,0,.07,0,.03,0,.07,0,.11,0,.04,0,.07,0,.11,0,.22,0,.44.02.65.05,0,0,.02,0,.02,0,.06,0,.12.02.18.03.02,0,.05,0,.07.01.05,0,.11.02.17.03.25.05.5.11.75.19,0,0,.01,0,.02,0,.09.02.18.05.26.09,0,0,0,0,.01,0,.09.03.18.06.26.1.09.03.18.07.27.11.09.04.17.08.26.13.02,0,.04.02.06.03.02.01.04.02.06.03.04.02.08.04.12.07,0,0,0,0,.01,0,0,0,0,0,0,0,.05.03.1.06.15.09.01,0,.03.01.04.02.05.03.1.06.15.09.03.02.06.04.08.06.05.03.1.06.15.1.03.02.06.04.1.07,0,0,.02.01.02.02.08.06.16.12.24.18,0,0,.01.01.02.01.09.07.18.15.26.23.09.08.17.16.26.24l.11.11,2.7,2.7,1.37-5.13-.94-.94Zm14.87,21.85c1.31,2.59.89,5.83-1.28,8-.17.17-.34.33-.52.47-.14.12-.29.23-.44.33-.32.23-.66.42-1.01.58-.11.05-.23.1-.35.15-.15.06-.31.12-.47.17-.23.07-.47.13-.71.18-.24.05-.48.08-.73.11-.22.02-.43.03-.65.03s-.43,0-.65-.03c-.24-.02-.48-.06-.73-.11-.24-.05-.48-.11-.71-.18-.16-.05-.31-.11-.47-.17-.12-.05-.23-.1-.35-.15-.35-.16-.69-.36-1.01-.58-.15-.1-.3-.21-.44-.33-.18-.15-.36-.31-.52-.47l-1.79-1.79v6.28c1.93,1.39,4.24,2.13,6.67,2.13,2.62,0,5.1-.87,7.12-2.47v-8.61c0-1.29-.36-2.5-.97-3.53Z"/>
  </g>
  <path class="cls-1" d="m64.53,39.59l-3.84,14.33-5.71-8.15-2.76-3.95c-2.19-3.12-1.43-7.42,1.69-9.61,1.13-.79,2.41-1.2,3.69-1.24h.03c.07,0,.15,0,.22,0,2.18,0,4.32,1.03,5.66,2.94l.34.49s0,0,0,.01c0,0,0,0,0,0,.06.11.12.22.18.34.03.05.05.1.07.16.02.03.03.06.04.09,0,0,0,.02.01.03.02.05.04.1.06.15.21.52.37,1.07.44,1.63,0,.05.01.1.02.15,0,.06.01.13.02.19,0,.06,0,.13.01.2,0,.14.01.29.01.44,0,.1,0,.2,0,.3,0,.12-.01.25-.02.37-.02.22-.05.45-.1.67-.03.15-.06.3-.1.45Z"/>
  <path class="cls-1" d="m109,67.44c-.99,3.68-4.77,5.86-8.45,4.88l-29.31-7.85-1.11-.3c-.2-.05-.39-.11-.59-.18,0,0,0,0,0,0-1.43-.43-2.73-1.33-3.65-2.64l-1.75-2.5.62-2.31.54-2,3.51-13.09,6.86,9.8.11.16.2.05,28.16,7.55c3.68.99,5.86,4.77,4.88,8.45Z"/>
  <g>
    <path class="cls-1" d="m73.85,84.85v31.5c0,3.81-3.09,6.9-6.9,6.9s-6.9-3.09-6.9-6.9v-28.82l-6.6-6.6-1.95-1.95-6.38-6.38-.12-.12c-.17-.17-.33-.34-.47-.52h0c-.06-.08-.13-.16-.19-.25-.04-.06-.09-.11-.12-.17-.05-.07-.1-.15-.15-.22-.12-.19-.24-.39-.34-.6-.05-.1-.1-.21-.15-.31-.05-.11-.09-.21-.13-.32,0,0,0,0,0-.02-.03-.08-.06-.17-.09-.25-.03-.09-.06-.18-.08-.26-.05-.17-.09-.33-.13-.5,0-.02,0-.04-.01-.05-.02-.09-.03-.17-.05-.26-.01-.08-.03-.16-.04-.24,0-.04-.01-.09-.01-.13,0-.05,0-.1-.01-.16,0-.04,0-.07,0-.11,0-.07,0-.14-.01-.2,0-.05,0-.09,0-.14,0-.12,0-.25,0-.37,0-.22.02-.45.05-.67,0-.07.02-.15.03-.23.02-.15.05-.3.09-.45.02-.07.04-.15.06-.22l.05-.18s0-.02,0-.03l2.33-8.68,2.5-9.31,3.11-11.59c.41-1.54,1.32-2.82,2.5-3.71.3-.22.61-.42.93-.6.23-.12.46-.23.7-.32h0s.04-.02.06-.02c.17-.07.35-.13.53-.18.16-.05.33-.09.49-.12.03,0,.06-.01.09-.02.06-.01.13-.02.2-.04.06-.01.13-.02.2-.03.05,0,.09-.01.14-.02.09-.01.17-.02.26-.03.48-.04.97-.03,1.46.03.3.04.6.1.9.18,1.86.5,3.33,1.71,4.21,3.26,0,0,0,0,0,.01,0,0,0,0,0,0,.06.11.12.22.18.34.03.05.05.1.07.16.02.03.03.06.04.09,0,0,0,.02.01.03.02.05.04.1.06.15.21.52.37,1.07.44,1.63,0,.05.01.1.02.15,0,.06.01.13.02.19,0,.06,0,.13.01.2,0,.14.01.29.01.44,0,.1,0,.2,0,.3,0,.12-.01.25-.02.37-.02.22-.05.45-.1.67-.03.15-.06.3-.1.45l-3.84,14.33-1.74,6.5-1.37,5.13,3.75,3.75,10.28,10.28c.53.53.96,1.12,1.28,1.76.62,1.03.97,2.24.97,3.53Z"/>
    <path class="cls-1" d="m40.85,74.69s0-.01-.02-.02c0,0,.01.01.01.02.06.07.11.14.18.21-.06-.07-.12-.14-.17-.21Zm2.15-7.31c0-.22.02-.45.05-.67-.03.22-.05.45-.05.67Zm.15,1.66c.03.17.08.34.13.5-.05-.17-.09-.33-.13-.5Zm.03-3.05s0,.03,0,.04c.02-.07.04-.15.06-.22l.05-.18c-.04.12-.07.24-.1.36Zm.56,4.72c.1.2.22.4.34.6-.12-.19-.24-.39-.34-.6Zm3.46-37.14c-.16.41-.3.83-.42,1.26l-3.79,14.15,5.12-1.37,3.11-11.59c.41-1.54,1.32-2.82,2.5-3.71.3-.22.61-.42.93-.6.23-.12.46-.23.7-.32l-8.14,2.18Z"/>
  </g>
  <circle class="cls-1" cx="63.74" cy="15.92" r="11.16"/>
  <path class="cls-1" d="m64.7,37.87c0,3.04-2.03,5.83-5.11,6.66l-4.61,1.23-6.88,1.84-5.12,1.37-2.73.73-3.67.98c-3.68.99-7.46-1.2-8.45-4.88-.98-3.68,1.19-7.45,4.86-8.44,0,0,0,0,.02,0l14.17-3.8,8.14-2.18h0l.69-.18c.53-.14,1.07-.22,1.59-.23h.03c3.11-.07,5.98,1.98,6.82,5.11.16.6.24,1.2.24,1.79Z"/>
  <rect class="cls-1" x="23.65" y="36.64" width="13.8" height="45.29" rx="6.9" ry="6.9" transform="translate(16.39 -5.89) rotate(15)"/>
  <path class="cls-1" d="m42.99,67.38c0-.22.02-.45.05-.67-.03.22-.05.45-.05.67Z"/>
  <path class="cls-1" d="m43.14,69.05c.03.17.08.34.13.5-.05-.17-.09-.33-.13-.5Z"/>
  <path class="cls-1" d="m43.18,65.99c.03-.12.06-.24.1-.36l-.05.18c-.02.07-.04.15-.06.22,0-.01,0-.03,0-.04Z"/>
  <path class="cls-1" d="m43.73,70.71c.1.21.22.4.34.6-.13-.19-.24-.39-.34-.6Z"/>
  <path class="cls-1" d="m51.06,74.39c.17-.03.34-.06.5-.11-.17.04-.34.08-.5.11Z"/>
  <path class="cls-1" d="m53.83,73.26c.3-.21.59-.45.86-.71-.27.26-.55.5-.86.71Z"/>
  <path class="cls-1" d="m56.27,70.22c-.07.18-.15.36-.24.53.09-.17.17-.35.24-.53Z"/>
</svg>